%TF.GenerationSoftware,KiCad,Pcbnew,9.0.6*%
%TF.CreationDate,2026-08-20T21:10:04+09:00*%
%TF.ProjectId,SplitChoc64_RIGHT,53706c69-7443-4686-9f63-36345f524947,rev?*%
%TF.SameCoordinates,Original*%
%TF.FileFunction,Soldermask,Top*%
%TF.FilePolarity,Negative*%
%FSLAX46Y46*%
G04 Gerber Fmt 4.6, Leading zero omitted, Abs format (unit mm)*
G04 Created by KiCad (PCBNEW 9.0.6) date 2026-08-20 21:10:04*
%MOMM*%
%LPD*%
G01*
G04 APERTURE LIST*
%ADD10C,1.701800*%
%ADD11C,3.000000*%
%ADD12C,5.000000*%
%ADD13C,2.200000*%
%ADD14O,4.200000X2.600000*%
%ADD15C,0.900000*%
%ADD16R,1.100000X1.100000*%
%ADD17C,1.100000*%
G04 APERTURE END LIST*
D10*
%TO.C,SWR13*%
X243363000Y-49575000D03*
D11*
X243863000Y-53375000D03*
D12*
X248863000Y-49575000D03*
D11*
X248863000Y-55475000D03*
D10*
X254363000Y-49575000D03*
%TD*%
%TO.C,SWR25*%
X200501000Y-87675000D03*
D11*
X201001000Y-91475000D03*
D12*
X206001000Y-87675000D03*
D11*
X206001000Y-93575000D03*
D10*
X211501000Y-87675000D03*
%TD*%
%TO.C,SWR19*%
X210026000Y-68625000D03*
D11*
X210526000Y-72425000D03*
D12*
X215526000Y-68625000D03*
D11*
X215526000Y-74525000D03*
D10*
X221026000Y-68625000D03*
%TD*%
%TO.C,SWR2*%
X176688000Y-30525000D03*
D11*
X177188000Y-34325000D03*
D12*
X182188000Y-30525000D03*
D11*
X182188000Y-36425000D03*
D10*
X187688000Y-30525000D03*
%TD*%
%TO.C,SWR3*%
X195738000Y-30525000D03*
D11*
X196238000Y-34325000D03*
D12*
X201238000Y-30525000D03*
D11*
X201238000Y-36425000D03*
D10*
X206738000Y-30525000D03*
%TD*%
%TO.C,SWR31*%
X225788000Y-106725000D03*
D11*
X225288000Y-102925000D03*
D12*
X220288000Y-106725000D03*
D11*
X220288000Y-100825000D03*
D10*
X214788000Y-106725000D03*
%TD*%
%TO.C,SWR17*%
X171925000Y-68625000D03*
D11*
X172425000Y-72425000D03*
D12*
X177425000Y-68625000D03*
D11*
X177425000Y-74525000D03*
D10*
X182925000Y-68625000D03*
%TD*%
%TO.C,SWR34*%
X283844000Y-106725000D03*
D11*
X284344000Y-110525000D03*
D12*
X289344000Y-106725000D03*
D11*
X289344000Y-112625000D03*
D10*
X294844000Y-106725000D03*
%TD*%
%TO.C,SWR4*%
X214788000Y-30525000D03*
D11*
X215288000Y-34325000D03*
D12*
X220288000Y-30525000D03*
D11*
X220288000Y-36425000D03*
D10*
X225788000Y-30525000D03*
%TD*%
%TO.C,SWR9*%
X167163000Y-49575000D03*
D11*
X167663000Y-53375000D03*
D12*
X172663000Y-49575000D03*
D11*
X172663000Y-55475000D03*
D10*
X178163000Y-49575000D03*
%TD*%
%TO.C,SWR28*%
X257651000Y-87675000D03*
D11*
X258151000Y-91475000D03*
D12*
X263151000Y-87675000D03*
D11*
X263151000Y-93575000D03*
D10*
X268651000Y-87675000D03*
%TD*%
%TO.C,SWR20*%
X229076000Y-68625000D03*
D11*
X229576000Y-72425000D03*
D12*
X234576000Y-68625000D03*
D11*
X234576000Y-74525000D03*
D10*
X240076000Y-68625000D03*
%TD*%
%TO.C,SWR29*%
X293369000Y-87675000D03*
D11*
X293869000Y-91475000D03*
D12*
X298869000Y-87675000D03*
D11*
X298869000Y-93575000D03*
D10*
X304369000Y-87675000D03*
%TD*%
%TO.C,SWR8*%
X300513000Y-30525000D03*
D11*
X301013000Y-34325000D03*
D12*
X306013000Y-30525000D03*
D11*
X306013000Y-36425000D03*
D10*
X311513000Y-30525000D03*
%TD*%
%TO.C,SWR23*%
X298132000Y-68625000D03*
D11*
X298632000Y-72425000D03*
D12*
X303632000Y-68625000D03*
D11*
X303632000Y-74525000D03*
D10*
X309132000Y-68625000D03*
%TD*%
%TO.C,SWR33*%
X260032000Y-106725000D03*
D11*
X260532000Y-110525000D03*
D12*
X265532000Y-106725000D03*
D11*
X265532000Y-112625000D03*
D10*
X271032000Y-106725000D03*
%TD*%
D13*
%TO.C,R_H3*%
X324063000Y-24000000D03*
%TD*%
D10*
%TO.C,SWR1*%
X157638000Y-30525000D03*
D11*
X158138000Y-34325000D03*
D12*
X163138000Y-30525000D03*
D11*
X163138000Y-36425000D03*
D10*
X168638000Y-30525000D03*
%TD*%
D13*
%TO.C,R_H4*%
X324063000Y-113250000D03*
%TD*%
D10*
%TO.C,SWR35*%
X307657000Y-106725000D03*
D11*
X308157000Y-110525000D03*
D12*
X313157000Y-106725000D03*
D11*
X313157000Y-112625000D03*
D10*
X318657000Y-106725000D03*
%TD*%
%TO.C,SWR15*%
X281463000Y-49575000D03*
D11*
X281963000Y-53375000D03*
D12*
X286963000Y-49575000D03*
D11*
X286963000Y-55475000D03*
D10*
X292463000Y-49575000D03*
%TD*%
%TO.C,SWR21*%
X248126000Y-68625000D03*
D11*
X248626000Y-72425000D03*
D12*
X253626000Y-68625000D03*
D11*
X253626000Y-74525000D03*
D10*
X259126000Y-68625000D03*
%TD*%
%TO.C,SWR12*%
X224313000Y-49575000D03*
D11*
X224813000Y-53375000D03*
D12*
X229813000Y-49575000D03*
D11*
X229813000Y-55475000D03*
D10*
X235313000Y-49575000D03*
%TD*%
%TO.C,SWR18*%
X190976000Y-68625000D03*
D11*
X191476000Y-72425000D03*
D12*
X196476000Y-68625000D03*
D11*
X196476000Y-74525000D03*
D10*
X201976000Y-68625000D03*
%TD*%
%TO.C,SWR22*%
X267175000Y-68625000D03*
D11*
X267675000Y-72425000D03*
D12*
X272675000Y-68625000D03*
D11*
X272675000Y-74525000D03*
D10*
X278175000Y-68625000D03*
%TD*%
%TO.C,SWR5*%
X233838000Y-30525000D03*
D11*
X234338000Y-34325000D03*
D12*
X239338000Y-30525000D03*
D11*
X239338000Y-36425000D03*
D10*
X244838000Y-30525000D03*
%TD*%
%TO.C,SWR6*%
X252888000Y-30525000D03*
D11*
X253388000Y-34325000D03*
D12*
X258388000Y-30525000D03*
D11*
X258388000Y-36425000D03*
D10*
X263888000Y-30525000D03*
%TD*%
D13*
%TO.C,R_H2*%
X174063000Y-113250000D03*
%TD*%
D10*
%TO.C,SWR30*%
X183832000Y-106725000D03*
D11*
X184332000Y-110525000D03*
D12*
X189332000Y-106725000D03*
D11*
X189332000Y-112625000D03*
D10*
X194832000Y-106725000D03*
%TD*%
%TO.C,SWR27*%
X238600000Y-87675000D03*
D11*
X239100000Y-91475000D03*
D12*
X244100000Y-87675000D03*
D11*
X244100000Y-93575000D03*
D10*
X249600000Y-87675000D03*
%TD*%
%TO.C,SWR32*%
X236219000Y-106725000D03*
D11*
X236719000Y-110525000D03*
D12*
X241719000Y-106725000D03*
D11*
X241719000Y-112625000D03*
D10*
X247219000Y-106725000D03*
%TD*%
%TO.C,SWR16*%
X305275000Y-49575000D03*
D11*
X305775000Y-53375000D03*
D12*
X310775000Y-49575000D03*
D11*
X310775000Y-55475000D03*
D10*
X316275000Y-49575000D03*
%TD*%
%TO.C,SWR24*%
X181450000Y-87675000D03*
D11*
X181950000Y-91475000D03*
D12*
X186950000Y-87675000D03*
D11*
X186950000Y-93575000D03*
D10*
X192450000Y-87675000D03*
%TD*%
%TO.C,SWR11*%
X205263000Y-49575000D03*
D11*
X205763000Y-53375000D03*
D12*
X210763000Y-49575000D03*
D11*
X210763000Y-55475000D03*
D10*
X216263000Y-49575000D03*
%TD*%
%TO.C,SWR10*%
X186213000Y-49575000D03*
D11*
X186713000Y-53375000D03*
D12*
X191713000Y-49575000D03*
D11*
X191713000Y-55475000D03*
D10*
X197213000Y-49575000D03*
%TD*%
D13*
%TO.C,R_H1*%
X172563000Y-24000000D03*
%TD*%
D10*
%TO.C,SWR26*%
X219551000Y-87675000D03*
D11*
X220051000Y-91475000D03*
D12*
X225051000Y-87675000D03*
D11*
X225051000Y-93575000D03*
D10*
X230551000Y-87675000D03*
%TD*%
%TO.C,SWR14*%
X262413000Y-49575000D03*
D11*
X262913000Y-53375000D03*
D12*
X267913000Y-49575000D03*
D11*
X267913000Y-55475000D03*
D10*
X273413000Y-49575000D03*
%TD*%
%TO.C,SWR7*%
X271938000Y-30525000D03*
D11*
X272438000Y-34325000D03*
D12*
X277438000Y-30525000D03*
D11*
X277438000Y-36425000D03*
D10*
X282938000Y-30525000D03*
%TD*%
D14*
%TO.C,U2*%
X314295180Y-86081012D03*
X314295180Y-89281010D03*
%TD*%
D15*
%TO.C,SWP2*%
X328563000Y-67125000D03*
X328563000Y-70125000D03*
%TD*%
D16*
%TO.C,J4*%
X183803000Y-116000000D03*
D17*
X185073000Y-116000000D03*
X186343000Y-116000000D03*
X187613000Y-116000000D03*
X188883000Y-116000000D03*
X190153000Y-116000000D03*
X191423000Y-116000000D03*
%TD*%
M02*
