%TF.GenerationSoftware,KiCad,Pcbnew,9.0.6*%
%TF.CreationDate,2026-08-20T21:10:04+09:00*%
%TF.ProjectId,SplitChoc64_RIGHT,53706c69-7443-4686-9f63-36345f524947,rev?*%
%TF.SameCoordinates,Original*%
%TF.FileFunction,Soldermask,Bot*%
%TF.FilePolarity,Negative*%
%FSLAX46Y46*%
G04 Gerber Fmt 4.6, Leading zero omitted, Abs format (unit mm)*
G04 Created by KiCad (PCBNEW 9.0.6) date 2026-08-20 21:10:04*
%MOMM*%
%LPD*%
G01*
G04 APERTURE LIST*
G04 Aperture macros list*
%AMRoundRect*
0 Rectangle with rounded corners*
0 $1 Rounding radius*
0 $2 $3 $4 $5 $6 $7 $8 $9 X,Y pos of 4 corners*
0 Add a 4 corners polygon primitive as box body*
4,1,4,$2,$3,$4,$5,$6,$7,$8,$9,$2,$3,0*
0 Add four circle primitives for the rounded corners*
1,1,$1+$1,$2,$3*
1,1,$1+$1,$4,$5*
1,1,$1+$1,$6,$7*
1,1,$1+$1,$8,$9*
0 Add four rect primitives between the rounded corners*
20,1,$1+$1,$2,$3,$4,$5,0*
20,1,$1+$1,$4,$5,$6,$7,0*
20,1,$1+$1,$6,$7,$8,$9,0*
20,1,$1+$1,$8,$9,$2,$3,0*%
%AMFreePoly0*
4,1,15,-0.616000,0.142500,-0.283500,0.475000,0.521000,0.475000,0.557355,0.467769,0.588175,0.447175,0.608769,0.416355,0.616000,0.380000,0.616000,-0.380000,0.608769,-0.416355,0.588175,-0.447175,0.557355,-0.467769,0.521000,-0.475000,-0.283500,-0.475000,-0.616000,-0.142500,-0.616000,0.142500,-0.616000,0.142500,$1*%
G04 Aperture macros list end*
%ADD10C,1.701800*%
%ADD11C,3.000000*%
%ADD12C,5.000000*%
%ADD13C,1.650000*%
%ADD14RoundRect,0.520000X-0.780000X-0.780000X0.780000X-0.780000X0.780000X0.780000X-0.780000X0.780000X0*%
%ADD15C,2.200000*%
%ADD16RoundRect,0.200000X0.400000X0.300000X-0.400000X0.300000X-0.400000X-0.300000X0.400000X-0.300000X0*%
%ADD17RoundRect,0.090000X-0.210000X-0.610000X0.210000X-0.610000X0.210000X0.610000X-0.210000X0.610000X0*%
%ADD18R,1.200000X1.600000*%
%ADD19RoundRect,0.095000X0.380000X-0.921000X0.380000X0.921000X-0.380000X0.921000X-0.380000X-0.921000X0*%
%ADD20RoundRect,0.095000X-0.380000X0.921000X-0.380000X-0.921000X0.380000X-0.921000X0.380000X0.921000X0*%
%ADD21FreePoly0,90.000000*%
%ADD22FreePoly0,270.000000*%
%ADD23C,1.700000*%
%ADD24O,4.200000X2.600000*%
%ADD25RoundRect,0.190000X0.285000X0.285000X-0.285000X0.285000X-0.285000X-0.285000X0.285000X-0.285000X0*%
%ADD26RoundRect,0.160000X0.290000X-0.240000X0.290000X0.240000X-0.290000X0.240000X-0.290000X-0.240000X0*%
%ADD27C,0.900000*%
%ADD28RoundRect,0.102000X0.750000X-0.350000X0.750000X0.350000X-0.750000X0.350000X-0.750000X-0.350000X0*%
%ADD29RoundRect,0.102000X-0.500000X-0.400000X0.500000X-0.400000X0.500000X0.400000X-0.500000X0.400000X0*%
%ADD30R,1.100000X1.100000*%
%ADD31C,1.100000*%
G04 APERTURE END LIST*
D10*
%TO.C,SWR13*%
X243363000Y-49575000D03*
D11*
X243863000Y-53375000D03*
D12*
X248863000Y-49575000D03*
D11*
X248863000Y-55475000D03*
D13*
X253863000Y-44425000D03*
D10*
X254363000Y-49575000D03*
D14*
X252563000Y-55475000D03*
X240163000Y-53375000D03*
%TD*%
D10*
%TO.C,SWR25*%
X200501000Y-87675000D03*
D11*
X201001000Y-91475000D03*
D12*
X206001000Y-87675000D03*
D11*
X206001000Y-93575000D03*
D13*
X211001000Y-82525000D03*
D10*
X211501000Y-87675000D03*
D14*
X209701000Y-93575000D03*
X197301000Y-91475000D03*
%TD*%
D10*
%TO.C,SWR19*%
X210026000Y-68625000D03*
D11*
X210526000Y-72425000D03*
D12*
X215526000Y-68625000D03*
D11*
X215526000Y-74525000D03*
D13*
X220526000Y-63475000D03*
D10*
X221026000Y-68625000D03*
D14*
X219226000Y-74525000D03*
X206826000Y-72425000D03*
%TD*%
D10*
%TO.C,SWR2*%
X176688000Y-30525000D03*
D11*
X177188000Y-34325000D03*
D12*
X182188000Y-30525000D03*
D11*
X182188000Y-36425000D03*
D13*
X187188000Y-25375000D03*
D10*
X187688000Y-30525000D03*
D14*
X185888000Y-36425000D03*
X173488000Y-34325000D03*
%TD*%
D10*
%TO.C,SWR3*%
X195738000Y-30525000D03*
D11*
X196238000Y-34325000D03*
D12*
X201238000Y-30525000D03*
D11*
X201238000Y-36425000D03*
D13*
X206238000Y-25375000D03*
D10*
X206738000Y-30525000D03*
D14*
X204938000Y-36425000D03*
X192538000Y-34325000D03*
%TD*%
D10*
%TO.C,SWR31*%
X225788000Y-106725000D03*
D11*
X225288000Y-102925000D03*
D12*
X220288000Y-106725000D03*
D11*
X220288000Y-100825000D03*
D13*
X215288000Y-111875000D03*
D10*
X214788000Y-106725000D03*
D14*
X216588000Y-100825000D03*
X228988000Y-102925000D03*
%TD*%
D10*
%TO.C,SWR17*%
X171925000Y-68625000D03*
D11*
X172425000Y-72425000D03*
D12*
X177425000Y-68625000D03*
D11*
X177425000Y-74525000D03*
D13*
X182425000Y-63475000D03*
D10*
X182925000Y-68625000D03*
D14*
X181125000Y-74525000D03*
X168725000Y-72425000D03*
%TD*%
D10*
%TO.C,SWR34*%
X283844000Y-106725000D03*
D11*
X284344000Y-110525000D03*
D12*
X289344000Y-106725000D03*
D11*
X289344000Y-112625000D03*
D13*
X294344000Y-101575000D03*
D10*
X294844000Y-106725000D03*
D14*
X293044000Y-112625000D03*
X280644000Y-110525000D03*
%TD*%
D10*
%TO.C,SWR4*%
X214788000Y-30525000D03*
D11*
X215288000Y-34325000D03*
D12*
X220288000Y-30525000D03*
D11*
X220288000Y-36425000D03*
D13*
X225288000Y-25375000D03*
D10*
X225788000Y-30525000D03*
D14*
X223988000Y-36425000D03*
X211588000Y-34325000D03*
%TD*%
D10*
%TO.C,SWR9*%
X167163000Y-49575000D03*
D11*
X167663000Y-53375000D03*
D12*
X172663000Y-49575000D03*
D11*
X172663000Y-55475000D03*
D13*
X177663000Y-44425000D03*
D10*
X178163000Y-49575000D03*
D14*
X176363000Y-55475000D03*
X163963000Y-53375000D03*
%TD*%
D10*
%TO.C,SWR28*%
X257651000Y-87675000D03*
D11*
X258151000Y-91475000D03*
D12*
X263151000Y-87675000D03*
D11*
X263151000Y-93575000D03*
D13*
X268151000Y-82525000D03*
D10*
X268651000Y-87675000D03*
D14*
X266851000Y-93575000D03*
X254451000Y-91475000D03*
%TD*%
D10*
%TO.C,SWR20*%
X229076000Y-68625000D03*
D11*
X229576000Y-72425000D03*
D12*
X234576000Y-68625000D03*
D11*
X234576000Y-74525000D03*
D13*
X239576000Y-63475000D03*
D10*
X240076000Y-68625000D03*
D14*
X238276000Y-74525000D03*
X225876000Y-72425000D03*
%TD*%
D10*
%TO.C,SWR29*%
X293369000Y-87675000D03*
D11*
X293869000Y-91475000D03*
D12*
X298869000Y-87675000D03*
D11*
X298869000Y-93575000D03*
D13*
X303869000Y-82525000D03*
D10*
X304369000Y-87675000D03*
D14*
X302569000Y-93575000D03*
X290169000Y-91475000D03*
%TD*%
D10*
%TO.C,SWR8*%
X300513000Y-30525000D03*
D11*
X301013000Y-34325000D03*
D12*
X306013000Y-30525000D03*
D11*
X306013000Y-36425000D03*
D13*
X311013000Y-25375000D03*
D10*
X311513000Y-30525000D03*
D14*
X309713000Y-36425000D03*
X297313000Y-34325000D03*
%TD*%
D10*
%TO.C,SWR23*%
X298132000Y-68625000D03*
D11*
X298632000Y-72425000D03*
D12*
X303632000Y-68625000D03*
D11*
X303632000Y-74525000D03*
D13*
X308632000Y-63475000D03*
D10*
X309132000Y-68625000D03*
D14*
X307332000Y-74525000D03*
X294932000Y-72425000D03*
%TD*%
D10*
%TO.C,SWR33*%
X260032000Y-106725000D03*
D11*
X260532000Y-110525000D03*
D12*
X265532000Y-106725000D03*
D11*
X265532000Y-112625000D03*
D13*
X270532000Y-101575000D03*
D10*
X271032000Y-106725000D03*
D14*
X269232000Y-112625000D03*
X256832000Y-110525000D03*
%TD*%
D15*
%TO.C,R_H3*%
X324063000Y-24000000D03*
%TD*%
D10*
%TO.C,SWR1*%
X157638000Y-30525000D03*
D11*
X158138000Y-34325000D03*
D12*
X163138000Y-30525000D03*
D11*
X163138000Y-36425000D03*
D13*
X168138000Y-25375000D03*
D10*
X168638000Y-30525000D03*
D14*
X166838000Y-36425000D03*
X154438000Y-34325000D03*
%TD*%
D15*
%TO.C,R_H4*%
X324063000Y-113250000D03*
%TD*%
D10*
%TO.C,SWR35*%
X307657000Y-106725000D03*
D11*
X308157000Y-110525000D03*
D12*
X313157000Y-106725000D03*
D11*
X313157000Y-112625000D03*
D13*
X318157000Y-101575000D03*
D10*
X318657000Y-106725000D03*
D14*
X316857000Y-112625000D03*
X304457000Y-110525000D03*
%TD*%
D10*
%TO.C,SWR15*%
X281463000Y-49575000D03*
D11*
X281963000Y-53375000D03*
D12*
X286963000Y-49575000D03*
D11*
X286963000Y-55475000D03*
D13*
X291963000Y-44425000D03*
D10*
X292463000Y-49575000D03*
D14*
X290663000Y-55475000D03*
X278263000Y-53375000D03*
%TD*%
D10*
%TO.C,SWR21*%
X248126000Y-68625000D03*
D11*
X248626000Y-72425000D03*
D12*
X253626000Y-68625000D03*
D11*
X253626000Y-74525000D03*
D13*
X258626000Y-63475000D03*
D10*
X259126000Y-68625000D03*
D14*
X257326000Y-74525000D03*
X244926000Y-72425000D03*
%TD*%
D10*
%TO.C,SWR12*%
X224313000Y-49575000D03*
D11*
X224813000Y-53375000D03*
D12*
X229813000Y-49575000D03*
D11*
X229813000Y-55475000D03*
D13*
X234813000Y-44425000D03*
D10*
X235313000Y-49575000D03*
D14*
X233513000Y-55475000D03*
X221113000Y-53375000D03*
%TD*%
D10*
%TO.C,SWR18*%
X190976000Y-68625000D03*
D11*
X191476000Y-72425000D03*
D12*
X196476000Y-68625000D03*
D11*
X196476000Y-74525000D03*
D13*
X201476000Y-63475000D03*
D10*
X201976000Y-68625000D03*
D14*
X200176000Y-74525000D03*
X187776000Y-72425000D03*
%TD*%
D10*
%TO.C,SWR22*%
X267175000Y-68625000D03*
D11*
X267675000Y-72425000D03*
D12*
X272675000Y-68625000D03*
D11*
X272675000Y-74525000D03*
D13*
X277675000Y-63475000D03*
D10*
X278175000Y-68625000D03*
D14*
X276375000Y-74525000D03*
X263975000Y-72425000D03*
%TD*%
D10*
%TO.C,SWR5*%
X233838000Y-30525000D03*
D11*
X234338000Y-34325000D03*
D12*
X239338000Y-30525000D03*
D11*
X239338000Y-36425000D03*
D13*
X244338000Y-25375000D03*
D10*
X244838000Y-30525000D03*
D14*
X243038000Y-36425000D03*
X230638000Y-34325000D03*
%TD*%
D10*
%TO.C,SWR6*%
X252888000Y-30525000D03*
D11*
X253388000Y-34325000D03*
D12*
X258388000Y-30525000D03*
D11*
X258388000Y-36425000D03*
D13*
X263388000Y-25375000D03*
D10*
X263888000Y-30525000D03*
D14*
X262088000Y-36425000D03*
X249688000Y-34325000D03*
%TD*%
D15*
%TO.C,R_H2*%
X174063000Y-113250000D03*
%TD*%
D10*
%TO.C,SWR30*%
X183832000Y-106725000D03*
D11*
X184332000Y-110525000D03*
D12*
X189332000Y-106725000D03*
D11*
X189332000Y-112625000D03*
D13*
X194332000Y-101575000D03*
D10*
X194832000Y-106725000D03*
D14*
X193032000Y-112625000D03*
X180632000Y-110525000D03*
%TD*%
D10*
%TO.C,SWR27*%
X238600000Y-87675000D03*
D11*
X239100000Y-91475000D03*
D12*
X244100000Y-87675000D03*
D11*
X244100000Y-93575000D03*
D13*
X249100000Y-82525000D03*
D10*
X249600000Y-87675000D03*
D14*
X247800000Y-93575000D03*
X235400000Y-91475000D03*
%TD*%
D10*
%TO.C,SWR32*%
X236219000Y-106725000D03*
D11*
X236719000Y-110525000D03*
D12*
X241719000Y-106725000D03*
D11*
X241719000Y-112625000D03*
D13*
X246719000Y-101575000D03*
D10*
X247219000Y-106725000D03*
D14*
X245419000Y-112625000D03*
X233019000Y-110525000D03*
%TD*%
D10*
%TO.C,SWR16*%
X305275000Y-49575000D03*
D11*
X305775000Y-53375000D03*
D12*
X310775000Y-49575000D03*
D11*
X310775000Y-55475000D03*
D13*
X315775000Y-44425000D03*
D10*
X316275000Y-49575000D03*
D14*
X314475000Y-55475000D03*
X302075000Y-53375000D03*
%TD*%
D10*
%TO.C,SWR24*%
X181450000Y-87675000D03*
D11*
X181950000Y-91475000D03*
D12*
X186950000Y-87675000D03*
D11*
X186950000Y-93575000D03*
D13*
X191950000Y-82525000D03*
D10*
X192450000Y-87675000D03*
D14*
X190650000Y-93575000D03*
X178250000Y-91475000D03*
%TD*%
D10*
%TO.C,SWR11*%
X205263000Y-49575000D03*
D11*
X205763000Y-53375000D03*
D12*
X210763000Y-49575000D03*
D11*
X210763000Y-55475000D03*
D13*
X215763000Y-44425000D03*
D10*
X216263000Y-49575000D03*
D14*
X214463000Y-55475000D03*
X202063000Y-53375000D03*
%TD*%
D10*
%TO.C,SWR10*%
X186213000Y-49575000D03*
D11*
X186713000Y-53375000D03*
D12*
X191713000Y-49575000D03*
D11*
X191713000Y-55475000D03*
D13*
X196713000Y-44425000D03*
D10*
X197213000Y-49575000D03*
D14*
X195413000Y-55475000D03*
X183013000Y-53375000D03*
%TD*%
D15*
%TO.C,R_H1*%
X172563000Y-24000000D03*
%TD*%
D10*
%TO.C,SWR26*%
X219551000Y-87675000D03*
D11*
X220051000Y-91475000D03*
D12*
X225051000Y-87675000D03*
D11*
X225051000Y-93575000D03*
D13*
X230051000Y-82525000D03*
D10*
X230551000Y-87675000D03*
D14*
X228751000Y-93575000D03*
X216351000Y-91475000D03*
%TD*%
D10*
%TO.C,SWR14*%
X262413000Y-49575000D03*
D11*
X262913000Y-53375000D03*
D12*
X267913000Y-49575000D03*
D11*
X267913000Y-55475000D03*
D13*
X272913000Y-44425000D03*
D10*
X273413000Y-49575000D03*
D14*
X271613000Y-55475000D03*
X259213000Y-53375000D03*
%TD*%
D10*
%TO.C,SWR7*%
X271938000Y-30525000D03*
D11*
X272438000Y-34325000D03*
D12*
X277438000Y-30525000D03*
D11*
X277438000Y-36425000D03*
D13*
X282438000Y-25375000D03*
D10*
X282938000Y-30525000D03*
D14*
X281138000Y-36425000D03*
X268738000Y-34325000D03*
%TD*%
D16*
%TO.C,DR9*%
X164413000Y-46375000D03*
X166913000Y-46375000D03*
%TD*%
%TO.C,DR19*%
X207276000Y-65425000D03*
X209776000Y-65425000D03*
%TD*%
D17*
%TO.C,J2*%
X280113000Y-92100000D03*
X279113000Y-92100000D03*
D18*
X281613000Y-89700000D03*
X277613000Y-89700000D03*
%TD*%
D16*
%TO.C,DR8*%
X297763000Y-27325000D03*
X300263000Y-27325000D03*
%TD*%
%TO.C,DR30*%
X181082000Y-103525000D03*
X183582000Y-103525000D03*
%TD*%
%TO.C,DR28*%
X254901000Y-84475000D03*
X257401000Y-84475000D03*
%TD*%
%TO.C,DR10*%
X183463000Y-46375000D03*
X185963000Y-46375000D03*
%TD*%
%TO.C,DR7*%
X269188000Y-27325000D03*
X271688000Y-27325000D03*
%TD*%
%TO.C,DR14*%
X259663000Y-46375000D03*
X262163000Y-46375000D03*
%TD*%
%TO.C,DR6*%
X250138000Y-27325000D03*
X252638000Y-27325000D03*
%TD*%
%TO.C,DR26*%
X216801000Y-84475000D03*
X219301000Y-84475000D03*
%TD*%
%TO.C,DR31*%
X212038000Y-103525000D03*
X214538000Y-103525000D03*
%TD*%
%TO.C,DR32*%
X233469000Y-103525000D03*
X235969000Y-103525000D03*
%TD*%
%TO.C,DR21*%
X245376000Y-65425000D03*
X247876000Y-65425000D03*
%TD*%
%TO.C,DR5*%
X231088000Y-27325000D03*
X233588000Y-27325000D03*
%TD*%
%TO.C,DR29*%
X289619000Y-84475000D03*
X292119000Y-84475000D03*
%TD*%
%TO.C,DR12*%
X221563000Y-46375000D03*
X224063000Y-46375000D03*
%TD*%
%TO.C,DR27*%
X235850000Y-84475000D03*
X238350000Y-84475000D03*
%TD*%
D19*
%TO.C,U2*%
X327433000Y-79420000D03*
X324893000Y-79420000D03*
X322353000Y-79420000D03*
X319813000Y-79420000D03*
X317273000Y-79420000D03*
X314733000Y-79420000D03*
X312193000Y-79420000D03*
D20*
X312193000Y-95930000D03*
X314733000Y-95930000D03*
X317273000Y-95930000D03*
X319813000Y-95930000D03*
X322353000Y-95930000D03*
X324893000Y-95930000D03*
X327433000Y-95930000D03*
D21*
X326163000Y-79020000D03*
X323623000Y-79020000D03*
X321083000Y-79020000D03*
X318543000Y-79020000D03*
X316003000Y-79020000D03*
X313463000Y-79020000D03*
D22*
X313463000Y-96330000D03*
X316003000Y-96330000D03*
X318543000Y-96330000D03*
D23*
X328385500Y-86405000D03*
X328385500Y-88945000D03*
X325845500Y-86405000D03*
X325845500Y-88945000D03*
X323369000Y-86405000D03*
X323369000Y-88945000D03*
X320829000Y-86405000D03*
X320829000Y-88945000D03*
D24*
X314295180Y-86081012D03*
X314295180Y-89281010D03*
%TD*%
D16*
%TO.C,DR25*%
X197751000Y-84475000D03*
X200251000Y-84475000D03*
%TD*%
%TO.C,DR22*%
X264425000Y-65425000D03*
X266925000Y-65425000D03*
%TD*%
D25*
%TO.C,RLED2*%
X325463000Y-75175000D03*
X325463000Y-76825000D03*
%TD*%
D26*
%TO.C,DLED2*%
X329713000Y-75200000D03*
X329713000Y-76800000D03*
%TD*%
D16*
%TO.C,DR11*%
X202513000Y-46375000D03*
X205013000Y-46375000D03*
%TD*%
%TO.C,DR4*%
X212038000Y-27325000D03*
X214538000Y-27325000D03*
%TD*%
%TO.C,DR34*%
X279594000Y-103525000D03*
X282094000Y-103525000D03*
%TD*%
%TO.C,DR17*%
X169175000Y-65425000D03*
X171675000Y-65425000D03*
%TD*%
%TO.C,DR23*%
X295382000Y-65425000D03*
X297882000Y-65425000D03*
%TD*%
%TO.C,DR13*%
X240613000Y-46375000D03*
X243113000Y-46375000D03*
%TD*%
%TO.C,DR18*%
X188226000Y-65425000D03*
X190726000Y-65425000D03*
%TD*%
%TO.C,DR3*%
X192988000Y-27325000D03*
X195488000Y-27325000D03*
%TD*%
%TO.C,DR20*%
X226326000Y-65425000D03*
X228826000Y-65425000D03*
%TD*%
%TO.C,DR1*%
X154888000Y-27325000D03*
X157388000Y-27325000D03*
%TD*%
%TO.C,DR15*%
X278713000Y-46375000D03*
X281213000Y-46375000D03*
%TD*%
%TO.C,DR33*%
X257282000Y-103525000D03*
X259782000Y-103525000D03*
%TD*%
%TO.C,DR2*%
X173938000Y-27325000D03*
X176438000Y-27325000D03*
%TD*%
D27*
%TO.C,SWP2*%
X328563000Y-67125000D03*
X328563000Y-70125000D03*
D28*
X326813000Y-66375000D03*
X326813000Y-69375000D03*
X326813000Y-70875000D03*
D29*
X327598000Y-64975000D03*
X329528000Y-64975000D03*
X329528000Y-72275000D03*
X327598000Y-72275000D03*
%TD*%
D16*
%TO.C,DR24*%
X178700000Y-84475000D03*
X181200000Y-84475000D03*
%TD*%
D30*
%TO.C,J4*%
X183803000Y-116000000D03*
D31*
X185073000Y-116000000D03*
X186343000Y-116000000D03*
X187613000Y-116000000D03*
X188883000Y-116000000D03*
X190153000Y-116000000D03*
X191423000Y-116000000D03*
%TD*%
D16*
%TO.C,DR35*%
X304907000Y-103525000D03*
X307407000Y-103525000D03*
%TD*%
%TO.C,DR16*%
X302525000Y-46375000D03*
X305025000Y-46375000D03*
%TD*%
M02*
