%TF.GenerationSoftware,KiCad,Pcbnew,9.0.6*%
%TF.CreationDate,2026-08-20T21:11:53+09:00*%
%TF.ProjectId,SplitChoc64_LEFT,53706c69-7443-4686-9f63-36345f4c4546,rev?*%
%TF.SameCoordinates,Original*%
%TF.FileFunction,Profile,NP*%
%FSLAX46Y46*%
G04 Gerber Fmt 4.6, Leading zero omitted, Abs format (unit mm)*
G04 Created by KiCad (PCBNEW 9.0.6) date 2026-08-20 21:11:53*
%MOMM*%
%LPD*%
G01*
G04 APERTURE LIST*
%TA.AperFunction,Profile*%
%ADD10C,0.050000*%
%TD*%
%TA.AperFunction,Profile*%
%ADD11C,0.150000*%
%TD*%
G04 APERTURE END LIST*
D10*
X114576000Y-20250000D02*
X121382544Y-20250000D01*
D11*
X159863000Y-97950000D02*
X150338000Y-97950000D01*
X159863000Y-77400000D02*
X159863000Y-97950000D01*
X136050000Y-39300000D02*
X145575000Y-39300000D01*
X9550000Y-20250000D02*
X61522716Y-20250000D01*
X145575000Y-39300000D02*
X145575000Y-58350000D01*
X121382544Y-20250000D02*
X136050000Y-20250000D01*
X150338000Y-117000000D02*
X121349135Y-117000000D01*
D10*
X61522700Y-20250000D02*
X68329600Y-20250000D01*
X86056500Y-20250000D02*
X94056500Y-20250000D01*
X94056500Y-20250000D02*
X114575656Y-20250000D01*
X114609000Y-117000000D02*
X121349000Y-117000000D01*
X68296195Y-117000000D02*
X86056500Y-117000000D01*
D11*
X136050000Y-20250000D02*
X136050000Y-39300000D01*
X150338000Y-97950000D02*
X150338000Y-117000000D01*
X145575000Y-58350000D02*
X150337000Y-58350000D01*
X9550000Y-117000000D02*
X61556125Y-117000000D01*
D10*
X61556100Y-117000000D02*
X68296200Y-117000000D01*
X68329604Y-20250000D02*
X86056500Y-20250000D01*
D11*
X150337000Y-77400000D02*
X159863000Y-77400000D01*
X150337000Y-58350000D02*
X150337000Y-77400000D01*
D10*
X86056500Y-117000000D02*
X94056500Y-117000000D01*
D11*
X9550000Y-117000000D02*
X9550000Y-20250000D01*
D10*
X94056500Y-117000000D02*
X114609065Y-117000000D01*
M02*
