%TF.GenerationSoftware,KiCad,Pcbnew,9.0.6*%
%TF.CreationDate,2026-08-20T21:11:53+09:00*%
%TF.ProjectId,SplitChoc64_LEFT,53706c69-7443-4686-9f63-36345f4c4546,rev?*%
%TF.SameCoordinates,Original*%
%TF.FileFunction,Paste,Bot*%
%TF.FilePolarity,Positive*%
%FSLAX46Y46*%
G04 Gerber Fmt 4.6, Leading zero omitted, Abs format (unit mm)*
G04 Created by KiCad (PCBNEW 9.0.6) date 2026-08-20 21:11:53*
%MOMM*%
%LPD*%
G01*
G04 APERTURE LIST*
G04 Aperture macros list*
%AMRoundRect*
0 Rectangle with rounded corners*
0 $1 Rounding radius*
0 $2 $3 $4 $5 $6 $7 $8 $9 X,Y pos of 4 corners*
0 Add a 4 corners polygon primitive as box body*
4,1,4,$2,$3,$4,$5,$6,$7,$8,$9,$2,$3,0*
0 Add four circle primitives for the rounded corners*
1,1,$1+$1,$2,$3*
1,1,$1+$1,$4,$5*
1,1,$1+$1,$6,$7*
1,1,$1+$1,$8,$9*
0 Add four rect primitives between the rounded corners*
20,1,$1+$1,$2,$3,$4,$5,0*
20,1,$1+$1,$4,$5,$6,$7,0*
20,1,$1+$1,$6,$7,$8,$9,0*
20,1,$1+$1,$8,$9,$2,$3,0*%
%AMFreePoly0*
4,1,15,-0.616000,0.142500,-0.283500,0.475000,0.521000,0.475000,0.557355,0.467769,0.588175,0.447175,0.608769,0.416355,0.616000,0.380000,0.616000,-0.380000,0.608769,-0.416355,0.588175,-0.447175,0.557355,-0.467769,0.521000,-0.475000,-0.283500,-0.475000,-0.616000,-0.142500,-0.616000,0.142500,-0.616000,0.142500,$1*%
G04 Aperture macros list end*
%ADD10RoundRect,0.520000X-0.780000X-0.780000X0.780000X-0.780000X0.780000X0.780000X-0.780000X0.780000X0*%
%ADD11RoundRect,0.200000X0.400000X0.300000X-0.400000X0.300000X-0.400000X-0.300000X0.400000X-0.300000X0*%
%ADD12R,1.500000X0.700000*%
%ADD13R,1.000000X0.800000*%
%ADD14RoundRect,0.160000X-0.290000X0.240000X-0.290000X-0.240000X0.290000X-0.240000X0.290000X0.240000X0*%
%ADD15RoundRect,0.095000X0.380000X-0.921000X0.380000X0.921000X-0.380000X0.921000X-0.380000X-0.921000X0*%
%ADD16RoundRect,0.095000X-0.380000X0.921000X-0.380000X-0.921000X0.380000X-0.921000X0.380000X0.921000X0*%
%ADD17FreePoly0,90.000000*%
%ADD18FreePoly0,270.000000*%
%ADD19C,1.700000*%
%ADD20RoundRect,0.190000X-0.285000X-0.285000X0.285000X-0.285000X0.285000X0.285000X-0.285000X0.285000X0*%
%ADD21RoundRect,0.090000X-0.210000X-0.610000X0.210000X-0.610000X0.210000X0.610000X-0.210000X0.610000X0*%
%ADD22R,1.200000X1.600000*%
G04 APERTURE END LIST*
D10*
%TO.C,SWL2*%
X53275000Y-36425000D03*
X40875000Y-34325000D03*
%TD*%
%TO.C,SWL11*%
X119950000Y-55475000D03*
X107550000Y-53375000D03*
%TD*%
%TO.C,SWL28*%
X105663000Y-112625000D03*
X93263000Y-110525000D03*
%TD*%
%TO.C,SWL9*%
X81850000Y-55475000D03*
X69450000Y-53375000D03*
%TD*%
%TO.C,SWL15*%
X86613000Y-74525000D03*
X74213000Y-72425000D03*
%TD*%
%TO.C,SWL26*%
X60419000Y-112625000D03*
X48019000Y-110525000D03*
%TD*%
%TO.C,SWL23*%
X134238000Y-93575000D03*
X121838000Y-91475000D03*
%TD*%
%TO.C,SWL7*%
X38988000Y-55475000D03*
X26588000Y-53375000D03*
%TD*%
%TO.C,SWL21*%
X96138000Y-93575000D03*
X83738000Y-91475000D03*
%TD*%
%TO.C,SWL29*%
X126838000Y-100825000D03*
X139238000Y-102925000D03*
%TD*%
%TO.C,SWL24*%
X153288000Y-93575000D03*
X140888000Y-91475000D03*
%TD*%
%TO.C,SWL18*%
X143762000Y-74525000D03*
X131362000Y-72425000D03*
%TD*%
%TO.C,SWL8*%
X62800000Y-55475000D03*
X50400000Y-53375000D03*
%TD*%
%TO.C,SWL14*%
X67563000Y-74525000D03*
X55163000Y-72425000D03*
%TD*%
%TO.C,SWL12*%
X139000000Y-55475000D03*
X126600000Y-53375000D03*
%TD*%
%TO.C,SWL19*%
X46131000Y-93575000D03*
X33731000Y-91475000D03*
%TD*%
%TO.C,SWL17*%
X124713000Y-74525000D03*
X112313000Y-72425000D03*
%TD*%
%TO.C,SWL27*%
X84231000Y-112625000D03*
X71831000Y-110525000D03*
%TD*%
%TO.C,SWL5*%
X110425000Y-36425000D03*
X98025000Y-34325000D03*
%TD*%
%TO.C,SWL1*%
X34225000Y-36425000D03*
X21825000Y-34325000D03*
%TD*%
%TO.C,SWL16*%
X105663000Y-74525000D03*
X93263000Y-72425000D03*
%TD*%
%TO.C,SWL6*%
X129475000Y-36425000D03*
X117075000Y-34325000D03*
%TD*%
%TO.C,SWL25*%
X36606000Y-112625000D03*
X24206000Y-110525000D03*
%TD*%
%TO.C,SWL20*%
X77088000Y-93575000D03*
X64688000Y-91475000D03*
%TD*%
%TO.C,SWL4*%
X91375000Y-36425000D03*
X78975000Y-34325000D03*
%TD*%
%TO.C,SWL22*%
X115187000Y-93575000D03*
X102787000Y-91475000D03*
%TD*%
%TO.C,SWL13*%
X41369000Y-74525000D03*
X28969000Y-72425000D03*
%TD*%
%TO.C,SWL10*%
X100900000Y-55475000D03*
X88500000Y-53375000D03*
%TD*%
%TO.C,SWL3*%
X72325000Y-36425000D03*
X59925000Y-34325000D03*
%TD*%
D11*
%TO.C,DL15*%
X74663000Y-65425000D03*
X77163000Y-65425000D03*
%TD*%
%TO.C,DL19*%
X34181000Y-84475000D03*
X36681000Y-84475000D03*
%TD*%
%TO.C,DL21*%
X84188000Y-84475000D03*
X86688000Y-84475000D03*
%TD*%
%TO.C,DL20*%
X65138000Y-84475000D03*
X67638000Y-84475000D03*
%TD*%
D12*
%TO.C,SWP1*%
X13250000Y-70875000D03*
X13250000Y-67875000D03*
X13250000Y-66375000D03*
D13*
X12465000Y-72275000D03*
X10535000Y-72275000D03*
X10535000Y-64975000D03*
X12465000Y-64975000D03*
%TD*%
D11*
%TO.C,DL13*%
X29419000Y-65425000D03*
X31919000Y-65425000D03*
%TD*%
%TO.C,DL18*%
X131812000Y-65425000D03*
X134312000Y-65425000D03*
%TD*%
%TO.C,DL28*%
X93713000Y-103525000D03*
X96213000Y-103525000D03*
%TD*%
%TO.C,DL10*%
X88950000Y-46375000D03*
X91450000Y-46375000D03*
%TD*%
%TO.C,DL27*%
X72281000Y-103525000D03*
X74781000Y-103525000D03*
%TD*%
%TO.C,DL25*%
X24656000Y-103525000D03*
X27156000Y-103525000D03*
%TD*%
%TO.C,DL17*%
X112763000Y-65425000D03*
X115263000Y-65425000D03*
%TD*%
%TO.C,DL4*%
X79425000Y-27325000D03*
X81925000Y-27325000D03*
%TD*%
D14*
%TO.C,DLED1*%
X10350000Y-76800000D03*
X10350000Y-75200000D03*
%TD*%
D11*
%TO.C,DL3*%
X60375000Y-27325000D03*
X62875000Y-27325000D03*
%TD*%
%TO.C,DL12*%
X127050000Y-46375000D03*
X129550000Y-46375000D03*
%TD*%
%TO.C,DL7*%
X27038000Y-46375000D03*
X29538000Y-46375000D03*
%TD*%
%TO.C,DL24*%
X141338000Y-84475000D03*
X143838000Y-84475000D03*
%TD*%
%TO.C,DL5*%
X98475000Y-27325000D03*
X100975000Y-27325000D03*
%TD*%
%TO.C,DL29*%
X122288000Y-103525000D03*
X124788000Y-103525000D03*
%TD*%
%TO.C,DL22*%
X103237000Y-84475000D03*
X105737000Y-84475000D03*
%TD*%
%TO.C,DL23*%
X122288000Y-84475000D03*
X124788000Y-84475000D03*
%TD*%
%TO.C,DL9*%
X69900000Y-46375000D03*
X72400000Y-46375000D03*
%TD*%
%TO.C,DL11*%
X108000000Y-46375000D03*
X110500000Y-46375000D03*
%TD*%
D15*
%TO.C,U1*%
X12630000Y-95930000D03*
X15170000Y-95930000D03*
X17710000Y-95930000D03*
X20250000Y-95930000D03*
X22790000Y-95930000D03*
X25330000Y-95930000D03*
X27870000Y-95930000D03*
D16*
X27870000Y-79420000D03*
X25330000Y-79420000D03*
X22790000Y-79420000D03*
X20250000Y-79420000D03*
X17710000Y-79420000D03*
X15170000Y-79420000D03*
X12630000Y-79420000D03*
D17*
X13900000Y-96330000D03*
X16440000Y-96330000D03*
X18980000Y-96330000D03*
X21520000Y-96330000D03*
X24060000Y-96330000D03*
X26600000Y-96330000D03*
D18*
X26600000Y-79020000D03*
X24060000Y-79020000D03*
X21520000Y-79020000D03*
D19*
X11677500Y-88945000D03*
X11677500Y-86405000D03*
X14217500Y-88945000D03*
X14217500Y-86405000D03*
X16694000Y-88945000D03*
X16694000Y-86405000D03*
X19234000Y-88945000D03*
X19234000Y-86405000D03*
%TD*%
D20*
%TO.C,RLED1*%
X14600000Y-76825000D03*
X14600000Y-75175000D03*
%TD*%
D11*
%TO.C,DL1*%
X22275000Y-27325000D03*
X24775000Y-27325000D03*
%TD*%
%TO.C,DL16*%
X93713000Y-65425000D03*
X96213000Y-65425000D03*
%TD*%
%TO.C,DL6*%
X117525000Y-27325000D03*
X120025000Y-27325000D03*
%TD*%
%TO.C,DL26*%
X48469000Y-103525000D03*
X50969000Y-103525000D03*
%TD*%
%TO.C,DL14*%
X55613000Y-65425000D03*
X58113000Y-65425000D03*
%TD*%
%TO.C,DL8*%
X50850000Y-46375000D03*
X53350000Y-46375000D03*
%TD*%
D21*
%TO.C,J1*%
X57500000Y-92100000D03*
X56500000Y-92100000D03*
D22*
X59000000Y-89700000D03*
X55000000Y-89700000D03*
%TD*%
D11*
%TO.C,DL2*%
X41325000Y-27325000D03*
X43825000Y-27325000D03*
%TD*%
M02*
