M48
; DRILL file {KiCad 9.0.6} date 2026-08-20T21:11:58+0900
; FORMAT={-:-/ absolute / metric / decimal}
; #@! TF.CreationDate,2026-08-20T21:11:58+09:00
; #@! TF.GenerationSoftware,Kicad,Pcbnew,9.0.6
; #@! TF.FileFunction,Plated,1,2,PTH
FMAT,2
METRIC
; #@! TA.AperFunction,Plated,PTH,ViaDrill
T1C0.200
; #@! TA.AperFunction,Plated,PTH,ComponentDrill
T2C0.700
; #@! TA.AperFunction,Plated,PTH,ComponentDrill
T3C1.000
; #@! TA.AperFunction,Plated,PTH,ComponentDrill
T4C2.000
%
G90
G05
T1
X15.381Y-98.37
X16.415Y-74.04
X19.389Y-95.301
X19.715Y-84.646
X19.718Y-115.096
X20.127Y-115.547
X21.39Y-98.829
X22.365Y-94.527
X24.374Y-97.471
X25.615Y-114.62
X25.962Y-82.593
X26.633Y-83.246
X26.982Y-102.644
X27.201Y-100.268
X28.502Y-101.438
X35.005Y-82.355
X35.099Y-81.322
X35.951Y-83.07
X39.307Y-89.364
X47.981Y-95.425
X48.848Y-80.724
X50.969Y-98.37
X51.908Y-57.402
X60.618Y-97.923
X60.873Y-57.402
X68.443Y-76.632
X71.229Y-96.451
X75.751Y-95.426
X83.536Y-56.504
X89.048Y-76.488
X92.217Y-38.106
X93.465Y-98.829
X94.715Y-56.504
X98.438Y-95.408
X104.45Y-36.672
X116.885Y-93.963
X118.549Y-103.201
X120.215Y-96.011
X121.639Y-56.504
X122.75Y-76.488
X125.275Y-105.09
X132.729Y-56.504
X140.87Y-95.265
T2
X129.64Y-116.0
X130.91Y-116.0
X132.18Y-116.0
X133.45Y-116.0
X134.72Y-116.0
X135.99Y-116.0
X137.26Y-116.0
T3
X35.525Y-25.375
X37.906Y-101.575
X40.288Y-44.425
X42.669Y-63.475
X47.431Y-82.525
X54.575Y-25.375
X61.719Y-101.575
X64.1Y-44.425
X68.863Y-63.475
X73.625Y-25.375
X78.388Y-82.525
X83.15Y-44.425
X85.531Y-101.575
X87.913Y-63.475
X92.675Y-25.375
X97.438Y-82.525
X102.2Y-44.425
X106.963Y-63.475
X106.963Y-101.575
X111.725Y-25.375
X116.487Y-82.525
X121.25Y-44.425
X125.538Y-111.875
X126.013Y-63.475
X130.775Y-25.375
X135.538Y-82.525
X140.3Y-44.425
X145.062Y-63.475
X154.588Y-82.525
T4
G00X26.568Y-86.069
M15
G01X24.968Y-86.069
M16
G05
G00X26.568Y-89.269
M15
G01X24.968Y-89.269
M16
G05
M30
