%TF.GenerationSoftware,KiCad,Pcbnew,9.0.6*%
%TF.CreationDate,2026-08-20T21:13:09+09:00*%
%TF.ProjectId,SplitChoc64_LEFT_TOP_PlateMount,53706c69-7443-4686-9f63-36345f4c4546,rev?*%
%TF.SameCoordinates,Original*%
%TF.FileFunction,Profile,NP*%
%FSLAX46Y46*%
G04 Gerber Fmt 4.6, Leading zero omitted, Abs format (unit mm)*
G04 Created by KiCad (PCBNEW 9.0.6) date 2026-08-20 21:13:09*
%MOMM*%
%LPD*%
G01*
G04 APERTURE LIST*
%TA.AperFunction,Profile*%
%ADD10C,0.050000*%
%TD*%
%TA.AperFunction,Profile*%
%ADD11C,0.150000*%
%TD*%
%TA.AperFunction,Profile*%
%ADD12C,0.100000*%
%TD*%
G04 APERTURE END LIST*
D10*
X114576000Y-20250000D02*
X121382544Y-20250000D01*
D11*
X159863000Y-97950000D02*
X150338000Y-97950000D01*
X159863000Y-77400000D02*
X159863000Y-97950000D01*
X136050000Y-39300000D02*
X145575000Y-39300000D01*
X9550000Y-20250000D02*
X61522716Y-20250000D01*
X145575000Y-39300000D02*
X145575000Y-58350000D01*
X121382544Y-20250000D02*
X136050000Y-20250000D01*
X150338000Y-117000000D02*
X121349135Y-117000000D01*
D10*
X61522700Y-20250000D02*
X68329600Y-20250000D01*
X94056500Y-20250000D02*
X114575656Y-20250000D01*
X114609000Y-117000000D02*
X121349000Y-117000000D01*
X68296195Y-117000000D02*
X86056500Y-117000000D01*
D11*
X136050000Y-20250000D02*
X136050000Y-39300000D01*
X150338000Y-97950000D02*
X150338000Y-117000000D01*
X145575000Y-58350000D02*
X150337000Y-58350000D01*
X9550000Y-117000000D02*
X61556125Y-117000000D01*
D10*
X61556100Y-117000000D02*
X68296200Y-117000000D01*
X68329604Y-20250000D02*
X86056500Y-20250000D01*
D11*
X150337000Y-77400000D02*
X159863000Y-77400000D01*
X150337000Y-58350000D02*
X150337000Y-77400000D01*
X9550000Y-117000000D02*
X9550000Y-20250000D01*
D10*
X94056500Y-117000000D02*
X114609065Y-117000000D01*
X86056500Y-20250000D02*
X94056500Y-20250000D01*
X86056500Y-117000000D02*
X94056500Y-117000000D01*
D12*
X23550000Y-23550000D02*
X37500000Y-23550000D01*
X37500000Y-23550000D02*
X37500000Y-37500000D01*
X37500000Y-37500000D02*
X23550000Y-37500000D01*
X23550000Y-37500000D02*
X23550000Y-23550000D01*
X42600000Y-23550000D02*
X56550000Y-23550000D01*
X56550000Y-23550000D02*
X56550000Y-37500000D01*
X56550000Y-37500000D02*
X42600000Y-37500000D01*
X42600000Y-37500000D02*
X42600000Y-23550000D01*
X61650000Y-23550000D02*
X75600000Y-23550000D01*
X75600000Y-23550000D02*
X75600000Y-37500000D01*
X75600000Y-37500000D02*
X61650000Y-37500000D01*
X61650000Y-37500000D02*
X61650000Y-23550000D01*
X80700000Y-23550000D02*
X94650000Y-23550000D01*
X94650000Y-23550000D02*
X94650000Y-37500000D01*
X94650000Y-37500000D02*
X80700000Y-37500000D01*
X80700000Y-37500000D02*
X80700000Y-23550000D01*
X99750000Y-23550000D02*
X113700000Y-23550000D01*
X113700000Y-23550000D02*
X113700000Y-37500000D01*
X113700000Y-37500000D02*
X99750000Y-37500000D01*
X99750000Y-37500000D02*
X99750000Y-23550000D01*
X118800000Y-23550000D02*
X132750000Y-23550000D01*
X132750000Y-23550000D02*
X132750000Y-37500000D01*
X132750000Y-37500000D02*
X118800000Y-37500000D01*
X118800000Y-37500000D02*
X118800000Y-23550000D01*
X28313000Y-42600000D02*
X42263000Y-42600000D01*
X42263000Y-42600000D02*
X42263000Y-56550000D01*
X42263000Y-56550000D02*
X28313000Y-56550000D01*
X28313000Y-56550000D02*
X28313000Y-42600000D01*
X52125000Y-42600000D02*
X66075000Y-42600000D01*
X66075000Y-42600000D02*
X66075000Y-56550000D01*
X66075000Y-56550000D02*
X52125000Y-56550000D01*
X52125000Y-56550000D02*
X52125000Y-42600000D01*
X71175000Y-42600000D02*
X85125000Y-42600000D01*
X85125000Y-42600000D02*
X85125000Y-56550000D01*
X85125000Y-56550000D02*
X71175000Y-56550000D01*
X71175000Y-56550000D02*
X71175000Y-42600000D01*
X90225000Y-42600000D02*
X104175000Y-42600000D01*
X104175000Y-42600000D02*
X104175000Y-56550000D01*
X104175000Y-56550000D02*
X90225000Y-56550000D01*
X90225000Y-56550000D02*
X90225000Y-42600000D01*
X109275000Y-42600000D02*
X123225000Y-42600000D01*
X123225000Y-42600000D02*
X123225000Y-56550000D01*
X123225000Y-56550000D02*
X109275000Y-56550000D01*
X109275000Y-56550000D02*
X109275000Y-42600000D01*
X128325000Y-42600000D02*
X142275000Y-42600000D01*
X142275000Y-42600000D02*
X142275000Y-56550000D01*
X142275000Y-56550000D02*
X128325000Y-56550000D01*
X128325000Y-56550000D02*
X128325000Y-42600000D01*
X30694000Y-61650000D02*
X44644000Y-61650000D01*
X44644000Y-61650000D02*
X44644000Y-75600000D01*
X44644000Y-75600000D02*
X30694000Y-75600000D01*
X30694000Y-75600000D02*
X30694000Y-61650000D01*
X56888000Y-61650000D02*
X70838000Y-61650000D01*
X70838000Y-61650000D02*
X70838000Y-75600000D01*
X70838000Y-75600000D02*
X56888000Y-75600000D01*
X56888000Y-75600000D02*
X56888000Y-61650000D01*
X75938000Y-61650000D02*
X89888000Y-61650000D01*
X89888000Y-61650000D02*
X89888000Y-75600000D01*
X89888000Y-75600000D02*
X75938000Y-75600000D01*
X75938000Y-75600000D02*
X75938000Y-61650000D01*
X94988000Y-61650000D02*
X108938000Y-61650000D01*
X108938000Y-61650000D02*
X108938000Y-75600000D01*
X108938000Y-75600000D02*
X94988000Y-75600000D01*
X94988000Y-75600000D02*
X94988000Y-61650000D01*
X114038000Y-61650000D02*
X127988000Y-61650000D01*
X127988000Y-61650000D02*
X127988000Y-75600000D01*
X127988000Y-75600000D02*
X114038000Y-75600000D01*
X114038000Y-75600000D02*
X114038000Y-61650000D01*
X133087000Y-61650000D02*
X147037000Y-61650000D01*
X147037000Y-61650000D02*
X147037000Y-75600000D01*
X147037000Y-75600000D02*
X133087000Y-75600000D01*
X133087000Y-75600000D02*
X133087000Y-61650000D01*
X35456000Y-80700000D02*
X49406000Y-80700000D01*
X49406000Y-80700000D02*
X49406000Y-94650000D01*
X49406000Y-94650000D02*
X35456000Y-94650000D01*
X35456000Y-94650000D02*
X35456000Y-80700000D01*
X66413000Y-80700000D02*
X80363000Y-80700000D01*
X80363000Y-80700000D02*
X80363000Y-94650000D01*
X80363000Y-94650000D02*
X66413000Y-94650000D01*
X66413000Y-94650000D02*
X66413000Y-80700000D01*
X85463000Y-80700000D02*
X99413000Y-80700000D01*
X99413000Y-80700000D02*
X99413000Y-94650000D01*
X99413000Y-94650000D02*
X85463000Y-94650000D01*
X85463000Y-94650000D02*
X85463000Y-80700000D01*
X104512000Y-80700000D02*
X118462000Y-80700000D01*
X118462000Y-80700000D02*
X118462000Y-94650000D01*
X118462000Y-94650000D02*
X104512000Y-94650000D01*
X104512000Y-94650000D02*
X104512000Y-80700000D01*
X123563000Y-80700000D02*
X137513000Y-80700000D01*
X137513000Y-80700000D02*
X137513000Y-94650000D01*
X137513000Y-94650000D02*
X123563000Y-94650000D01*
X123563000Y-94650000D02*
X123563000Y-80700000D01*
X142613000Y-80700000D02*
X156563000Y-80700000D01*
X156563000Y-80700000D02*
X156563000Y-94650000D01*
X156563000Y-94650000D02*
X142613000Y-94650000D01*
X142613000Y-94650000D02*
X142613000Y-80700000D01*
X25931000Y-99750000D02*
X39881000Y-99750000D01*
X39881000Y-99750000D02*
X39881000Y-113700000D01*
X39881000Y-113700000D02*
X25931000Y-113700000D01*
X25931000Y-113700000D02*
X25931000Y-99750000D01*
X49744000Y-99750000D02*
X63694000Y-99750000D01*
X63694000Y-99750000D02*
X63694000Y-113700000D01*
X63694000Y-113700000D02*
X49744000Y-113700000D01*
X49744000Y-113700000D02*
X49744000Y-99750000D01*
X73556000Y-99750000D02*
X87506000Y-99750000D01*
X87506000Y-99750000D02*
X87506000Y-113700000D01*
X87506000Y-113700000D02*
X73556000Y-113700000D01*
X73556000Y-113700000D02*
X73556000Y-99750000D01*
X94988000Y-99750000D02*
X108938000Y-99750000D01*
X108938000Y-99750000D02*
X108938000Y-113700000D01*
X108938000Y-113700000D02*
X94988000Y-113700000D01*
X94988000Y-113700000D02*
X94988000Y-99750000D01*
X123563000Y-99750000D02*
X137513000Y-99750000D01*
X137513000Y-99750000D02*
X137513000Y-113700000D01*
X137513000Y-113700000D02*
X123563000Y-113700000D01*
X123563000Y-113700000D02*
X123563000Y-99750000D01*
M02*
