%TF.GenerationSoftware,KiCad,Pcbnew,9.0.6*%
%TF.CreationDate,2026-08-30T14:34:05+09:00*%
%TF.ProjectId,SplitChoc64_LEFT,53706c69-7443-4686-9f63-36345f4c4546,rev?*%
%TF.SameCoordinates,Original*%
%TF.FileFunction,Soldermask,Top*%
%TF.FilePolarity,Negative*%
%FSLAX46Y46*%
G04 Gerber Fmt 4.6, Leading zero omitted, Abs format (unit mm)*
G04 Created by KiCad (PCBNEW 9.0.6) date 2026-08-30 14:34:05*
%MOMM*%
%LPD*%
G01*
G04 APERTURE LIST*
G04 Aperture macros list*
%AMRoundRect*
0 Rectangle with rounded corners*
0 $1 Rounding radius*
0 $2 $3 $4 $5 $6 $7 $8 $9 X,Y pos of 4 corners*
0 Add a 4 corners polygon primitive as box body*
4,1,4,$2,$3,$4,$5,$6,$7,$8,$9,$2,$3,0*
0 Add four circle primitives for the rounded corners*
1,1,$1+$1,$2,$3*
1,1,$1+$1,$4,$5*
1,1,$1+$1,$6,$7*
1,1,$1+$1,$8,$9*
0 Add four rect primitives between the rounded corners*
20,1,$1+$1,$2,$3,$4,$5,0*
20,1,$1+$1,$4,$5,$6,$7,0*
20,1,$1+$1,$6,$7,$8,$9,0*
20,1,$1+$1,$8,$9,$2,$3,0*%
G04 Aperture macros list end*
%ADD10C,1.701800*%
%ADD11C,3.000000*%
%ADD12C,5.000000*%
%ADD13RoundRect,0.160000X-0.240000X-0.290000X0.240000X-0.290000X0.240000X0.290000X-0.240000X0.290000X0*%
%ADD14C,2.200000*%
%ADD15RoundRect,0.160000X0.240000X0.290000X-0.240000X0.290000X-0.240000X-0.290000X0.240000X-0.290000X0*%
%ADD16C,0.900000*%
%ADD17R,1.100000X1.100000*%
%ADD18C,1.100000*%
%ADD19C,1.400000*%
%ADD20O,4.200000X2.600000*%
G04 APERTURE END LIST*
D10*
%TO.C,SWL2*%
X44075000Y-30525000D03*
D11*
X44575000Y-34325000D03*
D12*
X49575000Y-30525000D03*
D11*
X49575000Y-36425000D03*
D10*
X55075000Y-30525000D03*
%TD*%
%TO.C,SWL11*%
X110750000Y-49575000D03*
D11*
X111250000Y-53375000D03*
D12*
X116250000Y-49575000D03*
D11*
X116250000Y-55475000D03*
D10*
X121750000Y-49575000D03*
%TD*%
%TO.C,SWL28*%
X96463000Y-106725000D03*
D11*
X96963000Y-110525000D03*
D12*
X101963000Y-106725000D03*
D11*
X101963000Y-112625000D03*
D10*
X107463000Y-106725000D03*
%TD*%
D13*
%TO.C,LEDL22*%
X110737000Y-82525000D03*
X112237000Y-82525000D03*
%TD*%
%TO.C,LEDL8*%
X58350000Y-44425000D03*
X59850000Y-44425000D03*
%TD*%
D10*
%TO.C,SWL9*%
X72650000Y-49575000D03*
D11*
X73150000Y-53375000D03*
D12*
X78150000Y-49575000D03*
D11*
X78150000Y-55475000D03*
D10*
X83650000Y-49575000D03*
%TD*%
D14*
%TO.C,H3*%
X116200000Y-24000000D03*
%TD*%
D13*
%TO.C,LEDL9*%
X77400000Y-44425000D03*
X78900000Y-44425000D03*
%TD*%
D10*
%TO.C,SWL15*%
X77413000Y-68625000D03*
D11*
X77913000Y-72425000D03*
D12*
X82913000Y-68625000D03*
D11*
X82913000Y-74525000D03*
D10*
X88413000Y-68625000D03*
%TD*%
%TO.C,SWL26*%
X51219000Y-106725000D03*
D11*
X51719000Y-110525000D03*
D12*
X56719000Y-106725000D03*
D11*
X56719000Y-112625000D03*
D10*
X62219000Y-106725000D03*
%TD*%
%TO.C,SWL23*%
X125038000Y-87675000D03*
D11*
X125538000Y-91475000D03*
D12*
X130538000Y-87675000D03*
D11*
X130538000Y-93575000D03*
D10*
X136038000Y-87675000D03*
%TD*%
%TO.C,SWL7*%
X29788000Y-49575000D03*
D11*
X30288000Y-53375000D03*
D12*
X35288000Y-49575000D03*
D11*
X35288000Y-55475000D03*
D10*
X40788000Y-49575000D03*
%TD*%
%TO.C,SWL21*%
X86938000Y-87675000D03*
D11*
X87438000Y-91475000D03*
D12*
X92438000Y-87675000D03*
D11*
X92438000Y-93575000D03*
D10*
X97938000Y-87675000D03*
%TD*%
D13*
%TO.C,LEDL18*%
X139312000Y-63475000D03*
X140812000Y-63475000D03*
%TD*%
%TO.C,LEDL2*%
X48825000Y-25375000D03*
X50325000Y-25375000D03*
%TD*%
D10*
%TO.C,SWL29*%
X136038000Y-106725000D03*
D11*
X135538000Y-102925000D03*
D12*
X130538000Y-106725000D03*
D11*
X130538000Y-100825000D03*
D10*
X125038000Y-106725000D03*
%TD*%
D13*
%TO.C,LEDL3*%
X67875000Y-25375000D03*
X69375000Y-25375000D03*
%TD*%
%TO.C,LEDL16*%
X101213000Y-63475000D03*
X102713000Y-63475000D03*
%TD*%
%TO.C,LEDL27*%
X79781000Y-101575000D03*
X81281000Y-101575000D03*
%TD*%
%TO.C,LEDL25*%
X32156000Y-101575000D03*
X33656000Y-101575000D03*
%TD*%
D10*
%TO.C,SWL24*%
X144088000Y-87675000D03*
D11*
X144588000Y-91475000D03*
D12*
X149588000Y-87675000D03*
D11*
X149588000Y-93575000D03*
D10*
X155088000Y-87675000D03*
%TD*%
D13*
%TO.C,LEDL11*%
X115500000Y-44425000D03*
X117000000Y-44425000D03*
%TD*%
%TO.C,LEDL10*%
X96450000Y-44425000D03*
X97950000Y-44425000D03*
%TD*%
D10*
%TO.C,SWL18*%
X134562000Y-68625000D03*
D11*
X135062000Y-72425000D03*
D12*
X140062000Y-68625000D03*
D11*
X140062000Y-74525000D03*
D10*
X145562000Y-68625000D03*
%TD*%
D15*
%TO.C,LEDL29*%
X131288000Y-111875000D03*
X129788000Y-111875000D03*
%TD*%
D13*
%TO.C,LEDL26*%
X55969000Y-101575000D03*
X57469000Y-101575000D03*
%TD*%
D10*
%TO.C,SWL8*%
X53600000Y-49575000D03*
D11*
X54100000Y-53375000D03*
D12*
X59100000Y-49575000D03*
D11*
X59100000Y-55475000D03*
D10*
X64600000Y-49575000D03*
%TD*%
%TO.C,SWL14*%
X58363000Y-68625000D03*
D11*
X58863000Y-72425000D03*
D12*
X63863000Y-68625000D03*
D11*
X63863000Y-74525000D03*
D10*
X69363000Y-68625000D03*
%TD*%
D13*
%TO.C,LEDL24*%
X148838000Y-82525000D03*
X150338000Y-82525000D03*
%TD*%
D10*
%TO.C,SWL12*%
X129800000Y-49575000D03*
D11*
X130300000Y-53375000D03*
D12*
X135300000Y-49575000D03*
D11*
X135300000Y-55475000D03*
D10*
X140800000Y-49575000D03*
%TD*%
D13*
%TO.C,LEDL12*%
X134550000Y-44425000D03*
X136050000Y-44425000D03*
%TD*%
D10*
%TO.C,SWL19*%
X36931000Y-87675000D03*
D11*
X37431000Y-91475000D03*
D12*
X42431000Y-87675000D03*
D11*
X42431000Y-93575000D03*
D10*
X47931000Y-87675000D03*
%TD*%
D13*
%TO.C,LEDL28*%
X101213000Y-101575000D03*
X102713000Y-101575000D03*
%TD*%
%TO.C,LEDL5*%
X105975000Y-25375000D03*
X107475000Y-25375000D03*
%TD*%
%TO.C,LEDL6*%
X125025000Y-25375000D03*
X126525000Y-25375000D03*
%TD*%
D14*
%TO.C,H4*%
X143000000Y-113250000D03*
%TD*%
D13*
%TO.C,LEDL1*%
X29775000Y-25375000D03*
X31275000Y-25375000D03*
%TD*%
%TO.C,LEDL21*%
X91688000Y-82525000D03*
X93188000Y-82525000D03*
%TD*%
D10*
%TO.C,SWL17*%
X115513000Y-68625000D03*
D11*
X116013000Y-72425000D03*
D12*
X121013000Y-68625000D03*
D11*
X121013000Y-74525000D03*
D10*
X126513000Y-68625000D03*
%TD*%
%TO.C,SWL27*%
X75031000Y-106725000D03*
D11*
X75531000Y-110525000D03*
D12*
X80531000Y-106725000D03*
D11*
X80531000Y-112625000D03*
D10*
X86031000Y-106725000D03*
%TD*%
%TO.C,SWL5*%
X101225000Y-30525000D03*
D11*
X101725000Y-34325000D03*
D12*
X106725000Y-30525000D03*
D11*
X106725000Y-36425000D03*
D10*
X112225000Y-30525000D03*
%TD*%
%TO.C,SWL1*%
X25025000Y-30525000D03*
D11*
X25525000Y-34325000D03*
D12*
X30525000Y-30525000D03*
D11*
X30525000Y-36425000D03*
D10*
X36025000Y-30525000D03*
%TD*%
D13*
%TO.C,LEDL20*%
X72638000Y-82525000D03*
X74138000Y-82525000D03*
%TD*%
%TO.C,LEDL13*%
X36919000Y-63475000D03*
X38419000Y-63475000D03*
%TD*%
%TO.C,LEDL17*%
X120263000Y-63475000D03*
X121763000Y-63475000D03*
%TD*%
D10*
%TO.C,SWL16*%
X96463000Y-68625000D03*
D11*
X96963000Y-72425000D03*
D12*
X101963000Y-68625000D03*
D11*
X101963000Y-74525000D03*
D10*
X107463000Y-68625000D03*
%TD*%
%TO.C,SWL6*%
X120275000Y-30525000D03*
D11*
X120775000Y-34325000D03*
D12*
X125775000Y-30525000D03*
D11*
X125775000Y-36425000D03*
D10*
X131275000Y-30525000D03*
%TD*%
%TO.C,SWL25*%
X27406000Y-106725000D03*
D11*
X27906000Y-110525000D03*
D12*
X32906000Y-106725000D03*
D11*
X32906000Y-112625000D03*
D10*
X38406000Y-106725000D03*
%TD*%
D13*
%TO.C,LEDL14*%
X63113000Y-63475000D03*
X64613000Y-63475000D03*
%TD*%
D10*
%TO.C,SWL20*%
X67888000Y-87675000D03*
D11*
X68388000Y-91475000D03*
D12*
X73388000Y-87675000D03*
D11*
X73388000Y-93575000D03*
D10*
X78888000Y-87675000D03*
%TD*%
%TO.C,SWL4*%
X82175000Y-30525000D03*
D11*
X82675000Y-34325000D03*
D12*
X87675000Y-30525000D03*
D11*
X87675000Y-36425000D03*
D10*
X93175000Y-30525000D03*
%TD*%
D13*
%TO.C,LEDL15*%
X82163000Y-63475000D03*
X83663000Y-63475000D03*
%TD*%
D10*
%TO.C,SWL22*%
X105987000Y-87675000D03*
D11*
X106487000Y-91475000D03*
D12*
X111487000Y-87675000D03*
D11*
X111487000Y-93575000D03*
D10*
X116987000Y-87675000D03*
%TD*%
D13*
%TO.C,LEDL7*%
X34538000Y-44425000D03*
X36038000Y-44425000D03*
%TD*%
D14*
%TO.C,H1*%
X16000000Y-24000000D03*
%TD*%
D10*
%TO.C,SWL13*%
X32169000Y-68625000D03*
D11*
X32669000Y-72425000D03*
D12*
X37669000Y-68625000D03*
D11*
X37669000Y-74525000D03*
D10*
X43169000Y-68625000D03*
%TD*%
D13*
%TO.C,LEDL19*%
X41681000Y-82525000D03*
X43181000Y-82525000D03*
%TD*%
D10*
%TO.C,SWL10*%
X91700000Y-49575000D03*
D11*
X92200000Y-53375000D03*
D12*
X97200000Y-49575000D03*
D11*
X97200000Y-55475000D03*
D10*
X102700000Y-49575000D03*
%TD*%
D13*
%TO.C,LEDL4*%
X86925000Y-25375000D03*
X88425000Y-25375000D03*
%TD*%
D14*
%TO.C,H2*%
X16000000Y-113250000D03*
%TD*%
D13*
%TO.C,LEDL23*%
X129788000Y-82525000D03*
X131288000Y-82525000D03*
%TD*%
D10*
%TO.C,SWL3*%
X63125000Y-30525000D03*
D11*
X63625000Y-34325000D03*
D12*
X68625000Y-30525000D03*
D11*
X68625000Y-36425000D03*
D10*
X74125000Y-30525000D03*
%TD*%
D16*
%TO.C,SWP1*%
X11500000Y-70125000D03*
X11500000Y-67125000D03*
%TD*%
D17*
%TO.C,J3*%
X129640000Y-116000000D03*
D18*
X130910000Y-116000000D03*
X132180000Y-116000000D03*
X133450000Y-116000000D03*
X134720000Y-116000000D03*
X135990000Y-116000000D03*
%TD*%
D19*
%TO.C,U1*%
X12630000Y-80055000D03*
X15170000Y-80055000D03*
X17710000Y-80055000D03*
X20250000Y-80055000D03*
X22790000Y-80055000D03*
X25330000Y-80055000D03*
X27870000Y-80055000D03*
X27870000Y-95295000D03*
X25330000Y-95295000D03*
X22790000Y-95295000D03*
X20250000Y-95295000D03*
X17710000Y-95295000D03*
X15170000Y-95295000D03*
X12630000Y-95295000D03*
D20*
X25767820Y-86081012D03*
X25767820Y-89281010D03*
%TD*%
M02*
