%TF.GenerationSoftware,KiCad,Pcbnew,9.0.6*%
%TF.CreationDate,2026-08-30T14:34:05+09:00*%
%TF.ProjectId,SplitChoc64_LEFT,53706c69-7443-4686-9f63-36345f4c4546,rev?*%
%TF.SameCoordinates,Original*%
%TF.FileFunction,Soldermask,Bot*%
%TF.FilePolarity,Negative*%
%FSLAX46Y46*%
G04 Gerber Fmt 4.6, Leading zero omitted, Abs format (unit mm)*
G04 Created by KiCad (PCBNEW 9.0.6) date 2026-08-30 14:34:05*
%MOMM*%
%LPD*%
G01*
G04 APERTURE LIST*
G04 Aperture macros list*
%AMRoundRect*
0 Rectangle with rounded corners*
0 $1 Rounding radius*
0 $2 $3 $4 $5 $6 $7 $8 $9 X,Y pos of 4 corners*
0 Add a 4 corners polygon primitive as box body*
4,1,4,$2,$3,$4,$5,$6,$7,$8,$9,$2,$3,0*
0 Add four circle primitives for the rounded corners*
1,1,$1+$1,$2,$3*
1,1,$1+$1,$4,$5*
1,1,$1+$1,$6,$7*
1,1,$1+$1,$8,$9*
0 Add four rect primitives between the rounded corners*
20,1,$1+$1,$2,$3,$4,$5,0*
20,1,$1+$1,$4,$5,$6,$7,0*
20,1,$1+$1,$6,$7,$8,$9,0*
20,1,$1+$1,$8,$9,$2,$3,0*%
%AMFreePoly0*
4,1,15,-0.616000,0.142500,-0.283500,0.475000,0.521000,0.475000,0.557355,0.467769,0.588175,0.447175,0.608769,0.416355,0.616000,0.380000,0.616000,-0.380000,0.608769,-0.416355,0.588175,-0.447175,0.557355,-0.467769,0.521000,-0.475000,-0.283500,-0.475000,-0.616000,-0.142500,-0.616000,0.142500,-0.616000,0.142500,$1*%
G04 Aperture macros list end*
%ADD10C,1.701800*%
%ADD11C,3.000000*%
%ADD12C,5.000000*%
%ADD13C,1.650000*%
%ADD14RoundRect,0.520000X-0.780000X-0.780000X0.780000X-0.780000X0.780000X0.780000X-0.780000X0.780000X0*%
%ADD15C,2.200000*%
%ADD16RoundRect,0.190000X-0.285000X-0.285000X0.285000X-0.285000X0.285000X0.285000X-0.285000X0.285000X0*%
%ADD17RoundRect,0.200000X0.400000X0.300000X-0.400000X0.300000X-0.400000X-0.300000X0.400000X-0.300000X0*%
%ADD18RoundRect,0.180000X-0.320000X-0.270000X0.320000X-0.270000X0.320000X0.270000X-0.320000X0.270000X0*%
%ADD19RoundRect,0.190000X0.285000X-0.285000X0.285000X0.285000X-0.285000X0.285000X-0.285000X-0.285000X0*%
%ADD20C,0.900000*%
%ADD21RoundRect,0.102000X0.750000X-0.350000X0.750000X0.350000X-0.750000X0.350000X-0.750000X-0.350000X0*%
%ADD22RoundRect,0.102000X-0.500000X-0.400000X0.500000X-0.400000X0.500000X0.400000X-0.500000X0.400000X0*%
%ADD23RoundRect,0.190000X-0.285000X0.285000X-0.285000X-0.285000X0.285000X-0.285000X0.285000X0.285000X0*%
%ADD24R,0.300000X0.900000*%
%ADD25R,0.800000X1.200000*%
%ADD26R,1.100000X1.100000*%
%ADD27C,1.100000*%
%ADD28RoundRect,0.160000X-0.290000X0.240000X-0.290000X-0.240000X0.290000X-0.240000X0.290000X0.240000X0*%
%ADD29RoundRect,0.250000X0.250000X1.500000X-0.250000X1.500000X-0.250000X-1.500000X0.250000X-1.500000X0*%
%ADD30RoundRect,0.250001X0.499999X1.449999X-0.499999X1.449999X-0.499999X-1.449999X0.499999X-1.449999X0*%
%ADD31C,1.400000*%
%ADD32RoundRect,0.095000X-0.380000X0.921000X-0.380000X-0.921000X0.380000X-0.921000X0.380000X0.921000X0*%
%ADD33RoundRect,0.095000X0.380000X-0.921000X0.380000X0.921000X-0.380000X0.921000X-0.380000X-0.921000X0*%
%ADD34FreePoly0,270.000000*%
%ADD35FreePoly0,90.000000*%
%ADD36C,1.700000*%
%ADD37O,4.200000X2.600000*%
%ADD38RoundRect,0.190000X0.285000X0.285000X-0.285000X0.285000X-0.285000X-0.285000X0.285000X-0.285000X0*%
G04 APERTURE END LIST*
D10*
%TO.C,SWL2*%
X44075000Y-30525000D03*
D11*
X44575000Y-34325000D03*
D12*
X49575000Y-30525000D03*
D11*
X49575000Y-36425000D03*
D13*
X54575000Y-25375000D03*
D10*
X55075000Y-30525000D03*
D14*
X53275000Y-36425000D03*
X40875000Y-34325000D03*
%TD*%
D10*
%TO.C,SWL11*%
X110750000Y-49575000D03*
D11*
X111250000Y-53375000D03*
D12*
X116250000Y-49575000D03*
D11*
X116250000Y-55475000D03*
D13*
X121250000Y-44425000D03*
D10*
X121750000Y-49575000D03*
D14*
X119950000Y-55475000D03*
X107550000Y-53375000D03*
%TD*%
D10*
%TO.C,SWL28*%
X96463000Y-106725000D03*
D11*
X96963000Y-110525000D03*
D12*
X101963000Y-106725000D03*
D11*
X101963000Y-112625000D03*
D13*
X106963000Y-101575000D03*
D10*
X107463000Y-106725000D03*
D14*
X105663000Y-112625000D03*
X93263000Y-110525000D03*
%TD*%
D10*
%TO.C,SWL9*%
X72650000Y-49575000D03*
D11*
X73150000Y-53375000D03*
D12*
X78150000Y-49575000D03*
D11*
X78150000Y-55475000D03*
D13*
X83150000Y-44425000D03*
D10*
X83650000Y-49575000D03*
D14*
X81850000Y-55475000D03*
X69450000Y-53375000D03*
%TD*%
D15*
%TO.C,H3*%
X116200000Y-24000000D03*
%TD*%
D10*
%TO.C,SWL15*%
X77413000Y-68625000D03*
D11*
X77913000Y-72425000D03*
D12*
X82913000Y-68625000D03*
D11*
X82913000Y-74525000D03*
D13*
X87913000Y-63475000D03*
D10*
X88413000Y-68625000D03*
D14*
X86613000Y-74525000D03*
X74213000Y-72425000D03*
%TD*%
D10*
%TO.C,SWL26*%
X51219000Y-106725000D03*
D11*
X51719000Y-110525000D03*
D12*
X56719000Y-106725000D03*
D11*
X56719000Y-112625000D03*
D13*
X61719000Y-101575000D03*
D10*
X62219000Y-106725000D03*
D14*
X60419000Y-112625000D03*
X48019000Y-110525000D03*
%TD*%
D10*
%TO.C,SWL23*%
X125038000Y-87675000D03*
D11*
X125538000Y-91475000D03*
D12*
X130538000Y-87675000D03*
D11*
X130538000Y-93575000D03*
D13*
X135538000Y-82525000D03*
D10*
X136038000Y-87675000D03*
D14*
X134238000Y-93575000D03*
X121838000Y-91475000D03*
%TD*%
D10*
%TO.C,SWL7*%
X29788000Y-49575000D03*
D11*
X30288000Y-53375000D03*
D12*
X35288000Y-49575000D03*
D11*
X35288000Y-55475000D03*
D13*
X40288000Y-44425000D03*
D10*
X40788000Y-49575000D03*
D14*
X38988000Y-55475000D03*
X26588000Y-53375000D03*
%TD*%
D10*
%TO.C,SWL21*%
X86938000Y-87675000D03*
D11*
X87438000Y-91475000D03*
D12*
X92438000Y-87675000D03*
D11*
X92438000Y-93575000D03*
D13*
X97438000Y-82525000D03*
D10*
X97938000Y-87675000D03*
D14*
X96138000Y-93575000D03*
X83738000Y-91475000D03*
%TD*%
D10*
%TO.C,SWL29*%
X136038000Y-106725000D03*
D11*
X135538000Y-102925000D03*
D12*
X130538000Y-106725000D03*
D11*
X130538000Y-100825000D03*
D13*
X125538000Y-111875000D03*
D10*
X125038000Y-106725000D03*
D14*
X126838000Y-100825000D03*
X139238000Y-102925000D03*
%TD*%
D10*
%TO.C,SWL24*%
X144088000Y-87675000D03*
D11*
X144588000Y-91475000D03*
D12*
X149588000Y-87675000D03*
D11*
X149588000Y-93575000D03*
D13*
X154588000Y-82525000D03*
D10*
X155088000Y-87675000D03*
D14*
X153288000Y-93575000D03*
X140888000Y-91475000D03*
%TD*%
D10*
%TO.C,SWL18*%
X134562000Y-68625000D03*
D11*
X135062000Y-72425000D03*
D12*
X140062000Y-68625000D03*
D11*
X140062000Y-74525000D03*
D13*
X145062000Y-63475000D03*
D10*
X145562000Y-68625000D03*
D14*
X143762000Y-74525000D03*
X131362000Y-72425000D03*
%TD*%
D10*
%TO.C,SWL8*%
X53600000Y-49575000D03*
D11*
X54100000Y-53375000D03*
D12*
X59100000Y-49575000D03*
D11*
X59100000Y-55475000D03*
D13*
X64100000Y-44425000D03*
D10*
X64600000Y-49575000D03*
D14*
X62800000Y-55475000D03*
X50400000Y-53375000D03*
%TD*%
D10*
%TO.C,SWL14*%
X58363000Y-68625000D03*
D11*
X58863000Y-72425000D03*
D12*
X63863000Y-68625000D03*
D11*
X63863000Y-74525000D03*
D13*
X68863000Y-63475000D03*
D10*
X69363000Y-68625000D03*
D14*
X67563000Y-74525000D03*
X55163000Y-72425000D03*
%TD*%
D10*
%TO.C,SWL12*%
X129800000Y-49575000D03*
D11*
X130300000Y-53375000D03*
D12*
X135300000Y-49575000D03*
D11*
X135300000Y-55475000D03*
D13*
X140300000Y-44425000D03*
D10*
X140800000Y-49575000D03*
D14*
X139000000Y-55475000D03*
X126600000Y-53375000D03*
%TD*%
D10*
%TO.C,SWL19*%
X36931000Y-87675000D03*
D11*
X37431000Y-91475000D03*
D12*
X42431000Y-87675000D03*
D11*
X42431000Y-93575000D03*
D13*
X47431000Y-82525000D03*
D10*
X47931000Y-87675000D03*
D14*
X46131000Y-93575000D03*
X33731000Y-91475000D03*
%TD*%
D15*
%TO.C,H4*%
X143000000Y-113250000D03*
%TD*%
D10*
%TO.C,SWL17*%
X115513000Y-68625000D03*
D11*
X116013000Y-72425000D03*
D12*
X121013000Y-68625000D03*
D11*
X121013000Y-74525000D03*
D13*
X126013000Y-63475000D03*
D10*
X126513000Y-68625000D03*
D14*
X124713000Y-74525000D03*
X112313000Y-72425000D03*
%TD*%
D10*
%TO.C,SWL27*%
X75031000Y-106725000D03*
D11*
X75531000Y-110525000D03*
D12*
X80531000Y-106725000D03*
D11*
X80531000Y-112625000D03*
D13*
X85531000Y-101575000D03*
D10*
X86031000Y-106725000D03*
D14*
X84231000Y-112625000D03*
X71831000Y-110525000D03*
%TD*%
D10*
%TO.C,SWL5*%
X101225000Y-30525000D03*
D11*
X101725000Y-34325000D03*
D12*
X106725000Y-30525000D03*
D11*
X106725000Y-36425000D03*
D13*
X111725000Y-25375000D03*
D10*
X112225000Y-30525000D03*
D14*
X110425000Y-36425000D03*
X98025000Y-34325000D03*
%TD*%
D10*
%TO.C,SWL1*%
X25025000Y-30525000D03*
D11*
X25525000Y-34325000D03*
D12*
X30525000Y-30525000D03*
D11*
X30525000Y-36425000D03*
D13*
X35525000Y-25375000D03*
D10*
X36025000Y-30525000D03*
D14*
X34225000Y-36425000D03*
X21825000Y-34325000D03*
%TD*%
D10*
%TO.C,SWL16*%
X96463000Y-68625000D03*
D11*
X96963000Y-72425000D03*
D12*
X101963000Y-68625000D03*
D11*
X101963000Y-74525000D03*
D13*
X106963000Y-63475000D03*
D10*
X107463000Y-68625000D03*
D14*
X105663000Y-74525000D03*
X93263000Y-72425000D03*
%TD*%
D10*
%TO.C,SWL6*%
X120275000Y-30525000D03*
D11*
X120775000Y-34325000D03*
D12*
X125775000Y-30525000D03*
D11*
X125775000Y-36425000D03*
D13*
X130775000Y-25375000D03*
D10*
X131275000Y-30525000D03*
D14*
X129475000Y-36425000D03*
X117075000Y-34325000D03*
%TD*%
D10*
%TO.C,SWL25*%
X27406000Y-106725000D03*
D11*
X27906000Y-110525000D03*
D12*
X32906000Y-106725000D03*
D11*
X32906000Y-112625000D03*
D13*
X37906000Y-101575000D03*
D10*
X38406000Y-106725000D03*
D14*
X36606000Y-112625000D03*
X24206000Y-110525000D03*
%TD*%
D10*
%TO.C,SWL20*%
X67888000Y-87675000D03*
D11*
X68388000Y-91475000D03*
D12*
X73388000Y-87675000D03*
D11*
X73388000Y-93575000D03*
D13*
X78388000Y-82525000D03*
D10*
X78888000Y-87675000D03*
D14*
X77088000Y-93575000D03*
X64688000Y-91475000D03*
%TD*%
D10*
%TO.C,SWL4*%
X82175000Y-30525000D03*
D11*
X82675000Y-34325000D03*
D12*
X87675000Y-30525000D03*
D11*
X87675000Y-36425000D03*
D13*
X92675000Y-25375000D03*
D10*
X93175000Y-30525000D03*
D14*
X91375000Y-36425000D03*
X78975000Y-34325000D03*
%TD*%
D10*
%TO.C,SWL22*%
X105987000Y-87675000D03*
D11*
X106487000Y-91475000D03*
D12*
X111487000Y-87675000D03*
D11*
X111487000Y-93575000D03*
D13*
X116487000Y-82525000D03*
D10*
X116987000Y-87675000D03*
D14*
X115187000Y-93575000D03*
X102787000Y-91475000D03*
%TD*%
D15*
%TO.C,H1*%
X16000000Y-24000000D03*
%TD*%
D10*
%TO.C,SWL13*%
X32169000Y-68625000D03*
D11*
X32669000Y-72425000D03*
D12*
X37669000Y-68625000D03*
D11*
X37669000Y-74525000D03*
D13*
X42669000Y-63475000D03*
D10*
X43169000Y-68625000D03*
D14*
X41369000Y-74525000D03*
X28969000Y-72425000D03*
%TD*%
D10*
%TO.C,SWL10*%
X91700000Y-49575000D03*
D11*
X92200000Y-53375000D03*
D12*
X97200000Y-49575000D03*
D11*
X97200000Y-55475000D03*
D13*
X102200000Y-44425000D03*
D10*
X102700000Y-49575000D03*
D14*
X100900000Y-55475000D03*
X88500000Y-53375000D03*
%TD*%
D15*
%TO.C,H2*%
X16000000Y-113250000D03*
%TD*%
D10*
%TO.C,SWL3*%
X63125000Y-30525000D03*
D11*
X63625000Y-34325000D03*
D12*
X68625000Y-30525000D03*
D11*
X68625000Y-36425000D03*
D13*
X73625000Y-25375000D03*
D10*
X74125000Y-30525000D03*
D14*
X72325000Y-36425000D03*
X59925000Y-34325000D03*
%TD*%
D16*
%TO.C,RBLL10*%
X96350000Y-43000000D03*
X98000000Y-43000000D03*
%TD*%
D17*
%TO.C,DL15*%
X74663000Y-65425000D03*
X77163000Y-65425000D03*
%TD*%
D18*
%TO.C,QBL1*%
X19000000Y-66950000D03*
X19000000Y-65050000D03*
X21000000Y-66000000D03*
%TD*%
D17*
%TO.C,DL19*%
X34181000Y-84475000D03*
X36681000Y-84475000D03*
%TD*%
D16*
%TO.C,RGBL1*%
X18175000Y-59000000D03*
X19825000Y-59000000D03*
%TD*%
D17*
%TO.C,DL21*%
X84188000Y-84475000D03*
X86688000Y-84475000D03*
%TD*%
%TO.C,DL20*%
X65138000Y-84475000D03*
X67638000Y-84475000D03*
%TD*%
D19*
%TO.C,RBLL3*%
X71200000Y-27050000D03*
X71200000Y-25400000D03*
%TD*%
D20*
%TO.C,SWP1*%
X11500000Y-70125000D03*
X11500000Y-67125000D03*
D21*
X13250000Y-70875000D03*
X13250000Y-67875000D03*
X13250000Y-66375000D03*
D22*
X12465000Y-72275000D03*
X10535000Y-72275000D03*
X10535000Y-64975000D03*
X12465000Y-64975000D03*
%TD*%
D23*
%TO.C,RBLL18*%
X142600000Y-61750000D03*
X142600000Y-63400000D03*
%TD*%
D17*
%TO.C,DL13*%
X29419000Y-65425000D03*
X31919000Y-65425000D03*
%TD*%
D23*
%TO.C,RBLL12*%
X137800000Y-42750000D03*
X137800000Y-44400000D03*
%TD*%
D16*
%TO.C,RBLL8*%
X60375000Y-43000000D03*
X62025000Y-43000000D03*
%TD*%
D17*
%TO.C,DL18*%
X131812000Y-65425000D03*
X134312000Y-65425000D03*
%TD*%
D19*
%TO.C,RBLL23*%
X133400000Y-84050000D03*
X133400000Y-82400000D03*
%TD*%
%TO.C,RBLL14*%
X66400000Y-64850000D03*
X66400000Y-63200000D03*
%TD*%
D23*
%TO.C,RBLL15*%
X85200000Y-61800000D03*
X85200000Y-63450000D03*
%TD*%
D16*
%TO.C,RPDL1*%
X25675000Y-59000000D03*
X27325000Y-59000000D03*
%TD*%
D23*
%TO.C,RBLL29*%
X128400000Y-110200000D03*
X128400000Y-111850000D03*
%TD*%
D17*
%TO.C,DL28*%
X93713000Y-103525000D03*
X96213000Y-103525000D03*
%TD*%
%TO.C,DL10*%
X88950000Y-46375000D03*
X91450000Y-46375000D03*
%TD*%
%TO.C,DL27*%
X72281000Y-103525000D03*
X74781000Y-103525000D03*
%TD*%
D19*
%TO.C,RBLL21*%
X95200000Y-84050000D03*
X95200000Y-82400000D03*
%TD*%
D16*
%TO.C,RBLL6*%
X126450000Y-26375000D03*
X128100000Y-26375000D03*
%TD*%
D23*
%TO.C,RBLL17*%
X123600000Y-61800000D03*
X123600000Y-63450000D03*
%TD*%
%TO.C,RBLL26*%
X59200000Y-99950000D03*
X59200000Y-101600000D03*
%TD*%
D17*
%TO.C,DL25*%
X24656000Y-103525000D03*
X27156000Y-103525000D03*
%TD*%
D24*
%TO.C,J5*%
X120250000Y-115850000D03*
X120750000Y-115850000D03*
X121250000Y-115850000D03*
X121750000Y-115850000D03*
X122250000Y-115850000D03*
X122750000Y-115850000D03*
D25*
X118950000Y-115450000D03*
X124050000Y-115450000D03*
%TD*%
D26*
%TO.C,J3*%
X129640000Y-116000000D03*
D27*
X130910000Y-116000000D03*
X132180000Y-116000000D03*
X133450000Y-116000000D03*
X134720000Y-116000000D03*
X135990000Y-116000000D03*
%TD*%
D17*
%TO.C,DL17*%
X112763000Y-65425000D03*
X115263000Y-65425000D03*
%TD*%
%TO.C,DL4*%
X79425000Y-27325000D03*
X81925000Y-27325000D03*
%TD*%
D28*
%TO.C,DLED1*%
X10350000Y-76800000D03*
X10350000Y-75200000D03*
%TD*%
D29*
%TO.C,J1*%
X58000000Y-92100000D03*
X56000000Y-92100000D03*
D30*
X60350000Y-86350000D03*
X53650000Y-86350000D03*
%TD*%
D17*
%TO.C,DL3*%
X60375000Y-27325000D03*
X62875000Y-27325000D03*
%TD*%
%TO.C,DL12*%
X127050000Y-46375000D03*
X129550000Y-46375000D03*
%TD*%
D19*
%TO.C,RBLL1*%
X33200000Y-25450000D03*
X33200000Y-23800000D03*
%TD*%
D17*
%TO.C,DL7*%
X27038000Y-46375000D03*
X29538000Y-46375000D03*
%TD*%
D19*
%TO.C,RBLL24*%
X152400000Y-84250000D03*
X152400000Y-82600000D03*
%TD*%
D17*
%TO.C,DL24*%
X141338000Y-84475000D03*
X143838000Y-84475000D03*
%TD*%
%TO.C,DL5*%
X98475000Y-27325000D03*
X100975000Y-27325000D03*
%TD*%
%TO.C,DL29*%
X122288000Y-103525000D03*
X124788000Y-103525000D03*
%TD*%
D19*
%TO.C,RBLL19*%
X45000000Y-84050000D03*
X45000000Y-82400000D03*
%TD*%
D17*
%TO.C,DL22*%
X103237000Y-84475000D03*
X105737000Y-84475000D03*
%TD*%
%TO.C,DL23*%
X122288000Y-84475000D03*
X124788000Y-84475000D03*
%TD*%
%TO.C,DL9*%
X69900000Y-46375000D03*
X72400000Y-46375000D03*
%TD*%
%TO.C,DL11*%
X108000000Y-46375000D03*
X110500000Y-46375000D03*
%TD*%
D31*
%TO.C,U1*%
X12630000Y-80055000D03*
D32*
X12630000Y-79420000D03*
D31*
X15170000Y-80055000D03*
D32*
X15170000Y-79420000D03*
D31*
X17710000Y-80055000D03*
D32*
X17710000Y-79420000D03*
D31*
X20250000Y-80055000D03*
D32*
X20250000Y-79420000D03*
D31*
X22790000Y-80055000D03*
D32*
X22790000Y-79420000D03*
D31*
X25330000Y-80055000D03*
D32*
X25330000Y-79420000D03*
D31*
X27870000Y-80055000D03*
D32*
X27870000Y-79420000D03*
D33*
X27870000Y-95930000D03*
D31*
X27870000Y-95295000D03*
D33*
X25330000Y-95930000D03*
D31*
X25330000Y-95295000D03*
D33*
X22790000Y-95930000D03*
D31*
X22790000Y-95295000D03*
D33*
X20250000Y-95930000D03*
D31*
X20250000Y-95295000D03*
D33*
X17710000Y-95930000D03*
D31*
X17710000Y-95295000D03*
D33*
X15170000Y-95930000D03*
D31*
X15170000Y-95295000D03*
D33*
X12630000Y-95930000D03*
D31*
X12630000Y-95295000D03*
D34*
X13900000Y-79020000D03*
X16440000Y-79020000D03*
X18980000Y-79020000D03*
X21520000Y-79020000D03*
X24060000Y-79020000D03*
X26600000Y-79020000D03*
D35*
X26600000Y-96330000D03*
X24060000Y-96330000D03*
X21520000Y-96330000D03*
D36*
X11677500Y-86405000D03*
X11677500Y-88945000D03*
X14217500Y-86405000D03*
X14217500Y-88945000D03*
X16694000Y-86405000D03*
X16694000Y-88945000D03*
X19234000Y-86405000D03*
X19234000Y-88945000D03*
D37*
X25767820Y-86081012D03*
X25767820Y-89281010D03*
%TD*%
D16*
%TO.C,RLED1*%
X14600000Y-76825000D03*
X14600000Y-75175000D03*
%TD*%
D23*
%TO.C,RBLL16*%
X104400000Y-61750000D03*
X104400000Y-63400000D03*
%TD*%
D19*
%TO.C,RBLL22*%
X114200000Y-84250000D03*
X114200000Y-82600000D03*
%TD*%
D23*
%TO.C,RBLL27*%
X83025000Y-99800000D03*
X83025000Y-101450000D03*
%TD*%
%TO.C,RBLL11*%
X118800000Y-42800000D03*
X118800000Y-44450000D03*
%TD*%
D16*
%TO.C,RBLL7*%
X35463000Y-42925000D03*
X37113000Y-42925000D03*
%TD*%
D23*
%TO.C,RBLL9*%
X80800000Y-42750000D03*
X80800000Y-44400000D03*
%TD*%
%TO.C,RBLL4*%
X90675000Y-23050000D03*
X90675000Y-24700000D03*
%TD*%
%TO.C,RBLL2*%
X52175000Y-23750000D03*
X52175000Y-25400000D03*
%TD*%
D17*
%TO.C,DL1*%
X22275000Y-27325000D03*
X24775000Y-27325000D03*
%TD*%
%TO.C,DL16*%
X93713000Y-65425000D03*
X96213000Y-65425000D03*
%TD*%
%TO.C,DL6*%
X117525000Y-27325000D03*
X120025000Y-27325000D03*
%TD*%
%TO.C,DL26*%
X48469000Y-103525000D03*
X50969000Y-103525000D03*
%TD*%
D23*
%TO.C,RBLL25*%
X35200000Y-101000000D03*
X35200000Y-102650000D03*
%TD*%
D17*
%TO.C,DL14*%
X55613000Y-65425000D03*
X58113000Y-65425000D03*
%TD*%
%TO.C,DL8*%
X50850000Y-46375000D03*
X53350000Y-46375000D03*
%TD*%
D23*
%TO.C,RBLL28*%
X104400000Y-100000000D03*
X104400000Y-101650000D03*
%TD*%
%TO.C,RBLL13*%
X40200000Y-61800000D03*
X40200000Y-63450000D03*
%TD*%
D17*
%TO.C,DL2*%
X41325000Y-27325000D03*
X43825000Y-27325000D03*
%TD*%
D38*
%TO.C,RBLL5*%
X112400000Y-23600000D03*
X110750000Y-23600000D03*
%TD*%
D19*
%TO.C,RBLL20*%
X76000000Y-84050000D03*
X76000000Y-82400000D03*
%TD*%
M02*
