%TF.GenerationSoftware,KiCad,Pcbnew,9.0.6*%
%TF.CreationDate,2026-08-30T14:34:05+09:00*%
%TF.ProjectId,SplitChoc64_LEFT,53706c69-7443-4686-9f63-36345f4c4546,rev?*%
%TF.SameCoordinates,Original*%
%TF.FileFunction,Legend,Top*%
%TF.FilePolarity,Positive*%
%FSLAX46Y46*%
G04 Gerber Fmt 4.6, Leading zero omitted, Abs format (unit mm)*
G04 Created by KiCad (PCBNEW 9.0.6) date 2026-08-30 14:34:05*
%MOMM*%
%LPD*%
G01*
G04 APERTURE LIST*
%ADD10C,0.320000*%
%ADD11C,0.100000*%
%ADD12C,0.120000*%
%ADD13C,0.250000*%
G04 APERTURE END LIST*
D10*
X46380952Y-92813360D02*
X46666666Y-92908598D01*
X46666666Y-92908598D02*
X47142857Y-92908598D01*
X47142857Y-92908598D02*
X47333333Y-92813360D01*
X47333333Y-92813360D02*
X47428571Y-92718121D01*
X47428571Y-92718121D02*
X47523809Y-92527645D01*
X47523809Y-92527645D02*
X47523809Y-92337169D01*
X47523809Y-92337169D02*
X47428571Y-92146693D01*
X47428571Y-92146693D02*
X47333333Y-92051455D01*
X47333333Y-92051455D02*
X47142857Y-91956217D01*
X47142857Y-91956217D02*
X46761904Y-91860979D01*
X46761904Y-91860979D02*
X46571428Y-91765740D01*
X46571428Y-91765740D02*
X46476190Y-91670502D01*
X46476190Y-91670502D02*
X46380952Y-91480026D01*
X46380952Y-91480026D02*
X46380952Y-91289550D01*
X46380952Y-91289550D02*
X46476190Y-91099074D01*
X46476190Y-91099074D02*
X46571428Y-91003836D01*
X46571428Y-91003836D02*
X46761904Y-90908598D01*
X46761904Y-90908598D02*
X47238095Y-90908598D01*
X47238095Y-90908598D02*
X47523809Y-91003836D01*
X48380952Y-91575264D02*
X48380952Y-93575264D01*
X48380952Y-91670502D02*
X48571428Y-91575264D01*
X48571428Y-91575264D02*
X48952381Y-91575264D01*
X48952381Y-91575264D02*
X49142857Y-91670502D01*
X49142857Y-91670502D02*
X49238095Y-91765740D01*
X49238095Y-91765740D02*
X49333333Y-91956217D01*
X49333333Y-91956217D02*
X49333333Y-92527645D01*
X49333333Y-92527645D02*
X49238095Y-92718121D01*
X49238095Y-92718121D02*
X49142857Y-92813360D01*
X49142857Y-92813360D02*
X48952381Y-92908598D01*
X48952381Y-92908598D02*
X48571428Y-92908598D01*
X48571428Y-92908598D02*
X48380952Y-92813360D01*
X50476190Y-92908598D02*
X50285714Y-92813360D01*
X50285714Y-92813360D02*
X50190476Y-92622883D01*
X50190476Y-92622883D02*
X50190476Y-90908598D01*
X51238095Y-92908598D02*
X51238095Y-91575264D01*
X51238095Y-90908598D02*
X51142857Y-91003836D01*
X51142857Y-91003836D02*
X51238095Y-91099074D01*
X51238095Y-91099074D02*
X51333333Y-91003836D01*
X51333333Y-91003836D02*
X51238095Y-90908598D01*
X51238095Y-90908598D02*
X51238095Y-91099074D01*
X51904762Y-91575264D02*
X52666666Y-91575264D01*
X52190476Y-90908598D02*
X52190476Y-92622883D01*
X52190476Y-92622883D02*
X52285714Y-92813360D01*
X52285714Y-92813360D02*
X52476190Y-92908598D01*
X52476190Y-92908598D02*
X52666666Y-92908598D01*
X54476190Y-92718121D02*
X54380952Y-92813360D01*
X54380952Y-92813360D02*
X54095238Y-92908598D01*
X54095238Y-92908598D02*
X53904762Y-92908598D01*
X53904762Y-92908598D02*
X53619047Y-92813360D01*
X53619047Y-92813360D02*
X53428571Y-92622883D01*
X53428571Y-92622883D02*
X53333333Y-92432407D01*
X53333333Y-92432407D02*
X53238095Y-92051455D01*
X53238095Y-92051455D02*
X53238095Y-91765740D01*
X53238095Y-91765740D02*
X53333333Y-91384788D01*
X53333333Y-91384788D02*
X53428571Y-91194312D01*
X53428571Y-91194312D02*
X53619047Y-91003836D01*
X53619047Y-91003836D02*
X53904762Y-90908598D01*
X53904762Y-90908598D02*
X54095238Y-90908598D01*
X54095238Y-90908598D02*
X54380952Y-91003836D01*
X54380952Y-91003836D02*
X54476190Y-91099074D01*
X55333333Y-92908598D02*
X55333333Y-90908598D01*
X56190476Y-92908598D02*
X56190476Y-91860979D01*
X56190476Y-91860979D02*
X56095238Y-91670502D01*
X56095238Y-91670502D02*
X55904762Y-91575264D01*
X55904762Y-91575264D02*
X55619047Y-91575264D01*
X55619047Y-91575264D02*
X55428571Y-91670502D01*
X55428571Y-91670502D02*
X55333333Y-91765740D01*
X57428571Y-92908598D02*
X57238095Y-92813360D01*
X57238095Y-92813360D02*
X57142857Y-92718121D01*
X57142857Y-92718121D02*
X57047619Y-92527645D01*
X57047619Y-92527645D02*
X57047619Y-91956217D01*
X57047619Y-91956217D02*
X57142857Y-91765740D01*
X57142857Y-91765740D02*
X57238095Y-91670502D01*
X57238095Y-91670502D02*
X57428571Y-91575264D01*
X57428571Y-91575264D02*
X57714286Y-91575264D01*
X57714286Y-91575264D02*
X57904762Y-91670502D01*
X57904762Y-91670502D02*
X58000000Y-91765740D01*
X58000000Y-91765740D02*
X58095238Y-91956217D01*
X58095238Y-91956217D02*
X58095238Y-92527645D01*
X58095238Y-92527645D02*
X58000000Y-92718121D01*
X58000000Y-92718121D02*
X57904762Y-92813360D01*
X57904762Y-92813360D02*
X57714286Y-92908598D01*
X57714286Y-92908598D02*
X57428571Y-92908598D01*
X59809524Y-92813360D02*
X59619048Y-92908598D01*
X59619048Y-92908598D02*
X59238095Y-92908598D01*
X59238095Y-92908598D02*
X59047619Y-92813360D01*
X59047619Y-92813360D02*
X58952381Y-92718121D01*
X58952381Y-92718121D02*
X58857143Y-92527645D01*
X58857143Y-92527645D02*
X58857143Y-91956217D01*
X58857143Y-91956217D02*
X58952381Y-91765740D01*
X58952381Y-91765740D02*
X59047619Y-91670502D01*
X59047619Y-91670502D02*
X59238095Y-91575264D01*
X59238095Y-91575264D02*
X59619048Y-91575264D01*
X59619048Y-91575264D02*
X59809524Y-91670502D01*
X61523810Y-90908598D02*
X61142857Y-90908598D01*
X61142857Y-90908598D02*
X60952381Y-91003836D01*
X60952381Y-91003836D02*
X60857143Y-91099074D01*
X60857143Y-91099074D02*
X60666667Y-91384788D01*
X60666667Y-91384788D02*
X60571429Y-91765740D01*
X60571429Y-91765740D02*
X60571429Y-92527645D01*
X60571429Y-92527645D02*
X60666667Y-92718121D01*
X60666667Y-92718121D02*
X60761905Y-92813360D01*
X60761905Y-92813360D02*
X60952381Y-92908598D01*
X60952381Y-92908598D02*
X61333334Y-92908598D01*
X61333334Y-92908598D02*
X61523810Y-92813360D01*
X61523810Y-92813360D02*
X61619048Y-92718121D01*
X61619048Y-92718121D02*
X61714286Y-92527645D01*
X61714286Y-92527645D02*
X61714286Y-92051455D01*
X61714286Y-92051455D02*
X61619048Y-91860979D01*
X61619048Y-91860979D02*
X61523810Y-91765740D01*
X61523810Y-91765740D02*
X61333334Y-91670502D01*
X61333334Y-91670502D02*
X60952381Y-91670502D01*
X60952381Y-91670502D02*
X60761905Y-91765740D01*
X60761905Y-91765740D02*
X60666667Y-91860979D01*
X60666667Y-91860979D02*
X60571429Y-92051455D01*
X63428572Y-91575264D02*
X63428572Y-92908598D01*
X62952381Y-90813360D02*
X62476191Y-92241931D01*
X62476191Y-92241931D02*
X63714286Y-92241931D01*
D11*
X48184523Y-22151800D02*
X48298809Y-22189895D01*
X48298809Y-22189895D02*
X48489285Y-22189895D01*
X48489285Y-22189895D02*
X48565476Y-22151800D01*
X48565476Y-22151800D02*
X48603571Y-22113704D01*
X48603571Y-22113704D02*
X48641666Y-22037514D01*
X48641666Y-22037514D02*
X48641666Y-21961323D01*
X48641666Y-21961323D02*
X48603571Y-21885133D01*
X48603571Y-21885133D02*
X48565476Y-21847038D01*
X48565476Y-21847038D02*
X48489285Y-21808942D01*
X48489285Y-21808942D02*
X48336904Y-21770847D01*
X48336904Y-21770847D02*
X48260714Y-21732752D01*
X48260714Y-21732752D02*
X48222619Y-21694657D01*
X48222619Y-21694657D02*
X48184523Y-21618466D01*
X48184523Y-21618466D02*
X48184523Y-21542276D01*
X48184523Y-21542276D02*
X48222619Y-21466085D01*
X48222619Y-21466085D02*
X48260714Y-21427990D01*
X48260714Y-21427990D02*
X48336904Y-21389895D01*
X48336904Y-21389895D02*
X48527381Y-21389895D01*
X48527381Y-21389895D02*
X48641666Y-21427990D01*
X48908333Y-21389895D02*
X49098809Y-22189895D01*
X49098809Y-22189895D02*
X49251190Y-21618466D01*
X49251190Y-21618466D02*
X49403571Y-22189895D01*
X49403571Y-22189895D02*
X49594048Y-21389895D01*
X50279762Y-22189895D02*
X49898810Y-22189895D01*
X49898810Y-22189895D02*
X49898810Y-21389895D01*
X50508333Y-21466085D02*
X50546429Y-21427990D01*
X50546429Y-21427990D02*
X50622619Y-21389895D01*
X50622619Y-21389895D02*
X50813095Y-21389895D01*
X50813095Y-21389895D02*
X50889286Y-21427990D01*
X50889286Y-21427990D02*
X50927381Y-21466085D01*
X50927381Y-21466085D02*
X50965476Y-21542276D01*
X50965476Y-21542276D02*
X50965476Y-21618466D01*
X50965476Y-21618466D02*
X50927381Y-21732752D01*
X50927381Y-21732752D02*
X50470238Y-22189895D01*
X50470238Y-22189895D02*
X50965476Y-22189895D01*
X114478570Y-41201800D02*
X114592856Y-41239895D01*
X114592856Y-41239895D02*
X114783332Y-41239895D01*
X114783332Y-41239895D02*
X114859523Y-41201800D01*
X114859523Y-41201800D02*
X114897618Y-41163704D01*
X114897618Y-41163704D02*
X114935713Y-41087514D01*
X114935713Y-41087514D02*
X114935713Y-41011323D01*
X114935713Y-41011323D02*
X114897618Y-40935133D01*
X114897618Y-40935133D02*
X114859523Y-40897038D01*
X114859523Y-40897038D02*
X114783332Y-40858942D01*
X114783332Y-40858942D02*
X114630951Y-40820847D01*
X114630951Y-40820847D02*
X114554761Y-40782752D01*
X114554761Y-40782752D02*
X114516666Y-40744657D01*
X114516666Y-40744657D02*
X114478570Y-40668466D01*
X114478570Y-40668466D02*
X114478570Y-40592276D01*
X114478570Y-40592276D02*
X114516666Y-40516085D01*
X114516666Y-40516085D02*
X114554761Y-40477990D01*
X114554761Y-40477990D02*
X114630951Y-40439895D01*
X114630951Y-40439895D02*
X114821428Y-40439895D01*
X114821428Y-40439895D02*
X114935713Y-40477990D01*
X115202380Y-40439895D02*
X115392856Y-41239895D01*
X115392856Y-41239895D02*
X115545237Y-40668466D01*
X115545237Y-40668466D02*
X115697618Y-41239895D01*
X115697618Y-41239895D02*
X115888095Y-40439895D01*
X116573809Y-41239895D02*
X116192857Y-41239895D01*
X116192857Y-41239895D02*
X116192857Y-40439895D01*
X117259523Y-41239895D02*
X116802380Y-41239895D01*
X117030952Y-41239895D02*
X117030952Y-40439895D01*
X117030952Y-40439895D02*
X116954761Y-40554180D01*
X116954761Y-40554180D02*
X116878571Y-40630371D01*
X116878571Y-40630371D02*
X116802380Y-40668466D01*
X118021428Y-41239895D02*
X117564285Y-41239895D01*
X117792857Y-41239895D02*
X117792857Y-40439895D01*
X117792857Y-40439895D02*
X117716666Y-40554180D01*
X117716666Y-40554180D02*
X117640476Y-40630371D01*
X117640476Y-40630371D02*
X117564285Y-40668466D01*
X100191570Y-98351800D02*
X100305856Y-98389895D01*
X100305856Y-98389895D02*
X100496332Y-98389895D01*
X100496332Y-98389895D02*
X100572523Y-98351800D01*
X100572523Y-98351800D02*
X100610618Y-98313704D01*
X100610618Y-98313704D02*
X100648713Y-98237514D01*
X100648713Y-98237514D02*
X100648713Y-98161323D01*
X100648713Y-98161323D02*
X100610618Y-98085133D01*
X100610618Y-98085133D02*
X100572523Y-98047038D01*
X100572523Y-98047038D02*
X100496332Y-98008942D01*
X100496332Y-98008942D02*
X100343951Y-97970847D01*
X100343951Y-97970847D02*
X100267761Y-97932752D01*
X100267761Y-97932752D02*
X100229666Y-97894657D01*
X100229666Y-97894657D02*
X100191570Y-97818466D01*
X100191570Y-97818466D02*
X100191570Y-97742276D01*
X100191570Y-97742276D02*
X100229666Y-97666085D01*
X100229666Y-97666085D02*
X100267761Y-97627990D01*
X100267761Y-97627990D02*
X100343951Y-97589895D01*
X100343951Y-97589895D02*
X100534428Y-97589895D01*
X100534428Y-97589895D02*
X100648713Y-97627990D01*
X100915380Y-97589895D02*
X101105856Y-98389895D01*
X101105856Y-98389895D02*
X101258237Y-97818466D01*
X101258237Y-97818466D02*
X101410618Y-98389895D01*
X101410618Y-98389895D02*
X101601095Y-97589895D01*
X102286809Y-98389895D02*
X101905857Y-98389895D01*
X101905857Y-98389895D02*
X101905857Y-97589895D01*
X102515380Y-97666085D02*
X102553476Y-97627990D01*
X102553476Y-97627990D02*
X102629666Y-97589895D01*
X102629666Y-97589895D02*
X102820142Y-97589895D01*
X102820142Y-97589895D02*
X102896333Y-97627990D01*
X102896333Y-97627990D02*
X102934428Y-97666085D01*
X102934428Y-97666085D02*
X102972523Y-97742276D01*
X102972523Y-97742276D02*
X102972523Y-97818466D01*
X102972523Y-97818466D02*
X102934428Y-97932752D01*
X102934428Y-97932752D02*
X102477285Y-98389895D01*
X102477285Y-98389895D02*
X102972523Y-98389895D01*
X103429666Y-97932752D02*
X103353476Y-97894657D01*
X103353476Y-97894657D02*
X103315381Y-97856561D01*
X103315381Y-97856561D02*
X103277285Y-97780371D01*
X103277285Y-97780371D02*
X103277285Y-97742276D01*
X103277285Y-97742276D02*
X103315381Y-97666085D01*
X103315381Y-97666085D02*
X103353476Y-97627990D01*
X103353476Y-97627990D02*
X103429666Y-97589895D01*
X103429666Y-97589895D02*
X103582047Y-97589895D01*
X103582047Y-97589895D02*
X103658238Y-97627990D01*
X103658238Y-97627990D02*
X103696333Y-97666085D01*
X103696333Y-97666085D02*
X103734428Y-97742276D01*
X103734428Y-97742276D02*
X103734428Y-97780371D01*
X103734428Y-97780371D02*
X103696333Y-97856561D01*
X103696333Y-97856561D02*
X103658238Y-97894657D01*
X103658238Y-97894657D02*
X103582047Y-97932752D01*
X103582047Y-97932752D02*
X103429666Y-97932752D01*
X103429666Y-97932752D02*
X103353476Y-97970847D01*
X103353476Y-97970847D02*
X103315381Y-98008942D01*
X103315381Y-98008942D02*
X103277285Y-98085133D01*
X103277285Y-98085133D02*
X103277285Y-98237514D01*
X103277285Y-98237514D02*
X103315381Y-98313704D01*
X103315381Y-98313704D02*
X103353476Y-98351800D01*
X103353476Y-98351800D02*
X103429666Y-98389895D01*
X103429666Y-98389895D02*
X103582047Y-98389895D01*
X103582047Y-98389895D02*
X103658238Y-98351800D01*
X103658238Y-98351800D02*
X103696333Y-98313704D01*
X103696333Y-98313704D02*
X103734428Y-98237514D01*
X103734428Y-98237514D02*
X103734428Y-98085133D01*
X103734428Y-98085133D02*
X103696333Y-98008942D01*
X103696333Y-98008942D02*
X103658238Y-97970847D01*
X103658238Y-97970847D02*
X103582047Y-97932752D01*
X110972714Y-84039895D02*
X110591762Y-84039895D01*
X110591762Y-84039895D02*
X110591762Y-83239895D01*
X111239381Y-83620847D02*
X111506047Y-83620847D01*
X111620333Y-84039895D02*
X111239381Y-84039895D01*
X111239381Y-84039895D02*
X111239381Y-83239895D01*
X111239381Y-83239895D02*
X111620333Y-83239895D01*
X111963191Y-84039895D02*
X111963191Y-83239895D01*
X111963191Y-83239895D02*
X112153667Y-83239895D01*
X112153667Y-83239895D02*
X112267953Y-83277990D01*
X112267953Y-83277990D02*
X112344143Y-83354180D01*
X112344143Y-83354180D02*
X112382238Y-83430371D01*
X112382238Y-83430371D02*
X112420334Y-83582752D01*
X112420334Y-83582752D02*
X112420334Y-83697038D01*
X112420334Y-83697038D02*
X112382238Y-83849419D01*
X112382238Y-83849419D02*
X112344143Y-83925609D01*
X112344143Y-83925609D02*
X112267953Y-84001800D01*
X112267953Y-84001800D02*
X112153667Y-84039895D01*
X112153667Y-84039895D02*
X111963191Y-84039895D01*
X58585714Y-45939895D02*
X58204762Y-45939895D01*
X58204762Y-45939895D02*
X58204762Y-45139895D01*
X58852381Y-45520847D02*
X59119047Y-45520847D01*
X59233333Y-45939895D02*
X58852381Y-45939895D01*
X58852381Y-45939895D02*
X58852381Y-45139895D01*
X58852381Y-45139895D02*
X59233333Y-45139895D01*
X59576191Y-45939895D02*
X59576191Y-45139895D01*
X59576191Y-45139895D02*
X59766667Y-45139895D01*
X59766667Y-45139895D02*
X59880953Y-45177990D01*
X59880953Y-45177990D02*
X59957143Y-45254180D01*
X59957143Y-45254180D02*
X59995238Y-45330371D01*
X59995238Y-45330371D02*
X60033334Y-45482752D01*
X60033334Y-45482752D02*
X60033334Y-45597038D01*
X60033334Y-45597038D02*
X59995238Y-45749419D01*
X59995238Y-45749419D02*
X59957143Y-45825609D01*
X59957143Y-45825609D02*
X59880953Y-45901800D01*
X59880953Y-45901800D02*
X59766667Y-45939895D01*
X59766667Y-45939895D02*
X59576191Y-45939895D01*
X76759523Y-41201800D02*
X76873809Y-41239895D01*
X76873809Y-41239895D02*
X77064285Y-41239895D01*
X77064285Y-41239895D02*
X77140476Y-41201800D01*
X77140476Y-41201800D02*
X77178571Y-41163704D01*
X77178571Y-41163704D02*
X77216666Y-41087514D01*
X77216666Y-41087514D02*
X77216666Y-41011323D01*
X77216666Y-41011323D02*
X77178571Y-40935133D01*
X77178571Y-40935133D02*
X77140476Y-40897038D01*
X77140476Y-40897038D02*
X77064285Y-40858942D01*
X77064285Y-40858942D02*
X76911904Y-40820847D01*
X76911904Y-40820847D02*
X76835714Y-40782752D01*
X76835714Y-40782752D02*
X76797619Y-40744657D01*
X76797619Y-40744657D02*
X76759523Y-40668466D01*
X76759523Y-40668466D02*
X76759523Y-40592276D01*
X76759523Y-40592276D02*
X76797619Y-40516085D01*
X76797619Y-40516085D02*
X76835714Y-40477990D01*
X76835714Y-40477990D02*
X76911904Y-40439895D01*
X76911904Y-40439895D02*
X77102381Y-40439895D01*
X77102381Y-40439895D02*
X77216666Y-40477990D01*
X77483333Y-40439895D02*
X77673809Y-41239895D01*
X77673809Y-41239895D02*
X77826190Y-40668466D01*
X77826190Y-40668466D02*
X77978571Y-41239895D01*
X77978571Y-41239895D02*
X78169048Y-40439895D01*
X78854762Y-41239895D02*
X78473810Y-41239895D01*
X78473810Y-41239895D02*
X78473810Y-40439895D01*
X79159524Y-41239895D02*
X79311905Y-41239895D01*
X79311905Y-41239895D02*
X79388095Y-41201800D01*
X79388095Y-41201800D02*
X79426191Y-41163704D01*
X79426191Y-41163704D02*
X79502381Y-41049419D01*
X79502381Y-41049419D02*
X79540476Y-40897038D01*
X79540476Y-40897038D02*
X79540476Y-40592276D01*
X79540476Y-40592276D02*
X79502381Y-40516085D01*
X79502381Y-40516085D02*
X79464286Y-40477990D01*
X79464286Y-40477990D02*
X79388095Y-40439895D01*
X79388095Y-40439895D02*
X79235714Y-40439895D01*
X79235714Y-40439895D02*
X79159524Y-40477990D01*
X79159524Y-40477990D02*
X79121429Y-40516085D01*
X79121429Y-40516085D02*
X79083333Y-40592276D01*
X79083333Y-40592276D02*
X79083333Y-40782752D01*
X79083333Y-40782752D02*
X79121429Y-40858942D01*
X79121429Y-40858942D02*
X79159524Y-40897038D01*
X79159524Y-40897038D02*
X79235714Y-40935133D01*
X79235714Y-40935133D02*
X79388095Y-40935133D01*
X79388095Y-40935133D02*
X79464286Y-40897038D01*
X79464286Y-40897038D02*
X79502381Y-40858942D01*
X79502381Y-40858942D02*
X79540476Y-40782752D01*
X77635714Y-45939895D02*
X77254762Y-45939895D01*
X77254762Y-45939895D02*
X77254762Y-45139895D01*
X77902381Y-45520847D02*
X78169047Y-45520847D01*
X78283333Y-45939895D02*
X77902381Y-45939895D01*
X77902381Y-45939895D02*
X77902381Y-45139895D01*
X77902381Y-45139895D02*
X78283333Y-45139895D01*
X78626191Y-45939895D02*
X78626191Y-45139895D01*
X78626191Y-45139895D02*
X78816667Y-45139895D01*
X78816667Y-45139895D02*
X78930953Y-45177990D01*
X78930953Y-45177990D02*
X79007143Y-45254180D01*
X79007143Y-45254180D02*
X79045238Y-45330371D01*
X79045238Y-45330371D02*
X79083334Y-45482752D01*
X79083334Y-45482752D02*
X79083334Y-45597038D01*
X79083334Y-45597038D02*
X79045238Y-45749419D01*
X79045238Y-45749419D02*
X79007143Y-45825609D01*
X79007143Y-45825609D02*
X78930953Y-45901800D01*
X78930953Y-45901800D02*
X78816667Y-45939895D01*
X78816667Y-45939895D02*
X78626191Y-45939895D01*
X81141570Y-60251800D02*
X81255856Y-60289895D01*
X81255856Y-60289895D02*
X81446332Y-60289895D01*
X81446332Y-60289895D02*
X81522523Y-60251800D01*
X81522523Y-60251800D02*
X81560618Y-60213704D01*
X81560618Y-60213704D02*
X81598713Y-60137514D01*
X81598713Y-60137514D02*
X81598713Y-60061323D01*
X81598713Y-60061323D02*
X81560618Y-59985133D01*
X81560618Y-59985133D02*
X81522523Y-59947038D01*
X81522523Y-59947038D02*
X81446332Y-59908942D01*
X81446332Y-59908942D02*
X81293951Y-59870847D01*
X81293951Y-59870847D02*
X81217761Y-59832752D01*
X81217761Y-59832752D02*
X81179666Y-59794657D01*
X81179666Y-59794657D02*
X81141570Y-59718466D01*
X81141570Y-59718466D02*
X81141570Y-59642276D01*
X81141570Y-59642276D02*
X81179666Y-59566085D01*
X81179666Y-59566085D02*
X81217761Y-59527990D01*
X81217761Y-59527990D02*
X81293951Y-59489895D01*
X81293951Y-59489895D02*
X81484428Y-59489895D01*
X81484428Y-59489895D02*
X81598713Y-59527990D01*
X81865380Y-59489895D02*
X82055856Y-60289895D01*
X82055856Y-60289895D02*
X82208237Y-59718466D01*
X82208237Y-59718466D02*
X82360618Y-60289895D01*
X82360618Y-60289895D02*
X82551095Y-59489895D01*
X83236809Y-60289895D02*
X82855857Y-60289895D01*
X82855857Y-60289895D02*
X82855857Y-59489895D01*
X83922523Y-60289895D02*
X83465380Y-60289895D01*
X83693952Y-60289895D02*
X83693952Y-59489895D01*
X83693952Y-59489895D02*
X83617761Y-59604180D01*
X83617761Y-59604180D02*
X83541571Y-59680371D01*
X83541571Y-59680371D02*
X83465380Y-59718466D01*
X84646333Y-59489895D02*
X84265381Y-59489895D01*
X84265381Y-59489895D02*
X84227285Y-59870847D01*
X84227285Y-59870847D02*
X84265381Y-59832752D01*
X84265381Y-59832752D02*
X84341571Y-59794657D01*
X84341571Y-59794657D02*
X84532047Y-59794657D01*
X84532047Y-59794657D02*
X84608238Y-59832752D01*
X84608238Y-59832752D02*
X84646333Y-59870847D01*
X84646333Y-59870847D02*
X84684428Y-59947038D01*
X84684428Y-59947038D02*
X84684428Y-60137514D01*
X84684428Y-60137514D02*
X84646333Y-60213704D01*
X84646333Y-60213704D02*
X84608238Y-60251800D01*
X84608238Y-60251800D02*
X84532047Y-60289895D01*
X84532047Y-60289895D02*
X84341571Y-60289895D01*
X84341571Y-60289895D02*
X84265381Y-60251800D01*
X84265381Y-60251800D02*
X84227285Y-60213704D01*
X54947570Y-98351800D02*
X55061856Y-98389895D01*
X55061856Y-98389895D02*
X55252332Y-98389895D01*
X55252332Y-98389895D02*
X55328523Y-98351800D01*
X55328523Y-98351800D02*
X55366618Y-98313704D01*
X55366618Y-98313704D02*
X55404713Y-98237514D01*
X55404713Y-98237514D02*
X55404713Y-98161323D01*
X55404713Y-98161323D02*
X55366618Y-98085133D01*
X55366618Y-98085133D02*
X55328523Y-98047038D01*
X55328523Y-98047038D02*
X55252332Y-98008942D01*
X55252332Y-98008942D02*
X55099951Y-97970847D01*
X55099951Y-97970847D02*
X55023761Y-97932752D01*
X55023761Y-97932752D02*
X54985666Y-97894657D01*
X54985666Y-97894657D02*
X54947570Y-97818466D01*
X54947570Y-97818466D02*
X54947570Y-97742276D01*
X54947570Y-97742276D02*
X54985666Y-97666085D01*
X54985666Y-97666085D02*
X55023761Y-97627990D01*
X55023761Y-97627990D02*
X55099951Y-97589895D01*
X55099951Y-97589895D02*
X55290428Y-97589895D01*
X55290428Y-97589895D02*
X55404713Y-97627990D01*
X55671380Y-97589895D02*
X55861856Y-98389895D01*
X55861856Y-98389895D02*
X56014237Y-97818466D01*
X56014237Y-97818466D02*
X56166618Y-98389895D01*
X56166618Y-98389895D02*
X56357095Y-97589895D01*
X57042809Y-98389895D02*
X56661857Y-98389895D01*
X56661857Y-98389895D02*
X56661857Y-97589895D01*
X57271380Y-97666085D02*
X57309476Y-97627990D01*
X57309476Y-97627990D02*
X57385666Y-97589895D01*
X57385666Y-97589895D02*
X57576142Y-97589895D01*
X57576142Y-97589895D02*
X57652333Y-97627990D01*
X57652333Y-97627990D02*
X57690428Y-97666085D01*
X57690428Y-97666085D02*
X57728523Y-97742276D01*
X57728523Y-97742276D02*
X57728523Y-97818466D01*
X57728523Y-97818466D02*
X57690428Y-97932752D01*
X57690428Y-97932752D02*
X57233285Y-98389895D01*
X57233285Y-98389895D02*
X57728523Y-98389895D01*
X58414238Y-97589895D02*
X58261857Y-97589895D01*
X58261857Y-97589895D02*
X58185666Y-97627990D01*
X58185666Y-97627990D02*
X58147571Y-97666085D01*
X58147571Y-97666085D02*
X58071381Y-97780371D01*
X58071381Y-97780371D02*
X58033285Y-97932752D01*
X58033285Y-97932752D02*
X58033285Y-98237514D01*
X58033285Y-98237514D02*
X58071381Y-98313704D01*
X58071381Y-98313704D02*
X58109476Y-98351800D01*
X58109476Y-98351800D02*
X58185666Y-98389895D01*
X58185666Y-98389895D02*
X58338047Y-98389895D01*
X58338047Y-98389895D02*
X58414238Y-98351800D01*
X58414238Y-98351800D02*
X58452333Y-98313704D01*
X58452333Y-98313704D02*
X58490428Y-98237514D01*
X58490428Y-98237514D02*
X58490428Y-98047038D01*
X58490428Y-98047038D02*
X58452333Y-97970847D01*
X58452333Y-97970847D02*
X58414238Y-97932752D01*
X58414238Y-97932752D02*
X58338047Y-97894657D01*
X58338047Y-97894657D02*
X58185666Y-97894657D01*
X58185666Y-97894657D02*
X58109476Y-97932752D01*
X58109476Y-97932752D02*
X58071381Y-97970847D01*
X58071381Y-97970847D02*
X58033285Y-98047038D01*
X128766570Y-79301800D02*
X128880856Y-79339895D01*
X128880856Y-79339895D02*
X129071332Y-79339895D01*
X129071332Y-79339895D02*
X129147523Y-79301800D01*
X129147523Y-79301800D02*
X129185618Y-79263704D01*
X129185618Y-79263704D02*
X129223713Y-79187514D01*
X129223713Y-79187514D02*
X129223713Y-79111323D01*
X129223713Y-79111323D02*
X129185618Y-79035133D01*
X129185618Y-79035133D02*
X129147523Y-78997038D01*
X129147523Y-78997038D02*
X129071332Y-78958942D01*
X129071332Y-78958942D02*
X128918951Y-78920847D01*
X128918951Y-78920847D02*
X128842761Y-78882752D01*
X128842761Y-78882752D02*
X128804666Y-78844657D01*
X128804666Y-78844657D02*
X128766570Y-78768466D01*
X128766570Y-78768466D02*
X128766570Y-78692276D01*
X128766570Y-78692276D02*
X128804666Y-78616085D01*
X128804666Y-78616085D02*
X128842761Y-78577990D01*
X128842761Y-78577990D02*
X128918951Y-78539895D01*
X128918951Y-78539895D02*
X129109428Y-78539895D01*
X129109428Y-78539895D02*
X129223713Y-78577990D01*
X129490380Y-78539895D02*
X129680856Y-79339895D01*
X129680856Y-79339895D02*
X129833237Y-78768466D01*
X129833237Y-78768466D02*
X129985618Y-79339895D01*
X129985618Y-79339895D02*
X130176095Y-78539895D01*
X130861809Y-79339895D02*
X130480857Y-79339895D01*
X130480857Y-79339895D02*
X130480857Y-78539895D01*
X131090380Y-78616085D02*
X131128476Y-78577990D01*
X131128476Y-78577990D02*
X131204666Y-78539895D01*
X131204666Y-78539895D02*
X131395142Y-78539895D01*
X131395142Y-78539895D02*
X131471333Y-78577990D01*
X131471333Y-78577990D02*
X131509428Y-78616085D01*
X131509428Y-78616085D02*
X131547523Y-78692276D01*
X131547523Y-78692276D02*
X131547523Y-78768466D01*
X131547523Y-78768466D02*
X131509428Y-78882752D01*
X131509428Y-78882752D02*
X131052285Y-79339895D01*
X131052285Y-79339895D02*
X131547523Y-79339895D01*
X131814190Y-78539895D02*
X132309428Y-78539895D01*
X132309428Y-78539895D02*
X132042762Y-78844657D01*
X132042762Y-78844657D02*
X132157047Y-78844657D01*
X132157047Y-78844657D02*
X132233238Y-78882752D01*
X132233238Y-78882752D02*
X132271333Y-78920847D01*
X132271333Y-78920847D02*
X132309428Y-78997038D01*
X132309428Y-78997038D02*
X132309428Y-79187514D01*
X132309428Y-79187514D02*
X132271333Y-79263704D01*
X132271333Y-79263704D02*
X132233238Y-79301800D01*
X132233238Y-79301800D02*
X132157047Y-79339895D01*
X132157047Y-79339895D02*
X131928476Y-79339895D01*
X131928476Y-79339895D02*
X131852285Y-79301800D01*
X131852285Y-79301800D02*
X131814190Y-79263704D01*
X33897523Y-41201800D02*
X34011809Y-41239895D01*
X34011809Y-41239895D02*
X34202285Y-41239895D01*
X34202285Y-41239895D02*
X34278476Y-41201800D01*
X34278476Y-41201800D02*
X34316571Y-41163704D01*
X34316571Y-41163704D02*
X34354666Y-41087514D01*
X34354666Y-41087514D02*
X34354666Y-41011323D01*
X34354666Y-41011323D02*
X34316571Y-40935133D01*
X34316571Y-40935133D02*
X34278476Y-40897038D01*
X34278476Y-40897038D02*
X34202285Y-40858942D01*
X34202285Y-40858942D02*
X34049904Y-40820847D01*
X34049904Y-40820847D02*
X33973714Y-40782752D01*
X33973714Y-40782752D02*
X33935619Y-40744657D01*
X33935619Y-40744657D02*
X33897523Y-40668466D01*
X33897523Y-40668466D02*
X33897523Y-40592276D01*
X33897523Y-40592276D02*
X33935619Y-40516085D01*
X33935619Y-40516085D02*
X33973714Y-40477990D01*
X33973714Y-40477990D02*
X34049904Y-40439895D01*
X34049904Y-40439895D02*
X34240381Y-40439895D01*
X34240381Y-40439895D02*
X34354666Y-40477990D01*
X34621333Y-40439895D02*
X34811809Y-41239895D01*
X34811809Y-41239895D02*
X34964190Y-40668466D01*
X34964190Y-40668466D02*
X35116571Y-41239895D01*
X35116571Y-41239895D02*
X35307048Y-40439895D01*
X35992762Y-41239895D02*
X35611810Y-41239895D01*
X35611810Y-41239895D02*
X35611810Y-40439895D01*
X36183238Y-40439895D02*
X36716572Y-40439895D01*
X36716572Y-40439895D02*
X36373714Y-41239895D01*
X90666570Y-79301800D02*
X90780856Y-79339895D01*
X90780856Y-79339895D02*
X90971332Y-79339895D01*
X90971332Y-79339895D02*
X91047523Y-79301800D01*
X91047523Y-79301800D02*
X91085618Y-79263704D01*
X91085618Y-79263704D02*
X91123713Y-79187514D01*
X91123713Y-79187514D02*
X91123713Y-79111323D01*
X91123713Y-79111323D02*
X91085618Y-79035133D01*
X91085618Y-79035133D02*
X91047523Y-78997038D01*
X91047523Y-78997038D02*
X90971332Y-78958942D01*
X90971332Y-78958942D02*
X90818951Y-78920847D01*
X90818951Y-78920847D02*
X90742761Y-78882752D01*
X90742761Y-78882752D02*
X90704666Y-78844657D01*
X90704666Y-78844657D02*
X90666570Y-78768466D01*
X90666570Y-78768466D02*
X90666570Y-78692276D01*
X90666570Y-78692276D02*
X90704666Y-78616085D01*
X90704666Y-78616085D02*
X90742761Y-78577990D01*
X90742761Y-78577990D02*
X90818951Y-78539895D01*
X90818951Y-78539895D02*
X91009428Y-78539895D01*
X91009428Y-78539895D02*
X91123713Y-78577990D01*
X91390380Y-78539895D02*
X91580856Y-79339895D01*
X91580856Y-79339895D02*
X91733237Y-78768466D01*
X91733237Y-78768466D02*
X91885618Y-79339895D01*
X91885618Y-79339895D02*
X92076095Y-78539895D01*
X92761809Y-79339895D02*
X92380857Y-79339895D01*
X92380857Y-79339895D02*
X92380857Y-78539895D01*
X92990380Y-78616085D02*
X93028476Y-78577990D01*
X93028476Y-78577990D02*
X93104666Y-78539895D01*
X93104666Y-78539895D02*
X93295142Y-78539895D01*
X93295142Y-78539895D02*
X93371333Y-78577990D01*
X93371333Y-78577990D02*
X93409428Y-78616085D01*
X93409428Y-78616085D02*
X93447523Y-78692276D01*
X93447523Y-78692276D02*
X93447523Y-78768466D01*
X93447523Y-78768466D02*
X93409428Y-78882752D01*
X93409428Y-78882752D02*
X92952285Y-79339895D01*
X92952285Y-79339895D02*
X93447523Y-79339895D01*
X94209428Y-79339895D02*
X93752285Y-79339895D01*
X93980857Y-79339895D02*
X93980857Y-78539895D01*
X93980857Y-78539895D02*
X93904666Y-78654180D01*
X93904666Y-78654180D02*
X93828476Y-78730371D01*
X93828476Y-78730371D02*
X93752285Y-78768466D01*
X139547714Y-64989895D02*
X139166762Y-64989895D01*
X139166762Y-64989895D02*
X139166762Y-64189895D01*
X139814381Y-64570847D02*
X140081047Y-64570847D01*
X140195333Y-64989895D02*
X139814381Y-64989895D01*
X139814381Y-64989895D02*
X139814381Y-64189895D01*
X139814381Y-64189895D02*
X140195333Y-64189895D01*
X140538191Y-64989895D02*
X140538191Y-64189895D01*
X140538191Y-64189895D02*
X140728667Y-64189895D01*
X140728667Y-64189895D02*
X140842953Y-64227990D01*
X140842953Y-64227990D02*
X140919143Y-64304180D01*
X140919143Y-64304180D02*
X140957238Y-64380371D01*
X140957238Y-64380371D02*
X140995334Y-64532752D01*
X140995334Y-64532752D02*
X140995334Y-64647038D01*
X140995334Y-64647038D02*
X140957238Y-64799419D01*
X140957238Y-64799419D02*
X140919143Y-64875609D01*
X140919143Y-64875609D02*
X140842953Y-64951800D01*
X140842953Y-64951800D02*
X140728667Y-64989895D01*
X140728667Y-64989895D02*
X140538191Y-64989895D01*
X49060714Y-26889895D02*
X48679762Y-26889895D01*
X48679762Y-26889895D02*
X48679762Y-26089895D01*
X49327381Y-26470847D02*
X49594047Y-26470847D01*
X49708333Y-26889895D02*
X49327381Y-26889895D01*
X49327381Y-26889895D02*
X49327381Y-26089895D01*
X49327381Y-26089895D02*
X49708333Y-26089895D01*
X50051191Y-26889895D02*
X50051191Y-26089895D01*
X50051191Y-26089895D02*
X50241667Y-26089895D01*
X50241667Y-26089895D02*
X50355953Y-26127990D01*
X50355953Y-26127990D02*
X50432143Y-26204180D01*
X50432143Y-26204180D02*
X50470238Y-26280371D01*
X50470238Y-26280371D02*
X50508334Y-26432752D01*
X50508334Y-26432752D02*
X50508334Y-26547038D01*
X50508334Y-26547038D02*
X50470238Y-26699419D01*
X50470238Y-26699419D02*
X50432143Y-26775609D01*
X50432143Y-26775609D02*
X50355953Y-26851800D01*
X50355953Y-26851800D02*
X50241667Y-26889895D01*
X50241667Y-26889895D02*
X50051191Y-26889895D01*
X68110714Y-26889895D02*
X67729762Y-26889895D01*
X67729762Y-26889895D02*
X67729762Y-26089895D01*
X68377381Y-26470847D02*
X68644047Y-26470847D01*
X68758333Y-26889895D02*
X68377381Y-26889895D01*
X68377381Y-26889895D02*
X68377381Y-26089895D01*
X68377381Y-26089895D02*
X68758333Y-26089895D01*
X69101191Y-26889895D02*
X69101191Y-26089895D01*
X69101191Y-26089895D02*
X69291667Y-26089895D01*
X69291667Y-26089895D02*
X69405953Y-26127990D01*
X69405953Y-26127990D02*
X69482143Y-26204180D01*
X69482143Y-26204180D02*
X69520238Y-26280371D01*
X69520238Y-26280371D02*
X69558334Y-26432752D01*
X69558334Y-26432752D02*
X69558334Y-26547038D01*
X69558334Y-26547038D02*
X69520238Y-26699419D01*
X69520238Y-26699419D02*
X69482143Y-26775609D01*
X69482143Y-26775609D02*
X69405953Y-26851800D01*
X69405953Y-26851800D02*
X69291667Y-26889895D01*
X69291667Y-26889895D02*
X69101191Y-26889895D01*
X101448714Y-64989895D02*
X101067762Y-64989895D01*
X101067762Y-64989895D02*
X101067762Y-64189895D01*
X101715381Y-64570847D02*
X101982047Y-64570847D01*
X102096333Y-64989895D02*
X101715381Y-64989895D01*
X101715381Y-64989895D02*
X101715381Y-64189895D01*
X101715381Y-64189895D02*
X102096333Y-64189895D01*
X102439191Y-64989895D02*
X102439191Y-64189895D01*
X102439191Y-64189895D02*
X102629667Y-64189895D01*
X102629667Y-64189895D02*
X102743953Y-64227990D01*
X102743953Y-64227990D02*
X102820143Y-64304180D01*
X102820143Y-64304180D02*
X102858238Y-64380371D01*
X102858238Y-64380371D02*
X102896334Y-64532752D01*
X102896334Y-64532752D02*
X102896334Y-64647038D01*
X102896334Y-64647038D02*
X102858238Y-64799419D01*
X102858238Y-64799419D02*
X102820143Y-64875609D01*
X102820143Y-64875609D02*
X102743953Y-64951800D01*
X102743953Y-64951800D02*
X102629667Y-64989895D01*
X102629667Y-64989895D02*
X102439191Y-64989895D01*
X80016714Y-103089895D02*
X79635762Y-103089895D01*
X79635762Y-103089895D02*
X79635762Y-102289895D01*
X80283381Y-102670847D02*
X80550047Y-102670847D01*
X80664333Y-103089895D02*
X80283381Y-103089895D01*
X80283381Y-103089895D02*
X80283381Y-102289895D01*
X80283381Y-102289895D02*
X80664333Y-102289895D01*
X81007191Y-103089895D02*
X81007191Y-102289895D01*
X81007191Y-102289895D02*
X81197667Y-102289895D01*
X81197667Y-102289895D02*
X81311953Y-102327990D01*
X81311953Y-102327990D02*
X81388143Y-102404180D01*
X81388143Y-102404180D02*
X81426238Y-102480371D01*
X81426238Y-102480371D02*
X81464334Y-102632752D01*
X81464334Y-102632752D02*
X81464334Y-102747038D01*
X81464334Y-102747038D02*
X81426238Y-102899419D01*
X81426238Y-102899419D02*
X81388143Y-102975609D01*
X81388143Y-102975609D02*
X81311953Y-103051800D01*
X81311953Y-103051800D02*
X81197667Y-103089895D01*
X81197667Y-103089895D02*
X81007191Y-103089895D01*
X32391714Y-103089895D02*
X32010762Y-103089895D01*
X32010762Y-103089895D02*
X32010762Y-102289895D01*
X32658381Y-102670847D02*
X32925047Y-102670847D01*
X33039333Y-103089895D02*
X32658381Y-103089895D01*
X32658381Y-103089895D02*
X32658381Y-102289895D01*
X32658381Y-102289895D02*
X33039333Y-102289895D01*
X33382191Y-103089895D02*
X33382191Y-102289895D01*
X33382191Y-102289895D02*
X33572667Y-102289895D01*
X33572667Y-102289895D02*
X33686953Y-102327990D01*
X33686953Y-102327990D02*
X33763143Y-102404180D01*
X33763143Y-102404180D02*
X33801238Y-102480371D01*
X33801238Y-102480371D02*
X33839334Y-102632752D01*
X33839334Y-102632752D02*
X33839334Y-102747038D01*
X33839334Y-102747038D02*
X33801238Y-102899419D01*
X33801238Y-102899419D02*
X33763143Y-102975609D01*
X33763143Y-102975609D02*
X33686953Y-103051800D01*
X33686953Y-103051800D02*
X33572667Y-103089895D01*
X33572667Y-103089895D02*
X33382191Y-103089895D01*
X147816570Y-79301800D02*
X147930856Y-79339895D01*
X147930856Y-79339895D02*
X148121332Y-79339895D01*
X148121332Y-79339895D02*
X148197523Y-79301800D01*
X148197523Y-79301800D02*
X148235618Y-79263704D01*
X148235618Y-79263704D02*
X148273713Y-79187514D01*
X148273713Y-79187514D02*
X148273713Y-79111323D01*
X148273713Y-79111323D02*
X148235618Y-79035133D01*
X148235618Y-79035133D02*
X148197523Y-78997038D01*
X148197523Y-78997038D02*
X148121332Y-78958942D01*
X148121332Y-78958942D02*
X147968951Y-78920847D01*
X147968951Y-78920847D02*
X147892761Y-78882752D01*
X147892761Y-78882752D02*
X147854666Y-78844657D01*
X147854666Y-78844657D02*
X147816570Y-78768466D01*
X147816570Y-78768466D02*
X147816570Y-78692276D01*
X147816570Y-78692276D02*
X147854666Y-78616085D01*
X147854666Y-78616085D02*
X147892761Y-78577990D01*
X147892761Y-78577990D02*
X147968951Y-78539895D01*
X147968951Y-78539895D02*
X148159428Y-78539895D01*
X148159428Y-78539895D02*
X148273713Y-78577990D01*
X148540380Y-78539895D02*
X148730856Y-79339895D01*
X148730856Y-79339895D02*
X148883237Y-78768466D01*
X148883237Y-78768466D02*
X149035618Y-79339895D01*
X149035618Y-79339895D02*
X149226095Y-78539895D01*
X149911809Y-79339895D02*
X149530857Y-79339895D01*
X149530857Y-79339895D02*
X149530857Y-78539895D01*
X150140380Y-78616085D02*
X150178476Y-78577990D01*
X150178476Y-78577990D02*
X150254666Y-78539895D01*
X150254666Y-78539895D02*
X150445142Y-78539895D01*
X150445142Y-78539895D02*
X150521333Y-78577990D01*
X150521333Y-78577990D02*
X150559428Y-78616085D01*
X150559428Y-78616085D02*
X150597523Y-78692276D01*
X150597523Y-78692276D02*
X150597523Y-78768466D01*
X150597523Y-78768466D02*
X150559428Y-78882752D01*
X150559428Y-78882752D02*
X150102285Y-79339895D01*
X150102285Y-79339895D02*
X150597523Y-79339895D01*
X151283238Y-78806561D02*
X151283238Y-79339895D01*
X151092762Y-78501800D02*
X150902285Y-79073228D01*
X150902285Y-79073228D02*
X151397524Y-79073228D01*
X115735714Y-45939895D02*
X115354762Y-45939895D01*
X115354762Y-45939895D02*
X115354762Y-45139895D01*
X116002381Y-45520847D02*
X116269047Y-45520847D01*
X116383333Y-45939895D02*
X116002381Y-45939895D01*
X116002381Y-45939895D02*
X116002381Y-45139895D01*
X116002381Y-45139895D02*
X116383333Y-45139895D01*
X116726191Y-45939895D02*
X116726191Y-45139895D01*
X116726191Y-45139895D02*
X116916667Y-45139895D01*
X116916667Y-45139895D02*
X117030953Y-45177990D01*
X117030953Y-45177990D02*
X117107143Y-45254180D01*
X117107143Y-45254180D02*
X117145238Y-45330371D01*
X117145238Y-45330371D02*
X117183334Y-45482752D01*
X117183334Y-45482752D02*
X117183334Y-45597038D01*
X117183334Y-45597038D02*
X117145238Y-45749419D01*
X117145238Y-45749419D02*
X117107143Y-45825609D01*
X117107143Y-45825609D02*
X117030953Y-45901800D01*
X117030953Y-45901800D02*
X116916667Y-45939895D01*
X116916667Y-45939895D02*
X116726191Y-45939895D01*
X96685714Y-45939895D02*
X96304762Y-45939895D01*
X96304762Y-45939895D02*
X96304762Y-45139895D01*
X96952381Y-45520847D02*
X97219047Y-45520847D01*
X97333333Y-45939895D02*
X96952381Y-45939895D01*
X96952381Y-45939895D02*
X96952381Y-45139895D01*
X96952381Y-45139895D02*
X97333333Y-45139895D01*
X97676191Y-45939895D02*
X97676191Y-45139895D01*
X97676191Y-45139895D02*
X97866667Y-45139895D01*
X97866667Y-45139895D02*
X97980953Y-45177990D01*
X97980953Y-45177990D02*
X98057143Y-45254180D01*
X98057143Y-45254180D02*
X98095238Y-45330371D01*
X98095238Y-45330371D02*
X98133334Y-45482752D01*
X98133334Y-45482752D02*
X98133334Y-45597038D01*
X98133334Y-45597038D02*
X98095238Y-45749419D01*
X98095238Y-45749419D02*
X98057143Y-45825609D01*
X98057143Y-45825609D02*
X97980953Y-45901800D01*
X97980953Y-45901800D02*
X97866667Y-45939895D01*
X97866667Y-45939895D02*
X97676191Y-45939895D01*
X138290570Y-60251800D02*
X138404856Y-60289895D01*
X138404856Y-60289895D02*
X138595332Y-60289895D01*
X138595332Y-60289895D02*
X138671523Y-60251800D01*
X138671523Y-60251800D02*
X138709618Y-60213704D01*
X138709618Y-60213704D02*
X138747713Y-60137514D01*
X138747713Y-60137514D02*
X138747713Y-60061323D01*
X138747713Y-60061323D02*
X138709618Y-59985133D01*
X138709618Y-59985133D02*
X138671523Y-59947038D01*
X138671523Y-59947038D02*
X138595332Y-59908942D01*
X138595332Y-59908942D02*
X138442951Y-59870847D01*
X138442951Y-59870847D02*
X138366761Y-59832752D01*
X138366761Y-59832752D02*
X138328666Y-59794657D01*
X138328666Y-59794657D02*
X138290570Y-59718466D01*
X138290570Y-59718466D02*
X138290570Y-59642276D01*
X138290570Y-59642276D02*
X138328666Y-59566085D01*
X138328666Y-59566085D02*
X138366761Y-59527990D01*
X138366761Y-59527990D02*
X138442951Y-59489895D01*
X138442951Y-59489895D02*
X138633428Y-59489895D01*
X138633428Y-59489895D02*
X138747713Y-59527990D01*
X139014380Y-59489895D02*
X139204856Y-60289895D01*
X139204856Y-60289895D02*
X139357237Y-59718466D01*
X139357237Y-59718466D02*
X139509618Y-60289895D01*
X139509618Y-60289895D02*
X139700095Y-59489895D01*
X140385809Y-60289895D02*
X140004857Y-60289895D01*
X140004857Y-60289895D02*
X140004857Y-59489895D01*
X141071523Y-60289895D02*
X140614380Y-60289895D01*
X140842952Y-60289895D02*
X140842952Y-59489895D01*
X140842952Y-59489895D02*
X140766761Y-59604180D01*
X140766761Y-59604180D02*
X140690571Y-59680371D01*
X140690571Y-59680371D02*
X140614380Y-59718466D01*
X141528666Y-59832752D02*
X141452476Y-59794657D01*
X141452476Y-59794657D02*
X141414381Y-59756561D01*
X141414381Y-59756561D02*
X141376285Y-59680371D01*
X141376285Y-59680371D02*
X141376285Y-59642276D01*
X141376285Y-59642276D02*
X141414381Y-59566085D01*
X141414381Y-59566085D02*
X141452476Y-59527990D01*
X141452476Y-59527990D02*
X141528666Y-59489895D01*
X141528666Y-59489895D02*
X141681047Y-59489895D01*
X141681047Y-59489895D02*
X141757238Y-59527990D01*
X141757238Y-59527990D02*
X141795333Y-59566085D01*
X141795333Y-59566085D02*
X141833428Y-59642276D01*
X141833428Y-59642276D02*
X141833428Y-59680371D01*
X141833428Y-59680371D02*
X141795333Y-59756561D01*
X141795333Y-59756561D02*
X141757238Y-59794657D01*
X141757238Y-59794657D02*
X141681047Y-59832752D01*
X141681047Y-59832752D02*
X141528666Y-59832752D01*
X141528666Y-59832752D02*
X141452476Y-59870847D01*
X141452476Y-59870847D02*
X141414381Y-59908942D01*
X141414381Y-59908942D02*
X141376285Y-59985133D01*
X141376285Y-59985133D02*
X141376285Y-60137514D01*
X141376285Y-60137514D02*
X141414381Y-60213704D01*
X141414381Y-60213704D02*
X141452476Y-60251800D01*
X141452476Y-60251800D02*
X141528666Y-60289895D01*
X141528666Y-60289895D02*
X141681047Y-60289895D01*
X141681047Y-60289895D02*
X141757238Y-60251800D01*
X141757238Y-60251800D02*
X141795333Y-60213704D01*
X141795333Y-60213704D02*
X141833428Y-60137514D01*
X141833428Y-60137514D02*
X141833428Y-59985133D01*
X141833428Y-59985133D02*
X141795333Y-59908942D01*
X141795333Y-59908942D02*
X141757238Y-59870847D01*
X141757238Y-59870847D02*
X141681047Y-59832752D01*
X130023714Y-111089895D02*
X129642762Y-111089895D01*
X129642762Y-111089895D02*
X129642762Y-110289895D01*
X130290381Y-110670847D02*
X130557047Y-110670847D01*
X130671333Y-111089895D02*
X130290381Y-111089895D01*
X130290381Y-111089895D02*
X130290381Y-110289895D01*
X130290381Y-110289895D02*
X130671333Y-110289895D01*
X131014191Y-111089895D02*
X131014191Y-110289895D01*
X131014191Y-110289895D02*
X131204667Y-110289895D01*
X131204667Y-110289895D02*
X131318953Y-110327990D01*
X131318953Y-110327990D02*
X131395143Y-110404180D01*
X131395143Y-110404180D02*
X131433238Y-110480371D01*
X131433238Y-110480371D02*
X131471334Y-110632752D01*
X131471334Y-110632752D02*
X131471334Y-110747038D01*
X131471334Y-110747038D02*
X131433238Y-110899419D01*
X131433238Y-110899419D02*
X131395143Y-110975609D01*
X131395143Y-110975609D02*
X131318953Y-111051800D01*
X131318953Y-111051800D02*
X131204667Y-111089895D01*
X131204667Y-111089895D02*
X131014191Y-111089895D01*
X56204714Y-103089895D02*
X55823762Y-103089895D01*
X55823762Y-103089895D02*
X55823762Y-102289895D01*
X56471381Y-102670847D02*
X56738047Y-102670847D01*
X56852333Y-103089895D02*
X56471381Y-103089895D01*
X56471381Y-103089895D02*
X56471381Y-102289895D01*
X56471381Y-102289895D02*
X56852333Y-102289895D01*
X57195191Y-103089895D02*
X57195191Y-102289895D01*
X57195191Y-102289895D02*
X57385667Y-102289895D01*
X57385667Y-102289895D02*
X57499953Y-102327990D01*
X57499953Y-102327990D02*
X57576143Y-102404180D01*
X57576143Y-102404180D02*
X57614238Y-102480371D01*
X57614238Y-102480371D02*
X57652334Y-102632752D01*
X57652334Y-102632752D02*
X57652334Y-102747038D01*
X57652334Y-102747038D02*
X57614238Y-102899419D01*
X57614238Y-102899419D02*
X57576143Y-102975609D01*
X57576143Y-102975609D02*
X57499953Y-103051800D01*
X57499953Y-103051800D02*
X57385667Y-103089895D01*
X57385667Y-103089895D02*
X57195191Y-103089895D01*
X57709523Y-41201800D02*
X57823809Y-41239895D01*
X57823809Y-41239895D02*
X58014285Y-41239895D01*
X58014285Y-41239895D02*
X58090476Y-41201800D01*
X58090476Y-41201800D02*
X58128571Y-41163704D01*
X58128571Y-41163704D02*
X58166666Y-41087514D01*
X58166666Y-41087514D02*
X58166666Y-41011323D01*
X58166666Y-41011323D02*
X58128571Y-40935133D01*
X58128571Y-40935133D02*
X58090476Y-40897038D01*
X58090476Y-40897038D02*
X58014285Y-40858942D01*
X58014285Y-40858942D02*
X57861904Y-40820847D01*
X57861904Y-40820847D02*
X57785714Y-40782752D01*
X57785714Y-40782752D02*
X57747619Y-40744657D01*
X57747619Y-40744657D02*
X57709523Y-40668466D01*
X57709523Y-40668466D02*
X57709523Y-40592276D01*
X57709523Y-40592276D02*
X57747619Y-40516085D01*
X57747619Y-40516085D02*
X57785714Y-40477990D01*
X57785714Y-40477990D02*
X57861904Y-40439895D01*
X57861904Y-40439895D02*
X58052381Y-40439895D01*
X58052381Y-40439895D02*
X58166666Y-40477990D01*
X58433333Y-40439895D02*
X58623809Y-41239895D01*
X58623809Y-41239895D02*
X58776190Y-40668466D01*
X58776190Y-40668466D02*
X58928571Y-41239895D01*
X58928571Y-41239895D02*
X59119048Y-40439895D01*
X59804762Y-41239895D02*
X59423810Y-41239895D01*
X59423810Y-41239895D02*
X59423810Y-40439895D01*
X60185714Y-40782752D02*
X60109524Y-40744657D01*
X60109524Y-40744657D02*
X60071429Y-40706561D01*
X60071429Y-40706561D02*
X60033333Y-40630371D01*
X60033333Y-40630371D02*
X60033333Y-40592276D01*
X60033333Y-40592276D02*
X60071429Y-40516085D01*
X60071429Y-40516085D02*
X60109524Y-40477990D01*
X60109524Y-40477990D02*
X60185714Y-40439895D01*
X60185714Y-40439895D02*
X60338095Y-40439895D01*
X60338095Y-40439895D02*
X60414286Y-40477990D01*
X60414286Y-40477990D02*
X60452381Y-40516085D01*
X60452381Y-40516085D02*
X60490476Y-40592276D01*
X60490476Y-40592276D02*
X60490476Y-40630371D01*
X60490476Y-40630371D02*
X60452381Y-40706561D01*
X60452381Y-40706561D02*
X60414286Y-40744657D01*
X60414286Y-40744657D02*
X60338095Y-40782752D01*
X60338095Y-40782752D02*
X60185714Y-40782752D01*
X60185714Y-40782752D02*
X60109524Y-40820847D01*
X60109524Y-40820847D02*
X60071429Y-40858942D01*
X60071429Y-40858942D02*
X60033333Y-40935133D01*
X60033333Y-40935133D02*
X60033333Y-41087514D01*
X60033333Y-41087514D02*
X60071429Y-41163704D01*
X60071429Y-41163704D02*
X60109524Y-41201800D01*
X60109524Y-41201800D02*
X60185714Y-41239895D01*
X60185714Y-41239895D02*
X60338095Y-41239895D01*
X60338095Y-41239895D02*
X60414286Y-41201800D01*
X60414286Y-41201800D02*
X60452381Y-41163704D01*
X60452381Y-41163704D02*
X60490476Y-41087514D01*
X60490476Y-41087514D02*
X60490476Y-40935133D01*
X60490476Y-40935133D02*
X60452381Y-40858942D01*
X60452381Y-40858942D02*
X60414286Y-40820847D01*
X60414286Y-40820847D02*
X60338095Y-40782752D01*
X62091570Y-60251800D02*
X62205856Y-60289895D01*
X62205856Y-60289895D02*
X62396332Y-60289895D01*
X62396332Y-60289895D02*
X62472523Y-60251800D01*
X62472523Y-60251800D02*
X62510618Y-60213704D01*
X62510618Y-60213704D02*
X62548713Y-60137514D01*
X62548713Y-60137514D02*
X62548713Y-60061323D01*
X62548713Y-60061323D02*
X62510618Y-59985133D01*
X62510618Y-59985133D02*
X62472523Y-59947038D01*
X62472523Y-59947038D02*
X62396332Y-59908942D01*
X62396332Y-59908942D02*
X62243951Y-59870847D01*
X62243951Y-59870847D02*
X62167761Y-59832752D01*
X62167761Y-59832752D02*
X62129666Y-59794657D01*
X62129666Y-59794657D02*
X62091570Y-59718466D01*
X62091570Y-59718466D02*
X62091570Y-59642276D01*
X62091570Y-59642276D02*
X62129666Y-59566085D01*
X62129666Y-59566085D02*
X62167761Y-59527990D01*
X62167761Y-59527990D02*
X62243951Y-59489895D01*
X62243951Y-59489895D02*
X62434428Y-59489895D01*
X62434428Y-59489895D02*
X62548713Y-59527990D01*
X62815380Y-59489895D02*
X63005856Y-60289895D01*
X63005856Y-60289895D02*
X63158237Y-59718466D01*
X63158237Y-59718466D02*
X63310618Y-60289895D01*
X63310618Y-60289895D02*
X63501095Y-59489895D01*
X64186809Y-60289895D02*
X63805857Y-60289895D01*
X63805857Y-60289895D02*
X63805857Y-59489895D01*
X64872523Y-60289895D02*
X64415380Y-60289895D01*
X64643952Y-60289895D02*
X64643952Y-59489895D01*
X64643952Y-59489895D02*
X64567761Y-59604180D01*
X64567761Y-59604180D02*
X64491571Y-59680371D01*
X64491571Y-59680371D02*
X64415380Y-59718466D01*
X65558238Y-59756561D02*
X65558238Y-60289895D01*
X65367762Y-59451800D02*
X65177285Y-60023228D01*
X65177285Y-60023228D02*
X65672524Y-60023228D01*
X149073714Y-84039895D02*
X148692762Y-84039895D01*
X148692762Y-84039895D02*
X148692762Y-83239895D01*
X149340381Y-83620847D02*
X149607047Y-83620847D01*
X149721333Y-84039895D02*
X149340381Y-84039895D01*
X149340381Y-84039895D02*
X149340381Y-83239895D01*
X149340381Y-83239895D02*
X149721333Y-83239895D01*
X150064191Y-84039895D02*
X150064191Y-83239895D01*
X150064191Y-83239895D02*
X150254667Y-83239895D01*
X150254667Y-83239895D02*
X150368953Y-83277990D01*
X150368953Y-83277990D02*
X150445143Y-83354180D01*
X150445143Y-83354180D02*
X150483238Y-83430371D01*
X150483238Y-83430371D02*
X150521334Y-83582752D01*
X150521334Y-83582752D02*
X150521334Y-83697038D01*
X150521334Y-83697038D02*
X150483238Y-83849419D01*
X150483238Y-83849419D02*
X150445143Y-83925609D01*
X150445143Y-83925609D02*
X150368953Y-84001800D01*
X150368953Y-84001800D02*
X150254667Y-84039895D01*
X150254667Y-84039895D02*
X150064191Y-84039895D01*
X133528570Y-41201800D02*
X133642856Y-41239895D01*
X133642856Y-41239895D02*
X133833332Y-41239895D01*
X133833332Y-41239895D02*
X133909523Y-41201800D01*
X133909523Y-41201800D02*
X133947618Y-41163704D01*
X133947618Y-41163704D02*
X133985713Y-41087514D01*
X133985713Y-41087514D02*
X133985713Y-41011323D01*
X133985713Y-41011323D02*
X133947618Y-40935133D01*
X133947618Y-40935133D02*
X133909523Y-40897038D01*
X133909523Y-40897038D02*
X133833332Y-40858942D01*
X133833332Y-40858942D02*
X133680951Y-40820847D01*
X133680951Y-40820847D02*
X133604761Y-40782752D01*
X133604761Y-40782752D02*
X133566666Y-40744657D01*
X133566666Y-40744657D02*
X133528570Y-40668466D01*
X133528570Y-40668466D02*
X133528570Y-40592276D01*
X133528570Y-40592276D02*
X133566666Y-40516085D01*
X133566666Y-40516085D02*
X133604761Y-40477990D01*
X133604761Y-40477990D02*
X133680951Y-40439895D01*
X133680951Y-40439895D02*
X133871428Y-40439895D01*
X133871428Y-40439895D02*
X133985713Y-40477990D01*
X134252380Y-40439895D02*
X134442856Y-41239895D01*
X134442856Y-41239895D02*
X134595237Y-40668466D01*
X134595237Y-40668466D02*
X134747618Y-41239895D01*
X134747618Y-41239895D02*
X134938095Y-40439895D01*
X135623809Y-41239895D02*
X135242857Y-41239895D01*
X135242857Y-41239895D02*
X135242857Y-40439895D01*
X136309523Y-41239895D02*
X135852380Y-41239895D01*
X136080952Y-41239895D02*
X136080952Y-40439895D01*
X136080952Y-40439895D02*
X136004761Y-40554180D01*
X136004761Y-40554180D02*
X135928571Y-40630371D01*
X135928571Y-40630371D02*
X135852380Y-40668466D01*
X136614285Y-40516085D02*
X136652381Y-40477990D01*
X136652381Y-40477990D02*
X136728571Y-40439895D01*
X136728571Y-40439895D02*
X136919047Y-40439895D01*
X136919047Y-40439895D02*
X136995238Y-40477990D01*
X136995238Y-40477990D02*
X137033333Y-40516085D01*
X137033333Y-40516085D02*
X137071428Y-40592276D01*
X137071428Y-40592276D02*
X137071428Y-40668466D01*
X137071428Y-40668466D02*
X137033333Y-40782752D01*
X137033333Y-40782752D02*
X136576190Y-41239895D01*
X136576190Y-41239895D02*
X137071428Y-41239895D01*
X134785714Y-45939895D02*
X134404762Y-45939895D01*
X134404762Y-45939895D02*
X134404762Y-45139895D01*
X135052381Y-45520847D02*
X135319047Y-45520847D01*
X135433333Y-45939895D02*
X135052381Y-45939895D01*
X135052381Y-45939895D02*
X135052381Y-45139895D01*
X135052381Y-45139895D02*
X135433333Y-45139895D01*
X135776191Y-45939895D02*
X135776191Y-45139895D01*
X135776191Y-45139895D02*
X135966667Y-45139895D01*
X135966667Y-45139895D02*
X136080953Y-45177990D01*
X136080953Y-45177990D02*
X136157143Y-45254180D01*
X136157143Y-45254180D02*
X136195238Y-45330371D01*
X136195238Y-45330371D02*
X136233334Y-45482752D01*
X136233334Y-45482752D02*
X136233334Y-45597038D01*
X136233334Y-45597038D02*
X136195238Y-45749419D01*
X136195238Y-45749419D02*
X136157143Y-45825609D01*
X136157143Y-45825609D02*
X136080953Y-45901800D01*
X136080953Y-45901800D02*
X135966667Y-45939895D01*
X135966667Y-45939895D02*
X135776191Y-45939895D01*
X40659570Y-79301800D02*
X40773856Y-79339895D01*
X40773856Y-79339895D02*
X40964332Y-79339895D01*
X40964332Y-79339895D02*
X41040523Y-79301800D01*
X41040523Y-79301800D02*
X41078618Y-79263704D01*
X41078618Y-79263704D02*
X41116713Y-79187514D01*
X41116713Y-79187514D02*
X41116713Y-79111323D01*
X41116713Y-79111323D02*
X41078618Y-79035133D01*
X41078618Y-79035133D02*
X41040523Y-78997038D01*
X41040523Y-78997038D02*
X40964332Y-78958942D01*
X40964332Y-78958942D02*
X40811951Y-78920847D01*
X40811951Y-78920847D02*
X40735761Y-78882752D01*
X40735761Y-78882752D02*
X40697666Y-78844657D01*
X40697666Y-78844657D02*
X40659570Y-78768466D01*
X40659570Y-78768466D02*
X40659570Y-78692276D01*
X40659570Y-78692276D02*
X40697666Y-78616085D01*
X40697666Y-78616085D02*
X40735761Y-78577990D01*
X40735761Y-78577990D02*
X40811951Y-78539895D01*
X40811951Y-78539895D02*
X41002428Y-78539895D01*
X41002428Y-78539895D02*
X41116713Y-78577990D01*
X41383380Y-78539895D02*
X41573856Y-79339895D01*
X41573856Y-79339895D02*
X41726237Y-78768466D01*
X41726237Y-78768466D02*
X41878618Y-79339895D01*
X41878618Y-79339895D02*
X42069095Y-78539895D01*
X42754809Y-79339895D02*
X42373857Y-79339895D01*
X42373857Y-79339895D02*
X42373857Y-78539895D01*
X43440523Y-79339895D02*
X42983380Y-79339895D01*
X43211952Y-79339895D02*
X43211952Y-78539895D01*
X43211952Y-78539895D02*
X43135761Y-78654180D01*
X43135761Y-78654180D02*
X43059571Y-78730371D01*
X43059571Y-78730371D02*
X42983380Y-78768466D01*
X43821476Y-79339895D02*
X43973857Y-79339895D01*
X43973857Y-79339895D02*
X44050047Y-79301800D01*
X44050047Y-79301800D02*
X44088143Y-79263704D01*
X44088143Y-79263704D02*
X44164333Y-79149419D01*
X44164333Y-79149419D02*
X44202428Y-78997038D01*
X44202428Y-78997038D02*
X44202428Y-78692276D01*
X44202428Y-78692276D02*
X44164333Y-78616085D01*
X44164333Y-78616085D02*
X44126238Y-78577990D01*
X44126238Y-78577990D02*
X44050047Y-78539895D01*
X44050047Y-78539895D02*
X43897666Y-78539895D01*
X43897666Y-78539895D02*
X43821476Y-78577990D01*
X43821476Y-78577990D02*
X43783381Y-78616085D01*
X43783381Y-78616085D02*
X43745285Y-78692276D01*
X43745285Y-78692276D02*
X43745285Y-78882752D01*
X43745285Y-78882752D02*
X43783381Y-78958942D01*
X43783381Y-78958942D02*
X43821476Y-78997038D01*
X43821476Y-78997038D02*
X43897666Y-79035133D01*
X43897666Y-79035133D02*
X44050047Y-79035133D01*
X44050047Y-79035133D02*
X44126238Y-78997038D01*
X44126238Y-78997038D02*
X44164333Y-78958942D01*
X44164333Y-78958942D02*
X44202428Y-78882752D01*
X101448714Y-103089895D02*
X101067762Y-103089895D01*
X101067762Y-103089895D02*
X101067762Y-102289895D01*
X101715381Y-102670847D02*
X101982047Y-102670847D01*
X102096333Y-103089895D02*
X101715381Y-103089895D01*
X101715381Y-103089895D02*
X101715381Y-102289895D01*
X101715381Y-102289895D02*
X102096333Y-102289895D01*
X102439191Y-103089895D02*
X102439191Y-102289895D01*
X102439191Y-102289895D02*
X102629667Y-102289895D01*
X102629667Y-102289895D02*
X102743953Y-102327990D01*
X102743953Y-102327990D02*
X102820143Y-102404180D01*
X102820143Y-102404180D02*
X102858238Y-102480371D01*
X102858238Y-102480371D02*
X102896334Y-102632752D01*
X102896334Y-102632752D02*
X102896334Y-102747038D01*
X102896334Y-102747038D02*
X102858238Y-102899419D01*
X102858238Y-102899419D02*
X102820143Y-102975609D01*
X102820143Y-102975609D02*
X102743953Y-103051800D01*
X102743953Y-103051800D02*
X102629667Y-103089895D01*
X102629667Y-103089895D02*
X102439191Y-103089895D01*
X106210714Y-26889895D02*
X105829762Y-26889895D01*
X105829762Y-26889895D02*
X105829762Y-26089895D01*
X106477381Y-26470847D02*
X106744047Y-26470847D01*
X106858333Y-26889895D02*
X106477381Y-26889895D01*
X106477381Y-26889895D02*
X106477381Y-26089895D01*
X106477381Y-26089895D02*
X106858333Y-26089895D01*
X107201191Y-26889895D02*
X107201191Y-26089895D01*
X107201191Y-26089895D02*
X107391667Y-26089895D01*
X107391667Y-26089895D02*
X107505953Y-26127990D01*
X107505953Y-26127990D02*
X107582143Y-26204180D01*
X107582143Y-26204180D02*
X107620238Y-26280371D01*
X107620238Y-26280371D02*
X107658334Y-26432752D01*
X107658334Y-26432752D02*
X107658334Y-26547038D01*
X107658334Y-26547038D02*
X107620238Y-26699419D01*
X107620238Y-26699419D02*
X107582143Y-26775609D01*
X107582143Y-26775609D02*
X107505953Y-26851800D01*
X107505953Y-26851800D02*
X107391667Y-26889895D01*
X107391667Y-26889895D02*
X107201191Y-26889895D01*
X125260714Y-26889895D02*
X124879762Y-26889895D01*
X124879762Y-26889895D02*
X124879762Y-26089895D01*
X125527381Y-26470847D02*
X125794047Y-26470847D01*
X125908333Y-26889895D02*
X125527381Y-26889895D01*
X125527381Y-26889895D02*
X125527381Y-26089895D01*
X125527381Y-26089895D02*
X125908333Y-26089895D01*
X126251191Y-26889895D02*
X126251191Y-26089895D01*
X126251191Y-26089895D02*
X126441667Y-26089895D01*
X126441667Y-26089895D02*
X126555953Y-26127990D01*
X126555953Y-26127990D02*
X126632143Y-26204180D01*
X126632143Y-26204180D02*
X126670238Y-26280371D01*
X126670238Y-26280371D02*
X126708334Y-26432752D01*
X126708334Y-26432752D02*
X126708334Y-26547038D01*
X126708334Y-26547038D02*
X126670238Y-26699419D01*
X126670238Y-26699419D02*
X126632143Y-26775609D01*
X126632143Y-26775609D02*
X126555953Y-26851800D01*
X126555953Y-26851800D02*
X126441667Y-26889895D01*
X126441667Y-26889895D02*
X126251191Y-26889895D01*
X30010714Y-26889895D02*
X29629762Y-26889895D01*
X29629762Y-26889895D02*
X29629762Y-26089895D01*
X30277381Y-26470847D02*
X30544047Y-26470847D01*
X30658333Y-26889895D02*
X30277381Y-26889895D01*
X30277381Y-26889895D02*
X30277381Y-26089895D01*
X30277381Y-26089895D02*
X30658333Y-26089895D01*
X31001191Y-26889895D02*
X31001191Y-26089895D01*
X31001191Y-26089895D02*
X31191667Y-26089895D01*
X31191667Y-26089895D02*
X31305953Y-26127990D01*
X31305953Y-26127990D02*
X31382143Y-26204180D01*
X31382143Y-26204180D02*
X31420238Y-26280371D01*
X31420238Y-26280371D02*
X31458334Y-26432752D01*
X31458334Y-26432752D02*
X31458334Y-26547038D01*
X31458334Y-26547038D02*
X31420238Y-26699419D01*
X31420238Y-26699419D02*
X31382143Y-26775609D01*
X31382143Y-26775609D02*
X31305953Y-26851800D01*
X31305953Y-26851800D02*
X31191667Y-26889895D01*
X31191667Y-26889895D02*
X31001191Y-26889895D01*
X91923714Y-84039895D02*
X91542762Y-84039895D01*
X91542762Y-84039895D02*
X91542762Y-83239895D01*
X92190381Y-83620847D02*
X92457047Y-83620847D01*
X92571333Y-84039895D02*
X92190381Y-84039895D01*
X92190381Y-84039895D02*
X92190381Y-83239895D01*
X92190381Y-83239895D02*
X92571333Y-83239895D01*
X92914191Y-84039895D02*
X92914191Y-83239895D01*
X92914191Y-83239895D02*
X93104667Y-83239895D01*
X93104667Y-83239895D02*
X93218953Y-83277990D01*
X93218953Y-83277990D02*
X93295143Y-83354180D01*
X93295143Y-83354180D02*
X93333238Y-83430371D01*
X93333238Y-83430371D02*
X93371334Y-83582752D01*
X93371334Y-83582752D02*
X93371334Y-83697038D01*
X93371334Y-83697038D02*
X93333238Y-83849419D01*
X93333238Y-83849419D02*
X93295143Y-83925609D01*
X93295143Y-83925609D02*
X93218953Y-84001800D01*
X93218953Y-84001800D02*
X93104667Y-84039895D01*
X93104667Y-84039895D02*
X92914191Y-84039895D01*
X119241570Y-60251800D02*
X119355856Y-60289895D01*
X119355856Y-60289895D02*
X119546332Y-60289895D01*
X119546332Y-60289895D02*
X119622523Y-60251800D01*
X119622523Y-60251800D02*
X119660618Y-60213704D01*
X119660618Y-60213704D02*
X119698713Y-60137514D01*
X119698713Y-60137514D02*
X119698713Y-60061323D01*
X119698713Y-60061323D02*
X119660618Y-59985133D01*
X119660618Y-59985133D02*
X119622523Y-59947038D01*
X119622523Y-59947038D02*
X119546332Y-59908942D01*
X119546332Y-59908942D02*
X119393951Y-59870847D01*
X119393951Y-59870847D02*
X119317761Y-59832752D01*
X119317761Y-59832752D02*
X119279666Y-59794657D01*
X119279666Y-59794657D02*
X119241570Y-59718466D01*
X119241570Y-59718466D02*
X119241570Y-59642276D01*
X119241570Y-59642276D02*
X119279666Y-59566085D01*
X119279666Y-59566085D02*
X119317761Y-59527990D01*
X119317761Y-59527990D02*
X119393951Y-59489895D01*
X119393951Y-59489895D02*
X119584428Y-59489895D01*
X119584428Y-59489895D02*
X119698713Y-59527990D01*
X119965380Y-59489895D02*
X120155856Y-60289895D01*
X120155856Y-60289895D02*
X120308237Y-59718466D01*
X120308237Y-59718466D02*
X120460618Y-60289895D01*
X120460618Y-60289895D02*
X120651095Y-59489895D01*
X121336809Y-60289895D02*
X120955857Y-60289895D01*
X120955857Y-60289895D02*
X120955857Y-59489895D01*
X122022523Y-60289895D02*
X121565380Y-60289895D01*
X121793952Y-60289895D02*
X121793952Y-59489895D01*
X121793952Y-59489895D02*
X121717761Y-59604180D01*
X121717761Y-59604180D02*
X121641571Y-59680371D01*
X121641571Y-59680371D02*
X121565380Y-59718466D01*
X122289190Y-59489895D02*
X122822524Y-59489895D01*
X122822524Y-59489895D02*
X122479666Y-60289895D01*
X78759570Y-98351800D02*
X78873856Y-98389895D01*
X78873856Y-98389895D02*
X79064332Y-98389895D01*
X79064332Y-98389895D02*
X79140523Y-98351800D01*
X79140523Y-98351800D02*
X79178618Y-98313704D01*
X79178618Y-98313704D02*
X79216713Y-98237514D01*
X79216713Y-98237514D02*
X79216713Y-98161323D01*
X79216713Y-98161323D02*
X79178618Y-98085133D01*
X79178618Y-98085133D02*
X79140523Y-98047038D01*
X79140523Y-98047038D02*
X79064332Y-98008942D01*
X79064332Y-98008942D02*
X78911951Y-97970847D01*
X78911951Y-97970847D02*
X78835761Y-97932752D01*
X78835761Y-97932752D02*
X78797666Y-97894657D01*
X78797666Y-97894657D02*
X78759570Y-97818466D01*
X78759570Y-97818466D02*
X78759570Y-97742276D01*
X78759570Y-97742276D02*
X78797666Y-97666085D01*
X78797666Y-97666085D02*
X78835761Y-97627990D01*
X78835761Y-97627990D02*
X78911951Y-97589895D01*
X78911951Y-97589895D02*
X79102428Y-97589895D01*
X79102428Y-97589895D02*
X79216713Y-97627990D01*
X79483380Y-97589895D02*
X79673856Y-98389895D01*
X79673856Y-98389895D02*
X79826237Y-97818466D01*
X79826237Y-97818466D02*
X79978618Y-98389895D01*
X79978618Y-98389895D02*
X80169095Y-97589895D01*
X80854809Y-98389895D02*
X80473857Y-98389895D01*
X80473857Y-98389895D02*
X80473857Y-97589895D01*
X81083380Y-97666085D02*
X81121476Y-97627990D01*
X81121476Y-97627990D02*
X81197666Y-97589895D01*
X81197666Y-97589895D02*
X81388142Y-97589895D01*
X81388142Y-97589895D02*
X81464333Y-97627990D01*
X81464333Y-97627990D02*
X81502428Y-97666085D01*
X81502428Y-97666085D02*
X81540523Y-97742276D01*
X81540523Y-97742276D02*
X81540523Y-97818466D01*
X81540523Y-97818466D02*
X81502428Y-97932752D01*
X81502428Y-97932752D02*
X81045285Y-98389895D01*
X81045285Y-98389895D02*
X81540523Y-98389895D01*
X81807190Y-97589895D02*
X82340524Y-97589895D01*
X82340524Y-97589895D02*
X81997666Y-98389895D01*
X105334523Y-22151800D02*
X105448809Y-22189895D01*
X105448809Y-22189895D02*
X105639285Y-22189895D01*
X105639285Y-22189895D02*
X105715476Y-22151800D01*
X105715476Y-22151800D02*
X105753571Y-22113704D01*
X105753571Y-22113704D02*
X105791666Y-22037514D01*
X105791666Y-22037514D02*
X105791666Y-21961323D01*
X105791666Y-21961323D02*
X105753571Y-21885133D01*
X105753571Y-21885133D02*
X105715476Y-21847038D01*
X105715476Y-21847038D02*
X105639285Y-21808942D01*
X105639285Y-21808942D02*
X105486904Y-21770847D01*
X105486904Y-21770847D02*
X105410714Y-21732752D01*
X105410714Y-21732752D02*
X105372619Y-21694657D01*
X105372619Y-21694657D02*
X105334523Y-21618466D01*
X105334523Y-21618466D02*
X105334523Y-21542276D01*
X105334523Y-21542276D02*
X105372619Y-21466085D01*
X105372619Y-21466085D02*
X105410714Y-21427990D01*
X105410714Y-21427990D02*
X105486904Y-21389895D01*
X105486904Y-21389895D02*
X105677381Y-21389895D01*
X105677381Y-21389895D02*
X105791666Y-21427990D01*
X106058333Y-21389895D02*
X106248809Y-22189895D01*
X106248809Y-22189895D02*
X106401190Y-21618466D01*
X106401190Y-21618466D02*
X106553571Y-22189895D01*
X106553571Y-22189895D02*
X106744048Y-21389895D01*
X107429762Y-22189895D02*
X107048810Y-22189895D01*
X107048810Y-22189895D02*
X107048810Y-21389895D01*
X108077381Y-21389895D02*
X107696429Y-21389895D01*
X107696429Y-21389895D02*
X107658333Y-21770847D01*
X107658333Y-21770847D02*
X107696429Y-21732752D01*
X107696429Y-21732752D02*
X107772619Y-21694657D01*
X107772619Y-21694657D02*
X107963095Y-21694657D01*
X107963095Y-21694657D02*
X108039286Y-21732752D01*
X108039286Y-21732752D02*
X108077381Y-21770847D01*
X108077381Y-21770847D02*
X108115476Y-21847038D01*
X108115476Y-21847038D02*
X108115476Y-22037514D01*
X108115476Y-22037514D02*
X108077381Y-22113704D01*
X108077381Y-22113704D02*
X108039286Y-22151800D01*
X108039286Y-22151800D02*
X107963095Y-22189895D01*
X107963095Y-22189895D02*
X107772619Y-22189895D01*
X107772619Y-22189895D02*
X107696429Y-22151800D01*
X107696429Y-22151800D02*
X107658333Y-22113704D01*
X29134523Y-22151800D02*
X29248809Y-22189895D01*
X29248809Y-22189895D02*
X29439285Y-22189895D01*
X29439285Y-22189895D02*
X29515476Y-22151800D01*
X29515476Y-22151800D02*
X29553571Y-22113704D01*
X29553571Y-22113704D02*
X29591666Y-22037514D01*
X29591666Y-22037514D02*
X29591666Y-21961323D01*
X29591666Y-21961323D02*
X29553571Y-21885133D01*
X29553571Y-21885133D02*
X29515476Y-21847038D01*
X29515476Y-21847038D02*
X29439285Y-21808942D01*
X29439285Y-21808942D02*
X29286904Y-21770847D01*
X29286904Y-21770847D02*
X29210714Y-21732752D01*
X29210714Y-21732752D02*
X29172619Y-21694657D01*
X29172619Y-21694657D02*
X29134523Y-21618466D01*
X29134523Y-21618466D02*
X29134523Y-21542276D01*
X29134523Y-21542276D02*
X29172619Y-21466085D01*
X29172619Y-21466085D02*
X29210714Y-21427990D01*
X29210714Y-21427990D02*
X29286904Y-21389895D01*
X29286904Y-21389895D02*
X29477381Y-21389895D01*
X29477381Y-21389895D02*
X29591666Y-21427990D01*
X29858333Y-21389895D02*
X30048809Y-22189895D01*
X30048809Y-22189895D02*
X30201190Y-21618466D01*
X30201190Y-21618466D02*
X30353571Y-22189895D01*
X30353571Y-22189895D02*
X30544048Y-21389895D01*
X31229762Y-22189895D02*
X30848810Y-22189895D01*
X30848810Y-22189895D02*
X30848810Y-21389895D01*
X31915476Y-22189895D02*
X31458333Y-22189895D01*
X31686905Y-22189895D02*
X31686905Y-21389895D01*
X31686905Y-21389895D02*
X31610714Y-21504180D01*
X31610714Y-21504180D02*
X31534524Y-21580371D01*
X31534524Y-21580371D02*
X31458333Y-21618466D01*
X72873714Y-84039895D02*
X72492762Y-84039895D01*
X72492762Y-84039895D02*
X72492762Y-83239895D01*
X73140381Y-83620847D02*
X73407047Y-83620847D01*
X73521333Y-84039895D02*
X73140381Y-84039895D01*
X73140381Y-84039895D02*
X73140381Y-83239895D01*
X73140381Y-83239895D02*
X73521333Y-83239895D01*
X73864191Y-84039895D02*
X73864191Y-83239895D01*
X73864191Y-83239895D02*
X74054667Y-83239895D01*
X74054667Y-83239895D02*
X74168953Y-83277990D01*
X74168953Y-83277990D02*
X74245143Y-83354180D01*
X74245143Y-83354180D02*
X74283238Y-83430371D01*
X74283238Y-83430371D02*
X74321334Y-83582752D01*
X74321334Y-83582752D02*
X74321334Y-83697038D01*
X74321334Y-83697038D02*
X74283238Y-83849419D01*
X74283238Y-83849419D02*
X74245143Y-83925609D01*
X74245143Y-83925609D02*
X74168953Y-84001800D01*
X74168953Y-84001800D02*
X74054667Y-84039895D01*
X74054667Y-84039895D02*
X73864191Y-84039895D01*
X37154714Y-64989895D02*
X36773762Y-64989895D01*
X36773762Y-64989895D02*
X36773762Y-64189895D01*
X37421381Y-64570847D02*
X37688047Y-64570847D01*
X37802333Y-64989895D02*
X37421381Y-64989895D01*
X37421381Y-64989895D02*
X37421381Y-64189895D01*
X37421381Y-64189895D02*
X37802333Y-64189895D01*
X38145191Y-64989895D02*
X38145191Y-64189895D01*
X38145191Y-64189895D02*
X38335667Y-64189895D01*
X38335667Y-64189895D02*
X38449953Y-64227990D01*
X38449953Y-64227990D02*
X38526143Y-64304180D01*
X38526143Y-64304180D02*
X38564238Y-64380371D01*
X38564238Y-64380371D02*
X38602334Y-64532752D01*
X38602334Y-64532752D02*
X38602334Y-64647038D01*
X38602334Y-64647038D02*
X38564238Y-64799419D01*
X38564238Y-64799419D02*
X38526143Y-64875609D01*
X38526143Y-64875609D02*
X38449953Y-64951800D01*
X38449953Y-64951800D02*
X38335667Y-64989895D01*
X38335667Y-64989895D02*
X38145191Y-64989895D01*
X120498714Y-64989895D02*
X120117762Y-64989895D01*
X120117762Y-64989895D02*
X120117762Y-64189895D01*
X120765381Y-64570847D02*
X121032047Y-64570847D01*
X121146333Y-64989895D02*
X120765381Y-64989895D01*
X120765381Y-64989895D02*
X120765381Y-64189895D01*
X120765381Y-64189895D02*
X121146333Y-64189895D01*
X121489191Y-64989895D02*
X121489191Y-64189895D01*
X121489191Y-64189895D02*
X121679667Y-64189895D01*
X121679667Y-64189895D02*
X121793953Y-64227990D01*
X121793953Y-64227990D02*
X121870143Y-64304180D01*
X121870143Y-64304180D02*
X121908238Y-64380371D01*
X121908238Y-64380371D02*
X121946334Y-64532752D01*
X121946334Y-64532752D02*
X121946334Y-64647038D01*
X121946334Y-64647038D02*
X121908238Y-64799419D01*
X121908238Y-64799419D02*
X121870143Y-64875609D01*
X121870143Y-64875609D02*
X121793953Y-64951800D01*
X121793953Y-64951800D02*
X121679667Y-64989895D01*
X121679667Y-64989895D02*
X121489191Y-64989895D01*
X100191570Y-60251800D02*
X100305856Y-60289895D01*
X100305856Y-60289895D02*
X100496332Y-60289895D01*
X100496332Y-60289895D02*
X100572523Y-60251800D01*
X100572523Y-60251800D02*
X100610618Y-60213704D01*
X100610618Y-60213704D02*
X100648713Y-60137514D01*
X100648713Y-60137514D02*
X100648713Y-60061323D01*
X100648713Y-60061323D02*
X100610618Y-59985133D01*
X100610618Y-59985133D02*
X100572523Y-59947038D01*
X100572523Y-59947038D02*
X100496332Y-59908942D01*
X100496332Y-59908942D02*
X100343951Y-59870847D01*
X100343951Y-59870847D02*
X100267761Y-59832752D01*
X100267761Y-59832752D02*
X100229666Y-59794657D01*
X100229666Y-59794657D02*
X100191570Y-59718466D01*
X100191570Y-59718466D02*
X100191570Y-59642276D01*
X100191570Y-59642276D02*
X100229666Y-59566085D01*
X100229666Y-59566085D02*
X100267761Y-59527990D01*
X100267761Y-59527990D02*
X100343951Y-59489895D01*
X100343951Y-59489895D02*
X100534428Y-59489895D01*
X100534428Y-59489895D02*
X100648713Y-59527990D01*
X100915380Y-59489895D02*
X101105856Y-60289895D01*
X101105856Y-60289895D02*
X101258237Y-59718466D01*
X101258237Y-59718466D02*
X101410618Y-60289895D01*
X101410618Y-60289895D02*
X101601095Y-59489895D01*
X102286809Y-60289895D02*
X101905857Y-60289895D01*
X101905857Y-60289895D02*
X101905857Y-59489895D01*
X102972523Y-60289895D02*
X102515380Y-60289895D01*
X102743952Y-60289895D02*
X102743952Y-59489895D01*
X102743952Y-59489895D02*
X102667761Y-59604180D01*
X102667761Y-59604180D02*
X102591571Y-59680371D01*
X102591571Y-59680371D02*
X102515380Y-59718466D01*
X103658238Y-59489895D02*
X103505857Y-59489895D01*
X103505857Y-59489895D02*
X103429666Y-59527990D01*
X103429666Y-59527990D02*
X103391571Y-59566085D01*
X103391571Y-59566085D02*
X103315381Y-59680371D01*
X103315381Y-59680371D02*
X103277285Y-59832752D01*
X103277285Y-59832752D02*
X103277285Y-60137514D01*
X103277285Y-60137514D02*
X103315381Y-60213704D01*
X103315381Y-60213704D02*
X103353476Y-60251800D01*
X103353476Y-60251800D02*
X103429666Y-60289895D01*
X103429666Y-60289895D02*
X103582047Y-60289895D01*
X103582047Y-60289895D02*
X103658238Y-60251800D01*
X103658238Y-60251800D02*
X103696333Y-60213704D01*
X103696333Y-60213704D02*
X103734428Y-60137514D01*
X103734428Y-60137514D02*
X103734428Y-59947038D01*
X103734428Y-59947038D02*
X103696333Y-59870847D01*
X103696333Y-59870847D02*
X103658238Y-59832752D01*
X103658238Y-59832752D02*
X103582047Y-59794657D01*
X103582047Y-59794657D02*
X103429666Y-59794657D01*
X103429666Y-59794657D02*
X103353476Y-59832752D01*
X103353476Y-59832752D02*
X103315381Y-59870847D01*
X103315381Y-59870847D02*
X103277285Y-59947038D01*
X124384523Y-22151800D02*
X124498809Y-22189895D01*
X124498809Y-22189895D02*
X124689285Y-22189895D01*
X124689285Y-22189895D02*
X124765476Y-22151800D01*
X124765476Y-22151800D02*
X124803571Y-22113704D01*
X124803571Y-22113704D02*
X124841666Y-22037514D01*
X124841666Y-22037514D02*
X124841666Y-21961323D01*
X124841666Y-21961323D02*
X124803571Y-21885133D01*
X124803571Y-21885133D02*
X124765476Y-21847038D01*
X124765476Y-21847038D02*
X124689285Y-21808942D01*
X124689285Y-21808942D02*
X124536904Y-21770847D01*
X124536904Y-21770847D02*
X124460714Y-21732752D01*
X124460714Y-21732752D02*
X124422619Y-21694657D01*
X124422619Y-21694657D02*
X124384523Y-21618466D01*
X124384523Y-21618466D02*
X124384523Y-21542276D01*
X124384523Y-21542276D02*
X124422619Y-21466085D01*
X124422619Y-21466085D02*
X124460714Y-21427990D01*
X124460714Y-21427990D02*
X124536904Y-21389895D01*
X124536904Y-21389895D02*
X124727381Y-21389895D01*
X124727381Y-21389895D02*
X124841666Y-21427990D01*
X125108333Y-21389895D02*
X125298809Y-22189895D01*
X125298809Y-22189895D02*
X125451190Y-21618466D01*
X125451190Y-21618466D02*
X125603571Y-22189895D01*
X125603571Y-22189895D02*
X125794048Y-21389895D01*
X126479762Y-22189895D02*
X126098810Y-22189895D01*
X126098810Y-22189895D02*
X126098810Y-21389895D01*
X127089286Y-21389895D02*
X126936905Y-21389895D01*
X126936905Y-21389895D02*
X126860714Y-21427990D01*
X126860714Y-21427990D02*
X126822619Y-21466085D01*
X126822619Y-21466085D02*
X126746429Y-21580371D01*
X126746429Y-21580371D02*
X126708333Y-21732752D01*
X126708333Y-21732752D02*
X126708333Y-22037514D01*
X126708333Y-22037514D02*
X126746429Y-22113704D01*
X126746429Y-22113704D02*
X126784524Y-22151800D01*
X126784524Y-22151800D02*
X126860714Y-22189895D01*
X126860714Y-22189895D02*
X127013095Y-22189895D01*
X127013095Y-22189895D02*
X127089286Y-22151800D01*
X127089286Y-22151800D02*
X127127381Y-22113704D01*
X127127381Y-22113704D02*
X127165476Y-22037514D01*
X127165476Y-22037514D02*
X127165476Y-21847038D01*
X127165476Y-21847038D02*
X127127381Y-21770847D01*
X127127381Y-21770847D02*
X127089286Y-21732752D01*
X127089286Y-21732752D02*
X127013095Y-21694657D01*
X127013095Y-21694657D02*
X126860714Y-21694657D01*
X126860714Y-21694657D02*
X126784524Y-21732752D01*
X126784524Y-21732752D02*
X126746429Y-21770847D01*
X126746429Y-21770847D02*
X126708333Y-21847038D01*
X31134570Y-98351800D02*
X31248856Y-98389895D01*
X31248856Y-98389895D02*
X31439332Y-98389895D01*
X31439332Y-98389895D02*
X31515523Y-98351800D01*
X31515523Y-98351800D02*
X31553618Y-98313704D01*
X31553618Y-98313704D02*
X31591713Y-98237514D01*
X31591713Y-98237514D02*
X31591713Y-98161323D01*
X31591713Y-98161323D02*
X31553618Y-98085133D01*
X31553618Y-98085133D02*
X31515523Y-98047038D01*
X31515523Y-98047038D02*
X31439332Y-98008942D01*
X31439332Y-98008942D02*
X31286951Y-97970847D01*
X31286951Y-97970847D02*
X31210761Y-97932752D01*
X31210761Y-97932752D02*
X31172666Y-97894657D01*
X31172666Y-97894657D02*
X31134570Y-97818466D01*
X31134570Y-97818466D02*
X31134570Y-97742276D01*
X31134570Y-97742276D02*
X31172666Y-97666085D01*
X31172666Y-97666085D02*
X31210761Y-97627990D01*
X31210761Y-97627990D02*
X31286951Y-97589895D01*
X31286951Y-97589895D02*
X31477428Y-97589895D01*
X31477428Y-97589895D02*
X31591713Y-97627990D01*
X31858380Y-97589895D02*
X32048856Y-98389895D01*
X32048856Y-98389895D02*
X32201237Y-97818466D01*
X32201237Y-97818466D02*
X32353618Y-98389895D01*
X32353618Y-98389895D02*
X32544095Y-97589895D01*
X33229809Y-98389895D02*
X32848857Y-98389895D01*
X32848857Y-98389895D02*
X32848857Y-97589895D01*
X33458380Y-97666085D02*
X33496476Y-97627990D01*
X33496476Y-97627990D02*
X33572666Y-97589895D01*
X33572666Y-97589895D02*
X33763142Y-97589895D01*
X33763142Y-97589895D02*
X33839333Y-97627990D01*
X33839333Y-97627990D02*
X33877428Y-97666085D01*
X33877428Y-97666085D02*
X33915523Y-97742276D01*
X33915523Y-97742276D02*
X33915523Y-97818466D01*
X33915523Y-97818466D02*
X33877428Y-97932752D01*
X33877428Y-97932752D02*
X33420285Y-98389895D01*
X33420285Y-98389895D02*
X33915523Y-98389895D01*
X34639333Y-97589895D02*
X34258381Y-97589895D01*
X34258381Y-97589895D02*
X34220285Y-97970847D01*
X34220285Y-97970847D02*
X34258381Y-97932752D01*
X34258381Y-97932752D02*
X34334571Y-97894657D01*
X34334571Y-97894657D02*
X34525047Y-97894657D01*
X34525047Y-97894657D02*
X34601238Y-97932752D01*
X34601238Y-97932752D02*
X34639333Y-97970847D01*
X34639333Y-97970847D02*
X34677428Y-98047038D01*
X34677428Y-98047038D02*
X34677428Y-98237514D01*
X34677428Y-98237514D02*
X34639333Y-98313704D01*
X34639333Y-98313704D02*
X34601238Y-98351800D01*
X34601238Y-98351800D02*
X34525047Y-98389895D01*
X34525047Y-98389895D02*
X34334571Y-98389895D01*
X34334571Y-98389895D02*
X34258381Y-98351800D01*
X34258381Y-98351800D02*
X34220285Y-98313704D01*
X63348714Y-64989895D02*
X62967762Y-64989895D01*
X62967762Y-64989895D02*
X62967762Y-64189895D01*
X63615381Y-64570847D02*
X63882047Y-64570847D01*
X63996333Y-64989895D02*
X63615381Y-64989895D01*
X63615381Y-64989895D02*
X63615381Y-64189895D01*
X63615381Y-64189895D02*
X63996333Y-64189895D01*
X64339191Y-64989895D02*
X64339191Y-64189895D01*
X64339191Y-64189895D02*
X64529667Y-64189895D01*
X64529667Y-64189895D02*
X64643953Y-64227990D01*
X64643953Y-64227990D02*
X64720143Y-64304180D01*
X64720143Y-64304180D02*
X64758238Y-64380371D01*
X64758238Y-64380371D02*
X64796334Y-64532752D01*
X64796334Y-64532752D02*
X64796334Y-64647038D01*
X64796334Y-64647038D02*
X64758238Y-64799419D01*
X64758238Y-64799419D02*
X64720143Y-64875609D01*
X64720143Y-64875609D02*
X64643953Y-64951800D01*
X64643953Y-64951800D02*
X64529667Y-64989895D01*
X64529667Y-64989895D02*
X64339191Y-64989895D01*
X71616570Y-79301800D02*
X71730856Y-79339895D01*
X71730856Y-79339895D02*
X71921332Y-79339895D01*
X71921332Y-79339895D02*
X71997523Y-79301800D01*
X71997523Y-79301800D02*
X72035618Y-79263704D01*
X72035618Y-79263704D02*
X72073713Y-79187514D01*
X72073713Y-79187514D02*
X72073713Y-79111323D01*
X72073713Y-79111323D02*
X72035618Y-79035133D01*
X72035618Y-79035133D02*
X71997523Y-78997038D01*
X71997523Y-78997038D02*
X71921332Y-78958942D01*
X71921332Y-78958942D02*
X71768951Y-78920847D01*
X71768951Y-78920847D02*
X71692761Y-78882752D01*
X71692761Y-78882752D02*
X71654666Y-78844657D01*
X71654666Y-78844657D02*
X71616570Y-78768466D01*
X71616570Y-78768466D02*
X71616570Y-78692276D01*
X71616570Y-78692276D02*
X71654666Y-78616085D01*
X71654666Y-78616085D02*
X71692761Y-78577990D01*
X71692761Y-78577990D02*
X71768951Y-78539895D01*
X71768951Y-78539895D02*
X71959428Y-78539895D01*
X71959428Y-78539895D02*
X72073713Y-78577990D01*
X72340380Y-78539895D02*
X72530856Y-79339895D01*
X72530856Y-79339895D02*
X72683237Y-78768466D01*
X72683237Y-78768466D02*
X72835618Y-79339895D01*
X72835618Y-79339895D02*
X73026095Y-78539895D01*
X73711809Y-79339895D02*
X73330857Y-79339895D01*
X73330857Y-79339895D02*
X73330857Y-78539895D01*
X73940380Y-78616085D02*
X73978476Y-78577990D01*
X73978476Y-78577990D02*
X74054666Y-78539895D01*
X74054666Y-78539895D02*
X74245142Y-78539895D01*
X74245142Y-78539895D02*
X74321333Y-78577990D01*
X74321333Y-78577990D02*
X74359428Y-78616085D01*
X74359428Y-78616085D02*
X74397523Y-78692276D01*
X74397523Y-78692276D02*
X74397523Y-78768466D01*
X74397523Y-78768466D02*
X74359428Y-78882752D01*
X74359428Y-78882752D02*
X73902285Y-79339895D01*
X73902285Y-79339895D02*
X74397523Y-79339895D01*
X74892762Y-78539895D02*
X74968952Y-78539895D01*
X74968952Y-78539895D02*
X75045143Y-78577990D01*
X75045143Y-78577990D02*
X75083238Y-78616085D01*
X75083238Y-78616085D02*
X75121333Y-78692276D01*
X75121333Y-78692276D02*
X75159428Y-78844657D01*
X75159428Y-78844657D02*
X75159428Y-79035133D01*
X75159428Y-79035133D02*
X75121333Y-79187514D01*
X75121333Y-79187514D02*
X75083238Y-79263704D01*
X75083238Y-79263704D02*
X75045143Y-79301800D01*
X75045143Y-79301800D02*
X74968952Y-79339895D01*
X74968952Y-79339895D02*
X74892762Y-79339895D01*
X74892762Y-79339895D02*
X74816571Y-79301800D01*
X74816571Y-79301800D02*
X74778476Y-79263704D01*
X74778476Y-79263704D02*
X74740381Y-79187514D01*
X74740381Y-79187514D02*
X74702285Y-79035133D01*
X74702285Y-79035133D02*
X74702285Y-78844657D01*
X74702285Y-78844657D02*
X74740381Y-78692276D01*
X74740381Y-78692276D02*
X74778476Y-78616085D01*
X74778476Y-78616085D02*
X74816571Y-78577990D01*
X74816571Y-78577990D02*
X74892762Y-78539895D01*
X86284523Y-22151800D02*
X86398809Y-22189895D01*
X86398809Y-22189895D02*
X86589285Y-22189895D01*
X86589285Y-22189895D02*
X86665476Y-22151800D01*
X86665476Y-22151800D02*
X86703571Y-22113704D01*
X86703571Y-22113704D02*
X86741666Y-22037514D01*
X86741666Y-22037514D02*
X86741666Y-21961323D01*
X86741666Y-21961323D02*
X86703571Y-21885133D01*
X86703571Y-21885133D02*
X86665476Y-21847038D01*
X86665476Y-21847038D02*
X86589285Y-21808942D01*
X86589285Y-21808942D02*
X86436904Y-21770847D01*
X86436904Y-21770847D02*
X86360714Y-21732752D01*
X86360714Y-21732752D02*
X86322619Y-21694657D01*
X86322619Y-21694657D02*
X86284523Y-21618466D01*
X86284523Y-21618466D02*
X86284523Y-21542276D01*
X86284523Y-21542276D02*
X86322619Y-21466085D01*
X86322619Y-21466085D02*
X86360714Y-21427990D01*
X86360714Y-21427990D02*
X86436904Y-21389895D01*
X86436904Y-21389895D02*
X86627381Y-21389895D01*
X86627381Y-21389895D02*
X86741666Y-21427990D01*
X87008333Y-21389895D02*
X87198809Y-22189895D01*
X87198809Y-22189895D02*
X87351190Y-21618466D01*
X87351190Y-21618466D02*
X87503571Y-22189895D01*
X87503571Y-22189895D02*
X87694048Y-21389895D01*
X88379762Y-22189895D02*
X87998810Y-22189895D01*
X87998810Y-22189895D02*
X87998810Y-21389895D01*
X88989286Y-21656561D02*
X88989286Y-22189895D01*
X88798810Y-21351800D02*
X88608333Y-21923228D01*
X88608333Y-21923228D02*
X89103572Y-21923228D01*
X82398714Y-64989895D02*
X82017762Y-64989895D01*
X82017762Y-64989895D02*
X82017762Y-64189895D01*
X82665381Y-64570847D02*
X82932047Y-64570847D01*
X83046333Y-64989895D02*
X82665381Y-64989895D01*
X82665381Y-64989895D02*
X82665381Y-64189895D01*
X82665381Y-64189895D02*
X83046333Y-64189895D01*
X83389191Y-64989895D02*
X83389191Y-64189895D01*
X83389191Y-64189895D02*
X83579667Y-64189895D01*
X83579667Y-64189895D02*
X83693953Y-64227990D01*
X83693953Y-64227990D02*
X83770143Y-64304180D01*
X83770143Y-64304180D02*
X83808238Y-64380371D01*
X83808238Y-64380371D02*
X83846334Y-64532752D01*
X83846334Y-64532752D02*
X83846334Y-64647038D01*
X83846334Y-64647038D02*
X83808238Y-64799419D01*
X83808238Y-64799419D02*
X83770143Y-64875609D01*
X83770143Y-64875609D02*
X83693953Y-64951800D01*
X83693953Y-64951800D02*
X83579667Y-64989895D01*
X83579667Y-64989895D02*
X83389191Y-64989895D01*
X109715570Y-79301800D02*
X109829856Y-79339895D01*
X109829856Y-79339895D02*
X110020332Y-79339895D01*
X110020332Y-79339895D02*
X110096523Y-79301800D01*
X110096523Y-79301800D02*
X110134618Y-79263704D01*
X110134618Y-79263704D02*
X110172713Y-79187514D01*
X110172713Y-79187514D02*
X110172713Y-79111323D01*
X110172713Y-79111323D02*
X110134618Y-79035133D01*
X110134618Y-79035133D02*
X110096523Y-78997038D01*
X110096523Y-78997038D02*
X110020332Y-78958942D01*
X110020332Y-78958942D02*
X109867951Y-78920847D01*
X109867951Y-78920847D02*
X109791761Y-78882752D01*
X109791761Y-78882752D02*
X109753666Y-78844657D01*
X109753666Y-78844657D02*
X109715570Y-78768466D01*
X109715570Y-78768466D02*
X109715570Y-78692276D01*
X109715570Y-78692276D02*
X109753666Y-78616085D01*
X109753666Y-78616085D02*
X109791761Y-78577990D01*
X109791761Y-78577990D02*
X109867951Y-78539895D01*
X109867951Y-78539895D02*
X110058428Y-78539895D01*
X110058428Y-78539895D02*
X110172713Y-78577990D01*
X110439380Y-78539895D02*
X110629856Y-79339895D01*
X110629856Y-79339895D02*
X110782237Y-78768466D01*
X110782237Y-78768466D02*
X110934618Y-79339895D01*
X110934618Y-79339895D02*
X111125095Y-78539895D01*
X111810809Y-79339895D02*
X111429857Y-79339895D01*
X111429857Y-79339895D02*
X111429857Y-78539895D01*
X112039380Y-78616085D02*
X112077476Y-78577990D01*
X112077476Y-78577990D02*
X112153666Y-78539895D01*
X112153666Y-78539895D02*
X112344142Y-78539895D01*
X112344142Y-78539895D02*
X112420333Y-78577990D01*
X112420333Y-78577990D02*
X112458428Y-78616085D01*
X112458428Y-78616085D02*
X112496523Y-78692276D01*
X112496523Y-78692276D02*
X112496523Y-78768466D01*
X112496523Y-78768466D02*
X112458428Y-78882752D01*
X112458428Y-78882752D02*
X112001285Y-79339895D01*
X112001285Y-79339895D02*
X112496523Y-79339895D01*
X112801285Y-78616085D02*
X112839381Y-78577990D01*
X112839381Y-78577990D02*
X112915571Y-78539895D01*
X112915571Y-78539895D02*
X113106047Y-78539895D01*
X113106047Y-78539895D02*
X113182238Y-78577990D01*
X113182238Y-78577990D02*
X113220333Y-78616085D01*
X113220333Y-78616085D02*
X113258428Y-78692276D01*
X113258428Y-78692276D02*
X113258428Y-78768466D01*
X113258428Y-78768466D02*
X113220333Y-78882752D01*
X113220333Y-78882752D02*
X112763190Y-79339895D01*
X112763190Y-79339895D02*
X113258428Y-79339895D01*
X34773714Y-45939895D02*
X34392762Y-45939895D01*
X34392762Y-45939895D02*
X34392762Y-45139895D01*
X35040381Y-45520847D02*
X35307047Y-45520847D01*
X35421333Y-45939895D02*
X35040381Y-45939895D01*
X35040381Y-45939895D02*
X35040381Y-45139895D01*
X35040381Y-45139895D02*
X35421333Y-45139895D01*
X35764191Y-45939895D02*
X35764191Y-45139895D01*
X35764191Y-45139895D02*
X35954667Y-45139895D01*
X35954667Y-45139895D02*
X36068953Y-45177990D01*
X36068953Y-45177990D02*
X36145143Y-45254180D01*
X36145143Y-45254180D02*
X36183238Y-45330371D01*
X36183238Y-45330371D02*
X36221334Y-45482752D01*
X36221334Y-45482752D02*
X36221334Y-45597038D01*
X36221334Y-45597038D02*
X36183238Y-45749419D01*
X36183238Y-45749419D02*
X36145143Y-45825609D01*
X36145143Y-45825609D02*
X36068953Y-45901800D01*
X36068953Y-45901800D02*
X35954667Y-45939895D01*
X35954667Y-45939895D02*
X35764191Y-45939895D01*
X35897570Y-60251800D02*
X36011856Y-60289895D01*
X36011856Y-60289895D02*
X36202332Y-60289895D01*
X36202332Y-60289895D02*
X36278523Y-60251800D01*
X36278523Y-60251800D02*
X36316618Y-60213704D01*
X36316618Y-60213704D02*
X36354713Y-60137514D01*
X36354713Y-60137514D02*
X36354713Y-60061323D01*
X36354713Y-60061323D02*
X36316618Y-59985133D01*
X36316618Y-59985133D02*
X36278523Y-59947038D01*
X36278523Y-59947038D02*
X36202332Y-59908942D01*
X36202332Y-59908942D02*
X36049951Y-59870847D01*
X36049951Y-59870847D02*
X35973761Y-59832752D01*
X35973761Y-59832752D02*
X35935666Y-59794657D01*
X35935666Y-59794657D02*
X35897570Y-59718466D01*
X35897570Y-59718466D02*
X35897570Y-59642276D01*
X35897570Y-59642276D02*
X35935666Y-59566085D01*
X35935666Y-59566085D02*
X35973761Y-59527990D01*
X35973761Y-59527990D02*
X36049951Y-59489895D01*
X36049951Y-59489895D02*
X36240428Y-59489895D01*
X36240428Y-59489895D02*
X36354713Y-59527990D01*
X36621380Y-59489895D02*
X36811856Y-60289895D01*
X36811856Y-60289895D02*
X36964237Y-59718466D01*
X36964237Y-59718466D02*
X37116618Y-60289895D01*
X37116618Y-60289895D02*
X37307095Y-59489895D01*
X37992809Y-60289895D02*
X37611857Y-60289895D01*
X37611857Y-60289895D02*
X37611857Y-59489895D01*
X38678523Y-60289895D02*
X38221380Y-60289895D01*
X38449952Y-60289895D02*
X38449952Y-59489895D01*
X38449952Y-59489895D02*
X38373761Y-59604180D01*
X38373761Y-59604180D02*
X38297571Y-59680371D01*
X38297571Y-59680371D02*
X38221380Y-59718466D01*
X38945190Y-59489895D02*
X39440428Y-59489895D01*
X39440428Y-59489895D02*
X39173762Y-59794657D01*
X39173762Y-59794657D02*
X39288047Y-59794657D01*
X39288047Y-59794657D02*
X39364238Y-59832752D01*
X39364238Y-59832752D02*
X39402333Y-59870847D01*
X39402333Y-59870847D02*
X39440428Y-59947038D01*
X39440428Y-59947038D02*
X39440428Y-60137514D01*
X39440428Y-60137514D02*
X39402333Y-60213704D01*
X39402333Y-60213704D02*
X39364238Y-60251800D01*
X39364238Y-60251800D02*
X39288047Y-60289895D01*
X39288047Y-60289895D02*
X39059476Y-60289895D01*
X39059476Y-60289895D02*
X38983285Y-60251800D01*
X38983285Y-60251800D02*
X38945190Y-60213704D01*
X41916714Y-84039895D02*
X41535762Y-84039895D01*
X41535762Y-84039895D02*
X41535762Y-83239895D01*
X42183381Y-83620847D02*
X42450047Y-83620847D01*
X42564333Y-84039895D02*
X42183381Y-84039895D01*
X42183381Y-84039895D02*
X42183381Y-83239895D01*
X42183381Y-83239895D02*
X42564333Y-83239895D01*
X42907191Y-84039895D02*
X42907191Y-83239895D01*
X42907191Y-83239895D02*
X43097667Y-83239895D01*
X43097667Y-83239895D02*
X43211953Y-83277990D01*
X43211953Y-83277990D02*
X43288143Y-83354180D01*
X43288143Y-83354180D02*
X43326238Y-83430371D01*
X43326238Y-83430371D02*
X43364334Y-83582752D01*
X43364334Y-83582752D02*
X43364334Y-83697038D01*
X43364334Y-83697038D02*
X43326238Y-83849419D01*
X43326238Y-83849419D02*
X43288143Y-83925609D01*
X43288143Y-83925609D02*
X43211953Y-84001800D01*
X43211953Y-84001800D02*
X43097667Y-84039895D01*
X43097667Y-84039895D02*
X42907191Y-84039895D01*
X95428570Y-41201800D02*
X95542856Y-41239895D01*
X95542856Y-41239895D02*
X95733332Y-41239895D01*
X95733332Y-41239895D02*
X95809523Y-41201800D01*
X95809523Y-41201800D02*
X95847618Y-41163704D01*
X95847618Y-41163704D02*
X95885713Y-41087514D01*
X95885713Y-41087514D02*
X95885713Y-41011323D01*
X95885713Y-41011323D02*
X95847618Y-40935133D01*
X95847618Y-40935133D02*
X95809523Y-40897038D01*
X95809523Y-40897038D02*
X95733332Y-40858942D01*
X95733332Y-40858942D02*
X95580951Y-40820847D01*
X95580951Y-40820847D02*
X95504761Y-40782752D01*
X95504761Y-40782752D02*
X95466666Y-40744657D01*
X95466666Y-40744657D02*
X95428570Y-40668466D01*
X95428570Y-40668466D02*
X95428570Y-40592276D01*
X95428570Y-40592276D02*
X95466666Y-40516085D01*
X95466666Y-40516085D02*
X95504761Y-40477990D01*
X95504761Y-40477990D02*
X95580951Y-40439895D01*
X95580951Y-40439895D02*
X95771428Y-40439895D01*
X95771428Y-40439895D02*
X95885713Y-40477990D01*
X96152380Y-40439895D02*
X96342856Y-41239895D01*
X96342856Y-41239895D02*
X96495237Y-40668466D01*
X96495237Y-40668466D02*
X96647618Y-41239895D01*
X96647618Y-41239895D02*
X96838095Y-40439895D01*
X97523809Y-41239895D02*
X97142857Y-41239895D01*
X97142857Y-41239895D02*
X97142857Y-40439895D01*
X98209523Y-41239895D02*
X97752380Y-41239895D01*
X97980952Y-41239895D02*
X97980952Y-40439895D01*
X97980952Y-40439895D02*
X97904761Y-40554180D01*
X97904761Y-40554180D02*
X97828571Y-40630371D01*
X97828571Y-40630371D02*
X97752380Y-40668466D01*
X98704762Y-40439895D02*
X98780952Y-40439895D01*
X98780952Y-40439895D02*
X98857143Y-40477990D01*
X98857143Y-40477990D02*
X98895238Y-40516085D01*
X98895238Y-40516085D02*
X98933333Y-40592276D01*
X98933333Y-40592276D02*
X98971428Y-40744657D01*
X98971428Y-40744657D02*
X98971428Y-40935133D01*
X98971428Y-40935133D02*
X98933333Y-41087514D01*
X98933333Y-41087514D02*
X98895238Y-41163704D01*
X98895238Y-41163704D02*
X98857143Y-41201800D01*
X98857143Y-41201800D02*
X98780952Y-41239895D01*
X98780952Y-41239895D02*
X98704762Y-41239895D01*
X98704762Y-41239895D02*
X98628571Y-41201800D01*
X98628571Y-41201800D02*
X98590476Y-41163704D01*
X98590476Y-41163704D02*
X98552381Y-41087514D01*
X98552381Y-41087514D02*
X98514285Y-40935133D01*
X98514285Y-40935133D02*
X98514285Y-40744657D01*
X98514285Y-40744657D02*
X98552381Y-40592276D01*
X98552381Y-40592276D02*
X98590476Y-40516085D01*
X98590476Y-40516085D02*
X98628571Y-40477990D01*
X98628571Y-40477990D02*
X98704762Y-40439895D01*
X87160714Y-26889895D02*
X86779762Y-26889895D01*
X86779762Y-26889895D02*
X86779762Y-26089895D01*
X87427381Y-26470847D02*
X87694047Y-26470847D01*
X87808333Y-26889895D02*
X87427381Y-26889895D01*
X87427381Y-26889895D02*
X87427381Y-26089895D01*
X87427381Y-26089895D02*
X87808333Y-26089895D01*
X88151191Y-26889895D02*
X88151191Y-26089895D01*
X88151191Y-26089895D02*
X88341667Y-26089895D01*
X88341667Y-26089895D02*
X88455953Y-26127990D01*
X88455953Y-26127990D02*
X88532143Y-26204180D01*
X88532143Y-26204180D02*
X88570238Y-26280371D01*
X88570238Y-26280371D02*
X88608334Y-26432752D01*
X88608334Y-26432752D02*
X88608334Y-26547038D01*
X88608334Y-26547038D02*
X88570238Y-26699419D01*
X88570238Y-26699419D02*
X88532143Y-26775609D01*
X88532143Y-26775609D02*
X88455953Y-26851800D01*
X88455953Y-26851800D02*
X88341667Y-26889895D01*
X88341667Y-26889895D02*
X88151191Y-26889895D01*
X130023714Y-84039895D02*
X129642762Y-84039895D01*
X129642762Y-84039895D02*
X129642762Y-83239895D01*
X130290381Y-83620847D02*
X130557047Y-83620847D01*
X130671333Y-84039895D02*
X130290381Y-84039895D01*
X130290381Y-84039895D02*
X130290381Y-83239895D01*
X130290381Y-83239895D02*
X130671333Y-83239895D01*
X131014191Y-84039895D02*
X131014191Y-83239895D01*
X131014191Y-83239895D02*
X131204667Y-83239895D01*
X131204667Y-83239895D02*
X131318953Y-83277990D01*
X131318953Y-83277990D02*
X131395143Y-83354180D01*
X131395143Y-83354180D02*
X131433238Y-83430371D01*
X131433238Y-83430371D02*
X131471334Y-83582752D01*
X131471334Y-83582752D02*
X131471334Y-83697038D01*
X131471334Y-83697038D02*
X131433238Y-83849419D01*
X131433238Y-83849419D02*
X131395143Y-83925609D01*
X131395143Y-83925609D02*
X131318953Y-84001800D01*
X131318953Y-84001800D02*
X131204667Y-84039895D01*
X131204667Y-84039895D02*
X131014191Y-84039895D01*
X67234523Y-22151800D02*
X67348809Y-22189895D01*
X67348809Y-22189895D02*
X67539285Y-22189895D01*
X67539285Y-22189895D02*
X67615476Y-22151800D01*
X67615476Y-22151800D02*
X67653571Y-22113704D01*
X67653571Y-22113704D02*
X67691666Y-22037514D01*
X67691666Y-22037514D02*
X67691666Y-21961323D01*
X67691666Y-21961323D02*
X67653571Y-21885133D01*
X67653571Y-21885133D02*
X67615476Y-21847038D01*
X67615476Y-21847038D02*
X67539285Y-21808942D01*
X67539285Y-21808942D02*
X67386904Y-21770847D01*
X67386904Y-21770847D02*
X67310714Y-21732752D01*
X67310714Y-21732752D02*
X67272619Y-21694657D01*
X67272619Y-21694657D02*
X67234523Y-21618466D01*
X67234523Y-21618466D02*
X67234523Y-21542276D01*
X67234523Y-21542276D02*
X67272619Y-21466085D01*
X67272619Y-21466085D02*
X67310714Y-21427990D01*
X67310714Y-21427990D02*
X67386904Y-21389895D01*
X67386904Y-21389895D02*
X67577381Y-21389895D01*
X67577381Y-21389895D02*
X67691666Y-21427990D01*
X67958333Y-21389895D02*
X68148809Y-22189895D01*
X68148809Y-22189895D02*
X68301190Y-21618466D01*
X68301190Y-21618466D02*
X68453571Y-22189895D01*
X68453571Y-22189895D02*
X68644048Y-21389895D01*
X69329762Y-22189895D02*
X68948810Y-22189895D01*
X68948810Y-22189895D02*
X68948810Y-21389895D01*
X69520238Y-21389895D02*
X70015476Y-21389895D01*
X70015476Y-21389895D02*
X69748810Y-21694657D01*
X69748810Y-21694657D02*
X69863095Y-21694657D01*
X69863095Y-21694657D02*
X69939286Y-21732752D01*
X69939286Y-21732752D02*
X69977381Y-21770847D01*
X69977381Y-21770847D02*
X70015476Y-21847038D01*
X70015476Y-21847038D02*
X70015476Y-22037514D01*
X70015476Y-22037514D02*
X69977381Y-22113704D01*
X69977381Y-22113704D02*
X69939286Y-22151800D01*
X69939286Y-22151800D02*
X69863095Y-22189895D01*
X69863095Y-22189895D02*
X69634524Y-22189895D01*
X69634524Y-22189895D02*
X69558333Y-22151800D01*
X69558333Y-22151800D02*
X69520238Y-22113704D01*
D12*
%TO.C,LEDL22*%
X110037000Y-82075000D02*
X110037000Y-82975000D01*
%TO.C,LEDL8*%
X57650000Y-43975000D02*
X57650000Y-44875000D01*
D13*
%TO.C,H3*%
X118700000Y-24000000D02*
G75*
G02*
X113700000Y-24000000I-2500000J0D01*
G01*
X113700000Y-24000000D02*
G75*
G02*
X118700000Y-24000000I2500000J0D01*
G01*
D12*
%TO.C,LEDL9*%
X76700000Y-43975000D02*
X76700000Y-44875000D01*
%TO.C,LEDL18*%
X138612000Y-63025000D02*
X138612000Y-63925000D01*
%TO.C,LEDL2*%
X48125000Y-24925000D02*
X48125000Y-25825000D01*
%TO.C,LEDL3*%
X67175000Y-24925000D02*
X67175000Y-25825000D01*
%TO.C,LEDL16*%
X100513000Y-63025000D02*
X100513000Y-63925000D01*
%TO.C,LEDL27*%
X79081000Y-101125000D02*
X79081000Y-102025000D01*
%TO.C,LEDL25*%
X31456000Y-101125000D02*
X31456000Y-102025000D01*
%TO.C,LEDL11*%
X114800000Y-43975000D02*
X114800000Y-44875000D01*
%TO.C,LEDL10*%
X95750000Y-43975000D02*
X95750000Y-44875000D01*
%TO.C,LEDL29*%
X131988000Y-112325000D02*
X131988000Y-111425000D01*
%TO.C,LEDL26*%
X55269000Y-101125000D02*
X55269000Y-102025000D01*
%TO.C,LEDL24*%
X148138000Y-82075000D02*
X148138000Y-82975000D01*
%TO.C,LEDL12*%
X133850000Y-43975000D02*
X133850000Y-44875000D01*
%TO.C,LEDL28*%
X100513000Y-101125000D02*
X100513000Y-102025000D01*
%TO.C,LEDL5*%
X105275000Y-24925000D02*
X105275000Y-25825000D01*
%TO.C,LEDL6*%
X124325000Y-24925000D02*
X124325000Y-25825000D01*
D13*
%TO.C,H4*%
X145500000Y-113250000D02*
G75*
G02*
X140500000Y-113250000I-2500000J0D01*
G01*
X140500000Y-113250000D02*
G75*
G02*
X145500000Y-113250000I2500000J0D01*
G01*
D12*
%TO.C,LEDL1*%
X29075000Y-24925000D02*
X29075000Y-25825000D01*
%TO.C,LEDL21*%
X90988000Y-82075000D02*
X90988000Y-82975000D01*
%TO.C,LEDL20*%
X71938000Y-82075000D02*
X71938000Y-82975000D01*
%TO.C,LEDL13*%
X36219000Y-63025000D02*
X36219000Y-63925000D01*
%TO.C,LEDL17*%
X119563000Y-63025000D02*
X119563000Y-63925000D01*
%TO.C,LEDL14*%
X62413000Y-63025000D02*
X62413000Y-63925000D01*
%TO.C,LEDL15*%
X81463000Y-63025000D02*
X81463000Y-63925000D01*
%TO.C,LEDL7*%
X33838000Y-43975000D02*
X33838000Y-44875000D01*
D13*
%TO.C,H1*%
X18500000Y-24000000D02*
G75*
G02*
X13500000Y-24000000I-2500000J0D01*
G01*
X13500000Y-24000000D02*
G75*
G02*
X18500000Y-24000000I2500000J0D01*
G01*
D12*
%TO.C,LEDL19*%
X40981000Y-82075000D02*
X40981000Y-82975000D01*
%TO.C,LEDL4*%
X86225000Y-24925000D02*
X86225000Y-25825000D01*
D13*
%TO.C,H2*%
X18500000Y-113250000D02*
G75*
G02*
X13500000Y-113250000I-2500000J0D01*
G01*
X13500000Y-113250000D02*
G75*
G02*
X18500000Y-113250000I2500000J0D01*
G01*
D12*
%TO.C,LEDL23*%
X129088000Y-82075000D02*
X129088000Y-82975000D01*
%TD*%
M02*
