M48
; DRILL file {KiCad 9.0.6} date 2026-08-30T14:34:14+0900
; FORMAT={-:-/ absolute / metric / decimal}
; #@! TF.CreationDate,2026-08-30T14:34:14+09:00
; #@! TF.GenerationSoftware,Kicad,Pcbnew,9.0.6
; #@! TF.FileFunction,Plated,1,2,PTH
FMAT,2
METRIC
; #@! TA.AperFunction,Plated,PTH,ViaDrill
T1C0.200
; #@! TA.AperFunction,Plated,PTH,ComponentDrill
T2C0.700
; #@! TA.AperFunction,Plated,PTH,ComponentDrill
T3C1.000
; #@! TA.AperFunction,Plated,PTH,ComponentDrill
T4C1.100
; #@! TA.AperFunction,Plated,PTH,ComponentDrill
T5C2.000
%
G90
G05
T1
X14.206Y-85.178
X17.163Y-76.455
X19.405Y-77.634
X19.872Y-78.022
X23.402Y-77.03
X24.741Y-63.475
X25.007Y-77.968
X27.785Y-38.876
X28.371Y-88.307
X28.442Y-93.728
X31.167Y-80.055
X32.259Y-25.183
X32.441Y-98.241
X35.927Y-101.967
X36.676Y-38.876
X36.965Y-43.797
X39.272Y-63.667
X39.699Y-57.416
X41.219Y-78.419
X42.083Y-96.755
X44.053Y-82.363
X48.824Y-96.44
X50.295Y-91.794
X51.212Y-25.142
X55.726Y-38.876
X56.0Y-95.582
X57.099Y-91.329
X58.346Y-100.746
X61.956Y-43.93
X64.19Y-78.419
X64.509Y-57.416
X65.116Y-115.018
X65.658Y-63.902
X69.228Y-76.525
X70.25Y-25.521
X73.595Y-38.876
X74.676Y-70.374
X75.031Y-82.304
X75.991Y-96.44
X79.812Y-44.574
X82.115Y-101.381
X83.556Y-56.504
X84.456Y-62.706
X88.145Y-76.057
X89.355Y-25.655
X92.503Y-38.132
X93.971Y-82.363
X94.996Y-56.504
X95.186Y-78.842
X98.599Y-43.776
X100.435Y-101.19
X100.485Y-76.057
X100.67Y-97.597
X100.766Y-85.915
X102.154Y-78.871
X103.571Y-62.846
X103.648Y-100.783
X104.528Y-36.672
X108.934Y-25.653
X112.13Y-77.03
X113.181Y-82.363
X117.862Y-44.599
X119.934Y-57.859
X120.39Y-115.017
X120.838Y-113.836
X121.422Y-114.12
X122.282Y-96.167
X122.301Y-113.268
X122.644Y-63.667
X122.759Y-76.479
X127.397Y-25.226
X127.543Y-111.607
X130.744Y-45.941
X130.986Y-75.993
X132.672Y-83.267
X133.454Y-96.167
X137.713Y-45.941
X138.349Y-43.575
X141.699Y-63.626
X151.332Y-82.946
X151.361Y-91.648
T2
X129.64Y-116.0
X130.91Y-116.0
X132.18Y-116.0
X133.45Y-116.0
X134.72Y-116.0
X135.99Y-116.0
T3
X35.525Y-25.375
X37.906Y-101.575
X40.288Y-44.425
X42.669Y-63.475
X47.431Y-82.525
X54.575Y-25.375
X61.719Y-101.575
X64.1Y-44.425
X68.863Y-63.475
X73.625Y-25.375
X78.388Y-82.525
X83.15Y-44.425
X85.531Y-101.575
X87.913Y-63.475
X92.675Y-25.375
X97.438Y-82.525
X102.2Y-44.425
X106.963Y-63.475
X106.963Y-101.575
X111.725Y-25.375
X116.487Y-82.525
X121.25Y-44.425
X125.538Y-111.875
X126.013Y-63.475
X130.775Y-25.375
X135.538Y-82.525
X140.3Y-44.425
X145.062Y-63.475
X154.588Y-82.525
T4
X12.63Y-80.055
X12.63Y-95.295
X15.17Y-80.055
X15.17Y-95.295
X17.71Y-80.055
X17.71Y-95.295
X20.25Y-80.055
X20.25Y-95.295
X22.79Y-80.055
X22.79Y-95.295
X25.33Y-80.055
X25.33Y-95.295
X27.87Y-80.055
X27.87Y-95.295
T5
G00X26.568Y-86.081
M15
G01X24.968Y-86.081
M16
G05
G00X26.568Y-89.281
M15
G01X24.968Y-89.281
M16
G05
M30
