%TF.GenerationSoftware,KiCad,Pcbnew,9.0.6*%
%TF.CreationDate,2026-08-30T14:34:05+09:00*%
%TF.ProjectId,SplitChoc64_LEFT,53706c69-7443-4686-9f63-36345f4c4546,rev?*%
%TF.SameCoordinates,Original*%
%TF.FileFunction,Copper,L2,Bot*%
%TF.FilePolarity,Positive*%
%FSLAX46Y46*%
G04 Gerber Fmt 4.6, Leading zero omitted, Abs format (unit mm)*
G04 Created by KiCad (PCBNEW 9.0.6) date 2026-08-30 14:34:05*
%MOMM*%
%LPD*%
G01*
G04 APERTURE LIST*
G04 Aperture macros list*
%AMRoundRect*
0 Rectangle with rounded corners*
0 $1 Rounding radius*
0 $2 $3 $4 $5 $6 $7 $8 $9 X,Y pos of 4 corners*
0 Add a 4 corners polygon primitive as box body*
4,1,4,$2,$3,$4,$5,$6,$7,$8,$9,$2,$3,0*
0 Add four circle primitives for the rounded corners*
1,1,$1+$1,$2,$3*
1,1,$1+$1,$4,$5*
1,1,$1+$1,$6,$7*
1,1,$1+$1,$8,$9*
0 Add four rect primitives between the rounded corners*
20,1,$1+$1,$2,$3,$4,$5,0*
20,1,$1+$1,$4,$5,$6,$7,0*
20,1,$1+$1,$6,$7,$8,$9,0*
20,1,$1+$1,$8,$9,$2,$3,0*%
%AMFreePoly0*
4,1,15,-0.616000,0.142500,-0.283500,0.475000,0.521000,0.475000,0.557355,0.467769,0.588175,0.447175,0.608769,0.416355,0.616000,0.380000,0.616000,-0.380000,0.608769,-0.416355,0.588175,-0.447175,0.557355,-0.467769,0.521000,-0.475000,-0.283500,-0.475000,-0.616000,-0.142500,-0.616000,0.142500,-0.616000,0.142500,$1*%
G04 Aperture macros list end*
%TA.AperFunction,ComponentPad*%
%ADD10C,1.650000*%
%TD*%
%TA.AperFunction,SMDPad,CuDef*%
%ADD11RoundRect,0.520000X-0.780000X-0.780000X0.780000X-0.780000X0.780000X0.780000X-0.780000X0.780000X0*%
%TD*%
%TA.AperFunction,SMDPad,CuDef*%
%ADD12RoundRect,0.190000X-0.285000X-0.285000X0.285000X-0.285000X0.285000X0.285000X-0.285000X0.285000X0*%
%TD*%
%TA.AperFunction,SMDPad,CuDef*%
%ADD13RoundRect,0.200000X0.400000X0.300000X-0.400000X0.300000X-0.400000X-0.300000X0.400000X-0.300000X0*%
%TD*%
%TA.AperFunction,SMDPad,CuDef*%
%ADD14RoundRect,0.180000X-0.320000X-0.270000X0.320000X-0.270000X0.320000X0.270000X-0.320000X0.270000X0*%
%TD*%
%TA.AperFunction,SMDPad,CuDef*%
%ADD15RoundRect,0.190000X0.285000X-0.285000X0.285000X0.285000X-0.285000X0.285000X-0.285000X-0.285000X0*%
%TD*%
%TA.AperFunction,SMDPad,CuDef*%
%ADD16R,1.500000X0.700000*%
%TD*%
%TA.AperFunction,SMDPad,CuDef*%
%ADD17R,1.000000X0.800000*%
%TD*%
%TA.AperFunction,SMDPad,CuDef*%
%ADD18RoundRect,0.190000X-0.285000X0.285000X-0.285000X-0.285000X0.285000X-0.285000X0.285000X0.285000X0*%
%TD*%
%TA.AperFunction,SMDPad,CuDef*%
%ADD19R,0.300000X0.900000*%
%TD*%
%TA.AperFunction,SMDPad,CuDef*%
%ADD20R,0.800000X1.200000*%
%TD*%
%TA.AperFunction,ComponentPad*%
%ADD21R,1.100000X1.100000*%
%TD*%
%TA.AperFunction,ComponentPad*%
%ADD22C,1.100000*%
%TD*%
%TA.AperFunction,SMDPad,CuDef*%
%ADD23RoundRect,0.160000X-0.290000X0.240000X-0.290000X-0.240000X0.290000X-0.240000X0.290000X0.240000X0*%
%TD*%
%TA.AperFunction,SMDPad,CuDef*%
%ADD24RoundRect,0.250000X0.250000X1.500000X-0.250000X1.500000X-0.250000X-1.500000X0.250000X-1.500000X0*%
%TD*%
%TA.AperFunction,SMDPad,CuDef*%
%ADD25RoundRect,0.250001X0.499999X1.449999X-0.499999X1.449999X-0.499999X-1.449999X0.499999X-1.449999X0*%
%TD*%
%TA.AperFunction,ComponentPad*%
%ADD26C,1.400000*%
%TD*%
%TA.AperFunction,SMDPad,CuDef*%
%ADD27RoundRect,0.095000X-0.380000X0.921000X-0.380000X-0.921000X0.380000X-0.921000X0.380000X0.921000X0*%
%TD*%
%TA.AperFunction,SMDPad,CuDef*%
%ADD28RoundRect,0.095000X0.380000X-0.921000X0.380000X0.921000X-0.380000X0.921000X-0.380000X-0.921000X0*%
%TD*%
%TA.AperFunction,SMDPad,CuDef*%
%ADD29FreePoly0,270.000000*%
%TD*%
%TA.AperFunction,SMDPad,CuDef*%
%ADD30FreePoly0,90.000000*%
%TD*%
%TA.AperFunction,SMDPad,CuDef*%
%ADD31C,1.700000*%
%TD*%
%TA.AperFunction,ComponentPad*%
%ADD32O,4.200000X2.600000*%
%TD*%
%TA.AperFunction,SMDPad,CuDef*%
%ADD33RoundRect,0.190000X0.285000X0.285000X-0.285000X0.285000X-0.285000X-0.285000X0.285000X-0.285000X0*%
%TD*%
%TA.AperFunction,ViaPad*%
%ADD34C,0.450000*%
%TD*%
%TA.AperFunction,Conductor*%
%ADD35C,0.150000*%
%TD*%
G04 APERTURE END LIST*
D10*
%TO.P,SWL2,*%
%TO.N,*%
X54575000Y-25375000D03*
D11*
%TO.P,SWL2,1*%
%TO.N,L_ROW0*%
X53275000Y-36425000D03*
%TO.P,SWL2,2*%
%TO.N,L_K2_D*%
X40875000Y-34325000D03*
%TD*%
D10*
%TO.P,SWL11,*%
%TO.N,*%
X121250000Y-44425000D03*
D11*
%TO.P,SWL11,1*%
%TO.N,L_ROW1*%
X119950000Y-55475000D03*
%TO.P,SWL11,2*%
%TO.N,L_K11_D*%
X107550000Y-53375000D03*
%TD*%
D10*
%TO.P,SWL28,*%
%TO.N,*%
X106963000Y-101575000D03*
D11*
%TO.P,SWL28,1*%
%TO.N,L_ROW4*%
X105663000Y-112625000D03*
%TO.P,SWL28,2*%
%TO.N,L_K28_D*%
X93263000Y-110525000D03*
%TD*%
D10*
%TO.P,SWL9,*%
%TO.N,*%
X83150000Y-44425000D03*
D11*
%TO.P,SWL9,1*%
%TO.N,L_ROW1*%
X81850000Y-55475000D03*
%TO.P,SWL9,2*%
%TO.N,L_K9_D*%
X69450000Y-53375000D03*
%TD*%
D10*
%TO.P,SWL15,*%
%TO.N,*%
X87913000Y-63475000D03*
D11*
%TO.P,SWL15,1*%
%TO.N,L_ROW2*%
X86613000Y-74525000D03*
%TO.P,SWL15,2*%
%TO.N,L_K15_D*%
X74213000Y-72425000D03*
%TD*%
D10*
%TO.P,SWL26,*%
%TO.N,*%
X61719000Y-101575000D03*
D11*
%TO.P,SWL26,1*%
%TO.N,L_ROW4*%
X60419000Y-112625000D03*
%TO.P,SWL26,2*%
%TO.N,L_K26_D*%
X48019000Y-110525000D03*
%TD*%
D10*
%TO.P,SWL23,*%
%TO.N,*%
X135538000Y-82525000D03*
D11*
%TO.P,SWL23,1*%
%TO.N,L_ROW3*%
X134238000Y-93575000D03*
%TO.P,SWL23,2*%
%TO.N,L_K23_D*%
X121838000Y-91475000D03*
%TD*%
D10*
%TO.P,SWL7,*%
%TO.N,*%
X40288000Y-44425000D03*
D11*
%TO.P,SWL7,1*%
%TO.N,L_ROW1*%
X38988000Y-55475000D03*
%TO.P,SWL7,2*%
%TO.N,L_K7_D*%
X26588000Y-53375000D03*
%TD*%
D10*
%TO.P,SWL21,*%
%TO.N,*%
X97438000Y-82525000D03*
D11*
%TO.P,SWL21,1*%
%TO.N,L_ROW3*%
X96138000Y-93575000D03*
%TO.P,SWL21,2*%
%TO.N,L_K21_D*%
X83738000Y-91475000D03*
%TD*%
D10*
%TO.P,SWL29,*%
%TO.N,*%
X125538000Y-111875000D03*
D11*
%TO.P,SWL29,1*%
%TO.N,L_ROW4*%
X126838000Y-100825000D03*
%TO.P,SWL29,2*%
%TO.N,L_K29_D*%
X139238000Y-102925000D03*
%TD*%
D10*
%TO.P,SWL24,*%
%TO.N,*%
X154588000Y-82525000D03*
D11*
%TO.P,SWL24,1*%
%TO.N,L_ROW3*%
X153288000Y-93575000D03*
%TO.P,SWL24,2*%
%TO.N,L_K24_D*%
X140888000Y-91475000D03*
%TD*%
D10*
%TO.P,SWL18,*%
%TO.N,*%
X145062000Y-63475000D03*
D11*
%TO.P,SWL18,1*%
%TO.N,L_ROW2*%
X143762000Y-74525000D03*
%TO.P,SWL18,2*%
%TO.N,L_K18_D*%
X131362000Y-72425000D03*
%TD*%
D10*
%TO.P,SWL8,*%
%TO.N,*%
X64100000Y-44425000D03*
D11*
%TO.P,SWL8,1*%
%TO.N,L_ROW1*%
X62800000Y-55475000D03*
%TO.P,SWL8,2*%
%TO.N,L_K8_D*%
X50400000Y-53375000D03*
%TD*%
D10*
%TO.P,SWL14,*%
%TO.N,*%
X68863000Y-63475000D03*
D11*
%TO.P,SWL14,1*%
%TO.N,L_ROW2*%
X67563000Y-74525000D03*
%TO.P,SWL14,2*%
%TO.N,L_K14_D*%
X55163000Y-72425000D03*
%TD*%
D10*
%TO.P,SWL12,*%
%TO.N,*%
X140300000Y-44425000D03*
D11*
%TO.P,SWL12,1*%
%TO.N,L_ROW1*%
X139000000Y-55475000D03*
%TO.P,SWL12,2*%
%TO.N,L_K12_D*%
X126600000Y-53375000D03*
%TD*%
D10*
%TO.P,SWL19,*%
%TO.N,*%
X47431000Y-82525000D03*
D11*
%TO.P,SWL19,1*%
%TO.N,L_ROW3*%
X46131000Y-93575000D03*
%TO.P,SWL19,2*%
%TO.N,L_K19_D*%
X33731000Y-91475000D03*
%TD*%
D10*
%TO.P,SWL17,*%
%TO.N,*%
X126013000Y-63475000D03*
D11*
%TO.P,SWL17,1*%
%TO.N,L_ROW2*%
X124713000Y-74525000D03*
%TO.P,SWL17,2*%
%TO.N,L_K17_D*%
X112313000Y-72425000D03*
%TD*%
D10*
%TO.P,SWL27,*%
%TO.N,*%
X85531000Y-101575000D03*
D11*
%TO.P,SWL27,1*%
%TO.N,L_ROW4*%
X84231000Y-112625000D03*
%TO.P,SWL27,2*%
%TO.N,L_K27_D*%
X71831000Y-110525000D03*
%TD*%
D10*
%TO.P,SWL5,*%
%TO.N,*%
X111725000Y-25375000D03*
D11*
%TO.P,SWL5,1*%
%TO.N,L_ROW0*%
X110425000Y-36425000D03*
%TO.P,SWL5,2*%
%TO.N,L_K5_D*%
X98025000Y-34325000D03*
%TD*%
D10*
%TO.P,SWL1,*%
%TO.N,*%
X35525000Y-25375000D03*
D11*
%TO.P,SWL1,1*%
%TO.N,L_ROW0*%
X34225000Y-36425000D03*
%TO.P,SWL1,2*%
%TO.N,L_K1_D*%
X21825000Y-34325000D03*
%TD*%
D10*
%TO.P,SWL16,*%
%TO.N,*%
X106963000Y-63475000D03*
D11*
%TO.P,SWL16,1*%
%TO.N,L_ROW2*%
X105663000Y-74525000D03*
%TO.P,SWL16,2*%
%TO.N,L_K16_D*%
X93263000Y-72425000D03*
%TD*%
D10*
%TO.P,SWL6,*%
%TO.N,*%
X130775000Y-25375000D03*
D11*
%TO.P,SWL6,1*%
%TO.N,L_ROW0*%
X129475000Y-36425000D03*
%TO.P,SWL6,2*%
%TO.N,L_K6_D*%
X117075000Y-34325000D03*
%TD*%
D10*
%TO.P,SWL25,*%
%TO.N,*%
X37906000Y-101575000D03*
D11*
%TO.P,SWL25,1*%
%TO.N,L_ROW4*%
X36606000Y-112625000D03*
%TO.P,SWL25,2*%
%TO.N,L_K25_D*%
X24206000Y-110525000D03*
%TD*%
D10*
%TO.P,SWL20,*%
%TO.N,*%
X78388000Y-82525000D03*
D11*
%TO.P,SWL20,1*%
%TO.N,L_ROW3*%
X77088000Y-93575000D03*
%TO.P,SWL20,2*%
%TO.N,L_K20_D*%
X64688000Y-91475000D03*
%TD*%
D10*
%TO.P,SWL4,*%
%TO.N,*%
X92675000Y-25375000D03*
D11*
%TO.P,SWL4,1*%
%TO.N,L_ROW0*%
X91375000Y-36425000D03*
%TO.P,SWL4,2*%
%TO.N,L_K4_D*%
X78975000Y-34325000D03*
%TD*%
D10*
%TO.P,SWL22,*%
%TO.N,*%
X116487000Y-82525000D03*
D11*
%TO.P,SWL22,1*%
%TO.N,L_ROW3*%
X115187000Y-93575000D03*
%TO.P,SWL22,2*%
%TO.N,L_K22_D*%
X102787000Y-91475000D03*
%TD*%
D10*
%TO.P,SWL13,*%
%TO.N,*%
X42669000Y-63475000D03*
D11*
%TO.P,SWL13,1*%
%TO.N,L_ROW2*%
X41369000Y-74525000D03*
%TO.P,SWL13,2*%
%TO.N,L_K13_D*%
X28969000Y-72425000D03*
%TD*%
D10*
%TO.P,SWL10,*%
%TO.N,*%
X102200000Y-44425000D03*
D11*
%TO.P,SWL10,1*%
%TO.N,L_ROW1*%
X100900000Y-55475000D03*
%TO.P,SWL10,2*%
%TO.N,L_K10_D*%
X88500000Y-53375000D03*
%TD*%
D10*
%TO.P,SWL3,*%
%TO.N,*%
X73625000Y-25375000D03*
D11*
%TO.P,SWL3,1*%
%TO.N,L_ROW0*%
X72325000Y-36425000D03*
%TO.P,SWL3,2*%
%TO.N,L_K3_D*%
X59925000Y-34325000D03*
%TD*%
D12*
%TO.P,RBLL10,1*%
%TO.N,L_3V3*%
X96350000Y-43000000D03*
%TO.P,RBLL10,2*%
%TO.N,L_BL_LED_A10*%
X98000000Y-43000000D03*
%TD*%
D13*
%TO.P,DL15,1*%
%TO.N,L_K15_D*%
X74663000Y-65425000D03*
%TO.P,DL15,2*%
%TO.N,L_COL2*%
X77163000Y-65425000D03*
%TD*%
D14*
%TO.P,QBL1,1*%
%TO.N,L_BL_GATE*%
X19000000Y-66950000D03*
%TO.P,QBL1,2*%
%TO.N,L_GND*%
X19000000Y-65050000D03*
%TO.P,QBL1,3*%
%TO.N,L_BL_LED_RETURN*%
X21000000Y-66000000D03*
%TD*%
D13*
%TO.P,DL19,1*%
%TO.N,L_K19_D*%
X34181000Y-84475000D03*
%TO.P,DL19,2*%
%TO.N,L_COL0*%
X36681000Y-84475000D03*
%TD*%
D12*
%TO.P,RGBL1,1*%
%TO.N,L_BL_PWM*%
X18175000Y-59000000D03*
%TO.P,RGBL1,2*%
%TO.N,L_BL_GATE*%
X19825000Y-59000000D03*
%TD*%
D13*
%TO.P,DL21,1*%
%TO.N,L_K21_D*%
X84188000Y-84475000D03*
%TO.P,DL21,2*%
%TO.N,L_COL2*%
X86688000Y-84475000D03*
%TD*%
%TO.P,DL20,1*%
%TO.N,L_K20_D*%
X65138000Y-84475000D03*
%TO.P,DL20,2*%
%TO.N,L_COL1*%
X67638000Y-84475000D03*
%TD*%
D15*
%TO.P,RBLL3,1*%
%TO.N,L_3V3*%
X71200000Y-27050000D03*
%TO.P,RBLL3,2*%
%TO.N,L_BL_LED_A3*%
X71200000Y-25400000D03*
%TD*%
D16*
%TO.P,SWP1,1*%
%TO.N,L_BAT_RAW*%
X13250000Y-70875000D03*
%TO.P,SWP1,2*%
%TO.N,L_BAT_SW*%
X13250000Y-67875000D03*
%TO.P,SWP1,3*%
%TO.N,N/C*%
X13250000Y-66375000D03*
D17*
%TO.P,SWP1,S1*%
X12465000Y-72275000D03*
%TO.P,SWP1,S2*%
X10535000Y-72275000D03*
%TO.P,SWP1,S3*%
X10535000Y-64975000D03*
%TO.P,SWP1,S4*%
X12465000Y-64975000D03*
%TD*%
D18*
%TO.P,RBLL18,1*%
%TO.N,L_3V3*%
X142600000Y-61750000D03*
%TO.P,RBLL18,2*%
%TO.N,L_BL_LED_A18*%
X142600000Y-63400000D03*
%TD*%
D13*
%TO.P,DL13,1*%
%TO.N,L_K13_D*%
X29419000Y-65425000D03*
%TO.P,DL13,2*%
%TO.N,L_COL0*%
X31919000Y-65425000D03*
%TD*%
D18*
%TO.P,RBLL12,1*%
%TO.N,L_3V3*%
X137800000Y-42750000D03*
%TO.P,RBLL12,2*%
%TO.N,L_BL_LED_A12*%
X137800000Y-44400000D03*
%TD*%
D12*
%TO.P,RBLL8,1*%
%TO.N,L_3V3*%
X60375000Y-43000000D03*
%TO.P,RBLL8,2*%
%TO.N,L_BL_LED_A8*%
X62025000Y-43000000D03*
%TD*%
D13*
%TO.P,DL18,1*%
%TO.N,L_K18_D*%
X131812000Y-65425000D03*
%TO.P,DL18,2*%
%TO.N,L_COL5*%
X134312000Y-65425000D03*
%TD*%
D15*
%TO.P,RBLL23,1*%
%TO.N,L_3V3*%
X133400000Y-84050000D03*
%TO.P,RBLL23,2*%
%TO.N,L_BL_LED_A23*%
X133400000Y-82400000D03*
%TD*%
%TO.P,RBLL14,1*%
%TO.N,L_3V3*%
X66400000Y-64850000D03*
%TO.P,RBLL14,2*%
%TO.N,L_BL_LED_A14*%
X66400000Y-63200000D03*
%TD*%
D18*
%TO.P,RBLL15,1*%
%TO.N,L_3V3*%
X85200000Y-61800000D03*
%TO.P,RBLL15,2*%
%TO.N,L_BL_LED_A15*%
X85200000Y-63450000D03*
%TD*%
D12*
%TO.P,RPDL1,1*%
%TO.N,L_BL_GATE*%
X25675000Y-59000000D03*
%TO.P,RPDL1,2*%
%TO.N,L_GND*%
X27325000Y-59000000D03*
%TD*%
D18*
%TO.P,RBLL29,1*%
%TO.N,L_3V3*%
X128400000Y-110200000D03*
%TO.P,RBLL29,2*%
%TO.N,L_BL_LED_A29*%
X128400000Y-111850000D03*
%TD*%
D13*
%TO.P,DL28,1*%
%TO.N,L_K28_D*%
X93713000Y-103525000D03*
%TO.P,DL28,2*%
%TO.N,L_COL3*%
X96213000Y-103525000D03*
%TD*%
%TO.P,DL10,1*%
%TO.N,L_K10_D*%
X88950000Y-46375000D03*
%TO.P,DL10,2*%
%TO.N,L_COL3*%
X91450000Y-46375000D03*
%TD*%
%TO.P,DL27,1*%
%TO.N,L_K27_D*%
X72281000Y-103525000D03*
%TO.P,DL27,2*%
%TO.N,L_COL2*%
X74781000Y-103525000D03*
%TD*%
D15*
%TO.P,RBLL21,1*%
%TO.N,L_3V3*%
X95200000Y-84050000D03*
%TO.P,RBLL21,2*%
%TO.N,L_BL_LED_A21*%
X95200000Y-82400000D03*
%TD*%
D12*
%TO.P,RBLL6,1*%
%TO.N,L_3V3*%
X126450000Y-26375000D03*
%TO.P,RBLL6,2*%
%TO.N,L_BL_LED_A6*%
X128100000Y-26375000D03*
%TD*%
D18*
%TO.P,RBLL17,1*%
%TO.N,L_3V3*%
X123600000Y-61800000D03*
%TO.P,RBLL17,2*%
%TO.N,L_BL_LED_A17*%
X123600000Y-63450000D03*
%TD*%
%TO.P,RBLL26,1*%
%TO.N,L_3V3*%
X59200000Y-99950000D03*
%TO.P,RBLL26,2*%
%TO.N,L_BL_LED_A26*%
X59200000Y-101600000D03*
%TD*%
D13*
%TO.P,DL25,1*%
%TO.N,L_K25_D*%
X24656000Y-103525000D03*
%TO.P,DL25,2*%
%TO.N,L_COL0*%
X27156000Y-103525000D03*
%TD*%
D19*
%TO.P,J5,1*%
%TO.N,L_GND*%
X120250000Y-115850000D03*
%TO.P,J5,2*%
%TO.N,L_EXT_A*%
X120750000Y-115850000D03*
%TO.P,J5,3*%
%TO.N,L_EXT_B*%
X121250000Y-115850000D03*
%TO.P,J5,4*%
%TO.N,L_EXT_SDA*%
X121750000Y-115850000D03*
%TO.P,J5,5*%
%TO.N,L_EXT_SCL*%
X122250000Y-115850000D03*
%TO.P,J5,6*%
%TO.N,L_3V3*%
X122750000Y-115850000D03*
D20*
%TO.P,J5,MP*%
%TO.N,N/C*%
X118950000Y-115450000D03*
X124050000Y-115450000D03*
%TD*%
D21*
%TO.P,J3,1*%
%TO.N,L_GND*%
X129640000Y-116000000D03*
D22*
%TO.P,J3,2*%
%TO.N,L_EXT_A*%
X130910000Y-116000000D03*
%TO.P,J3,3*%
%TO.N,L_EXT_B*%
X132180000Y-116000000D03*
%TO.P,J3,4*%
%TO.N,L_EXT_SDA*%
X133450000Y-116000000D03*
%TO.P,J3,5*%
%TO.N,L_EXT_SCL*%
X134720000Y-116000000D03*
%TO.P,J3,6*%
%TO.N,L_3V3*%
X135990000Y-116000000D03*
%TD*%
D13*
%TO.P,DL17,1*%
%TO.N,L_K17_D*%
X112763000Y-65425000D03*
%TO.P,DL17,2*%
%TO.N,L_COL4*%
X115263000Y-65425000D03*
%TD*%
%TO.P,DL4,1*%
%TO.N,L_K4_D*%
X79425000Y-27325000D03*
%TO.P,DL4,2*%
%TO.N,L_COL3*%
X81925000Y-27325000D03*
%TD*%
D23*
%TO.P,DLED1,1*%
%TO.N,L_GND*%
X10350000Y-76800000D03*
%TO.P,DLED1,2*%
%TO.N,L_LED_A*%
X10350000Y-75200000D03*
%TD*%
D24*
%TO.P,J1,1*%
%TO.N,L_BAT_RAW*%
X58000000Y-92100000D03*
%TO.P,J1,2*%
%TO.N,L_GND*%
X56000000Y-92100000D03*
D25*
%TO.P,J1,MP*%
%TO.N,N/C*%
X60350000Y-86350000D03*
X53650000Y-86350000D03*
%TD*%
D13*
%TO.P,DL3,1*%
%TO.N,L_K3_D*%
X60375000Y-27325000D03*
%TO.P,DL3,2*%
%TO.N,L_COL2*%
X62875000Y-27325000D03*
%TD*%
%TO.P,DL12,1*%
%TO.N,L_K12_D*%
X127050000Y-46375000D03*
%TO.P,DL12,2*%
%TO.N,L_COL5*%
X129550000Y-46375000D03*
%TD*%
D15*
%TO.P,RBLL1,1*%
%TO.N,L_3V3*%
X33200000Y-25450000D03*
%TO.P,RBLL1,2*%
%TO.N,L_BL_LED_A1*%
X33200000Y-23800000D03*
%TD*%
D13*
%TO.P,DL7,1*%
%TO.N,L_K7_D*%
X27038000Y-46375000D03*
%TO.P,DL7,2*%
%TO.N,L_COL0*%
X29538000Y-46375000D03*
%TD*%
D15*
%TO.P,RBLL24,1*%
%TO.N,L_3V3*%
X152400000Y-84250000D03*
%TO.P,RBLL24,2*%
%TO.N,L_BL_LED_A24*%
X152400000Y-82600000D03*
%TD*%
D13*
%TO.P,DL24,1*%
%TO.N,L_K24_D*%
X141338000Y-84475000D03*
%TO.P,DL24,2*%
%TO.N,L_COL5*%
X143838000Y-84475000D03*
%TD*%
%TO.P,DL5,1*%
%TO.N,L_K5_D*%
X98475000Y-27325000D03*
%TO.P,DL5,2*%
%TO.N,L_COL4*%
X100975000Y-27325000D03*
%TD*%
%TO.P,DL29,1*%
%TO.N,L_K29_D*%
X122288000Y-103525000D03*
%TO.P,DL29,2*%
%TO.N,L_COL4*%
X124788000Y-103525000D03*
%TD*%
D15*
%TO.P,RBLL19,1*%
%TO.N,L_3V3*%
X45000000Y-84050000D03*
%TO.P,RBLL19,2*%
%TO.N,L_BL_LED_A19*%
X45000000Y-82400000D03*
%TD*%
D13*
%TO.P,DL22,1*%
%TO.N,L_K22_D*%
X103237000Y-84475000D03*
%TO.P,DL22,2*%
%TO.N,L_COL3*%
X105737000Y-84475000D03*
%TD*%
%TO.P,DL23,1*%
%TO.N,L_K23_D*%
X122288000Y-84475000D03*
%TO.P,DL23,2*%
%TO.N,L_COL4*%
X124788000Y-84475000D03*
%TD*%
%TO.P,DL9,1*%
%TO.N,L_K9_D*%
X69900000Y-46375000D03*
%TO.P,DL9,2*%
%TO.N,L_COL2*%
X72400000Y-46375000D03*
%TD*%
%TO.P,DL11,1*%
%TO.N,L_K11_D*%
X108000000Y-46375000D03*
%TO.P,DL11,2*%
%TO.N,L_COL4*%
X110500000Y-46375000D03*
%TD*%
D26*
%TO.P,U1,1*%
%TO.N,L_EXT_A*%
X12630000Y-80055000D03*
D27*
X12630000Y-79420000D03*
D26*
%TO.P,U1,2*%
%TO.N,L_EXT_B*%
X15170000Y-80055000D03*
D27*
X15170000Y-79420000D03*
D26*
%TO.P,U1,3*%
%TO.N,L_BL_PWM*%
X17710000Y-80055000D03*
D27*
X17710000Y-79420000D03*
D26*
%TO.P,U1,4*%
%TO.N,L_ROW0*%
X20250000Y-80055000D03*
D27*
X20250000Y-79420000D03*
D26*
%TO.P,U1,5*%
%TO.N,L_EXT_SDA*%
X22790000Y-80055000D03*
D27*
X22790000Y-79420000D03*
D26*
%TO.P,U1,6*%
%TO.N,L_EXT_SCL*%
X25330000Y-80055000D03*
D27*
X25330000Y-79420000D03*
D26*
%TO.P,U1,7*%
%TO.N,L_ROW1*%
X27870000Y-80055000D03*
D27*
X27870000Y-79420000D03*
D28*
%TO.P,U1,8*%
%TO.N,L_ROW2*%
X27870000Y-95930000D03*
D26*
X27870000Y-95295000D03*
D28*
%TO.P,U1,9*%
%TO.N,L_ROW3*%
X25330000Y-95930000D03*
D26*
X25330000Y-95295000D03*
D28*
%TO.P,U1,10*%
%TO.N,L_ROW4*%
X22790000Y-95930000D03*
D26*
X22790000Y-95295000D03*
D28*
%TO.P,U1,11*%
%TO.N,L_COL0*%
X20250000Y-95930000D03*
D26*
X20250000Y-95295000D03*
D28*
%TO.P,U1,12*%
%TO.N,L_3V3*%
X17710000Y-95930000D03*
D26*
X17710000Y-95295000D03*
D28*
%TO.P,U1,13*%
%TO.N,L_GND*%
X15170000Y-95930000D03*
D26*
X15170000Y-95295000D03*
D28*
%TO.P,U1,14*%
%TO.N,N/C*%
X12630000Y-95930000D03*
D26*
X12630000Y-95295000D03*
D29*
%TO.P,U1,15*%
%TO.N,L_COL1*%
X13900000Y-79020000D03*
%TO.P,U1,16*%
%TO.N,L_COL2*%
X16440000Y-79020000D03*
%TO.P,U1,17*%
%TO.N,L_COL3*%
X18980000Y-79020000D03*
%TO.P,U1,18*%
%TO.N,L_COL4*%
X21520000Y-79020000D03*
%TO.P,U1,19*%
%TO.N,L_COL5*%
X24060000Y-79020000D03*
%TO.P,U1,20*%
%TO.N,N/C*%
X26600000Y-79020000D03*
D30*
%TO.P,U1,21*%
X26600000Y-96330000D03*
%TO.P,U1,22*%
X24060000Y-96330000D03*
%TO.P,U1,23*%
%TO.N,L_LED_CTRL*%
X21520000Y-96330000D03*
D31*
%TO.P,U1,24*%
%TO.N,N/C*%
X11677500Y-86405000D03*
%TO.P,U1,25*%
X11677500Y-88945000D03*
%TO.P,U1,26*%
X14217500Y-86405000D03*
%TO.P,U1,27*%
X14217500Y-88945000D03*
%TO.P,U1,28*%
X16694000Y-86405000D03*
%TO.P,U1,29*%
X16694000Y-88945000D03*
%TO.P,U1,30*%
X19234000Y-86405000D03*
%TO.P,U1,31*%
X19234000Y-88945000D03*
D32*
%TO.P,U1,32*%
%TO.N,L_BAT_SW*%
X25767820Y-86081012D03*
%TO.P,U1,33*%
%TO.N,L_GND*%
X25767820Y-89281010D03*
%TD*%
D12*
%TO.P,RLED1,1*%
%TO.N,L_LED_CTRL*%
X14600000Y-76825000D03*
%TO.P,RLED1,2*%
%TO.N,L_LED_A*%
X14600000Y-75175000D03*
%TD*%
D18*
%TO.P,RBLL16,1*%
%TO.N,L_3V3*%
X104400000Y-61750000D03*
%TO.P,RBLL16,2*%
%TO.N,L_BL_LED_A16*%
X104400000Y-63400000D03*
%TD*%
D15*
%TO.P,RBLL22,1*%
%TO.N,L_3V3*%
X114200000Y-84250000D03*
%TO.P,RBLL22,2*%
%TO.N,L_BL_LED_A22*%
X114200000Y-82600000D03*
%TD*%
D18*
%TO.P,RBLL27,1*%
%TO.N,L_3V3*%
X83025000Y-99800000D03*
%TO.P,RBLL27,2*%
%TO.N,L_BL_LED_A27*%
X83025000Y-101450000D03*
%TD*%
%TO.P,RBLL11,1*%
%TO.N,L_3V3*%
X118800000Y-42800000D03*
%TO.P,RBLL11,2*%
%TO.N,L_BL_LED_A11*%
X118800000Y-44450000D03*
%TD*%
D12*
%TO.P,RBLL7,1*%
%TO.N,L_3V3*%
X35463000Y-42925000D03*
%TO.P,RBLL7,2*%
%TO.N,L_BL_LED_A7*%
X37113000Y-42925000D03*
%TD*%
D18*
%TO.P,RBLL9,1*%
%TO.N,L_3V3*%
X80800000Y-42750000D03*
%TO.P,RBLL9,2*%
%TO.N,L_BL_LED_A9*%
X80800000Y-44400000D03*
%TD*%
%TO.P,RBLL4,1*%
%TO.N,L_3V3*%
X90675000Y-23050000D03*
%TO.P,RBLL4,2*%
%TO.N,L_BL_LED_A4*%
X90675000Y-24700000D03*
%TD*%
%TO.P,RBLL2,1*%
%TO.N,L_3V3*%
X52175000Y-23750000D03*
%TO.P,RBLL2,2*%
%TO.N,L_BL_LED_A2*%
X52175000Y-25400000D03*
%TD*%
D13*
%TO.P,DL1,1*%
%TO.N,L_K1_D*%
X22275000Y-27325000D03*
%TO.P,DL1,2*%
%TO.N,L_COL0*%
X24775000Y-27325000D03*
%TD*%
%TO.P,DL16,1*%
%TO.N,L_K16_D*%
X93713000Y-65425000D03*
%TO.P,DL16,2*%
%TO.N,L_COL3*%
X96213000Y-65425000D03*
%TD*%
%TO.P,DL6,1*%
%TO.N,L_K6_D*%
X117525000Y-27325000D03*
%TO.P,DL6,2*%
%TO.N,L_COL5*%
X120025000Y-27325000D03*
%TD*%
%TO.P,DL26,1*%
%TO.N,L_K26_D*%
X48469000Y-103525000D03*
%TO.P,DL26,2*%
%TO.N,L_COL1*%
X50969000Y-103525000D03*
%TD*%
D18*
%TO.P,RBLL25,1*%
%TO.N,L_3V3*%
X35200000Y-101000000D03*
%TO.P,RBLL25,2*%
%TO.N,L_BL_LED_A25*%
X35200000Y-102650000D03*
%TD*%
D13*
%TO.P,DL14,1*%
%TO.N,L_K14_D*%
X55613000Y-65425000D03*
%TO.P,DL14,2*%
%TO.N,L_COL1*%
X58113000Y-65425000D03*
%TD*%
%TO.P,DL8,1*%
%TO.N,L_K8_D*%
X50850000Y-46375000D03*
%TO.P,DL8,2*%
%TO.N,L_COL1*%
X53350000Y-46375000D03*
%TD*%
D18*
%TO.P,RBLL28,1*%
%TO.N,L_3V3*%
X104400000Y-100000000D03*
%TO.P,RBLL28,2*%
%TO.N,L_BL_LED_A28*%
X104400000Y-101650000D03*
%TD*%
%TO.P,RBLL13,1*%
%TO.N,L_3V3*%
X40200000Y-61800000D03*
%TO.P,RBLL13,2*%
%TO.N,L_BL_LED_A13*%
X40200000Y-63450000D03*
%TD*%
D13*
%TO.P,DL2,1*%
%TO.N,L_K2_D*%
X41325000Y-27325000D03*
%TO.P,DL2,2*%
%TO.N,L_COL1*%
X43825000Y-27325000D03*
%TD*%
D33*
%TO.P,RBLL5,1*%
%TO.N,L_3V3*%
X112400000Y-23600000D03*
%TO.P,RBLL5,2*%
%TO.N,L_BL_LED_A5*%
X110750000Y-23600000D03*
%TD*%
D15*
%TO.P,RBLL20,1*%
%TO.N,L_3V3*%
X76000000Y-84050000D03*
%TO.P,RBLL20,2*%
%TO.N,L_BL_LED_A20*%
X76000000Y-82400000D03*
%TD*%
D34*
%TO.N,L_ROW0*%
X55725700Y-38875700D03*
X36675700Y-38875700D03*
X92503300Y-38131800D03*
X27784800Y-38875700D03*
X19405500Y-77633700D03*
X104528200Y-36672200D03*
X73594900Y-38875700D03*
%TO.N,L_ROW1*%
X64509000Y-57416500D03*
X83555900Y-56503700D03*
X39698800Y-57416500D03*
X119934400Y-57859100D03*
X31167200Y-80055000D03*
X94995900Y-56503700D03*
%TO.N,L_ROW2*%
X64190400Y-78419500D03*
X88145000Y-76057000D03*
X100485200Y-76057000D03*
X69227900Y-76525200D03*
X41219200Y-78419500D03*
X122759200Y-76478800D03*
%TO.N,L_ROW3*%
X75990700Y-96440400D03*
X151361300Y-91648300D03*
X133453700Y-96166700D03*
X122282200Y-96166700D03*
X48824000Y-96440400D03*
%TO.N,L_COL0*%
X28441600Y-93728200D03*
%TO.N,L_COL1*%
X50295300Y-91794300D03*
X28370800Y-88306800D03*
%TO.N,L_COL2*%
X74675700Y-70374100D03*
X17162700Y-76455400D03*
%TO.N,L_COL3*%
X19872000Y-78022000D03*
X95185800Y-78841600D03*
X102153800Y-78871200D03*
%TO.N,L_COL4*%
X112129900Y-77030200D03*
X23402100Y-77030200D03*
%TO.N,L_COL5*%
X25007000Y-77967800D03*
X137712700Y-45941400D03*
X130985600Y-75993400D03*
X130744100Y-45941400D03*
%TO.N,L_EXT_A*%
X120837900Y-113835600D03*
%TO.N,L_EXT_B*%
X121421600Y-114119600D03*
%TO.N,L_EXT_SDA*%
X122300800Y-113267700D03*
%TO.N,L_3V3*%
X42082700Y-96754600D03*
X32440600Y-98240600D03*
%TO.N,L_GND*%
X56000000Y-95581900D03*
X120389600Y-115017400D03*
X65115700Y-115017800D03*
%TO.N,L_BAT_RAW*%
X14206400Y-85178300D03*
X57099300Y-91329500D03*
%TO.N,L_BL_LED_RETURN*%
X100669800Y-97596800D03*
X100766400Y-85915200D03*
X24740600Y-63475000D03*
X100435300Y-101190400D03*
%TO.N,L_BL_LED_A1*%
X32258700Y-25183500D03*
%TO.N,L_BL_LED_A2*%
X51212500Y-25142300D03*
%TO.N,L_BL_LED_A3*%
X70250200Y-25521500D03*
%TO.N,L_BL_LED_A4*%
X89355200Y-25654700D03*
%TO.N,L_BL_LED_A5*%
X108934100Y-25653500D03*
%TO.N,L_BL_LED_A6*%
X127396800Y-25226100D03*
%TO.N,L_BL_LED_A7*%
X36965200Y-43796700D03*
%TO.N,L_BL_LED_A8*%
X61956100Y-43930100D03*
%TO.N,L_BL_LED_A9*%
X79812500Y-44574300D03*
%TO.N,L_BL_LED_A10*%
X98598900Y-43776100D03*
%TO.N,L_BL_LED_A11*%
X117862500Y-44599300D03*
%TO.N,L_BL_LED_A12*%
X138349100Y-43575000D03*
%TO.N,L_BL_LED_A13*%
X39272000Y-63667200D03*
%TO.N,L_BL_LED_A14*%
X65657800Y-63902400D03*
%TO.N,L_BL_LED_A15*%
X84455900Y-62705900D03*
%TO.N,L_BL_LED_A16*%
X103571100Y-62845800D03*
%TO.N,L_BL_LED_A17*%
X122644000Y-63667200D03*
%TO.N,L_BL_LED_A18*%
X141699000Y-63625900D03*
%TO.N,L_BL_LED_A19*%
X44053000Y-82362800D03*
%TO.N,L_BL_LED_A20*%
X75031500Y-82304000D03*
%TO.N,L_BL_LED_A21*%
X93971000Y-82362800D03*
%TO.N,L_BL_LED_A22*%
X113181000Y-82362800D03*
%TO.N,L_BL_LED_A23*%
X132672300Y-83266800D03*
%TO.N,L_BL_LED_A24*%
X151331500Y-82945700D03*
%TO.N,L_BL_LED_A25*%
X35926800Y-101966700D03*
%TO.N,L_BL_LED_A26*%
X58345700Y-100745700D03*
%TO.N,L_BL_LED_A27*%
X82115500Y-101380700D03*
%TO.N,L_BL_LED_A28*%
X103647900Y-100783000D03*
%TO.N,L_BL_LED_A29*%
X127543500Y-111607400D03*
%TD*%
D35*
%TO.N,L_ROW0*%
X129475000Y-36425000D02*
X127517500Y-38382500D01*
X25047600Y-41612900D02*
X25047600Y-56556600D01*
X19768500Y-77270700D02*
X19405500Y-77633700D01*
X72325000Y-36425000D02*
X74185300Y-38285300D01*
X74270600Y-38370600D02*
X89429400Y-38370600D01*
X18248400Y-64608200D02*
X18248400Y-65466600D01*
X20250000Y-80055000D02*
X20250000Y-79420000D01*
X18781800Y-66000000D02*
X19221100Y-66000000D01*
X19221100Y-66000000D02*
X19768500Y-66547400D01*
X104528200Y-36983200D02*
X104528200Y-36672200D01*
X18248400Y-65466600D02*
X18781800Y-66000000D01*
X92503300Y-38131800D02*
X92503300Y-37553300D01*
X22696500Y-63170400D02*
X19686200Y-63170400D01*
X110425000Y-36425000D02*
X108498300Y-38351700D01*
X25047600Y-56556600D02*
X26411400Y-57920400D01*
X74185300Y-38285300D02*
X73594900Y-38875700D01*
X127517500Y-38382500D02*
X112382500Y-38382500D01*
X74185300Y-38285300D02*
X74270600Y-38370600D01*
X26411400Y-57920400D02*
X26411400Y-59455500D01*
X26411400Y-59455500D02*
X22696500Y-63170400D01*
X34225000Y-36425000D02*
X36675700Y-38875700D01*
X105896700Y-38351700D02*
X104528200Y-36983200D01*
X53275000Y-36425000D02*
X55725700Y-38875700D01*
X108498300Y-38351700D02*
X105896700Y-38351700D01*
X27784800Y-38875700D02*
X25047600Y-41612900D01*
X92503300Y-37553300D02*
X91375000Y-36425000D01*
X89429400Y-38370600D02*
X91375000Y-36425000D01*
X112382500Y-38382500D02*
X110425000Y-36425000D01*
X19768500Y-66547400D02*
X19768500Y-77270700D01*
X19686200Y-63170400D02*
X18248400Y-64608200D01*
%TO.N,L_ROW1*%
X119934400Y-57859100D02*
X119950000Y-57843500D01*
X62800000Y-55475000D02*
X64509000Y-57184000D01*
X139000000Y-55475000D02*
X137049300Y-57425700D01*
X98973300Y-57401700D02*
X95893900Y-57401700D01*
X119950000Y-57843500D02*
X119950000Y-55475000D01*
X31167200Y-80055000D02*
X34619900Y-76602300D01*
X83555900Y-56503700D02*
X82878700Y-56503700D01*
X39698800Y-56185800D02*
X39698800Y-57416500D01*
X121900700Y-57425700D02*
X119950000Y-55475000D01*
X95893900Y-57401700D02*
X94995900Y-56503700D01*
X100900000Y-55475000D02*
X98973300Y-57401700D01*
X34619900Y-76602300D02*
X34619900Y-59843100D01*
X27870000Y-80055000D02*
X27870000Y-79420000D01*
X38988000Y-55475000D02*
X39698800Y-56185800D01*
X137049300Y-57425700D02*
X121900700Y-57425700D01*
X34619900Y-59843100D02*
X38988000Y-55475000D01*
X64509000Y-57184000D02*
X64509000Y-57416500D01*
X82878700Y-56503700D02*
X81850000Y-55475000D01*
%TO.N,L_ROW2*%
X105663000Y-74525000D02*
X103705300Y-76482700D01*
X67563000Y-75046900D02*
X67563000Y-74525000D01*
X143762000Y-74525000D02*
X141835300Y-76451700D01*
X41219200Y-78419500D02*
X41219200Y-74674800D01*
X67749600Y-75046900D02*
X69227900Y-76525200D01*
X103705300Y-76482700D02*
X100910900Y-76482700D01*
X67563000Y-75046900D02*
X67749600Y-75046900D01*
X41219200Y-74674800D02*
X41369000Y-74525000D01*
X35440300Y-92428100D02*
X35440300Y-87292700D01*
X64190400Y-78419500D02*
X67563000Y-75046900D01*
X35440300Y-87292700D02*
X41219200Y-81513800D01*
X27870000Y-95295000D02*
X27870000Y-95930000D01*
X86613000Y-74525000D02*
X88145000Y-76057000D01*
X41219200Y-81513800D02*
X41219200Y-78419500D01*
X100910900Y-76482700D02*
X100485200Y-76057000D01*
X27870000Y-95295000D02*
X32573400Y-95295000D01*
X32573400Y-95295000D02*
X35440300Y-92428100D01*
X141835300Y-76451700D02*
X126639700Y-76451700D01*
X124713000Y-74525000D02*
X122759200Y-76478800D01*
X126639700Y-76451700D02*
X124713000Y-74525000D01*
%TO.N,L_ROW3*%
X93862800Y-96445000D02*
X94963000Y-97545200D01*
X96138000Y-93575000D02*
X93862800Y-95850200D01*
X133453700Y-96166700D02*
X134238000Y-95382400D01*
X77088000Y-95076600D02*
X77221300Y-95209800D01*
X88243900Y-96445000D02*
X93862800Y-96445000D01*
X120994000Y-94878500D02*
X122282200Y-96166700D01*
X115187000Y-94878500D02*
X115187000Y-93575000D01*
X42492900Y-97213100D02*
X26345200Y-97213100D01*
X46131000Y-93575000D02*
X48824000Y-96268000D01*
X25330000Y-96197900D02*
X25330000Y-95930000D01*
X94963000Y-103673400D02*
X95574100Y-104284500D01*
X134238000Y-95382400D02*
X134238000Y-93575000D01*
X77088000Y-93575000D02*
X77088000Y-95076600D01*
X25330000Y-95295000D02*
X25330000Y-95930000D01*
X106292000Y-103773500D02*
X115187000Y-94878500D01*
X82563300Y-100551900D02*
X84137000Y-100551900D01*
X77221300Y-95209800D02*
X75990700Y-96440400D01*
X93862800Y-95850200D02*
X93862800Y-96445000D01*
X100445500Y-103773500D02*
X106292000Y-103773500D01*
X115187000Y-94878500D02*
X120994000Y-94878500D01*
X94963000Y-97545200D02*
X94963000Y-103673400D01*
X153288000Y-93575000D02*
X151361300Y-91648300D01*
X48824000Y-96268000D02*
X48824000Y-96440400D01*
X46131000Y-93575000D02*
X42492900Y-97213100D01*
X77221300Y-95209800D02*
X82563300Y-100551900D01*
X84137000Y-100551900D02*
X88243900Y-96445000D01*
X99934500Y-104284500D02*
X100445500Y-103773500D01*
X95574100Y-104284500D02*
X99934500Y-104284500D01*
X26345200Y-97213100D02*
X25330000Y-96197900D01*
%TO.N,L_ROW4*%
X103692700Y-114595300D02*
X105663000Y-112625000D01*
X58492000Y-114552000D02*
X38533000Y-114552000D01*
X86201300Y-114595300D02*
X103692700Y-114595300D01*
X36606000Y-112625000D02*
X34262200Y-110281200D01*
X60419000Y-112625000D02*
X58492000Y-114552000D01*
X28990000Y-102362800D02*
X22790000Y-96162800D01*
X105663000Y-112625000D02*
X115495200Y-102792800D01*
X81371700Y-115484300D02*
X63278300Y-115484300D01*
X63278300Y-115484300D02*
X60419000Y-112625000D01*
X84231000Y-112625000D02*
X81371700Y-115484300D01*
X28990000Y-107056600D02*
X28990000Y-102362800D01*
X123766200Y-103828100D02*
X124192400Y-104254300D01*
X126838000Y-102802200D02*
X126838000Y-100825000D01*
X124192400Y-104254300D02*
X125385900Y-104254300D01*
X115495200Y-102792800D02*
X122889900Y-102792800D01*
X34262200Y-110281200D02*
X32214600Y-110281200D01*
X22790000Y-96162800D02*
X22790000Y-95930000D01*
X125385900Y-104254300D02*
X126838000Y-102802200D01*
X32214600Y-110281200D02*
X28990000Y-107056600D01*
X122889900Y-102792800D02*
X123766200Y-103669100D01*
X123766200Y-103669100D02*
X123766200Y-103828100D01*
X84231000Y-112625000D02*
X86201300Y-114595300D01*
X22790000Y-95295000D02*
X22790000Y-95930000D01*
X38533000Y-114552000D02*
X36606000Y-112625000D01*
%TO.N,L_COL0*%
X28327500Y-47585500D02*
X28327500Y-61833500D01*
X27450200Y-32823300D02*
X28320200Y-33693300D01*
X28320200Y-45157200D02*
X29538000Y-46375000D01*
X20250000Y-95295000D02*
X20250000Y-95930000D01*
X28327500Y-61833500D02*
X30701200Y-64207200D01*
X20250000Y-95930000D02*
X20250000Y-96619000D01*
X33593900Y-83735500D02*
X35941500Y-83735500D01*
X30701200Y-65425000D02*
X31919000Y-65425000D01*
X30701200Y-65425000D02*
X30701200Y-80842800D01*
X30701200Y-80842800D02*
X33593900Y-83735500D01*
X20250000Y-96619000D02*
X27156000Y-103525000D01*
X32731600Y-89438200D02*
X32731600Y-84597800D01*
X28441600Y-93728200D02*
X32731600Y-89438200D01*
X30701200Y-64207200D02*
X30701200Y-65425000D01*
X24775000Y-27325000D02*
X27450200Y-30000200D01*
X35941500Y-83735500D02*
X36681000Y-84475000D01*
X29538000Y-46375000D02*
X28327500Y-47585500D01*
X27450200Y-30000200D02*
X27450200Y-32823300D01*
X32731600Y-84597800D02*
X33593900Y-83735500D01*
X28320200Y-33693300D02*
X28320200Y-45157200D01*
%TO.N,L_COL1*%
X60322500Y-83741200D02*
X60844800Y-83741200D01*
X51282400Y-92781300D02*
X50295300Y-91794300D01*
X53350000Y-46375000D02*
X55723500Y-48748500D01*
X51282400Y-92781300D02*
X60322500Y-83741200D01*
X45670700Y-29170700D02*
X43825000Y-27325000D01*
X16170400Y-82393000D02*
X25044100Y-82393000D01*
X60844800Y-68156800D02*
X60844800Y-83741200D01*
X55723500Y-51731600D02*
X56439000Y-52447100D01*
X53350000Y-46375000D02*
X46649800Y-39674800D01*
X13900000Y-79020000D02*
X13900000Y-80122600D01*
X55723500Y-48748500D02*
X55723500Y-51731600D01*
X58113000Y-65425000D02*
X60844800Y-68156800D01*
X28370800Y-85719700D02*
X28370800Y-88306800D01*
X13900000Y-80122600D02*
X16170400Y-82393000D01*
X66904200Y-83741200D02*
X67638000Y-84475000D01*
X50969000Y-93094700D02*
X51282400Y-92781300D01*
X56439000Y-52447100D02*
X56439000Y-63751000D01*
X46649800Y-39674800D02*
X46649800Y-31830500D01*
X50969000Y-103525000D02*
X50969000Y-93094700D01*
X56439000Y-63751000D02*
X58113000Y-65425000D01*
X45670700Y-30851400D02*
X45670700Y-29170700D01*
X60844800Y-83741200D02*
X66904200Y-83741200D01*
X25044100Y-82393000D02*
X28370800Y-85719700D01*
X46649800Y-31830500D02*
X45670700Y-30851400D01*
%TO.N,L_COL2*%
X77163000Y-65425000D02*
X74675700Y-67912300D01*
X74057400Y-48032400D02*
X74057400Y-51195100D01*
X16440000Y-79020000D02*
X16440000Y-77178100D01*
X77592500Y-86914700D02*
X80762800Y-83744400D01*
X80762800Y-83744400D02*
X80762800Y-79483500D01*
X74781000Y-103525000D02*
X75378800Y-102927200D01*
X72400000Y-46375000D02*
X74057400Y-48032400D01*
X74057400Y-51195100D02*
X75489000Y-52626700D01*
X66441500Y-33714600D02*
X66441500Y-40416500D01*
X75489000Y-52626700D02*
X75489000Y-63751000D01*
X74675700Y-67912300D02*
X74675700Y-70374100D01*
X75922300Y-71440000D02*
X74856400Y-70374100D01*
X65550200Y-32823300D02*
X66441500Y-33714600D01*
X65550200Y-30000200D02*
X65550200Y-32823300D01*
X80762800Y-83744400D02*
X85957400Y-83744400D01*
X16440000Y-77178100D02*
X17162700Y-76455400D01*
X66441500Y-40416500D02*
X72400000Y-46375000D01*
X80762800Y-79483500D02*
X75922300Y-74643000D01*
X62875000Y-27325000D02*
X65550200Y-30000200D01*
X75378800Y-89888700D02*
X77592500Y-87675000D01*
X85957400Y-83744400D02*
X86688000Y-84475000D01*
X77592500Y-87675000D02*
X77592500Y-86914700D01*
X74856400Y-70374100D02*
X74675700Y-70374100D01*
X75922300Y-74643000D02*
X75922300Y-71440000D01*
X75489000Y-63751000D02*
X77163000Y-65425000D01*
X75378800Y-102927200D02*
X75378800Y-89888700D01*
%TO.N,L_COL3*%
X87081300Y-34081200D02*
X91688500Y-34081200D01*
X94125200Y-51873300D02*
X94125200Y-49050200D01*
X100314700Y-86021600D02*
X100208300Y-86128000D01*
X92962500Y-44862500D02*
X91450000Y-46375000D01*
X103799200Y-80516600D02*
X102153800Y-78871200D01*
X83770700Y-29170700D02*
X83770700Y-30770600D01*
X103799200Y-82537100D02*
X103799200Y-80516600D01*
X100208300Y-99527500D02*
X99568300Y-100167500D01*
X94125200Y-49050200D02*
X91450000Y-46375000D01*
X95025700Y-78681500D02*
X95025700Y-66612300D01*
X94539000Y-52287100D02*
X94125200Y-51873300D01*
X18980000Y-78914000D02*
X19872000Y-78022000D01*
X81925000Y-27325000D02*
X83770700Y-29170700D01*
X96213000Y-65425000D02*
X94539000Y-63751000D01*
X95025700Y-66612300D02*
X96213000Y-65425000D01*
X100208300Y-86128000D02*
X100208300Y-99527500D01*
X105737000Y-84475000D02*
X103799200Y-82537100D01*
X18980000Y-79020000D02*
X18980000Y-78914000D01*
X100872800Y-85463500D02*
X100579400Y-85463500D01*
X83770700Y-30770600D02*
X87081300Y-34081200D01*
X99568300Y-100169700D02*
X96213000Y-103525000D01*
X92962500Y-35355200D02*
X92962500Y-44862500D01*
X94539000Y-63751000D02*
X94539000Y-52287100D01*
X100314700Y-85728200D02*
X100314700Y-86021600D01*
X103799200Y-82537100D02*
X100872800Y-85463500D01*
X99568300Y-100167500D02*
X99568300Y-100169700D01*
X100579400Y-85463500D02*
X100314700Y-85728200D01*
X91688500Y-34081200D02*
X92962500Y-35355200D01*
X95185800Y-78841600D02*
X95025700Y-78681500D01*
%TO.N,L_COL4*%
X124788000Y-84475000D02*
X123570200Y-84475000D01*
X123570200Y-84398900D02*
X114643000Y-75471700D01*
X110500000Y-46375000D02*
X113175200Y-49050200D01*
X100975000Y-27325000D02*
X103650200Y-30000200D01*
X114034800Y-66653200D02*
X114034800Y-75471700D01*
X21520000Y-78912300D02*
X23402100Y-77030200D01*
X103650200Y-30000200D02*
X103650200Y-32823300D01*
X123570200Y-84475000D02*
X123570200Y-84398900D01*
X123570200Y-84475000D02*
X123570200Y-102307200D01*
X21520000Y-79020000D02*
X21520000Y-78912300D01*
X113175200Y-51873300D02*
X113706400Y-52404500D01*
X103956400Y-33129500D02*
X103956400Y-39831400D01*
X123570200Y-102307200D02*
X124788000Y-103525000D01*
X113706400Y-63868400D02*
X115263000Y-65425000D01*
X114643000Y-75471700D02*
X114034800Y-75471700D01*
X114034800Y-75471700D02*
X113688400Y-75471700D01*
X103956400Y-39831400D02*
X110500000Y-46375000D01*
X113688400Y-75471700D02*
X112129900Y-77030200D01*
X115263000Y-65425000D02*
X114034800Y-66653200D01*
X103650200Y-32823300D02*
X103956400Y-33129500D01*
X113706400Y-52404500D02*
X113706400Y-63868400D01*
X113175200Y-49050200D02*
X113175200Y-51873300D01*
%TO.N,L_COL5*%
X132908300Y-74070700D02*
X130985600Y-75993400D01*
X143838000Y-84475000D02*
X145366500Y-82946500D01*
X131044800Y-35339500D02*
X131044800Y-45013100D01*
X24060000Y-78914800D02*
X25007000Y-77967800D01*
X124600100Y-33529000D02*
X129234300Y-33529000D01*
X131044800Y-45013100D02*
X130430300Y-45627600D01*
X140581600Y-53883500D02*
X138851800Y-52153700D01*
X138851800Y-52153700D02*
X138851800Y-47080500D01*
X121870700Y-29170700D02*
X121870700Y-30799600D01*
X145366500Y-72536800D02*
X143224300Y-70394600D01*
X132908300Y-66828700D02*
X132908300Y-74070700D01*
X120025000Y-27325000D02*
X121870700Y-29170700D01*
X130297400Y-45627600D02*
X130430300Y-45627600D01*
X140581600Y-59155400D02*
X140581600Y-53883500D01*
X143224300Y-67606700D02*
X137677300Y-62059700D01*
X130430300Y-45627600D02*
X130744100Y-45941400D01*
X138851800Y-47080500D02*
X137712700Y-45941400D01*
X143224300Y-70394600D02*
X143224300Y-67606700D01*
X24060000Y-79020000D02*
X24060000Y-78914800D01*
X129234300Y-33529000D02*
X131044800Y-35339500D01*
X137677300Y-62059700D02*
X140581600Y-59155400D01*
X145366500Y-82946500D02*
X145366500Y-72536800D01*
X134312000Y-65425000D02*
X132908300Y-66828700D01*
X121870700Y-30799600D02*
X124600100Y-33529000D01*
X134312000Y-65425000D02*
X137677300Y-62059700D01*
X129550000Y-46375000D02*
X130297400Y-45627600D01*
%TO.N,L_EXT_A*%
X12630000Y-80055000D02*
X12630000Y-79420000D01*
X120895800Y-113893500D02*
X120837900Y-113835600D01*
X120750000Y-115850000D02*
X120750000Y-115341900D01*
X120895800Y-115196100D02*
X120895800Y-113893500D01*
X120750000Y-115341900D02*
X120895800Y-115196100D01*
%TO.N,L_EXT_B*%
X15170000Y-80055000D02*
X15170000Y-79420000D01*
X121250000Y-114291200D02*
X121421600Y-114119600D01*
X121250000Y-115850000D02*
X121250000Y-114291200D01*
%TO.N,L_BL_PWM*%
X18175000Y-59000000D02*
X17620700Y-59554300D01*
X17620700Y-79330700D02*
X17710000Y-79420000D01*
X17620700Y-59554300D02*
X17620700Y-79330700D01*
X17710000Y-80055000D02*
X17710000Y-79420000D01*
%TO.N,L_EXT_SDA*%
X121750000Y-115850000D02*
X121750000Y-115173300D01*
X122300800Y-114622500D02*
X122300800Y-113267700D01*
X22790000Y-80055000D02*
X22790000Y-79420000D01*
X121750000Y-115173300D02*
X122300800Y-114622500D01*
%TO.N,L_EXT_SCL*%
X133917600Y-115197600D02*
X126748600Y-115197600D01*
X122250000Y-115850000D02*
X122250000Y-116526700D01*
X134720000Y-116000000D02*
X133917600Y-115197600D01*
X25330000Y-80055000D02*
X25330000Y-79420000D01*
X126748600Y-115197600D02*
X125419500Y-116526700D01*
X125419500Y-116526700D02*
X122250000Y-116526700D01*
%TO.N,L_3V3*%
X35463000Y-44126600D02*
X35463000Y-42925000D01*
X37533700Y-40854300D02*
X35463000Y-42925000D01*
X40526000Y-52457700D02*
X38968800Y-50900500D01*
X127630500Y-45624500D02*
X127972500Y-45966500D01*
X119506700Y-43506700D02*
X119506700Y-45624500D01*
X70766100Y-37498100D02*
X70766100Y-33633200D01*
X58352700Y-26565100D02*
X70715100Y-26565100D01*
X85447300Y-97377700D02*
X83025000Y-99800000D01*
X122750000Y-115850000D02*
X122750000Y-115173300D01*
X69692900Y-71213500D02*
X67767300Y-69287900D01*
X40526000Y-61474000D02*
X40526000Y-52457700D01*
X41283600Y-70091200D02*
X41283600Y-62883600D01*
X44421800Y-94415500D02*
X42082700Y-96754600D01*
X128250800Y-110200000D02*
X126979300Y-111471500D01*
X58352700Y-26565100D02*
X58352700Y-40977700D01*
X76000000Y-84050000D02*
X69692900Y-84050000D01*
X41283600Y-62883600D02*
X40200000Y-61800000D01*
X32440600Y-98240600D02*
X35200000Y-101000000D01*
X38968800Y-47632400D02*
X35463000Y-44126600D01*
X133723500Y-83726500D02*
X141894100Y-83726500D01*
X142447900Y-109542100D02*
X142447900Y-86088700D01*
X101647900Y-22845600D02*
X95369300Y-29124200D01*
X17710000Y-95295000D02*
X17710000Y-95930000D01*
X85200000Y-61800000D02*
X86817400Y-63417400D01*
X40200000Y-61800000D02*
X40526000Y-61474000D01*
X123236600Y-61800000D02*
X123600000Y-61800000D01*
X44421800Y-90571600D02*
X44421800Y-94415500D01*
X37533700Y-29783700D02*
X43567400Y-23750000D01*
X111645600Y-22845600D02*
X101647900Y-22845600D01*
X105109100Y-72075000D02*
X101675700Y-72075000D01*
X119506700Y-45624500D02*
X119506700Y-52223300D01*
X119506700Y-45624500D02*
X127630500Y-45624500D01*
X118418600Y-56982000D02*
X123236600Y-61800000D01*
X130190000Y-110200000D02*
X128400000Y-110200000D01*
X114200000Y-84250000D02*
X114911800Y-83538200D01*
X142447900Y-86088700D02*
X143287000Y-85249600D01*
X141894100Y-83726500D02*
X142327300Y-84159700D01*
X45365100Y-89628300D02*
X44421800Y-90571600D01*
X144383900Y-85249600D02*
X145995700Y-83637800D01*
X114911800Y-83538200D02*
X114911800Y-81076200D01*
X100491500Y-47141500D02*
X96350000Y-43000000D01*
X104400000Y-61750000D02*
X104400000Y-53533600D01*
X132161900Y-35391800D02*
X129455800Y-32685700D01*
X114911800Y-81076200D02*
X105910600Y-72075000D01*
X89544500Y-84050000D02*
X88607300Y-84987200D01*
X128948700Y-47119200D02*
X130205100Y-47119200D01*
X141485200Y-53680100D02*
X139205900Y-51400800D01*
X52175000Y-23750000D02*
X55537600Y-23750000D01*
X139205900Y-51400800D02*
X139205900Y-43736600D01*
X142327300Y-84159700D02*
X142327300Y-84289900D01*
X85200000Y-53822700D02*
X85200000Y-61800000D01*
X88607300Y-84987200D02*
X88533700Y-84987200D01*
X101675700Y-72075000D02*
X96093100Y-77657600D01*
X113536000Y-89810300D02*
X113536000Y-94290100D01*
X33200000Y-25450000D02*
X37533700Y-29783700D01*
X67767300Y-66217300D02*
X66400000Y-64850000D01*
X85447300Y-90731500D02*
X85447300Y-97377700D01*
X141485200Y-60635200D02*
X141485200Y-53680100D01*
X119506700Y-52223300D02*
X118418600Y-53311400D01*
X146607900Y-84250000D02*
X145995700Y-83637800D01*
X63134800Y-53191000D02*
X64977400Y-55033600D01*
X45716800Y-83333200D02*
X45716800Y-74524400D01*
X125968600Y-112947500D02*
X124975800Y-112947500D01*
X89544500Y-72454200D02*
X89544500Y-84050000D01*
X142600000Y-61750000D02*
X141485200Y-60635200D01*
X152400000Y-84250000D02*
X146607900Y-84250000D01*
X143850800Y-63000800D02*
X142600000Y-61750000D01*
X95369300Y-31856600D02*
X95369300Y-42019300D01*
X80800000Y-42750000D02*
X82054400Y-44004400D01*
X112400000Y-23600000D02*
X111645600Y-22845600D01*
X100491500Y-49625100D02*
X100491500Y-47141500D01*
X64977400Y-63890900D02*
X65936500Y-64850000D01*
X107826100Y-100000000D02*
X104400000Y-100000000D01*
X71566700Y-27416700D02*
X71200000Y-27050000D01*
X86812800Y-89366000D02*
X85447300Y-90731500D01*
X69692900Y-84050000D02*
X69692900Y-71213500D01*
X145995700Y-71983600D02*
X143850800Y-69838700D01*
X143287000Y-85249600D02*
X144383900Y-85249600D01*
X135990000Y-116000000D02*
X142447900Y-109542100D01*
X87067100Y-89366000D02*
X86812800Y-89366000D01*
X115175000Y-26375000D02*
X126450000Y-26375000D01*
X38968800Y-50900500D02*
X38968800Y-47632400D01*
X70715100Y-26565100D02*
X71200000Y-27050000D01*
X55537600Y-23750000D02*
X58352700Y-26565100D01*
X118800000Y-42800000D02*
X119506700Y-43506700D01*
X71566700Y-32832600D02*
X71566700Y-27416700D01*
X70766100Y-33633200D02*
X71566700Y-32832600D01*
X69692900Y-84050000D02*
X66248000Y-87494900D01*
X126979300Y-111936800D02*
X125968600Y-112947500D01*
X43567400Y-23750000D02*
X52175000Y-23750000D01*
X145995700Y-83637800D02*
X145995700Y-71983600D01*
X130205100Y-47119200D02*
X132161900Y-45162400D01*
X86817400Y-69727100D02*
X89544500Y-72454200D01*
X65936500Y-64850000D02*
X66400000Y-64850000D01*
X91579400Y-23954400D02*
X91579400Y-30740700D01*
X86817400Y-63417400D02*
X86817400Y-69727100D01*
X129455800Y-32685700D02*
X129455800Y-29380800D01*
X104400000Y-61750000D02*
X105109100Y-62459100D01*
X124975800Y-112947500D02*
X122750000Y-115173300D01*
X95200000Y-84050000D02*
X89544500Y-84050000D01*
X132161900Y-45162400D02*
X132161900Y-42750000D01*
X138219300Y-42750000D02*
X137800000Y-42750000D01*
X137800000Y-42750000D02*
X132161900Y-42750000D01*
X92695300Y-31856600D02*
X95369300Y-31856600D01*
X135990000Y-116000000D02*
X130190000Y-110200000D01*
X127972500Y-45966500D02*
X127972500Y-46143000D01*
X60375000Y-43000000D02*
X63134800Y-45759800D01*
X129455800Y-29380800D02*
X126450000Y-26375000D01*
X45000000Y-84050000D02*
X45716800Y-83333200D01*
X114423400Y-88922900D02*
X113536000Y-89810300D01*
X45716800Y-74524400D02*
X41283600Y-70091200D01*
X114423400Y-84473400D02*
X114423400Y-88922900D01*
X133400000Y-84050000D02*
X133723500Y-83726500D01*
X58352700Y-40977700D02*
X60375000Y-43000000D01*
X90675000Y-23050000D02*
X91579400Y-23954400D01*
X132161900Y-42750000D02*
X132161900Y-35391800D01*
X67767300Y-69287900D02*
X67767300Y-66217300D01*
X37533700Y-29783700D02*
X37533700Y-40854300D01*
X82054400Y-50677100D02*
X85200000Y-53822700D01*
X45365100Y-84415100D02*
X45365100Y-89628300D01*
X88533700Y-87899400D02*
X87067100Y-89366000D01*
X118418600Y-53311400D02*
X118418600Y-56982000D01*
X64977400Y-55033600D02*
X64977400Y-63890900D01*
X95369300Y-29124200D02*
X95369300Y-31856600D01*
X45000000Y-84050000D02*
X45365100Y-84415100D01*
X105910600Y-72075000D02*
X105109100Y-72075000D01*
X80800000Y-42750000D02*
X76018000Y-42750000D01*
X114200000Y-84250000D02*
X114423400Y-84473400D01*
X82054400Y-44004400D02*
X82054400Y-50677100D01*
X88533700Y-84987200D02*
X88533700Y-87899400D01*
X113536000Y-94290100D02*
X107826100Y-100000000D01*
X96093100Y-77657600D02*
X96093100Y-83156900D01*
X142327300Y-84289900D02*
X143287000Y-85249600D01*
X66248000Y-92902000D02*
X59200000Y-99950000D01*
X105109100Y-62459100D02*
X105109100Y-72075000D01*
X128400000Y-110200000D02*
X128250800Y-110200000D01*
X63134800Y-45759800D02*
X63134800Y-53191000D01*
X126979300Y-111471500D02*
X126979300Y-111936800D01*
X91579400Y-30740700D02*
X92695300Y-31856600D01*
X66248000Y-87494900D02*
X66248000Y-92902000D01*
X127972500Y-46143000D02*
X128948700Y-47119200D01*
X112400000Y-23600000D02*
X115175000Y-26375000D01*
X139205900Y-43736600D02*
X138219300Y-42750000D01*
X143850800Y-69838700D02*
X143850800Y-63000800D01*
X104400000Y-53533600D02*
X100491500Y-49625100D01*
X96093100Y-83156900D02*
X95200000Y-84050000D01*
X76018000Y-42750000D02*
X70766100Y-37498100D01*
X95369300Y-42019300D02*
X96350000Y-43000000D01*
%TO.N,L_GND*%
X28833600Y-88541900D02*
X28833600Y-78412900D01*
X26617900Y-59707100D02*
X27325000Y-59000000D01*
X15170000Y-95295000D02*
X15170000Y-95930000D01*
X120250000Y-115850000D02*
X120250000Y-115157000D01*
X26617900Y-59709300D02*
X26617900Y-59707100D01*
X56000000Y-101525200D02*
X60746400Y-106271600D01*
X120250000Y-115157000D02*
X120389600Y-115017400D01*
X25767800Y-89281000D02*
X28094500Y-89281000D01*
X23985800Y-62339200D02*
X23988000Y-62339200D01*
X23988000Y-62339200D02*
X24127600Y-62199600D01*
X28094500Y-89281000D02*
X28833600Y-88541900D01*
X26406400Y-64478500D02*
X24127600Y-62199600D01*
X65115700Y-114018500D02*
X65115700Y-115017800D01*
X21275000Y-65050000D02*
X23985800Y-62339200D01*
X26406400Y-75985700D02*
X26406400Y-64478500D01*
X24127600Y-62199600D02*
X26617900Y-59709300D01*
X60746400Y-106271600D02*
X60746400Y-109649200D01*
X56000000Y-95581900D02*
X56000000Y-101525200D01*
X28833600Y-78412900D02*
X26406400Y-75985700D01*
X10350000Y-76800000D02*
X10350000Y-90475000D01*
X10350000Y-90475000D02*
X15170000Y-95295000D01*
X56000000Y-92100000D02*
X56000000Y-95581900D01*
X60746400Y-109649200D02*
X65115700Y-114018500D01*
X19000000Y-65050000D02*
X21275000Y-65050000D01*
%TO.N,L_BAT_SW*%
X11676400Y-78616400D02*
X12357500Y-77935300D01*
X15675300Y-69323600D02*
X14226700Y-67875000D01*
X11676400Y-80439400D02*
X11676400Y-78616400D01*
X12357500Y-77935300D02*
X14679700Y-77935300D01*
X20786000Y-83425900D02*
X14662900Y-83425900D01*
X13250000Y-67875000D02*
X14226700Y-67875000D01*
X15675300Y-76939700D02*
X15675300Y-69323600D01*
X25767800Y-86081000D02*
X23441100Y-86081000D01*
X14662900Y-83425900D02*
X11676400Y-80439400D01*
X23441100Y-86081000D02*
X20786000Y-83425900D01*
X14679700Y-77935300D02*
X15675300Y-76939700D01*
%TO.N,L_BAT_RAW*%
X58000000Y-92100000D02*
X57229500Y-91329500D01*
X57229500Y-91329500D02*
X57099300Y-91329500D01*
X13384100Y-76033600D02*
X11073000Y-78344700D01*
X14915700Y-76033600D02*
X13384100Y-76033600D01*
X13250000Y-70875000D02*
X14226700Y-70875000D01*
X15320600Y-71968900D02*
X15320600Y-75628700D01*
X14226700Y-70875000D02*
X15320600Y-71968900D01*
X15320600Y-75628700D02*
X14915700Y-76033600D01*
X11073000Y-82044900D02*
X14206400Y-85178300D01*
X11073000Y-78344700D02*
X11073000Y-82044900D01*
%TO.N,L_K1_D*%
X21825000Y-27775000D02*
X21825000Y-34325000D01*
X22275000Y-27325000D02*
X21825000Y-27775000D01*
%TO.N,L_K2_D*%
X41325000Y-27325000D02*
X40875000Y-27775000D01*
X40875000Y-27775000D02*
X40875000Y-34325000D01*
%TO.N,L_K3_D*%
X60375000Y-27325000D02*
X59925000Y-27775000D01*
X59925000Y-27775000D02*
X59925000Y-34325000D01*
%TO.N,L_K4_D*%
X78975000Y-27775000D02*
X78975000Y-34325000D01*
X79425000Y-27325000D02*
X78975000Y-27775000D01*
%TO.N,L_K5_D*%
X98025000Y-27775000D02*
X98025000Y-34325000D01*
X98475000Y-27325000D02*
X98025000Y-27775000D01*
%TO.N,L_K6_D*%
X117075000Y-27775000D02*
X117075000Y-34325000D01*
X117525000Y-27325000D02*
X117075000Y-27775000D01*
%TO.N,L_K7_D*%
X27038000Y-46375000D02*
X26588000Y-46825000D01*
X26588000Y-46825000D02*
X26588000Y-53375000D01*
%TO.N,L_K8_D*%
X50400000Y-46825000D02*
X50400000Y-53375000D01*
X50850000Y-46375000D02*
X50400000Y-46825000D01*
%TO.N,L_K9_D*%
X69900000Y-46375000D02*
X69450000Y-46825000D01*
X69450000Y-46825000D02*
X69450000Y-53375000D01*
%TO.N,L_K10_D*%
X88950000Y-46375000D02*
X88500000Y-46825000D01*
X88500000Y-46825000D02*
X88500000Y-53375000D01*
%TO.N,L_K11_D*%
X107550000Y-46825000D02*
X107550000Y-53375000D01*
X108000000Y-46375000D02*
X107550000Y-46825000D01*
%TO.N,L_K12_D*%
X127050000Y-46375000D02*
X126600000Y-46825000D01*
X126600000Y-46825000D02*
X126600000Y-53375000D01*
%TO.N,L_K13_D*%
X28969000Y-65875000D02*
X28969000Y-72425000D01*
X29419000Y-65425000D02*
X28969000Y-65875000D01*
%TO.N,L_K14_D*%
X55613000Y-65425000D02*
X55163000Y-65875000D01*
X55163000Y-65875000D02*
X55163000Y-72425000D01*
%TO.N,L_K15_D*%
X74213000Y-65875000D02*
X74213000Y-72425000D01*
X74663000Y-65425000D02*
X74213000Y-65875000D01*
%TO.N,L_K16_D*%
X93713000Y-65425000D02*
X93263000Y-65875000D01*
X93263000Y-65875000D02*
X93263000Y-72425000D01*
%TO.N,L_K17_D*%
X112763000Y-71975000D02*
X112313000Y-72425000D01*
X112763000Y-65425000D02*
X112763000Y-71975000D01*
%TO.N,L_K18_D*%
X131812000Y-71975000D02*
X131362000Y-72425000D01*
X131812000Y-65425000D02*
X131812000Y-71975000D01*
%TO.N,L_K19_D*%
X34181000Y-91025000D02*
X33731000Y-91475000D01*
X34181000Y-84475000D02*
X34181000Y-91025000D01*
%TO.N,L_K20_D*%
X65138000Y-84475000D02*
X64688000Y-84925000D01*
X64688000Y-84925000D02*
X64688000Y-91475000D01*
%TO.N,L_K21_D*%
X84188000Y-84475000D02*
X84188000Y-91025000D01*
X84188000Y-91025000D02*
X83738000Y-91475000D01*
%TO.N,L_K22_D*%
X103237000Y-84475000D02*
X103237000Y-91025000D01*
X103237000Y-91025000D02*
X102787000Y-91475000D01*
%TO.N,L_K23_D*%
X121838000Y-84925000D02*
X121838000Y-91475000D01*
X122288000Y-84475000D02*
X121838000Y-84925000D01*
%TO.N,L_K24_D*%
X140888000Y-84925000D02*
X140888000Y-91475000D01*
X141338000Y-84475000D02*
X140888000Y-84925000D01*
%TO.N,L_K25_D*%
X24206000Y-103975000D02*
X24206000Y-110525000D01*
X24656000Y-103525000D02*
X24206000Y-103975000D01*
%TO.N,L_K26_D*%
X48019000Y-103975000D02*
X48019000Y-110525000D01*
X48469000Y-103525000D02*
X48019000Y-103975000D01*
%TO.N,L_K27_D*%
X71831000Y-103975000D02*
X71831000Y-110525000D01*
X72281000Y-103525000D02*
X71831000Y-103975000D01*
%TO.N,L_K28_D*%
X93263000Y-103975000D02*
X93263000Y-110525000D01*
X93713000Y-103525000D02*
X93263000Y-103975000D01*
%TO.N,L_K29_D*%
X125778600Y-104606400D02*
X126586900Y-103798100D01*
X126586900Y-103798100D02*
X132759800Y-103798100D01*
X132759800Y-103798100D02*
X133845500Y-104883800D01*
X137279200Y-104883800D02*
X139238000Y-102925000D01*
X133845500Y-104883800D02*
X137279200Y-104883800D01*
X123369400Y-104606400D02*
X125778600Y-104606400D01*
X122288000Y-103525000D02*
X123369400Y-104606400D01*
%TO.N,L_LED_CTRL*%
X21520000Y-93738800D02*
X17964100Y-90182900D01*
X11374700Y-78491400D02*
X13041100Y-76825000D01*
X17964100Y-88630700D02*
X16815100Y-87481700D01*
X16815100Y-87481700D02*
X16206100Y-87481700D01*
X16206100Y-87481700D02*
X15455800Y-86731400D01*
X15455800Y-86731400D02*
X15455800Y-85556000D01*
X21520000Y-96330000D02*
X21520000Y-93738800D01*
X15455800Y-85556000D02*
X11374700Y-81474900D01*
X11374700Y-81474900D02*
X11374700Y-78491400D01*
X13041100Y-76825000D02*
X14600000Y-76825000D01*
X17964100Y-90182900D02*
X17964100Y-88630700D01*
%TO.N,L_LED_A*%
X10375000Y-75175000D02*
X10350000Y-75200000D01*
X14600000Y-75175000D02*
X10375000Y-75175000D01*
%TO.N,L_BL_LED_RETURN*%
X100669800Y-100955900D02*
X100435300Y-101190400D01*
X22215600Y-66000000D02*
X24740600Y-63475000D01*
X100669800Y-97596800D02*
X100669800Y-100955900D01*
X100766400Y-97500200D02*
X100669800Y-97596800D01*
X100766400Y-85915200D02*
X100766400Y-97500200D01*
X21000000Y-66000000D02*
X22215600Y-66000000D01*
%TO.N,L_BL_GATE*%
X17922400Y-65872400D02*
X19000000Y-66950000D01*
X17922400Y-60902600D02*
X17922400Y-65872400D01*
X25675000Y-59000000D02*
X19825000Y-59000000D01*
X19825000Y-59000000D02*
X17922400Y-60902600D01*
%TO.N,L_BL_LED_A1*%
X32258700Y-24741300D02*
X32258700Y-25183500D01*
X33200000Y-23800000D02*
X32258700Y-24741300D01*
%TO.N,L_BL_LED_A2*%
X51470200Y-25400000D02*
X51212500Y-25142300D01*
X52175000Y-25400000D02*
X51470200Y-25400000D01*
%TO.N,L_BL_LED_A3*%
X71200000Y-25400000D02*
X70371700Y-25400000D01*
X70371700Y-25400000D02*
X70250200Y-25521500D01*
%TO.N,L_BL_LED_A4*%
X90675000Y-24700000D02*
X90309900Y-24700000D01*
X90309900Y-24700000D02*
X89355200Y-25654700D01*
%TO.N,L_BL_LED_A5*%
X108934100Y-25415900D02*
X108934100Y-25653500D01*
X110750000Y-23600000D02*
X108934100Y-25415900D01*
%TO.N,L_BL_LED_A6*%
X128100000Y-26375000D02*
X127396800Y-25671800D01*
X127396800Y-25671800D02*
X127396800Y-25226100D01*
%TO.N,L_BL_LED_A7*%
X36965200Y-43072800D02*
X36965200Y-43796700D01*
X37113000Y-42925000D02*
X36965200Y-43072800D01*
%TO.N,L_BL_LED_A8*%
X62025000Y-43000000D02*
X61956100Y-43068900D01*
X61956100Y-43068900D02*
X61956100Y-43930100D01*
%TO.N,L_BL_LED_A9*%
X79986800Y-44400000D02*
X79812500Y-44574300D01*
X80800000Y-44400000D02*
X79986800Y-44400000D01*
%TO.N,L_BL_LED_A10*%
X98598900Y-43598900D02*
X98598900Y-43776100D01*
X98000000Y-43000000D02*
X98598900Y-43598900D01*
%TO.N,L_BL_LED_A11*%
X118800000Y-44450000D02*
X118011800Y-44450000D01*
X118011800Y-44450000D02*
X117862500Y-44599300D01*
%TO.N,L_BL_LED_A12*%
X137800000Y-44400000D02*
X137800000Y-44124100D01*
X137800000Y-44124100D02*
X138349100Y-43575000D01*
%TO.N,L_BL_LED_A13*%
X39489200Y-63450000D02*
X39272000Y-63667200D01*
X40200000Y-63450000D02*
X39489200Y-63450000D01*
%TO.N,L_BL_LED_A14*%
X66400000Y-63200000D02*
X66360200Y-63200000D01*
X66360200Y-63200000D02*
X65657800Y-63902400D01*
%TO.N,L_BL_LED_A15*%
X85200000Y-63450000D02*
X84455900Y-62705900D01*
%TO.N,L_BL_LED_A16*%
X103845800Y-62845800D02*
X103571100Y-62845800D01*
X104400000Y-63400000D02*
X103845800Y-62845800D01*
%TO.N,L_BL_LED_A17*%
X123600000Y-63450000D02*
X122861200Y-63450000D01*
X122861200Y-63450000D02*
X122644000Y-63667200D01*
%TO.N,L_BL_LED_A18*%
X141924900Y-63400000D02*
X141699000Y-63625900D01*
X142600000Y-63400000D02*
X141924900Y-63400000D01*
%TO.N,L_BL_LED_A19*%
X45000000Y-82400000D02*
X44090200Y-82400000D01*
X44090200Y-82400000D02*
X44053000Y-82362800D01*
%TO.N,L_BL_LED_A20*%
X75127500Y-82400000D02*
X75031500Y-82304000D01*
X76000000Y-82400000D02*
X75127500Y-82400000D01*
%TO.N,L_BL_LED_A21*%
X95200000Y-82400000D02*
X94008200Y-82400000D01*
X94008200Y-82400000D02*
X93971000Y-82362800D01*
%TO.N,L_BL_LED_A22*%
X114200000Y-82600000D02*
X113418200Y-82600000D01*
X113418200Y-82600000D02*
X113181000Y-82362800D01*
%TO.N,L_BL_LED_A23*%
X133400000Y-82400000D02*
X132672300Y-83127700D01*
X132672300Y-83127700D02*
X132672300Y-83266800D01*
%TO.N,L_BL_LED_A24*%
X152400000Y-82600000D02*
X151677200Y-82600000D01*
X151677200Y-82600000D02*
X151331500Y-82945700D01*
%TO.N,L_BL_LED_A25*%
X35200000Y-102650000D02*
X35883300Y-101966700D01*
X35883300Y-101966700D02*
X35926800Y-101966700D01*
%TO.N,L_BL_LED_A26*%
X59200000Y-101600000D02*
X58345700Y-100745700D01*
%TO.N,L_BL_LED_A27*%
X83025000Y-101450000D02*
X82184800Y-101450000D01*
X82184800Y-101450000D02*
X82115500Y-101380700D01*
%TO.N,L_BL_LED_A28*%
X104400000Y-101650000D02*
X103647900Y-100897900D01*
X103647900Y-100897900D02*
X103647900Y-100783000D01*
%TO.N,L_BL_LED_A29*%
X127786100Y-111850000D02*
X127543500Y-111607400D01*
X128400000Y-111850000D02*
X127786100Y-111850000D01*
%TD*%
M02*
