M48
; DRILL file {KiCad 9.0.6} date 2026-08-30T14:34:14+0900
; FORMAT={-:-/ absolute / metric / decimal}
; #@! TF.CreationDate,2026-08-30T14:34:14+09:00
; #@! TF.GenerationSoftware,Kicad,Pcbnew,9.0.6
; #@! TF.FileFunction,NonPlated,1,2,NPTH
FMAT,2
METRIC
; #@! TA.AperFunction,NonPlated,NPTH,ComponentDrill
T1C0.900
; #@! TA.AperFunction,NonPlated,NPTH,ComponentDrill
T2C1.702
; #@! TA.AperFunction,NonPlated,NPTH,ComponentDrill
T3C2.200
; #@! TA.AperFunction,NonPlated,NPTH,ComponentDrill
T4C3.000
; #@! TA.AperFunction,NonPlated,NPTH,ComponentDrill
T5C5.000
%
G90
G05
T1
X11.5Y-67.125
X11.5Y-70.125
T2
X25.025Y-30.525
X27.406Y-106.725
X29.788Y-49.575
X32.169Y-68.625
X36.025Y-30.525
X36.931Y-87.675
X38.406Y-106.725
X40.788Y-49.575
X43.169Y-68.625
X44.075Y-30.525
X47.931Y-87.675
X51.219Y-106.725
X53.6Y-49.575
X55.075Y-30.525
X58.363Y-68.625
X62.219Y-106.725
X63.125Y-30.525
X64.6Y-49.575
X67.888Y-87.675
X69.363Y-68.625
X72.65Y-49.575
X74.125Y-30.525
X75.031Y-106.725
X77.413Y-68.625
X78.888Y-87.675
X82.175Y-30.525
X83.65Y-49.575
X86.031Y-106.725
X86.938Y-87.675
X88.413Y-68.625
X91.7Y-49.575
X93.175Y-30.525
X96.463Y-68.625
X96.463Y-106.725
X97.938Y-87.675
X101.225Y-30.525
X102.7Y-49.575
X105.987Y-87.675
X107.463Y-68.625
X107.463Y-106.725
X110.75Y-49.575
X112.225Y-30.525
X115.513Y-68.625
X116.987Y-87.675
X120.275Y-30.525
X121.75Y-49.575
X125.038Y-87.675
X125.038Y-106.725
X126.513Y-68.625
X129.8Y-49.575
X131.275Y-30.525
X134.562Y-68.625
X136.038Y-87.675
X136.038Y-106.725
X140.8Y-49.575
X144.088Y-87.675
X145.562Y-68.625
X155.088Y-87.675
T3
X16.0Y-24.0
X16.0Y-113.25
X116.2Y-24.0
X143.0Y-113.25
T4
X25.525Y-34.325
X27.906Y-110.525
X30.288Y-53.375
X30.525Y-36.425
X32.669Y-72.425
X32.906Y-112.625
X35.288Y-55.475
X37.431Y-91.475
X37.669Y-74.525
X42.431Y-93.575
X44.575Y-34.325
X49.575Y-36.425
X51.719Y-110.525
X54.1Y-53.375
X56.719Y-112.625
X58.863Y-72.425
X59.1Y-55.475
X63.625Y-34.325
X63.863Y-74.525
X68.388Y-91.475
X68.625Y-36.425
X73.15Y-53.375
X73.388Y-93.575
X75.531Y-110.525
X77.913Y-72.425
X78.15Y-55.475
X80.531Y-112.625
X82.675Y-34.325
X82.913Y-74.525
X87.438Y-91.475
X87.675Y-36.425
X92.2Y-53.375
X92.438Y-93.575
X96.963Y-72.425
X96.963Y-110.525
X97.2Y-55.475
X101.725Y-34.325
X101.963Y-74.525
X101.963Y-112.625
X106.487Y-91.475
X106.725Y-36.425
X111.25Y-53.375
X111.487Y-93.575
X116.013Y-72.425
X116.25Y-55.475
X120.775Y-34.325
X121.013Y-74.525
X125.538Y-91.475
X125.775Y-36.425
X130.3Y-53.375
X130.538Y-93.575
X130.538Y-100.825
X135.062Y-72.425
X135.3Y-55.475
X135.538Y-102.925
X140.062Y-74.525
X144.588Y-91.475
X149.588Y-93.575
T5
X30.525Y-30.525
X32.906Y-106.725
X35.288Y-49.575
X37.669Y-68.625
X42.431Y-87.675
X49.575Y-30.525
X56.719Y-106.725
X59.1Y-49.575
X63.863Y-68.625
X68.625Y-30.525
X73.388Y-87.675
X78.15Y-49.575
X80.531Y-106.725
X82.913Y-68.625
X87.675Y-30.525
X92.438Y-87.675
X97.2Y-49.575
X101.963Y-68.625
X101.963Y-106.725
X106.725Y-30.525
X111.487Y-87.675
X116.25Y-49.575
X121.013Y-68.625
X125.775Y-30.525
X130.538Y-87.675
X130.538Y-106.725
X135.3Y-49.575
X140.062Y-68.625
X149.588Y-87.675
M30
