%TF.GenerationSoftware,KiCad,Pcbnew,9.0.6*%
%TF.CreationDate,2026-08-30T14:35:43+09:00*%
%TF.ProjectId,SplitChoc64_RIGHT,53706c69-7443-4686-9f63-36345f524947,rev?*%
%TF.SameCoordinates,Original*%
%TF.FileFunction,Profile,NP*%
%FSLAX46Y46*%
G04 Gerber Fmt 4.6, Leading zero omitted, Abs format (unit mm)*
G04 Created by KiCad (PCBNEW 9.0.6) date 2026-08-30 14:35:43*
%MOMM*%
%LPD*%
G01*
G04 APERTURE LIST*
%TA.AperFunction,Profile*%
%ADD10C,0.150000*%
%TD*%
%TA.AperFunction,Profile*%
%ADD11C,0.050000*%
%TD*%
G04 APERTURE END LIST*
D10*
X167199875Y-76850000D02*
X167199875Y-57800000D01*
X176725375Y-76850000D02*
X167199875Y-76850000D01*
X330513000Y-117000000D02*
X277298035Y-117000000D01*
D11*
X235338000Y-117000000D02*
X243338000Y-117000000D01*
D10*
X167199875Y-57800000D02*
X162437875Y-57800000D01*
X152912875Y-20250000D02*
X204803556Y-20250000D01*
D11*
X270525000Y-20250000D02*
X277331000Y-20250000D01*
X211610444Y-20250000D02*
X235338000Y-20250000D01*
X270558000Y-117000000D02*
X277298000Y-117000000D01*
D10*
X330513000Y-20250000D02*
X330513000Y-117000000D01*
X167200750Y-117000000D02*
X167200750Y-98500000D01*
D11*
X204837000Y-117000000D02*
X211577000Y-117000000D01*
X204804000Y-20250000D02*
X211610000Y-20250000D01*
D10*
X176725375Y-98500000D02*
X176725375Y-76850000D01*
X162437875Y-38750000D02*
X152912875Y-38750000D01*
X152912875Y-38750000D02*
X152912875Y-20250000D01*
D11*
X243338000Y-117000000D02*
X270557965Y-117000000D01*
D10*
X167200750Y-98500000D02*
X176725375Y-98500000D01*
X162437875Y-57800000D02*
X162437875Y-38750000D01*
D11*
X235338000Y-20250000D02*
X243338000Y-20250000D01*
X211577035Y-117000000D02*
X235338000Y-117000000D01*
D10*
X204836965Y-117000000D02*
X167200750Y-117000000D01*
D11*
X243338000Y-20250000D02*
X270524556Y-20250000D01*
D10*
X277331444Y-20250000D02*
X330513000Y-20250000D01*
M02*
