M48
; DRILL file {KiCad 9.0.6} date 2026-08-30T14:35:47+0900
; FORMAT={-:-/ absolute / metric / decimal}
; #@! TF.CreationDate,2026-08-30T14:35:47+09:00
; #@! TF.GenerationSoftware,Kicad,Pcbnew,9.0.6
; #@! TF.FileFunction,NonPlated,1,2,NPTH
FMAT,2
METRIC
; #@! TA.AperFunction,NonPlated,NPTH,ComponentDrill
T1C0.900
; #@! TA.AperFunction,NonPlated,NPTH,ComponentDrill
T2C1.702
; #@! TA.AperFunction,NonPlated,NPTH,ComponentDrill
T3C2.200
; #@! TA.AperFunction,NonPlated,NPTH,ComponentDrill
T4C3.000
; #@! TA.AperFunction,NonPlated,NPTH,ComponentDrill
T5C5.000
%
G90
G05
T1
X328.563Y-67.125
X328.563Y-70.125
T2
X157.638Y-30.525
X167.163Y-49.575
X168.638Y-30.525
X171.925Y-68.625
X176.688Y-30.525
X178.163Y-49.575
X181.45Y-87.675
X182.925Y-68.625
X183.832Y-106.725
X186.213Y-49.575
X187.688Y-30.525
X190.976Y-68.625
X192.45Y-87.675
X194.832Y-106.725
X195.738Y-30.525
X197.213Y-49.575
X200.501Y-87.675
X201.976Y-68.625
X205.263Y-49.575
X206.738Y-30.525
X210.026Y-68.625
X211.501Y-87.675
X214.788Y-30.525
X214.788Y-106.725
X216.263Y-49.575
X219.551Y-87.675
X221.026Y-68.625
X224.313Y-49.575
X225.788Y-30.525
X225.788Y-106.725
X229.076Y-68.625
X230.551Y-87.675
X233.838Y-30.525
X235.313Y-49.575
X236.219Y-106.725
X238.6Y-87.675
X240.076Y-68.625
X243.363Y-49.575
X244.838Y-30.525
X247.219Y-106.725
X248.126Y-68.625
X249.6Y-87.675
X252.888Y-30.525
X254.363Y-49.575
X257.651Y-87.675
X259.126Y-68.625
X260.032Y-106.725
X262.413Y-49.575
X263.888Y-30.525
X267.175Y-68.625
X268.651Y-87.675
X271.032Y-106.725
X271.938Y-30.525
X273.413Y-49.575
X278.175Y-68.625
X281.463Y-49.575
X282.938Y-30.525
X283.844Y-106.725
X292.463Y-49.575
X293.369Y-87.675
X294.844Y-106.725
X298.132Y-68.625
X300.513Y-30.525
X304.369Y-87.675
X305.275Y-49.575
X307.657Y-106.725
X309.132Y-68.625
X311.513Y-30.525
X316.275Y-49.575
X318.657Y-106.725
T3
X172.563Y-24.0
X174.063Y-113.25
X324.063Y-24.0
X324.063Y-113.25
T4
X158.138Y-34.325
X163.138Y-36.425
X167.663Y-53.375
X172.425Y-72.425
X172.663Y-55.475
X177.188Y-34.325
X177.425Y-74.525
X181.95Y-91.475
X182.188Y-36.425
X184.332Y-110.525
X186.713Y-53.375
X186.95Y-93.575
X189.332Y-112.625
X191.476Y-72.425
X191.713Y-55.475
X196.238Y-34.325
X196.476Y-74.525
X201.001Y-91.475
X201.238Y-36.425
X205.763Y-53.375
X206.001Y-93.575
X210.526Y-72.425
X210.763Y-55.475
X215.288Y-34.325
X215.526Y-74.525
X220.051Y-91.475
X220.288Y-36.425
X220.288Y-100.825
X224.813Y-53.375
X225.051Y-93.575
X225.288Y-102.925
X229.576Y-72.425
X229.813Y-55.475
X234.338Y-34.325
X234.576Y-74.525
X236.719Y-110.525
X239.1Y-91.475
X239.338Y-36.425
X241.719Y-112.625
X243.863Y-53.375
X244.1Y-93.575
X248.626Y-72.425
X248.863Y-55.475
X253.388Y-34.325
X253.626Y-74.525
X258.151Y-91.475
X258.388Y-36.425
X260.532Y-110.525
X262.913Y-53.375
X263.151Y-93.575
X265.532Y-112.625
X267.675Y-72.425
X267.913Y-55.475
X272.438Y-34.325
X272.675Y-74.525
X277.438Y-36.425
X281.963Y-53.375
X284.344Y-110.525
X286.963Y-55.475
X289.344Y-112.625
X293.869Y-91.475
X298.632Y-72.425
X298.869Y-93.575
X301.013Y-34.325
X303.632Y-74.525
X305.775Y-53.375
X306.013Y-36.425
X308.157Y-110.525
X310.775Y-55.475
X313.157Y-112.625
T5
X163.138Y-30.525
X172.663Y-49.575
X177.425Y-68.625
X182.188Y-30.525
X186.95Y-87.675
X189.332Y-106.725
X191.713Y-49.575
X196.476Y-68.625
X201.238Y-30.525
X206.001Y-87.675
X210.763Y-49.575
X215.526Y-68.625
X220.288Y-30.525
X220.288Y-106.725
X225.051Y-87.675
X229.813Y-49.575
X234.576Y-68.625
X239.338Y-30.525
X241.719Y-106.725
X244.1Y-87.675
X248.863Y-49.575
X253.626Y-68.625
X258.388Y-30.525
X263.151Y-87.675
X265.532Y-106.725
X267.913Y-49.575
X272.675Y-68.625
X277.438Y-30.525
X286.963Y-49.575
X289.344Y-106.725
X298.869Y-87.675
X303.632Y-68.625
X306.013Y-30.525
X310.775Y-49.575
X313.157Y-106.725
M30
