%TF.GenerationSoftware,KiCad,Pcbnew,9.0.6*%
%TF.CreationDate,2026-08-30T14:35:43+09:00*%
%TF.ProjectId,SplitChoc64_RIGHT,53706c69-7443-4686-9f63-36345f524947,rev?*%
%TF.SameCoordinates,Original*%
%TF.FileFunction,Soldermask,Top*%
%TF.FilePolarity,Negative*%
%FSLAX46Y46*%
G04 Gerber Fmt 4.6, Leading zero omitted, Abs format (unit mm)*
G04 Created by KiCad (PCBNEW 9.0.6) date 2026-08-30 14:35:43*
%MOMM*%
%LPD*%
G01*
G04 APERTURE LIST*
G04 Aperture macros list*
%AMRoundRect*
0 Rectangle with rounded corners*
0 $1 Rounding radius*
0 $2 $3 $4 $5 $6 $7 $8 $9 X,Y pos of 4 corners*
0 Add a 4 corners polygon primitive as box body*
4,1,4,$2,$3,$4,$5,$6,$7,$8,$9,$2,$3,0*
0 Add four circle primitives for the rounded corners*
1,1,$1+$1,$2,$3*
1,1,$1+$1,$4,$5*
1,1,$1+$1,$6,$7*
1,1,$1+$1,$8,$9*
0 Add four rect primitives between the rounded corners*
20,1,$1+$1,$2,$3,$4,$5,0*
20,1,$1+$1,$4,$5,$6,$7,0*
20,1,$1+$1,$6,$7,$8,$9,0*
20,1,$1+$1,$8,$9,$2,$3,0*%
G04 Aperture macros list end*
%ADD10RoundRect,0.160000X-0.240000X-0.290000X0.240000X-0.290000X0.240000X0.290000X-0.240000X0.290000X0*%
%ADD11C,1.701800*%
%ADD12C,3.000000*%
%ADD13C,5.000000*%
%ADD14C,2.200000*%
%ADD15RoundRect,0.160000X0.240000X0.290000X-0.240000X0.290000X-0.240000X-0.290000X0.240000X-0.290000X0*%
%ADD16C,1.400000*%
%ADD17O,4.200000X2.600000*%
%ADD18C,0.900000*%
%ADD19R,1.100000X1.100000*%
%ADD20C,1.100000*%
G04 APERTURE END LIST*
D10*
%TO.C,LEDR27*%
X243350000Y-82525000D03*
X244850000Y-82525000D03*
%TD*%
%TO.C,LEDR9*%
X171913000Y-44425000D03*
X173413000Y-44425000D03*
%TD*%
D11*
%TO.C,SWR13*%
X243363000Y-49575000D03*
D12*
X243863000Y-53375000D03*
D13*
X248863000Y-49575000D03*
D12*
X248863000Y-55475000D03*
D11*
X254363000Y-49575000D03*
%TD*%
%TO.C,SWR25*%
X200501000Y-87675000D03*
D12*
X201001000Y-91475000D03*
D13*
X206001000Y-87675000D03*
D12*
X206001000Y-93575000D03*
D11*
X211501000Y-87675000D03*
%TD*%
%TO.C,SWR19*%
X210026000Y-68625000D03*
D12*
X210526000Y-72425000D03*
D13*
X215526000Y-68625000D03*
D12*
X215526000Y-74525000D03*
D11*
X221026000Y-68625000D03*
%TD*%
D10*
%TO.C,LEDR11*%
X210013000Y-44425000D03*
X211513000Y-44425000D03*
%TD*%
D11*
%TO.C,SWR2*%
X176688000Y-30525000D03*
D12*
X177188000Y-34325000D03*
D13*
X182188000Y-30525000D03*
D12*
X182188000Y-36425000D03*
D11*
X187688000Y-30525000D03*
%TD*%
D10*
%TO.C,LEDR3*%
X200488000Y-25375000D03*
X201988000Y-25375000D03*
%TD*%
D11*
%TO.C,SWR3*%
X195738000Y-30525000D03*
D12*
X196238000Y-34325000D03*
D13*
X201238000Y-30525000D03*
D12*
X201238000Y-36425000D03*
D11*
X206738000Y-30525000D03*
%TD*%
D10*
%TO.C,LEDR19*%
X214776000Y-63475000D03*
X216276000Y-63475000D03*
%TD*%
%TO.C,LEDR12*%
X229063000Y-44425000D03*
X230563000Y-44425000D03*
%TD*%
D11*
%TO.C,SWR31*%
X225788000Y-106725000D03*
D12*
X225288000Y-102925000D03*
D13*
X220288000Y-106725000D03*
D12*
X220288000Y-100825000D03*
D11*
X214788000Y-106725000D03*
%TD*%
%TO.C,SWR17*%
X171925000Y-68625000D03*
D12*
X172425000Y-72425000D03*
D13*
X177425000Y-68625000D03*
D12*
X177425000Y-74525000D03*
D11*
X182925000Y-68625000D03*
%TD*%
D10*
%TO.C,LEDR13*%
X248113000Y-44425000D03*
X249613000Y-44425000D03*
%TD*%
D11*
%TO.C,SWR34*%
X283844000Y-106725000D03*
D12*
X284344000Y-110525000D03*
D13*
X289344000Y-106725000D03*
D12*
X289344000Y-112625000D03*
D11*
X294844000Y-106725000D03*
%TD*%
D10*
%TO.C,LEDR17*%
X176675000Y-63475000D03*
X178175000Y-63475000D03*
%TD*%
%TO.C,LEDR32*%
X240969000Y-101575000D03*
X242469000Y-101575000D03*
%TD*%
D11*
%TO.C,SWR4*%
X214788000Y-30525000D03*
D12*
X215288000Y-34325000D03*
D13*
X220288000Y-30525000D03*
D12*
X220288000Y-36425000D03*
D11*
X225788000Y-30525000D03*
%TD*%
%TO.C,SWR9*%
X167163000Y-49575000D03*
D12*
X167663000Y-53375000D03*
D13*
X172663000Y-49575000D03*
D12*
X172663000Y-55475000D03*
D11*
X178163000Y-49575000D03*
%TD*%
%TO.C,SWR28*%
X257651000Y-87675000D03*
D12*
X258151000Y-91475000D03*
D13*
X263151000Y-87675000D03*
D12*
X263151000Y-93575000D03*
D11*
X268651000Y-87675000D03*
%TD*%
D10*
%TO.C,LEDR18*%
X195726000Y-63475000D03*
X197226000Y-63475000D03*
%TD*%
%TO.C,LEDR7*%
X276688000Y-25375000D03*
X278188000Y-25375000D03*
%TD*%
%TO.C,LEDR26*%
X224301000Y-82525000D03*
X225801000Y-82525000D03*
%TD*%
D11*
%TO.C,SWR20*%
X229076000Y-68625000D03*
D12*
X229576000Y-72425000D03*
D13*
X234576000Y-68625000D03*
D12*
X234576000Y-74525000D03*
D11*
X240076000Y-68625000D03*
%TD*%
D10*
%TO.C,LEDR29*%
X298119000Y-82525000D03*
X299619000Y-82525000D03*
%TD*%
%TO.C,LEDR5*%
X238588000Y-25375000D03*
X240088000Y-25375000D03*
%TD*%
%TO.C,LEDR25*%
X205251000Y-82525000D03*
X206751000Y-82525000D03*
%TD*%
%TO.C,LEDR15*%
X286213000Y-44425000D03*
X287713000Y-44425000D03*
%TD*%
D11*
%TO.C,SWR29*%
X293369000Y-87675000D03*
D12*
X293869000Y-91475000D03*
D13*
X298869000Y-87675000D03*
D12*
X298869000Y-93575000D03*
D11*
X304369000Y-87675000D03*
%TD*%
D10*
%TO.C,LEDR23*%
X302882000Y-63475000D03*
X304382000Y-63475000D03*
%TD*%
%TO.C,LEDR22*%
X271925000Y-63475000D03*
X273425000Y-63475000D03*
%TD*%
D11*
%TO.C,SWR8*%
X300513000Y-30525000D03*
D12*
X301013000Y-34325000D03*
D13*
X306013000Y-30525000D03*
D12*
X306013000Y-36425000D03*
D11*
X311513000Y-30525000D03*
%TD*%
D10*
%TO.C,LEDR35*%
X312407000Y-101575000D03*
X313907000Y-101575000D03*
%TD*%
D11*
%TO.C,SWR23*%
X298132000Y-68625000D03*
D12*
X298632000Y-72425000D03*
D13*
X303632000Y-68625000D03*
D12*
X303632000Y-74525000D03*
D11*
X309132000Y-68625000D03*
%TD*%
%TO.C,SWR33*%
X260032000Y-106725000D03*
D12*
X260532000Y-110525000D03*
D13*
X265532000Y-106725000D03*
D12*
X265532000Y-112625000D03*
D11*
X271032000Y-106725000D03*
%TD*%
D10*
%TO.C,LEDR8*%
X305263000Y-25375000D03*
X306763000Y-25375000D03*
%TD*%
D14*
%TO.C,R_H3*%
X324063000Y-24000000D03*
%TD*%
D11*
%TO.C,SWR1*%
X157638000Y-30525000D03*
D12*
X158138000Y-34325000D03*
D13*
X163138000Y-30525000D03*
D12*
X163138000Y-36425000D03*
D11*
X168638000Y-30525000D03*
%TD*%
D14*
%TO.C,R_H4*%
X324063000Y-113250000D03*
%TD*%
D10*
%TO.C,LEDR10*%
X190963000Y-44425000D03*
X192463000Y-44425000D03*
%TD*%
D11*
%TO.C,SWR35*%
X307657000Y-106725000D03*
D12*
X308157000Y-110525000D03*
D13*
X313157000Y-106725000D03*
D12*
X313157000Y-112625000D03*
D11*
X318657000Y-106725000D03*
%TD*%
%TO.C,SWR15*%
X281463000Y-49575000D03*
D12*
X281963000Y-53375000D03*
D13*
X286963000Y-49575000D03*
D12*
X286963000Y-55475000D03*
D11*
X292463000Y-49575000D03*
%TD*%
%TO.C,SWR21*%
X248126000Y-68625000D03*
D12*
X248626000Y-72425000D03*
D13*
X253626000Y-68625000D03*
D12*
X253626000Y-74525000D03*
D11*
X259126000Y-68625000D03*
%TD*%
D10*
%TO.C,LEDR16*%
X310025000Y-44425000D03*
X311525000Y-44425000D03*
%TD*%
D11*
%TO.C,SWR12*%
X224313000Y-49575000D03*
D12*
X224813000Y-53375000D03*
D13*
X229813000Y-49575000D03*
D12*
X229813000Y-55475000D03*
D11*
X235313000Y-49575000D03*
%TD*%
%TO.C,SWR18*%
X190976000Y-68625000D03*
D12*
X191476000Y-72425000D03*
D13*
X196476000Y-68625000D03*
D12*
X196476000Y-74525000D03*
D11*
X201976000Y-68625000D03*
%TD*%
D10*
%TO.C,LEDR20*%
X233826000Y-63475000D03*
X235326000Y-63475000D03*
%TD*%
%TO.C,LEDR33*%
X264782000Y-101575000D03*
X266282000Y-101575000D03*
%TD*%
%TO.C,LEDR30*%
X188582000Y-101575000D03*
X190082000Y-101575000D03*
%TD*%
D11*
%TO.C,SWR22*%
X267175000Y-68625000D03*
D12*
X267675000Y-72425000D03*
D13*
X272675000Y-68625000D03*
D12*
X272675000Y-74525000D03*
D11*
X278175000Y-68625000D03*
%TD*%
D10*
%TO.C,LEDR4*%
X219538000Y-25375000D03*
X221038000Y-25375000D03*
%TD*%
D11*
%TO.C,SWR5*%
X233838000Y-30525000D03*
D12*
X234338000Y-34325000D03*
D13*
X239338000Y-30525000D03*
D12*
X239338000Y-36425000D03*
D11*
X244838000Y-30525000D03*
%TD*%
%TO.C,SWR6*%
X252888000Y-30525000D03*
D12*
X253388000Y-34325000D03*
D13*
X258388000Y-30525000D03*
D12*
X258388000Y-36425000D03*
D11*
X263888000Y-30525000D03*
%TD*%
D15*
%TO.C,LEDR31*%
X221038000Y-111875000D03*
X219538000Y-111875000D03*
%TD*%
D14*
%TO.C,R_H2*%
X174063000Y-113250000D03*
%TD*%
D10*
%TO.C,LEDR14*%
X267163000Y-44425000D03*
X268663000Y-44425000D03*
%TD*%
D11*
%TO.C,SWR30*%
X183832000Y-106725000D03*
D12*
X184332000Y-110525000D03*
D13*
X189332000Y-106725000D03*
D12*
X189332000Y-112625000D03*
D11*
X194832000Y-106725000D03*
%TD*%
%TO.C,SWR27*%
X238600000Y-87675000D03*
D12*
X239100000Y-91475000D03*
D13*
X244100000Y-87675000D03*
D12*
X244100000Y-93575000D03*
D11*
X249600000Y-87675000D03*
%TD*%
D10*
%TO.C,LEDR2*%
X181438000Y-25375000D03*
X182938000Y-25375000D03*
%TD*%
%TO.C,LEDR28*%
X262401000Y-82525000D03*
X263901000Y-82525000D03*
%TD*%
%TO.C,LEDR1*%
X162388000Y-25375000D03*
X163888000Y-25375000D03*
%TD*%
D11*
%TO.C,SWR32*%
X236219000Y-106725000D03*
D12*
X236719000Y-110525000D03*
D13*
X241719000Y-106725000D03*
D12*
X241719000Y-112625000D03*
D11*
X247219000Y-106725000D03*
%TD*%
D10*
%TO.C,LEDR6*%
X257638000Y-25375000D03*
X259138000Y-25375000D03*
%TD*%
D11*
%TO.C,SWR16*%
X305275000Y-49575000D03*
D12*
X305775000Y-53375000D03*
D13*
X310775000Y-49575000D03*
D12*
X310775000Y-55475000D03*
D11*
X316275000Y-49575000D03*
%TD*%
%TO.C,SWR24*%
X181450000Y-87675000D03*
D12*
X181950000Y-91475000D03*
D13*
X186950000Y-87675000D03*
D12*
X186950000Y-93575000D03*
D11*
X192450000Y-87675000D03*
%TD*%
%TO.C,SWR11*%
X205263000Y-49575000D03*
D12*
X205763000Y-53375000D03*
D13*
X210763000Y-49575000D03*
D12*
X210763000Y-55475000D03*
D11*
X216263000Y-49575000D03*
%TD*%
%TO.C,SWR10*%
X186213000Y-49575000D03*
D12*
X186713000Y-53375000D03*
D13*
X191713000Y-49575000D03*
D12*
X191713000Y-55475000D03*
D11*
X197213000Y-49575000D03*
%TD*%
D14*
%TO.C,R_H1*%
X172563000Y-24000000D03*
%TD*%
D11*
%TO.C,SWR26*%
X219551000Y-87675000D03*
D12*
X220051000Y-91475000D03*
D13*
X225051000Y-87675000D03*
D12*
X225051000Y-93575000D03*
D11*
X230551000Y-87675000D03*
%TD*%
%TO.C,SWR14*%
X262413000Y-49575000D03*
D12*
X262913000Y-53375000D03*
D13*
X267913000Y-49575000D03*
D12*
X267913000Y-55475000D03*
D11*
X273413000Y-49575000D03*
%TD*%
D10*
%TO.C,LEDR34*%
X288594000Y-101575000D03*
X290094000Y-101575000D03*
%TD*%
%TO.C,LEDR24*%
X186200000Y-82525000D03*
X187700000Y-82525000D03*
%TD*%
%TO.C,LEDR21*%
X252876000Y-63475000D03*
X254376000Y-63475000D03*
%TD*%
D11*
%TO.C,SWR7*%
X271938000Y-30525000D03*
D12*
X272438000Y-34325000D03*
D13*
X277438000Y-30525000D03*
D12*
X277438000Y-36425000D03*
D11*
X282938000Y-30525000D03*
%TD*%
D16*
%TO.C,U2*%
X327433000Y-95295000D03*
X324893000Y-95295000D03*
X322353000Y-95295000D03*
X319813000Y-95295000D03*
X317273000Y-95295000D03*
X314733000Y-95295000D03*
X312193000Y-95295000D03*
X312193000Y-80055000D03*
X314733000Y-80055000D03*
X317273000Y-80055000D03*
X319813000Y-80055000D03*
X322353000Y-80055000D03*
X324893000Y-80055000D03*
X327433000Y-80055000D03*
D17*
X314295180Y-89268988D03*
X314295180Y-86068990D03*
%TD*%
D18*
%TO.C,SWP2*%
X328563000Y-67125000D03*
X328563000Y-70125000D03*
%TD*%
D19*
%TO.C,J4*%
X183803000Y-116000000D03*
D20*
X185073000Y-116000000D03*
X186343000Y-116000000D03*
X187613000Y-116000000D03*
X188883000Y-116000000D03*
X190153000Y-116000000D03*
%TD*%
M02*
