%TF.GenerationSoftware,KiCad,Pcbnew,9.0.6*%
%TF.CreationDate,2026-08-30T14:35:43+09:00*%
%TF.ProjectId,SplitChoc64_RIGHT,53706c69-7443-4686-9f63-36345f524947,rev?*%
%TF.SameCoordinates,Original*%
%TF.FileFunction,Copper,L1,Top*%
%TF.FilePolarity,Positive*%
%FSLAX46Y46*%
G04 Gerber Fmt 4.6, Leading zero omitted, Abs format (unit mm)*
G04 Created by KiCad (PCBNEW 9.0.6) date 2026-08-30 14:35:43*
%MOMM*%
%LPD*%
G01*
G04 APERTURE LIST*
G04 Aperture macros list*
%AMRoundRect*
0 Rectangle with rounded corners*
0 $1 Rounding radius*
0 $2 $3 $4 $5 $6 $7 $8 $9 X,Y pos of 4 corners*
0 Add a 4 corners polygon primitive as box body*
4,1,4,$2,$3,$4,$5,$6,$7,$8,$9,$2,$3,0*
0 Add four circle primitives for the rounded corners*
1,1,$1+$1,$2,$3*
1,1,$1+$1,$4,$5*
1,1,$1+$1,$6,$7*
1,1,$1+$1,$8,$9*
0 Add four rect primitives between the rounded corners*
20,1,$1+$1,$2,$3,$4,$5,0*
20,1,$1+$1,$4,$5,$6,$7,0*
20,1,$1+$1,$6,$7,$8,$9,0*
20,1,$1+$1,$8,$9,$2,$3,0*%
G04 Aperture macros list end*
%TA.AperFunction,SMDPad,CuDef*%
%ADD10RoundRect,0.160000X-0.240000X-0.290000X0.240000X-0.290000X0.240000X0.290000X-0.240000X0.290000X0*%
%TD*%
%TA.AperFunction,ComponentPad*%
%ADD11C,1.650000*%
%TD*%
%TA.AperFunction,SMDPad,CuDef*%
%ADD12RoundRect,0.160000X0.240000X0.290000X-0.240000X0.290000X-0.240000X-0.290000X0.240000X-0.290000X0*%
%TD*%
%TA.AperFunction,ComponentPad*%
%ADD13C,1.400000*%
%TD*%
%TA.AperFunction,ComponentPad*%
%ADD14O,4.200000X2.600000*%
%TD*%
%TA.AperFunction,ComponentPad*%
%ADD15R,1.100000X1.100000*%
%TD*%
%TA.AperFunction,ComponentPad*%
%ADD16C,1.100000*%
%TD*%
%TA.AperFunction,ViaPad*%
%ADD17C,0.450000*%
%TD*%
%TA.AperFunction,Conductor*%
%ADD18C,0.150000*%
%TD*%
G04 APERTURE END LIST*
D10*
%TO.P,LEDR27,1*%
%TO.N,R_BL_LED_RETURN*%
X243350000Y-82525000D03*
%TO.P,LEDR27,2*%
%TO.N,R_BL_LED_A27*%
X244850000Y-82525000D03*
%TD*%
%TO.P,LEDR9,1*%
%TO.N,R_BL_LED_RETURN*%
X171913000Y-44425000D03*
%TO.P,LEDR9,2*%
%TO.N,R_BL_LED_A9*%
X173413000Y-44425000D03*
%TD*%
D11*
%TO.P,SWR13,*%
%TO.N,*%
X253863000Y-44425000D03*
%TD*%
%TO.P,SWR25,*%
%TO.N,*%
X211001000Y-82525000D03*
%TD*%
%TO.P,SWR19,*%
%TO.N,*%
X220526000Y-63475000D03*
%TD*%
D10*
%TO.P,LEDR11,1*%
%TO.N,R_BL_LED_RETURN*%
X210013000Y-44425000D03*
%TO.P,LEDR11,2*%
%TO.N,R_BL_LED_A11*%
X211513000Y-44425000D03*
%TD*%
D11*
%TO.P,SWR2,*%
%TO.N,*%
X187188000Y-25375000D03*
%TD*%
D10*
%TO.P,LEDR3,1*%
%TO.N,R_BL_LED_RETURN*%
X200488000Y-25375000D03*
%TO.P,LEDR3,2*%
%TO.N,R_BL_LED_A3*%
X201988000Y-25375000D03*
%TD*%
D11*
%TO.P,SWR3,*%
%TO.N,*%
X206238000Y-25375000D03*
%TD*%
D10*
%TO.P,LEDR19,1*%
%TO.N,R_BL_LED_RETURN*%
X214776000Y-63475000D03*
%TO.P,LEDR19,2*%
%TO.N,R_BL_LED_A19*%
X216276000Y-63475000D03*
%TD*%
%TO.P,LEDR12,1*%
%TO.N,R_BL_LED_RETURN*%
X229063000Y-44425000D03*
%TO.P,LEDR12,2*%
%TO.N,R_BL_LED_A12*%
X230563000Y-44425000D03*
%TD*%
D11*
%TO.P,SWR31,*%
%TO.N,*%
X215288000Y-111875000D03*
%TD*%
%TO.P,SWR17,*%
%TO.N,*%
X182425000Y-63475000D03*
%TD*%
D10*
%TO.P,LEDR13,1*%
%TO.N,R_BL_LED_RETURN*%
X248113000Y-44425000D03*
%TO.P,LEDR13,2*%
%TO.N,R_BL_LED_A13*%
X249613000Y-44425000D03*
%TD*%
D11*
%TO.P,SWR34,*%
%TO.N,*%
X294344000Y-101575000D03*
%TD*%
D10*
%TO.P,LEDR17,1*%
%TO.N,R_BL_LED_RETURN*%
X176675000Y-63475000D03*
%TO.P,LEDR17,2*%
%TO.N,R_BL_LED_A17*%
X178175000Y-63475000D03*
%TD*%
%TO.P,LEDR32,1*%
%TO.N,R_BL_LED_RETURN*%
X240969000Y-101575000D03*
%TO.P,LEDR32,2*%
%TO.N,R_BL_LED_A32*%
X242469000Y-101575000D03*
%TD*%
D11*
%TO.P,SWR4,*%
%TO.N,*%
X225288000Y-25375000D03*
%TD*%
%TO.P,SWR9,*%
%TO.N,*%
X177663000Y-44425000D03*
%TD*%
%TO.P,SWR28,*%
%TO.N,*%
X268151000Y-82525000D03*
%TD*%
D10*
%TO.P,LEDR18,1*%
%TO.N,R_BL_LED_RETURN*%
X195726000Y-63475000D03*
%TO.P,LEDR18,2*%
%TO.N,R_BL_LED_A18*%
X197226000Y-63475000D03*
%TD*%
%TO.P,LEDR7,1*%
%TO.N,R_BL_LED_RETURN*%
X276688000Y-25375000D03*
%TO.P,LEDR7,2*%
%TO.N,R_BL_LED_A7*%
X278188000Y-25375000D03*
%TD*%
%TO.P,LEDR26,1*%
%TO.N,R_BL_LED_RETURN*%
X224301000Y-82525000D03*
%TO.P,LEDR26,2*%
%TO.N,R_BL_LED_A26*%
X225801000Y-82525000D03*
%TD*%
D11*
%TO.P,SWR20,*%
%TO.N,*%
X239576000Y-63475000D03*
%TD*%
D10*
%TO.P,LEDR29,1*%
%TO.N,R_BL_LED_RETURN*%
X298119000Y-82525000D03*
%TO.P,LEDR29,2*%
%TO.N,R_BL_LED_A29*%
X299619000Y-82525000D03*
%TD*%
%TO.P,LEDR5,1*%
%TO.N,R_BL_LED_RETURN*%
X238588000Y-25375000D03*
%TO.P,LEDR5,2*%
%TO.N,R_BL_LED_A5*%
X240088000Y-25375000D03*
%TD*%
%TO.P,LEDR25,1*%
%TO.N,R_BL_LED_RETURN*%
X205251000Y-82525000D03*
%TO.P,LEDR25,2*%
%TO.N,R_BL_LED_A25*%
X206751000Y-82525000D03*
%TD*%
%TO.P,LEDR15,1*%
%TO.N,R_BL_LED_RETURN*%
X286213000Y-44425000D03*
%TO.P,LEDR15,2*%
%TO.N,R_BL_LED_A15*%
X287713000Y-44425000D03*
%TD*%
D11*
%TO.P,SWR29,*%
%TO.N,*%
X303869000Y-82525000D03*
%TD*%
D10*
%TO.P,LEDR23,1*%
%TO.N,R_BL_LED_RETURN*%
X302882000Y-63475000D03*
%TO.P,LEDR23,2*%
%TO.N,R_BL_LED_A23*%
X304382000Y-63475000D03*
%TD*%
%TO.P,LEDR22,1*%
%TO.N,R_BL_LED_RETURN*%
X271925000Y-63475000D03*
%TO.P,LEDR22,2*%
%TO.N,R_BL_LED_A22*%
X273425000Y-63475000D03*
%TD*%
D11*
%TO.P,SWR8,*%
%TO.N,*%
X311013000Y-25375000D03*
%TD*%
D10*
%TO.P,LEDR35,1*%
%TO.N,R_BL_LED_RETURN*%
X312407000Y-101575000D03*
%TO.P,LEDR35,2*%
%TO.N,R_BL_LED_A35*%
X313907000Y-101575000D03*
%TD*%
D11*
%TO.P,SWR23,*%
%TO.N,*%
X308632000Y-63475000D03*
%TD*%
%TO.P,SWR33,*%
%TO.N,*%
X270532000Y-101575000D03*
%TD*%
D10*
%TO.P,LEDR8,1*%
%TO.N,R_BL_LED_RETURN*%
X305263000Y-25375000D03*
%TO.P,LEDR8,2*%
%TO.N,R_BL_LED_A8*%
X306763000Y-25375000D03*
%TD*%
D11*
%TO.P,SWR1,*%
%TO.N,*%
X168138000Y-25375000D03*
%TD*%
D10*
%TO.P,LEDR10,1*%
%TO.N,R_BL_LED_RETURN*%
X190963000Y-44425000D03*
%TO.P,LEDR10,2*%
%TO.N,R_BL_LED_A10*%
X192463000Y-44425000D03*
%TD*%
D11*
%TO.P,SWR35,*%
%TO.N,*%
X318157000Y-101575000D03*
%TD*%
%TO.P,SWR15,*%
%TO.N,*%
X291963000Y-44425000D03*
%TD*%
%TO.P,SWR21,*%
%TO.N,*%
X258626000Y-63475000D03*
%TD*%
D10*
%TO.P,LEDR16,1*%
%TO.N,R_BL_LED_RETURN*%
X310025000Y-44425000D03*
%TO.P,LEDR16,2*%
%TO.N,R_BL_LED_A16*%
X311525000Y-44425000D03*
%TD*%
D11*
%TO.P,SWR12,*%
%TO.N,*%
X234813000Y-44425000D03*
%TD*%
%TO.P,SWR18,*%
%TO.N,*%
X201476000Y-63475000D03*
%TD*%
D10*
%TO.P,LEDR20,1*%
%TO.N,R_BL_LED_RETURN*%
X233826000Y-63475000D03*
%TO.P,LEDR20,2*%
%TO.N,R_BL_LED_A20*%
X235326000Y-63475000D03*
%TD*%
%TO.P,LEDR33,1*%
%TO.N,R_BL_LED_RETURN*%
X264782000Y-101575000D03*
%TO.P,LEDR33,2*%
%TO.N,R_BL_LED_A33*%
X266282000Y-101575000D03*
%TD*%
%TO.P,LEDR30,1*%
%TO.N,R_BL_LED_RETURN*%
X188582000Y-101575000D03*
%TO.P,LEDR30,2*%
%TO.N,R_BL_LED_A30*%
X190082000Y-101575000D03*
%TD*%
D11*
%TO.P,SWR22,*%
%TO.N,*%
X277675000Y-63475000D03*
%TD*%
D10*
%TO.P,LEDR4,1*%
%TO.N,R_BL_LED_RETURN*%
X219538000Y-25375000D03*
%TO.P,LEDR4,2*%
%TO.N,R_BL_LED_A4*%
X221038000Y-25375000D03*
%TD*%
D11*
%TO.P,SWR5,*%
%TO.N,*%
X244338000Y-25375000D03*
%TD*%
%TO.P,SWR6,*%
%TO.N,*%
X263388000Y-25375000D03*
%TD*%
D12*
%TO.P,LEDR31,1*%
%TO.N,R_BL_LED_RETURN*%
X221038000Y-111875000D03*
%TO.P,LEDR31,2*%
%TO.N,R_BL_LED_A31*%
X219538000Y-111875000D03*
%TD*%
D10*
%TO.P,LEDR14,1*%
%TO.N,R_BL_LED_RETURN*%
X267163000Y-44425000D03*
%TO.P,LEDR14,2*%
%TO.N,R_BL_LED_A14*%
X268663000Y-44425000D03*
%TD*%
D11*
%TO.P,SWR30,*%
%TO.N,*%
X194332000Y-101575000D03*
%TD*%
%TO.P,SWR27,*%
%TO.N,*%
X249100000Y-82525000D03*
%TD*%
D10*
%TO.P,LEDR2,1*%
%TO.N,R_BL_LED_RETURN*%
X181438000Y-25375000D03*
%TO.P,LEDR2,2*%
%TO.N,R_BL_LED_A2*%
X182938000Y-25375000D03*
%TD*%
%TO.P,LEDR28,1*%
%TO.N,R_BL_LED_RETURN*%
X262401000Y-82525000D03*
%TO.P,LEDR28,2*%
%TO.N,R_BL_LED_A28*%
X263901000Y-82525000D03*
%TD*%
%TO.P,LEDR1,1*%
%TO.N,R_BL_LED_RETURN*%
X162388000Y-25375000D03*
%TO.P,LEDR1,2*%
%TO.N,R_BL_LED_A1*%
X163888000Y-25375000D03*
%TD*%
D11*
%TO.P,SWR32,*%
%TO.N,*%
X246719000Y-101575000D03*
%TD*%
D10*
%TO.P,LEDR6,1*%
%TO.N,R_BL_LED_RETURN*%
X257638000Y-25375000D03*
%TO.P,LEDR6,2*%
%TO.N,R_BL_LED_A6*%
X259138000Y-25375000D03*
%TD*%
D11*
%TO.P,SWR16,*%
%TO.N,*%
X315775000Y-44425000D03*
%TD*%
%TO.P,SWR24,*%
%TO.N,*%
X191950000Y-82525000D03*
%TD*%
%TO.P,SWR11,*%
%TO.N,*%
X215763000Y-44425000D03*
%TD*%
%TO.P,SWR10,*%
%TO.N,*%
X196713000Y-44425000D03*
%TD*%
%TO.P,SWR26,*%
%TO.N,*%
X230051000Y-82525000D03*
%TD*%
%TO.P,SWR14,*%
%TO.N,*%
X272913000Y-44425000D03*
%TD*%
D10*
%TO.P,LEDR34,1*%
%TO.N,R_BL_LED_RETURN*%
X288594000Y-101575000D03*
%TO.P,LEDR34,2*%
%TO.N,R_BL_LED_A34*%
X290094000Y-101575000D03*
%TD*%
%TO.P,LEDR24,1*%
%TO.N,R_BL_LED_RETURN*%
X186200000Y-82525000D03*
%TO.P,LEDR24,2*%
%TO.N,R_BL_LED_A24*%
X187700000Y-82525000D03*
%TD*%
%TO.P,LEDR21,1*%
%TO.N,R_BL_LED_RETURN*%
X252876000Y-63475000D03*
%TO.P,LEDR21,2*%
%TO.N,R_BL_LED_A21*%
X254376000Y-63475000D03*
%TD*%
D11*
%TO.P,SWR7,*%
%TO.N,*%
X282438000Y-25375000D03*
%TD*%
D13*
%TO.P,U2,1*%
%TO.N,R_EXT_A*%
X327433000Y-95295000D03*
%TO.P,U2,2*%
%TO.N,R_EXT_B*%
X324893000Y-95295000D03*
%TO.P,U2,3*%
%TO.N,R_BL_PWM*%
X322353000Y-95295000D03*
%TO.P,U2,4*%
%TO.N,R_ROW0*%
X319813000Y-95295000D03*
%TO.P,U2,5*%
%TO.N,R_EXT_SDA*%
X317273000Y-95295000D03*
%TO.P,U2,6*%
%TO.N,R_EXT_SCL*%
X314733000Y-95295000D03*
%TO.P,U2,7*%
%TO.N,R_ROW1*%
X312193000Y-95295000D03*
%TO.P,U2,8*%
%TO.N,R_ROW2*%
X312193000Y-80055000D03*
%TO.P,U2,9*%
%TO.N,R_ROW3*%
X314733000Y-80055000D03*
%TO.P,U2,10*%
%TO.N,R_ROW4*%
X317273000Y-80055000D03*
%TO.P,U2,11*%
%TO.N,R_COL0*%
X319813000Y-80055000D03*
%TO.P,U2,12*%
%TO.N,R_3V3*%
X322353000Y-80055000D03*
%TO.P,U2,13*%
%TO.N,R_GND*%
X324893000Y-80055000D03*
%TO.P,U2,14*%
%TO.N,N/C*%
X327433000Y-80055000D03*
D14*
%TO.P,U2,32*%
%TO.N,R_BAT_SW*%
X314295180Y-89268988D03*
%TO.P,U2,33*%
%TO.N,R_GND*%
X314295180Y-86068990D03*
%TD*%
D15*
%TO.P,J4,1*%
%TO.N,R_GND*%
X183803000Y-116000000D03*
D16*
%TO.P,J4,2*%
%TO.N,R_EXT_A*%
X185073000Y-116000000D03*
%TO.P,J4,3*%
%TO.N,R_EXT_B*%
X186343000Y-116000000D03*
%TO.P,J4,4*%
%TO.N,R_EXT_SDA*%
X187613000Y-116000000D03*
%TO.P,J4,5*%
%TO.N,R_EXT_SCL*%
X188883000Y-116000000D03*
%TO.P,J4,6*%
%TO.N,R_3V3*%
X190153000Y-116000000D03*
%TD*%
D17*
%TO.N,R_ROW0*%
X187300500Y-34359700D03*
X226265500Y-38702500D03*
X243054800Y-38702500D03*
X309689300Y-38685700D03*
X205878500Y-38702500D03*
X280756700Y-34735400D03*
X261322100Y-34232900D03*
%TO.N,R_ROW1*%
X211709300Y-58707200D03*
X314475000Y-58707200D03*
X230280800Y-58707200D03*
X196519600Y-58707200D03*
X293895200Y-58707200D03*
X252563000Y-58707200D03*
%TO.N,R_ROW2*%
X200737500Y-76459200D03*
X217291800Y-76459200D03*
X236341800Y-76459200D03*
%TO.N,R_ROW3*%
X302128700Y-90729600D03*
X229306800Y-95659700D03*
X247273200Y-95659700D03*
X267064300Y-91894600D03*
%TO.N,R_ROW4*%
X193929300Y-110346500D03*
X313146600Y-99194000D03*
X215641000Y-103418200D03*
X314405100Y-99894000D03*
%TO.N,R_COL0*%
X181200000Y-81030700D03*
%TO.N,R_COL1*%
X321766900Y-97968600D03*
X214892900Y-101388700D03*
%TO.N,R_COL2*%
X236601700Y-98742200D03*
X322903700Y-98439300D03*
%TO.N,R_COL3*%
X320440900Y-97686200D03*
X260604300Y-97686200D03*
%TO.N,R_COL4*%
X246558900Y-84981000D03*
X255883300Y-84981000D03*
%TO.N,R_COL5*%
X268302200Y-65742100D03*
X292920100Y-78538700D03*
%TO.N,R_GND*%
X209845300Y-96329400D03*
X275899100Y-96329300D03*
%TO.N,R_BAT_RAW*%
X284181100Y-76725400D03*
X324366600Y-74780100D03*
%TO.N,R_EXT_A*%
X211056500Y-96781500D03*
%TO.N,R_EXT_SDA*%
X214541800Y-97535400D03*
%TO.N,R_EXT_SCL*%
X212326500Y-97754900D03*
X203800000Y-115200000D03*
%TO.N,R_3V3*%
X192092700Y-109438800D03*
X302267400Y-83576700D03*
X201366500Y-113606600D03*
X200800000Y-78600000D03*
X314909800Y-77920300D03*
X201366500Y-116245000D03*
X202200000Y-78600000D03*
%TO.N,R_BAT_SW*%
X326103300Y-87675000D03*
%TO.N,R_LED_CTRL*%
X320088400Y-77127000D03*
X324362900Y-75768400D03*
%TO.N,R_BL_LED_RETURN*%
X205041800Y-64526700D03*
X203478100Y-45478500D03*
X282829300Y-81472900D03*
X282729500Y-100051900D03*
X205035700Y-81480900D03*
X324600000Y-64600000D03*
%TO.N,R_BL_LED_A1*%
X164906500Y-25654700D03*
%TO.N,R_BL_LED_A2*%
X185458300Y-25654700D03*
%TO.N,R_BL_LED_A3*%
X202857700Y-25143500D03*
%TO.N,R_BL_LED_A4*%
X222059300Y-25665200D03*
%TO.N,R_BL_LED_A5*%
X241100800Y-25654700D03*
%TO.N,R_BL_LED_A6*%
X260119000Y-25654700D03*
%TO.N,R_BL_LED_A7*%
X279042100Y-25142300D03*
%TO.N,R_BL_LED_A8*%
X307775800Y-25654700D03*
%TO.N,R_BL_LED_A9*%
X174567800Y-44154300D03*
%TO.N,R_BL_LED_A10*%
X193394000Y-43910200D03*
%TO.N,R_BL_LED_A11*%
X212367100Y-44226400D03*
%TO.N,R_BL_LED_A12*%
X231444000Y-44226400D03*
%TO.N,R_BL_LED_A13*%
X249798700Y-43587300D03*
%TO.N,R_BL_LED_A14*%
X269594000Y-44226400D03*
%TO.N,R_BL_LED_A15*%
X287919900Y-43369900D03*
%TO.N,R_BL_LED_A16*%
X312379300Y-44583000D03*
%TO.N,R_BL_LED_A17*%
X179029300Y-63667200D03*
%TO.N,R_BL_LED_A18*%
X198175500Y-63667200D03*
%TO.N,R_BL_LED_A19*%
X216791500Y-62698000D03*
%TO.N,R_BL_LED_A20*%
X236225500Y-63489600D03*
%TO.N,R_BL_LED_A21*%
X255428000Y-63358100D03*
%TO.N,R_BL_LED_A22*%
X274436500Y-63115400D03*
%TO.N,R_BL_LED_A23*%
X305253500Y-63667200D03*
%TO.N,R_BL_LED_A24*%
X188848700Y-83049100D03*
%TO.N,R_BL_LED_A25*%
X207738000Y-82945700D03*
%TO.N,R_BL_LED_A26*%
X226763000Y-82566100D03*
%TO.N,R_BL_LED_A27*%
X245687500Y-82362800D03*
%TO.N,R_BL_LED_A28*%
X264913000Y-83149100D03*
%TO.N,R_BL_LED_A29*%
X300472000Y-82566100D03*
%TO.N,R_BL_LED_A30*%
X191059900Y-101207300D03*
%TO.N,R_BL_LED_A31*%
X218506600Y-111733100D03*
%TO.N,R_BL_LED_A32*%
X243402600Y-101801900D03*
%TO.N,R_BL_LED_A33*%
X267203500Y-101446900D03*
%TO.N,R_BL_LED_A34*%
X291066200Y-100776500D03*
%TO.N,R_BL_LED_A35*%
X314418100Y-100768400D03*
%TD*%
D18*
%TO.N,R_ROW0*%
X243054800Y-38702500D02*
X226265500Y-38702500D01*
X205878500Y-38702500D02*
X191643300Y-38702500D01*
X256674800Y-34232900D02*
X261322100Y-34232900D01*
X309689300Y-38685700D02*
X284707000Y-38685700D01*
X191643300Y-38702500D02*
X187300500Y-34359700D01*
X226265500Y-38702500D02*
X205878500Y-38702500D01*
X243054800Y-38702500D02*
X252205200Y-38702500D01*
X284707000Y-38685700D02*
X280756700Y-34735400D01*
X252205200Y-38702500D02*
X256674800Y-34232900D01*
%TO.N,R_ROW1*%
X211709300Y-58707200D02*
X196519600Y-58707200D01*
X230280800Y-58707200D02*
X252563000Y-58707200D01*
X293895200Y-58707200D02*
X314475000Y-58707200D01*
X211709300Y-58707200D02*
X230280800Y-58707200D01*
%TO.N,R_ROW2*%
X217291800Y-76459200D02*
X236341800Y-76459200D01*
X200737500Y-76459200D02*
X217291800Y-76459200D01*
%TO.N,R_ROW3*%
X247273200Y-95659700D02*
X229306800Y-95659700D01*
X294613400Y-93455400D02*
X268625100Y-93455400D01*
X302128700Y-90729600D02*
X297339200Y-90729600D01*
X297339200Y-90729600D02*
X294613400Y-93455400D01*
X268625100Y-93455400D02*
X267064300Y-91894600D01*
%TO.N,R_ROW4*%
X313146600Y-99194000D02*
X313705100Y-99194000D01*
X200857600Y-103418200D02*
X193929300Y-110346500D01*
X215641000Y-103418200D02*
X200857600Y-103418200D01*
X313705100Y-99194000D02*
X314405100Y-99894000D01*
%TO.N,R_COL0*%
X319813000Y-80055000D02*
X318848800Y-81019200D01*
X181211500Y-81019200D02*
X181200000Y-81030700D01*
X318848800Y-81019200D02*
X181211500Y-81019200D01*
%TO.N,R_COL1*%
X260418200Y-98138800D02*
X321596700Y-98138800D01*
X321596700Y-98138800D02*
X321766900Y-97968600D01*
X214892900Y-101388700D02*
X218293700Y-97987900D01*
X218293700Y-97987900D02*
X260267300Y-97987900D01*
X260267300Y-97987900D02*
X260418200Y-98138800D01*
%TO.N,R_COL2*%
X322903700Y-98439300D02*
X322600800Y-98742200D01*
X322600800Y-98742200D02*
X236601700Y-98742200D01*
%TO.N,R_COL3*%
X260604300Y-97686200D02*
X320440900Y-97686200D01*
%TO.N,R_COL4*%
X246558900Y-84981000D02*
X255883300Y-84981000D01*
%TO.N,R_COL5*%
X273329000Y-71629000D02*
X280238700Y-78538700D01*
X271500100Y-71629000D02*
X273329000Y-71629000D01*
X268302200Y-65742100D02*
X268770700Y-66210600D01*
X268770700Y-66210600D02*
X268770700Y-68899600D01*
X280238700Y-78538700D02*
X292920100Y-78538700D01*
X268770700Y-68899600D02*
X271500100Y-71629000D01*
%TO.N,R_GND*%
X275899100Y-96329400D02*
X275899100Y-96329300D01*
X209845300Y-96329400D02*
X275899100Y-96329400D01*
X314295200Y-86069000D02*
X311968500Y-86069000D01*
X314295200Y-86069000D02*
X318879000Y-86069000D01*
X306856200Y-91181300D02*
X311968500Y-86069000D01*
X275899100Y-96329300D02*
X292213600Y-96329300D01*
X318879000Y-86069000D02*
X324893000Y-80055000D01*
X292213600Y-96329300D02*
X297361600Y-91181300D01*
X297361600Y-91181300D02*
X306856200Y-91181300D01*
%TO.N,R_BAT_RAW*%
X284181100Y-76725400D02*
X284231200Y-76675300D01*
X322471400Y-76675300D02*
X324366600Y-74780100D01*
X284231200Y-76675300D02*
X322471400Y-76675300D01*
%TO.N,R_EXT_A*%
X211206900Y-96631100D02*
X211056500Y-96781500D01*
X300847500Y-94321300D02*
X298387700Y-96781100D01*
X261041400Y-96631100D02*
X211206900Y-96631100D01*
X298387700Y-96781100D02*
X261191400Y-96781100D01*
X326459300Y-94321300D02*
X300847500Y-94321300D01*
X261191400Y-96781100D02*
X261041400Y-96631100D01*
X327433000Y-95295000D02*
X326459300Y-94321300D01*
%TO.N,R_EXT_B*%
X226464900Y-98289600D02*
X260142300Y-98289600D01*
X187747700Y-114595300D02*
X205111000Y-114595300D01*
X324893000Y-95481300D02*
X324893000Y-95295000D01*
X260142300Y-98289600D02*
X260293200Y-98440500D01*
X186343000Y-116000000D02*
X187747700Y-114595300D01*
X260293200Y-98440500D02*
X321933800Y-98440500D01*
X221686600Y-103067900D02*
X226464900Y-98289600D01*
X216638400Y-103067900D02*
X221686600Y-103067900D01*
X205111000Y-114595300D02*
X216638400Y-103067900D01*
X321933800Y-98440500D02*
X324893000Y-95481300D01*
%TO.N,R_EXT_SDA*%
X317273000Y-95295000D02*
X315183500Y-97384500D01*
X260791400Y-97234500D02*
X260417300Y-97234500D01*
X260116500Y-97535400D02*
X214541800Y-97535400D01*
X260417300Y-97234500D02*
X260116500Y-97535300D01*
X315183500Y-97384500D02*
X260941400Y-97384500D01*
X260116500Y-97535300D02*
X260116500Y-97535400D01*
X260941400Y-97384500D02*
X260791400Y-97234500D01*
%TO.N,R_EXT_SCL*%
X314733000Y-95295000D02*
X312945200Y-97082800D01*
X260916400Y-96932800D02*
X213148600Y-96932800D01*
X189986700Y-114896300D02*
X202000000Y-114896300D01*
X213148600Y-96932800D02*
X212326500Y-97754900D01*
X202000000Y-114896300D02*
X203496300Y-114896300D01*
X203496300Y-114896300D02*
X203800000Y-115200000D01*
X188883000Y-116000000D02*
X189986700Y-114896300D01*
X312945200Y-97082800D02*
X261066400Y-97082800D01*
X261066400Y-97082800D02*
X260916400Y-96932800D01*
%TO.N,R_3V3*%
X322353000Y-80055000D02*
X318831300Y-83576700D01*
X322353000Y-80055000D02*
X320218300Y-77920300D01*
X320218300Y-77920300D02*
X314909800Y-77920300D01*
X190398000Y-116245000D02*
X201366500Y-116245000D01*
X190153000Y-116000000D02*
X190398000Y-116245000D01*
X196260500Y-113606600D02*
X192092700Y-109438800D01*
X200800000Y-78600000D02*
X202200000Y-78600000D01*
X318831300Y-83576700D02*
X302267400Y-83576700D01*
X201366500Y-113606600D02*
X196260500Y-113606600D01*
%TO.N,R_BAT_SW*%
X314295200Y-89269000D02*
X316621900Y-89269000D01*
X316621900Y-89269000D02*
X318215900Y-87675000D01*
X318215900Y-87675000D02*
X326103300Y-87675000D01*
%TO.N,R_LED_CTRL*%
X323004300Y-77127000D02*
X320088400Y-77127000D01*
X324362900Y-75768400D02*
X323004300Y-77127000D01*
%TO.N,R_BL_LED_RETURN*%
X277739700Y-24323300D02*
X276688000Y-25375000D01*
X237536300Y-26426700D02*
X238588000Y-25375000D01*
X224301000Y-82525000D02*
X223249300Y-81473300D01*
X171913000Y-44425000D02*
X172964700Y-45476700D01*
X275628300Y-24315300D02*
X276688000Y-25375000D01*
X205041800Y-64526700D02*
X213724300Y-64526700D01*
X271925000Y-63475000D02*
X272978500Y-64528500D01*
X199428700Y-26434300D02*
X200488000Y-25375000D01*
X162388000Y-25375000D02*
X163447300Y-26434300D01*
X271925000Y-63475000D02*
X270871500Y-64528500D01*
X243350000Y-82525000D02*
X242297900Y-81472900D01*
X238588000Y-25375000D02*
X239639700Y-26426700D01*
X249164700Y-45476700D02*
X266111300Y-45476700D01*
X256586300Y-26426700D02*
X257638000Y-25375000D01*
X184174000Y-84551000D02*
X184174000Y-97167000D01*
X282829300Y-81472900D02*
X263453100Y-81472900D01*
X213724300Y-64526700D02*
X214776000Y-63475000D01*
X189911300Y-45476700D02*
X190963000Y-44425000D01*
X163447300Y-26434300D02*
X171913000Y-26434300D01*
X270871500Y-64528500D02*
X253929500Y-64528500D01*
X298119000Y-82525000D02*
X297066900Y-81472900D01*
X266111300Y-45476700D02*
X267163000Y-44425000D01*
X247061300Y-45476700D02*
X230114700Y-45476700D01*
X297066900Y-81472900D02*
X282829300Y-81472900D01*
X218486300Y-26426700D02*
X201539700Y-26426700D01*
X221038000Y-111875000D02*
X228666200Y-111875000D01*
X258697700Y-24315300D02*
X275628300Y-24315300D01*
X184174000Y-97167000D02*
X188582000Y-101575000D01*
X232774300Y-64526700D02*
X233826000Y-63475000D01*
X195726000Y-63475000D02*
X194674300Y-64526700D01*
X225353100Y-81472900D02*
X224301000Y-82525000D01*
X301828500Y-64528500D02*
X302882000Y-63475000D01*
X251824300Y-64526700D02*
X234877700Y-64526700D01*
X302882000Y-63475000D02*
X304007000Y-64600000D01*
X210013000Y-44425000D02*
X211069600Y-45481600D01*
X172964700Y-45476700D02*
X189911300Y-45476700D01*
X282729500Y-101575000D02*
X282729500Y-100051900D01*
X248113000Y-44425000D02*
X247061300Y-45476700D01*
X177726700Y-64526700D02*
X176675000Y-63475000D01*
X205027700Y-81472900D02*
X205035700Y-81480900D01*
X205035700Y-82309700D02*
X205251000Y-82525000D01*
X201539700Y-26426700D02*
X200488000Y-25375000D01*
X228666200Y-111875000D02*
X237914500Y-102626700D01*
X219538000Y-25375000D02*
X220589700Y-26426700D01*
X257638000Y-25375000D02*
X258697700Y-24315300D01*
X171913000Y-26434300D02*
X181438000Y-26434300D01*
X195726000Y-63475000D02*
X196777700Y-64526700D01*
X286213000Y-44425000D02*
X285159500Y-45478500D01*
X263730300Y-102626700D02*
X264782000Y-101575000D01*
X308971500Y-45478500D02*
X287266500Y-45478500D01*
X237914500Y-102626700D02*
X240969000Y-102626700D01*
X281677800Y-102626700D02*
X282729500Y-101575000D01*
X263453100Y-81472900D02*
X262401000Y-82525000D01*
X208959500Y-45478500D02*
X210013000Y-44425000D01*
X186200000Y-82525000D02*
X187252100Y-81472900D01*
X187252100Y-81472900D02*
X205027700Y-81472900D01*
X203478100Y-45478500D02*
X208959500Y-45478500D01*
X240969000Y-101575000D02*
X240969000Y-102626700D01*
X171913000Y-26434300D02*
X171913000Y-44425000D01*
X248113000Y-44425000D02*
X249164700Y-45476700D01*
X206302700Y-81473300D02*
X205251000Y-82525000D01*
X287266500Y-45478500D02*
X286213000Y-44425000D01*
X186200000Y-82525000D02*
X184174000Y-84551000D01*
X268216500Y-45478500D02*
X267163000Y-44425000D01*
X239639700Y-26426700D02*
X256586300Y-26426700D01*
X272978500Y-64528500D02*
X301828500Y-64528500D01*
X192016500Y-45478500D02*
X203478100Y-45478500D01*
X240969000Y-102626700D02*
X263730300Y-102626700D01*
X261301400Y-81425400D02*
X244449600Y-81425400D01*
X230114700Y-45476700D02*
X229063000Y-44425000D01*
X311355300Y-102626700D02*
X289645700Y-102626700D01*
X205035700Y-81480900D02*
X205035700Y-82309700D01*
X252876000Y-63475000D02*
X251824300Y-64526700D01*
X228006400Y-45481600D02*
X229063000Y-44425000D01*
X304211300Y-24323300D02*
X277739700Y-24323300D01*
X194674300Y-64526700D02*
X177726700Y-64526700D01*
X181438000Y-26434300D02*
X199428700Y-26434300D01*
X265833700Y-102626700D02*
X281677800Y-102626700D01*
X282729500Y-101575000D02*
X288594000Y-101575000D01*
X312407000Y-101575000D02*
X311355300Y-102626700D01*
X214776000Y-63475000D02*
X215827700Y-64526700D01*
X211069600Y-45481600D02*
X228006400Y-45481600D01*
X219538000Y-25375000D02*
X218486300Y-26426700D01*
X196777700Y-64526700D02*
X205041800Y-64526700D01*
X220589700Y-26426700D02*
X237536300Y-26426700D01*
X215827700Y-64526700D02*
X232774300Y-64526700D01*
X253929500Y-64528500D02*
X252876000Y-63475000D01*
X264782000Y-101575000D02*
X265833700Y-102626700D01*
X244449600Y-81425400D02*
X243350000Y-82525000D01*
X285159500Y-45478500D02*
X268216500Y-45478500D01*
X304007000Y-64600000D02*
X324600000Y-64600000D01*
X190963000Y-44425000D02*
X192016500Y-45478500D01*
X242297900Y-81472900D02*
X225353100Y-81472900D01*
X223249300Y-81473300D02*
X206302700Y-81473300D01*
X305263000Y-25375000D02*
X304211300Y-24323300D01*
X262401000Y-82525000D02*
X261301400Y-81425400D01*
X289645700Y-102626700D02*
X288594000Y-101575000D01*
X181438000Y-26434300D02*
X181438000Y-25375000D01*
X310025000Y-44425000D02*
X308971500Y-45478500D01*
X234877700Y-64526700D02*
X233826000Y-63475000D01*
%TO.N,R_BL_LED_A1*%
X164906500Y-25654700D02*
X164167700Y-25654700D01*
X164167700Y-25654700D02*
X163888000Y-25375000D01*
%TO.N,R_BL_LED_A2*%
X185458300Y-25654700D02*
X183217700Y-25654700D01*
X183217700Y-25654700D02*
X182938000Y-25375000D01*
%TO.N,R_BL_LED_A3*%
X202219500Y-25143500D02*
X202857700Y-25143500D01*
X201988000Y-25375000D02*
X202219500Y-25143500D01*
%TO.N,R_BL_LED_A4*%
X221038000Y-25375000D02*
X221328200Y-25665200D01*
X221328200Y-25665200D02*
X222059300Y-25665200D01*
%TO.N,R_BL_LED_A5*%
X241100800Y-25654700D02*
X240367700Y-25654700D01*
X240367700Y-25654700D02*
X240088000Y-25375000D01*
%TO.N,R_BL_LED_A6*%
X260119000Y-25654700D02*
X259417700Y-25654700D01*
X259417700Y-25654700D02*
X259138000Y-25375000D01*
%TO.N,R_BL_LED_A7*%
X279042100Y-25142300D02*
X278420700Y-25142300D01*
X278420700Y-25142300D02*
X278188000Y-25375000D01*
%TO.N,R_BL_LED_A8*%
X307775800Y-25654700D02*
X307042700Y-25654700D01*
X307042700Y-25654700D02*
X306763000Y-25375000D01*
%TO.N,R_BL_LED_A9*%
X173413000Y-44425000D02*
X173683700Y-44154300D01*
X173683700Y-44154300D02*
X174567800Y-44154300D01*
%TO.N,R_BL_LED_A10*%
X192977800Y-43910200D02*
X192463000Y-44425000D01*
X193394000Y-43910200D02*
X192977800Y-43910200D01*
%TO.N,R_BL_LED_A11*%
X211513000Y-44425000D02*
X211711600Y-44226400D01*
X211711600Y-44226400D02*
X212367100Y-44226400D01*
%TO.N,R_BL_LED_A12*%
X230761600Y-44226400D02*
X230563000Y-44425000D01*
X231444000Y-44226400D02*
X230761600Y-44226400D01*
%TO.N,R_BL_LED_A13*%
X249798700Y-43587300D02*
X249613000Y-43773000D01*
X249613000Y-43773000D02*
X249613000Y-44425000D01*
%TO.N,R_BL_LED_A14*%
X268861600Y-44226400D02*
X268663000Y-44425000D01*
X269594000Y-44226400D02*
X268861600Y-44226400D01*
%TO.N,R_BL_LED_A15*%
X287713000Y-43576800D02*
X287919900Y-43369900D01*
X287713000Y-44425000D02*
X287713000Y-43576800D01*
%TO.N,R_BL_LED_A16*%
X311683000Y-44583000D02*
X311525000Y-44425000D01*
X312379300Y-44583000D02*
X311683000Y-44583000D01*
%TO.N,R_BL_LED_A17*%
X178367200Y-63667200D02*
X178175000Y-63475000D01*
X179029300Y-63667200D02*
X178367200Y-63667200D01*
%TO.N,R_BL_LED_A18*%
X197418200Y-63667200D02*
X197226000Y-63475000D01*
X198175500Y-63667200D02*
X197418200Y-63667200D01*
%TO.N,R_BL_LED_A19*%
X216791500Y-62698000D02*
X216276000Y-63213500D01*
X216276000Y-63213500D02*
X216276000Y-63475000D01*
%TO.N,R_BL_LED_A20*%
X236225500Y-63489600D02*
X235340600Y-63489600D01*
X235340600Y-63489600D02*
X235326000Y-63475000D01*
%TO.N,R_BL_LED_A21*%
X255428000Y-63358100D02*
X254492900Y-63358100D01*
X254492900Y-63358100D02*
X254376000Y-63475000D01*
%TO.N,R_BL_LED_A22*%
X273784600Y-63115400D02*
X274436500Y-63115400D01*
X273425000Y-63475000D02*
X273784600Y-63115400D01*
%TO.N,R_BL_LED_A23*%
X304574200Y-63667200D02*
X304382000Y-63475000D01*
X305253500Y-63667200D02*
X304574200Y-63667200D01*
%TO.N,R_BL_LED_A24*%
X188224100Y-83049100D02*
X187700000Y-82525000D01*
X188848700Y-83049100D02*
X188224100Y-83049100D01*
%TO.N,R_BL_LED_A25*%
X207738000Y-82945700D02*
X207171700Y-82945700D01*
X207171700Y-82945700D02*
X206751000Y-82525000D01*
%TO.N,R_BL_LED_A26*%
X225842100Y-82566100D02*
X225801000Y-82525000D01*
X226763000Y-82566100D02*
X225842100Y-82566100D01*
%TO.N,R_BL_LED_A27*%
X245012200Y-82362800D02*
X244850000Y-82525000D01*
X245687500Y-82362800D02*
X245012200Y-82362800D01*
%TO.N,R_BL_LED_A28*%
X264525100Y-83149100D02*
X263901000Y-82525000D01*
X264913000Y-83149100D02*
X264525100Y-83149100D01*
%TO.N,R_BL_LED_A29*%
X300472000Y-82566100D02*
X299660100Y-82566100D01*
X299660100Y-82566100D02*
X299619000Y-82525000D01*
%TO.N,R_BL_LED_A30*%
X190449700Y-101207300D02*
X191059900Y-101207300D01*
X190082000Y-101575000D02*
X190449700Y-101207300D01*
%TO.N,R_BL_LED_A31*%
X219396100Y-111733100D02*
X219538000Y-111875000D01*
X218506600Y-111733100D02*
X219396100Y-111733100D01*
%TO.N,R_BL_LED_A32*%
X242695900Y-101801900D02*
X243402600Y-101801900D01*
X242469000Y-101575000D02*
X242695900Y-101801900D01*
%TO.N,R_BL_LED_A33*%
X266410100Y-101446900D02*
X267203500Y-101446900D01*
X266282000Y-101575000D02*
X266410100Y-101446900D01*
%TO.N,R_BL_LED_A34*%
X290892500Y-100776500D02*
X290094000Y-101575000D01*
X291066200Y-100776500D02*
X290892500Y-100776500D01*
%TO.N,R_BL_LED_A35*%
X313907000Y-101279500D02*
X314418100Y-100768400D01*
X313907000Y-101575000D02*
X313907000Y-101279500D01*
%TD*%
M02*
