M48
; DRILL file {KiCad 9.0.6} date 2026-08-30T14:35:47+0900
; FORMAT={-:-/ absolute / metric / decimal}
; #@! TF.CreationDate,2026-08-30T14:35:47+09:00
; #@! TF.GenerationSoftware,Kicad,Pcbnew,9.0.6
; #@! TF.FileFunction,Plated,1,2,PTH
FMAT,2
METRIC
; #@! TA.AperFunction,Plated,PTH,ViaDrill
T1C0.200
; #@! TA.AperFunction,Plated,PTH,ComponentDrill
T2C0.700
; #@! TA.AperFunction,Plated,PTH,ComponentDrill
T3C1.000
; #@! TA.AperFunction,Plated,PTH,ComponentDrill
T4C1.100
; #@! TA.AperFunction,Plated,PTH,ComponentDrill
T5C2.000
%
G90
G05
T1
X164.906Y-25.655
X174.568Y-44.154
X179.029Y-63.667
X181.2Y-81.031
X185.458Y-25.655
X187.3Y-34.36
X188.849Y-83.049
X191.06Y-101.207
X192.093Y-109.439
X193.394Y-43.91
X193.929Y-110.346
X196.52Y-58.707
X198.175Y-63.667
X200.737Y-76.459
X200.8Y-78.6
X201.367Y-113.607
X201.367Y-116.245
X202.2Y-78.6
X202.858Y-25.143
X203.478Y-45.478
X203.8Y-115.2
X205.036Y-81.481
X205.042Y-64.527
X205.879Y-38.703
X207.738Y-82.946
X209.845Y-96.329
X211.056Y-96.781
X211.709Y-58.707
X212.326Y-97.755
X212.367Y-44.226
X214.542Y-97.535
X214.893Y-101.389
X215.641Y-103.418
X216.791Y-62.698
X217.292Y-76.459
X218.507Y-111.733
X222.059Y-25.665
X226.266Y-38.703
X226.763Y-82.566
X229.307Y-95.66
X230.281Y-58.707
X231.444Y-44.226
X236.225Y-63.49
X236.342Y-76.459
X236.602Y-98.742
X241.101Y-25.655
X243.055Y-38.703
X243.403Y-101.802
X245.688Y-82.363
X246.559Y-84.981
X247.273Y-95.66
X249.799Y-43.587
X252.563Y-58.707
X255.428Y-63.358
X255.883Y-84.981
X260.119Y-25.655
X260.604Y-97.686
X261.322Y-34.233
X264.913Y-83.149
X267.064Y-91.895
X267.203Y-101.447
X268.302Y-65.742
X269.594Y-44.226
X274.436Y-63.115
X275.899Y-96.329
X279.042Y-25.142
X280.757Y-34.735
X282.729Y-100.052
X282.829Y-81.473
X284.181Y-76.725
X287.92Y-43.37
X291.066Y-100.776
X292.92Y-78.539
X293.895Y-58.707
X300.472Y-82.566
X302.129Y-90.73
X302.267Y-83.577
X305.253Y-63.667
X307.776Y-25.655
X309.689Y-38.686
X312.379Y-44.583
X313.147Y-99.194
X314.405Y-99.894
X314.418Y-100.768
X314.475Y-58.707
X314.91Y-77.92
X320.088Y-77.127
X320.441Y-97.686
X321.767Y-97.969
X322.904Y-98.439
X324.363Y-75.768
X324.367Y-74.78
X324.6Y-64.6
X326.103Y-87.675
T2
X183.803Y-116.0
X185.073Y-116.0
X186.343Y-116.0
X187.613Y-116.0
X188.883Y-116.0
X190.153Y-116.0
T3
X168.138Y-25.375
X177.663Y-44.425
X182.425Y-63.475
X187.188Y-25.375
X191.95Y-82.525
X194.332Y-101.575
X196.713Y-44.425
X201.476Y-63.475
X206.238Y-25.375
X211.001Y-82.525
X215.288Y-111.875
X215.763Y-44.425
X220.526Y-63.475
X225.288Y-25.375
X230.051Y-82.525
X234.813Y-44.425
X239.576Y-63.475
X244.338Y-25.375
X246.719Y-101.575
X249.1Y-82.525
X253.863Y-44.425
X258.626Y-63.475
X263.388Y-25.375
X268.151Y-82.525
X270.532Y-101.575
X272.913Y-44.425
X277.675Y-63.475
X282.438Y-25.375
X291.963Y-44.425
X294.344Y-101.575
X303.869Y-82.525
X308.632Y-63.475
X311.013Y-25.375
X315.775Y-44.425
X318.157Y-101.575
T4
X312.193Y-80.055
X312.193Y-95.295
X314.733Y-80.055
X314.733Y-95.295
X317.273Y-80.055
X317.273Y-95.295
X319.813Y-80.055
X319.813Y-95.295
X322.353Y-80.055
X322.353Y-95.295
X324.893Y-80.055
X324.893Y-95.295
X327.433Y-80.055
X327.433Y-95.295
T5
G00X315.095Y-86.069
M15
G01X313.495Y-86.069
M16
G05
G00X315.095Y-89.269
M15
G01X313.495Y-89.269
M16
G05
M30
