%TF.GenerationSoftware,KiCad,Pcbnew,9.0.6*%
%TF.CreationDate,2026-08-30T14:35:43+09:00*%
%TF.ProjectId,SplitChoc64_RIGHT,53706c69-7443-4686-9f63-36345f524947,rev?*%
%TF.SameCoordinates,Original*%
%TF.FileFunction,Paste,Top*%
%TF.FilePolarity,Positive*%
%FSLAX46Y46*%
G04 Gerber Fmt 4.6, Leading zero omitted, Abs format (unit mm)*
G04 Created by KiCad (PCBNEW 9.0.6) date 2026-08-30 14:35:43*
%MOMM*%
%LPD*%
G01*
G04 APERTURE LIST*
G04 Aperture macros list*
%AMRoundRect*
0 Rectangle with rounded corners*
0 $1 Rounding radius*
0 $2 $3 $4 $5 $6 $7 $8 $9 X,Y pos of 4 corners*
0 Add a 4 corners polygon primitive as box body*
4,1,4,$2,$3,$4,$5,$6,$7,$8,$9,$2,$3,0*
0 Add four circle primitives for the rounded corners*
1,1,$1+$1,$2,$3*
1,1,$1+$1,$4,$5*
1,1,$1+$1,$6,$7*
1,1,$1+$1,$8,$9*
0 Add four rect primitives between the rounded corners*
20,1,$1+$1,$2,$3,$4,$5,0*
20,1,$1+$1,$4,$5,$6,$7,0*
20,1,$1+$1,$6,$7,$8,$9,0*
20,1,$1+$1,$8,$9,$2,$3,0*%
G04 Aperture macros list end*
%ADD10RoundRect,0.160000X-0.240000X-0.290000X0.240000X-0.290000X0.240000X0.290000X-0.240000X0.290000X0*%
%ADD11RoundRect,0.160000X0.240000X0.290000X-0.240000X0.290000X-0.240000X-0.290000X0.240000X-0.290000X0*%
G04 APERTURE END LIST*
D10*
%TO.C,LEDR27*%
X243350000Y-82525000D03*
X244850000Y-82525000D03*
%TD*%
%TO.C,LEDR9*%
X171913000Y-44425000D03*
X173413000Y-44425000D03*
%TD*%
%TO.C,LEDR11*%
X210013000Y-44425000D03*
X211513000Y-44425000D03*
%TD*%
%TO.C,LEDR3*%
X200488000Y-25375000D03*
X201988000Y-25375000D03*
%TD*%
%TO.C,LEDR19*%
X214776000Y-63475000D03*
X216276000Y-63475000D03*
%TD*%
%TO.C,LEDR12*%
X229063000Y-44425000D03*
X230563000Y-44425000D03*
%TD*%
%TO.C,LEDR13*%
X248113000Y-44425000D03*
X249613000Y-44425000D03*
%TD*%
%TO.C,LEDR17*%
X176675000Y-63475000D03*
X178175000Y-63475000D03*
%TD*%
%TO.C,LEDR32*%
X240969000Y-101575000D03*
X242469000Y-101575000D03*
%TD*%
%TO.C,LEDR18*%
X195726000Y-63475000D03*
X197226000Y-63475000D03*
%TD*%
%TO.C,LEDR7*%
X276688000Y-25375000D03*
X278188000Y-25375000D03*
%TD*%
%TO.C,LEDR26*%
X224301000Y-82525000D03*
X225801000Y-82525000D03*
%TD*%
%TO.C,LEDR29*%
X298119000Y-82525000D03*
X299619000Y-82525000D03*
%TD*%
%TO.C,LEDR5*%
X238588000Y-25375000D03*
X240088000Y-25375000D03*
%TD*%
%TO.C,LEDR25*%
X205251000Y-82525000D03*
X206751000Y-82525000D03*
%TD*%
%TO.C,LEDR15*%
X286213000Y-44425000D03*
X287713000Y-44425000D03*
%TD*%
%TO.C,LEDR23*%
X302882000Y-63475000D03*
X304382000Y-63475000D03*
%TD*%
%TO.C,LEDR22*%
X271925000Y-63475000D03*
X273425000Y-63475000D03*
%TD*%
%TO.C,LEDR35*%
X312407000Y-101575000D03*
X313907000Y-101575000D03*
%TD*%
%TO.C,LEDR8*%
X305263000Y-25375000D03*
X306763000Y-25375000D03*
%TD*%
%TO.C,LEDR10*%
X190963000Y-44425000D03*
X192463000Y-44425000D03*
%TD*%
%TO.C,LEDR16*%
X310025000Y-44425000D03*
X311525000Y-44425000D03*
%TD*%
%TO.C,LEDR20*%
X233826000Y-63475000D03*
X235326000Y-63475000D03*
%TD*%
%TO.C,LEDR33*%
X264782000Y-101575000D03*
X266282000Y-101575000D03*
%TD*%
%TO.C,LEDR30*%
X188582000Y-101575000D03*
X190082000Y-101575000D03*
%TD*%
%TO.C,LEDR4*%
X219538000Y-25375000D03*
X221038000Y-25375000D03*
%TD*%
D11*
%TO.C,LEDR31*%
X221038000Y-111875000D03*
X219538000Y-111875000D03*
%TD*%
D10*
%TO.C,LEDR14*%
X267163000Y-44425000D03*
X268663000Y-44425000D03*
%TD*%
%TO.C,LEDR2*%
X181438000Y-25375000D03*
X182938000Y-25375000D03*
%TD*%
%TO.C,LEDR28*%
X262401000Y-82525000D03*
X263901000Y-82525000D03*
%TD*%
%TO.C,LEDR1*%
X162388000Y-25375000D03*
X163888000Y-25375000D03*
%TD*%
%TO.C,LEDR6*%
X257638000Y-25375000D03*
X259138000Y-25375000D03*
%TD*%
%TO.C,LEDR34*%
X288594000Y-101575000D03*
X290094000Y-101575000D03*
%TD*%
%TO.C,LEDR24*%
X186200000Y-82525000D03*
X187700000Y-82525000D03*
%TD*%
%TO.C,LEDR21*%
X252876000Y-63475000D03*
X254376000Y-63475000D03*
%TD*%
M02*
