%TF.GenerationSoftware,KiCad,Pcbnew,9.0.6*%
%TF.CreationDate,2026-08-20T21:14:08+09:00*%
%TF.ProjectId,SplitChoc64_RIGHT_TOP_PlateMount,53706c69-7443-4686-9f63-36345f524947,rev?*%
%TF.SameCoordinates,Original*%
%TF.FileFunction,Profile,NP*%
%FSLAX46Y46*%
G04 Gerber Fmt 4.6, Leading zero omitted, Abs format (unit mm)*
G04 Created by KiCad (PCBNEW 9.0.6) date 2026-08-20 21:14:08*
%MOMM*%
%LPD*%
G01*
G04 APERTURE LIST*
%TA.AperFunction,Profile*%
%ADD10C,0.150000*%
%TD*%
%TA.AperFunction,Profile*%
%ADD11C,0.050000*%
%TD*%
%TA.AperFunction,Profile*%
%ADD12C,0.100000*%
%TD*%
G04 APERTURE END LIST*
D10*
X167150000Y-77400000D02*
X167150000Y-58350000D01*
X176675000Y-77400000D02*
X167150000Y-77400000D01*
X330513000Y-117000000D02*
X277298035Y-117000000D01*
D11*
X235338000Y-117000000D02*
X243338000Y-117000000D01*
D10*
X167150000Y-58350000D02*
X162388000Y-58350000D01*
X152863000Y-20250000D02*
X204803556Y-20250000D01*
D11*
X270525000Y-20250000D02*
X277331000Y-20250000D01*
X211610444Y-20250000D02*
X235338000Y-20250000D01*
X270558000Y-117000000D02*
X277298000Y-117000000D01*
D10*
X330513000Y-20250000D02*
X330513000Y-117000000D01*
X167151000Y-117000000D02*
X167151000Y-97950000D01*
D11*
X204837000Y-117000000D02*
X211577000Y-117000000D01*
X204804000Y-20250000D02*
X211610000Y-20250000D01*
D10*
X176675000Y-97950000D02*
X176675000Y-77400000D01*
X162388000Y-39300000D02*
X152863000Y-39300000D01*
D11*
X152863000Y-39300000D02*
X152863000Y-20250000D01*
X243338000Y-117000000D02*
X270557965Y-117000000D01*
D10*
X167151000Y-97950000D02*
X176675000Y-97950000D01*
X162388000Y-58350000D02*
X162388000Y-39300000D01*
D11*
X235338000Y-20250000D02*
X243338000Y-20250000D01*
X211577035Y-117000000D02*
X235338000Y-117000000D01*
D10*
X204836965Y-117000000D02*
X167151000Y-117000000D01*
D11*
X243338000Y-20250000D02*
X270524556Y-20250000D01*
D10*
X277331444Y-20250000D02*
X330513000Y-20250000D01*
D12*
X156163000Y-23550000D02*
X170113000Y-23550000D01*
X170113000Y-23550000D02*
X170113000Y-37500000D01*
X170113000Y-37500000D02*
X156163000Y-37500000D01*
X156163000Y-37500000D02*
X156163000Y-23550000D01*
X175213000Y-23550000D02*
X189163000Y-23550000D01*
X189163000Y-23550000D02*
X189163000Y-37500000D01*
X189163000Y-37500000D02*
X175213000Y-37500000D01*
X175213000Y-37500000D02*
X175213000Y-23550000D01*
X194263000Y-23550000D02*
X208213000Y-23550000D01*
X208213000Y-23550000D02*
X208213000Y-37500000D01*
X208213000Y-37500000D02*
X194263000Y-37500000D01*
X194263000Y-37500000D02*
X194263000Y-23550000D01*
X213313000Y-23550000D02*
X227263000Y-23550000D01*
X227263000Y-23550000D02*
X227263000Y-37500000D01*
X227263000Y-37500000D02*
X213313000Y-37500000D01*
X213313000Y-37500000D02*
X213313000Y-23550000D01*
X232363000Y-23550000D02*
X246313000Y-23550000D01*
X246313000Y-23550000D02*
X246313000Y-37500000D01*
X246313000Y-37500000D02*
X232363000Y-37500000D01*
X232363000Y-37500000D02*
X232363000Y-23550000D01*
X251413000Y-23550000D02*
X265363000Y-23550000D01*
X265363000Y-23550000D02*
X265363000Y-37500000D01*
X265363000Y-37500000D02*
X251413000Y-37500000D01*
X251413000Y-37500000D02*
X251413000Y-23550000D01*
X270463000Y-23550000D02*
X284413000Y-23550000D01*
X284413000Y-23550000D02*
X284413000Y-37500000D01*
X284413000Y-37500000D02*
X270463000Y-37500000D01*
X270463000Y-37500000D02*
X270463000Y-23550000D01*
X299038000Y-23550000D02*
X312988000Y-23550000D01*
X312988000Y-23550000D02*
X312988000Y-37500000D01*
X312988000Y-37500000D02*
X299038000Y-37500000D01*
X299038000Y-37500000D02*
X299038000Y-23550000D01*
X165688000Y-42600000D02*
X179638000Y-42600000D01*
X179638000Y-42600000D02*
X179638000Y-56550000D01*
X179638000Y-56550000D02*
X165688000Y-56550000D01*
X165688000Y-56550000D02*
X165688000Y-42600000D01*
X184738000Y-42600000D02*
X198688000Y-42600000D01*
X198688000Y-42600000D02*
X198688000Y-56550000D01*
X198688000Y-56550000D02*
X184738000Y-56550000D01*
X184738000Y-56550000D02*
X184738000Y-42600000D01*
X203788000Y-42600000D02*
X217738000Y-42600000D01*
X217738000Y-42600000D02*
X217738000Y-56550000D01*
X217738000Y-56550000D02*
X203788000Y-56550000D01*
X203788000Y-56550000D02*
X203788000Y-42600000D01*
X222838000Y-42600000D02*
X236788000Y-42600000D01*
X236788000Y-42600000D02*
X236788000Y-56550000D01*
X236788000Y-56550000D02*
X222838000Y-56550000D01*
X222838000Y-56550000D02*
X222838000Y-42600000D01*
X241888000Y-42600000D02*
X255838000Y-42600000D01*
X255838000Y-42600000D02*
X255838000Y-56550000D01*
X255838000Y-56550000D02*
X241888000Y-56550000D01*
X241888000Y-56550000D02*
X241888000Y-42600000D01*
X260938000Y-42600000D02*
X274888000Y-42600000D01*
X274888000Y-42600000D02*
X274888000Y-56550000D01*
X274888000Y-56550000D02*
X260938000Y-56550000D01*
X260938000Y-56550000D02*
X260938000Y-42600000D01*
X279988000Y-42600000D02*
X293938000Y-42600000D01*
X293938000Y-42600000D02*
X293938000Y-56550000D01*
X293938000Y-56550000D02*
X279988000Y-56550000D01*
X279988000Y-56550000D02*
X279988000Y-42600000D01*
X303800000Y-42600000D02*
X317750000Y-42600000D01*
X317750000Y-42600000D02*
X317750000Y-56550000D01*
X317750000Y-56550000D02*
X303800000Y-56550000D01*
X303800000Y-56550000D02*
X303800000Y-42600000D01*
X170450000Y-61650000D02*
X184400000Y-61650000D01*
X184400000Y-61650000D02*
X184400000Y-75600000D01*
X184400000Y-75600000D02*
X170450000Y-75600000D01*
X170450000Y-75600000D02*
X170450000Y-61650000D01*
X189501000Y-61650000D02*
X203451000Y-61650000D01*
X203451000Y-61650000D02*
X203451000Y-75600000D01*
X203451000Y-75600000D02*
X189501000Y-75600000D01*
X189501000Y-75600000D02*
X189501000Y-61650000D01*
X208551000Y-61650000D02*
X222501000Y-61650000D01*
X222501000Y-61650000D02*
X222501000Y-75600000D01*
X222501000Y-75600000D02*
X208551000Y-75600000D01*
X208551000Y-75600000D02*
X208551000Y-61650000D01*
X227601000Y-61650000D02*
X241551000Y-61650000D01*
X241551000Y-61650000D02*
X241551000Y-75600000D01*
X241551000Y-75600000D02*
X227601000Y-75600000D01*
X227601000Y-75600000D02*
X227601000Y-61650000D01*
X246651000Y-61650000D02*
X260601000Y-61650000D01*
X260601000Y-61650000D02*
X260601000Y-75600000D01*
X260601000Y-75600000D02*
X246651000Y-75600000D01*
X246651000Y-75600000D02*
X246651000Y-61650000D01*
X265700000Y-61650000D02*
X279650000Y-61650000D01*
X279650000Y-61650000D02*
X279650000Y-75600000D01*
X279650000Y-75600000D02*
X265700000Y-75600000D01*
X265700000Y-75600000D02*
X265700000Y-61650000D01*
X296657000Y-61650000D02*
X310607000Y-61650000D01*
X310607000Y-61650000D02*
X310607000Y-75600000D01*
X310607000Y-75600000D02*
X296657000Y-75600000D01*
X296657000Y-75600000D02*
X296657000Y-61650000D01*
X179975000Y-80700000D02*
X193925000Y-80700000D01*
X193925000Y-80700000D02*
X193925000Y-94650000D01*
X193925000Y-94650000D02*
X179975000Y-94650000D01*
X179975000Y-94650000D02*
X179975000Y-80700000D01*
X199026000Y-80700000D02*
X212976000Y-80700000D01*
X212976000Y-80700000D02*
X212976000Y-94650000D01*
X212976000Y-94650000D02*
X199026000Y-94650000D01*
X199026000Y-94650000D02*
X199026000Y-80700000D01*
X218076000Y-80700000D02*
X232026000Y-80700000D01*
X232026000Y-80700000D02*
X232026000Y-94650000D01*
X232026000Y-94650000D02*
X218076000Y-94650000D01*
X218076000Y-94650000D02*
X218076000Y-80700000D01*
X237125000Y-80700000D02*
X251075000Y-80700000D01*
X251075000Y-80700000D02*
X251075000Y-94650000D01*
X251075000Y-94650000D02*
X237125000Y-94650000D01*
X237125000Y-94650000D02*
X237125000Y-80700000D01*
X256176000Y-80700000D02*
X270126000Y-80700000D01*
X270126000Y-80700000D02*
X270126000Y-94650000D01*
X270126000Y-94650000D02*
X256176000Y-94650000D01*
X256176000Y-94650000D02*
X256176000Y-80700000D01*
X291894000Y-80700000D02*
X305844000Y-80700000D01*
X305844000Y-80700000D02*
X305844000Y-94650000D01*
X305844000Y-94650000D02*
X291894000Y-94650000D01*
X291894000Y-94650000D02*
X291894000Y-80700000D01*
X182357000Y-99750000D02*
X196307000Y-99750000D01*
X196307000Y-99750000D02*
X196307000Y-113700000D01*
X196307000Y-113700000D02*
X182357000Y-113700000D01*
X182357000Y-113700000D02*
X182357000Y-99750000D01*
X213313000Y-99750000D02*
X227263000Y-99750000D01*
X227263000Y-99750000D02*
X227263000Y-113700000D01*
X227263000Y-113700000D02*
X213313000Y-113700000D01*
X213313000Y-113700000D02*
X213313000Y-99750000D01*
X234744000Y-99750000D02*
X248694000Y-99750000D01*
X248694000Y-99750000D02*
X248694000Y-113700000D01*
X248694000Y-113700000D02*
X234744000Y-113700000D01*
X234744000Y-113700000D02*
X234744000Y-99750000D01*
X258557000Y-99750000D02*
X272507000Y-99750000D01*
X272507000Y-99750000D02*
X272507000Y-113700000D01*
X272507000Y-113700000D02*
X258557000Y-113700000D01*
X258557000Y-113700000D02*
X258557000Y-99750000D01*
X282369000Y-99750000D02*
X296319000Y-99750000D01*
X296319000Y-99750000D02*
X296319000Y-113700000D01*
X296319000Y-113700000D02*
X282369000Y-113700000D01*
X282369000Y-113700000D02*
X282369000Y-99750000D01*
X306182000Y-99750000D02*
X320132000Y-99750000D01*
X320132000Y-99750000D02*
X320132000Y-113700000D01*
X320132000Y-113700000D02*
X306182000Y-113700000D01*
X306182000Y-113700000D02*
X306182000Y-99750000D01*
M02*
