M48
; DRILL file {KiCad 9.0.6} date 2026-08-20T21:10:07+0900
; FORMAT={-:-/ absolute / metric / decimal}
; #@! TF.CreationDate,2026-08-20T21:10:07+09:00
; #@! TF.GenerationSoftware,Kicad,Pcbnew,9.0.6
; #@! TF.FileFunction,Plated,1,2,PTH
FMAT,2
METRIC
; #@! TA.AperFunction,Plated,PTH,ViaDrill
T1C0.200
; #@! TA.AperFunction,Plated,PTH,ComponentDrill
T2C0.700
; #@! TA.AperFunction,Plated,PTH,ComponentDrill
T3C1.000
; #@! TA.AperFunction,Plated,PTH,ComponentDrill
T4C2.000
%
G90
G05
T1
X181.91Y-76.614
X183.964Y-95.58
X193.892Y-115.624
X204.716Y-80.01
X213.998Y-105.313
X215.559Y-57.402
X220.588Y-76.614
X225.096Y-78.44
X232.447Y-57.402
X236.985Y-76.614
X248.868Y-65.197
X252.818Y-62.423
X255.332Y-72.893
X266.461Y-95.285
X268.393Y-62.423
X276.768Y-97.763
X287.267Y-77.01
X292.345Y-56.504
X292.405Y-77.846
X293.936Y-80.742
X305.052Y-56.504
X307.978Y-97.673
X308.06Y-91.471
X308.518Y-89.352
X315.396Y-114.412
X315.6Y-80.742
X316.903Y-92.075
X316.97Y-115.144
X317.943Y-77.846
X318.095Y-94.567
X318.097Y-87.681
X320.278Y-115.606
X320.747Y-109.7
X322.73Y-78.027
X323.213Y-99.989
X324.969Y-91.186
X325.397Y-74.312
X325.77Y-80.01
X326.856Y-92.613
X327.564Y-82.946
T2
X183.803Y-116.0
X185.073Y-116.0
X186.343Y-116.0
X187.613Y-116.0
X188.883Y-116.0
X190.153Y-116.0
X191.423Y-116.0
T3
X168.138Y-25.375
X177.663Y-44.425
X182.425Y-63.475
X187.188Y-25.375
X191.95Y-82.525
X194.332Y-101.575
X196.713Y-44.425
X201.476Y-63.475
X206.238Y-25.375
X211.001Y-82.525
X215.288Y-111.875
X215.763Y-44.425
X220.526Y-63.475
X225.288Y-25.375
X230.051Y-82.525
X234.813Y-44.425
X239.576Y-63.475
X244.338Y-25.375
X246.719Y-101.575
X249.1Y-82.525
X253.863Y-44.425
X258.626Y-63.475
X263.388Y-25.375
X268.151Y-82.525
X270.532Y-101.575
X272.913Y-44.425
X277.675Y-63.475
X282.438Y-25.375
X291.963Y-44.425
X294.344Y-101.575
X303.869Y-82.525
X308.632Y-63.475
X311.013Y-25.375
X315.775Y-44.425
X318.157Y-101.575
T4
G00X315.095Y-86.081
M15
G01X313.495Y-86.081
M16
G05
G00X315.095Y-89.281
M15
G01X313.495Y-89.281
M16
G05
M30
