%TF.GenerationSoftware,KiCad,Pcbnew,9.0.6*%
%TF.CreationDate,2026-08-20T21:10:04+09:00*%
%TF.ProjectId,SplitChoc64_RIGHT,53706c69-7443-4686-9f63-36345f524947,rev?*%
%TF.SameCoordinates,Original*%
%TF.FileFunction,Copper,L2,Bot*%
%TF.FilePolarity,Positive*%
%FSLAX46Y46*%
G04 Gerber Fmt 4.6, Leading zero omitted, Abs format (unit mm)*
G04 Created by KiCad (PCBNEW 9.0.6) date 2026-08-20 21:10:04*
%MOMM*%
%LPD*%
G01*
G04 APERTURE LIST*
G04 Aperture macros list*
%AMRoundRect*
0 Rectangle with rounded corners*
0 $1 Rounding radius*
0 $2 $3 $4 $5 $6 $7 $8 $9 X,Y pos of 4 corners*
0 Add a 4 corners polygon primitive as box body*
4,1,4,$2,$3,$4,$5,$6,$7,$8,$9,$2,$3,0*
0 Add four circle primitives for the rounded corners*
1,1,$1+$1,$2,$3*
1,1,$1+$1,$4,$5*
1,1,$1+$1,$6,$7*
1,1,$1+$1,$8,$9*
0 Add four rect primitives between the rounded corners*
20,1,$1+$1,$2,$3,$4,$5,0*
20,1,$1+$1,$4,$5,$6,$7,0*
20,1,$1+$1,$6,$7,$8,$9,0*
20,1,$1+$1,$8,$9,$2,$3,0*%
%AMFreePoly0*
4,1,15,-0.616000,0.142500,-0.283500,0.475000,0.521000,0.475000,0.557355,0.467769,0.588175,0.447175,0.608769,0.416355,0.616000,0.380000,0.616000,-0.380000,0.608769,-0.416355,0.588175,-0.447175,0.557355,-0.467769,0.521000,-0.475000,-0.283500,-0.475000,-0.616000,-0.142500,-0.616000,0.142500,-0.616000,0.142500,$1*%
G04 Aperture macros list end*
%TA.AperFunction,ComponentPad*%
%ADD10C,1.650000*%
%TD*%
%TA.AperFunction,SMDPad,CuDef*%
%ADD11RoundRect,0.520000X-0.780000X-0.780000X0.780000X-0.780000X0.780000X0.780000X-0.780000X0.780000X0*%
%TD*%
%TA.AperFunction,SMDPad,CuDef*%
%ADD12RoundRect,0.200000X0.400000X0.300000X-0.400000X0.300000X-0.400000X-0.300000X0.400000X-0.300000X0*%
%TD*%
%TA.AperFunction,SMDPad,CuDef*%
%ADD13RoundRect,0.090000X-0.210000X-0.610000X0.210000X-0.610000X0.210000X0.610000X-0.210000X0.610000X0*%
%TD*%
%TA.AperFunction,SMDPad,CuDef*%
%ADD14R,1.200000X1.600000*%
%TD*%
%TA.AperFunction,SMDPad,CuDef*%
%ADD15RoundRect,0.095000X0.380000X-0.921000X0.380000X0.921000X-0.380000X0.921000X-0.380000X-0.921000X0*%
%TD*%
%TA.AperFunction,SMDPad,CuDef*%
%ADD16RoundRect,0.095000X-0.380000X0.921000X-0.380000X-0.921000X0.380000X-0.921000X0.380000X0.921000X0*%
%TD*%
%TA.AperFunction,SMDPad,CuDef*%
%ADD17FreePoly0,90.000000*%
%TD*%
%TA.AperFunction,SMDPad,CuDef*%
%ADD18FreePoly0,270.000000*%
%TD*%
%TA.AperFunction,SMDPad,CuDef*%
%ADD19C,1.700000*%
%TD*%
%TA.AperFunction,ComponentPad*%
%ADD20O,4.200000X2.600000*%
%TD*%
%TA.AperFunction,SMDPad,CuDef*%
%ADD21RoundRect,0.190000X0.285000X0.285000X-0.285000X0.285000X-0.285000X-0.285000X0.285000X-0.285000X0*%
%TD*%
%TA.AperFunction,SMDPad,CuDef*%
%ADD22RoundRect,0.160000X0.290000X-0.240000X0.290000X0.240000X-0.290000X0.240000X-0.290000X-0.240000X0*%
%TD*%
%TA.AperFunction,SMDPad,CuDef*%
%ADD23R,1.500000X0.700000*%
%TD*%
%TA.AperFunction,SMDPad,CuDef*%
%ADD24R,1.000000X0.800000*%
%TD*%
%TA.AperFunction,ComponentPad*%
%ADD25R,1.100000X1.100000*%
%TD*%
%TA.AperFunction,ComponentPad*%
%ADD26C,1.100000*%
%TD*%
%TA.AperFunction,ViaPad*%
%ADD27C,0.450000*%
%TD*%
%TA.AperFunction,Conductor*%
%ADD28C,0.150000*%
%TD*%
G04 APERTURE END LIST*
D10*
%TO.P,SWR13,*%
%TO.N,*%
X253863000Y-44425000D03*
D11*
%TO.P,SWR13,1*%
%TO.N,R_ROW1*%
X252563000Y-55475000D03*
%TO.P,SWR13,2*%
%TO.N,R_K13_D*%
X240163000Y-53375000D03*
%TD*%
D10*
%TO.P,SWR25,*%
%TO.N,*%
X211001000Y-82525000D03*
D11*
%TO.P,SWR25,1*%
%TO.N,R_ROW3*%
X209701000Y-93575000D03*
%TO.P,SWR25,2*%
%TO.N,R_K25_D*%
X197301000Y-91475000D03*
%TD*%
D10*
%TO.P,SWR19,*%
%TO.N,*%
X220526000Y-63475000D03*
D11*
%TO.P,SWR19,1*%
%TO.N,R_ROW2*%
X219226000Y-74525000D03*
%TO.P,SWR19,2*%
%TO.N,R_K19_D*%
X206826000Y-72425000D03*
%TD*%
D10*
%TO.P,SWR2,*%
%TO.N,*%
X187188000Y-25375000D03*
D11*
%TO.P,SWR2,1*%
%TO.N,R_ROW0*%
X185888000Y-36425000D03*
%TO.P,SWR2,2*%
%TO.N,R_K2_D*%
X173488000Y-34325000D03*
%TD*%
D10*
%TO.P,SWR3,*%
%TO.N,*%
X206238000Y-25375000D03*
D11*
%TO.P,SWR3,1*%
%TO.N,R_ROW0*%
X204938000Y-36425000D03*
%TO.P,SWR3,2*%
%TO.N,R_K3_D*%
X192538000Y-34325000D03*
%TD*%
D10*
%TO.P,SWR31,*%
%TO.N,*%
X215288000Y-111875000D03*
D11*
%TO.P,SWR31,1*%
%TO.N,R_ROW4*%
X216588000Y-100825000D03*
%TO.P,SWR31,2*%
%TO.N,R_K31_D*%
X228988000Y-102925000D03*
%TD*%
D10*
%TO.P,SWR17,*%
%TO.N,*%
X182425000Y-63475000D03*
D11*
%TO.P,SWR17,1*%
%TO.N,R_ROW2*%
X181125000Y-74525000D03*
%TO.P,SWR17,2*%
%TO.N,R_K17_D*%
X168725000Y-72425000D03*
%TD*%
D10*
%TO.P,SWR34,*%
%TO.N,*%
X294344000Y-101575000D03*
D11*
%TO.P,SWR34,1*%
%TO.N,R_ROW4*%
X293044000Y-112625000D03*
%TO.P,SWR34,2*%
%TO.N,R_K34_D*%
X280644000Y-110525000D03*
%TD*%
D10*
%TO.P,SWR4,*%
%TO.N,*%
X225288000Y-25375000D03*
D11*
%TO.P,SWR4,1*%
%TO.N,R_ROW0*%
X223988000Y-36425000D03*
%TO.P,SWR4,2*%
%TO.N,R_K4_D*%
X211588000Y-34325000D03*
%TD*%
D10*
%TO.P,SWR9,*%
%TO.N,*%
X177663000Y-44425000D03*
D11*
%TO.P,SWR9,1*%
%TO.N,R_ROW1*%
X176363000Y-55475000D03*
%TO.P,SWR9,2*%
%TO.N,R_K9_D*%
X163963000Y-53375000D03*
%TD*%
D10*
%TO.P,SWR28,*%
%TO.N,*%
X268151000Y-82525000D03*
D11*
%TO.P,SWR28,1*%
%TO.N,R_ROW3*%
X266851000Y-93575000D03*
%TO.P,SWR28,2*%
%TO.N,R_K28_D*%
X254451000Y-91475000D03*
%TD*%
D10*
%TO.P,SWR20,*%
%TO.N,*%
X239576000Y-63475000D03*
D11*
%TO.P,SWR20,1*%
%TO.N,R_ROW2*%
X238276000Y-74525000D03*
%TO.P,SWR20,2*%
%TO.N,R_K20_D*%
X225876000Y-72425000D03*
%TD*%
D10*
%TO.P,SWR29,*%
%TO.N,*%
X303869000Y-82525000D03*
D11*
%TO.P,SWR29,1*%
%TO.N,R_ROW3*%
X302569000Y-93575000D03*
%TO.P,SWR29,2*%
%TO.N,R_K29_D*%
X290169000Y-91475000D03*
%TD*%
D10*
%TO.P,SWR8,*%
%TO.N,*%
X311013000Y-25375000D03*
D11*
%TO.P,SWR8,1*%
%TO.N,R_ROW0*%
X309713000Y-36425000D03*
%TO.P,SWR8,2*%
%TO.N,R_K8_D*%
X297313000Y-34325000D03*
%TD*%
D10*
%TO.P,SWR23,*%
%TO.N,*%
X308632000Y-63475000D03*
D11*
%TO.P,SWR23,1*%
%TO.N,R_ROW2*%
X307332000Y-74525000D03*
%TO.P,SWR23,2*%
%TO.N,R_K23_D*%
X294932000Y-72425000D03*
%TD*%
D10*
%TO.P,SWR33,*%
%TO.N,*%
X270532000Y-101575000D03*
D11*
%TO.P,SWR33,1*%
%TO.N,R_ROW4*%
X269232000Y-112625000D03*
%TO.P,SWR33,2*%
%TO.N,R_K33_D*%
X256832000Y-110525000D03*
%TD*%
D10*
%TO.P,SWR1,*%
%TO.N,*%
X168138000Y-25375000D03*
D11*
%TO.P,SWR1,1*%
%TO.N,R_ROW0*%
X166838000Y-36425000D03*
%TO.P,SWR1,2*%
%TO.N,R_K1_D*%
X154438000Y-34325000D03*
%TD*%
D10*
%TO.P,SWR35,*%
%TO.N,*%
X318157000Y-101575000D03*
D11*
%TO.P,SWR35,1*%
%TO.N,R_ROW4*%
X316857000Y-112625000D03*
%TO.P,SWR35,2*%
%TO.N,R_K35_D*%
X304457000Y-110525000D03*
%TD*%
D10*
%TO.P,SWR15,*%
%TO.N,*%
X291963000Y-44425000D03*
D11*
%TO.P,SWR15,1*%
%TO.N,R_ROW1*%
X290663000Y-55475000D03*
%TO.P,SWR15,2*%
%TO.N,R_K15_D*%
X278263000Y-53375000D03*
%TD*%
D10*
%TO.P,SWR21,*%
%TO.N,*%
X258626000Y-63475000D03*
D11*
%TO.P,SWR21,1*%
%TO.N,R_ROW2*%
X257326000Y-74525000D03*
%TO.P,SWR21,2*%
%TO.N,R_K21_D*%
X244926000Y-72425000D03*
%TD*%
D10*
%TO.P,SWR12,*%
%TO.N,*%
X234813000Y-44425000D03*
D11*
%TO.P,SWR12,1*%
%TO.N,R_ROW1*%
X233513000Y-55475000D03*
%TO.P,SWR12,2*%
%TO.N,R_K12_D*%
X221113000Y-53375000D03*
%TD*%
D10*
%TO.P,SWR18,*%
%TO.N,*%
X201476000Y-63475000D03*
D11*
%TO.P,SWR18,1*%
%TO.N,R_ROW2*%
X200176000Y-74525000D03*
%TO.P,SWR18,2*%
%TO.N,R_K18_D*%
X187776000Y-72425000D03*
%TD*%
D10*
%TO.P,SWR22,*%
%TO.N,*%
X277675000Y-63475000D03*
D11*
%TO.P,SWR22,1*%
%TO.N,R_ROW2*%
X276375000Y-74525000D03*
%TO.P,SWR22,2*%
%TO.N,R_K22_D*%
X263975000Y-72425000D03*
%TD*%
D10*
%TO.P,SWR5,*%
%TO.N,*%
X244338000Y-25375000D03*
D11*
%TO.P,SWR5,1*%
%TO.N,R_ROW0*%
X243038000Y-36425000D03*
%TO.P,SWR5,2*%
%TO.N,R_K5_D*%
X230638000Y-34325000D03*
%TD*%
D10*
%TO.P,SWR6,*%
%TO.N,*%
X263388000Y-25375000D03*
D11*
%TO.P,SWR6,1*%
%TO.N,R_ROW0*%
X262088000Y-36425000D03*
%TO.P,SWR6,2*%
%TO.N,R_K6_D*%
X249688000Y-34325000D03*
%TD*%
D10*
%TO.P,SWR30,*%
%TO.N,*%
X194332000Y-101575000D03*
D11*
%TO.P,SWR30,1*%
%TO.N,R_ROW4*%
X193032000Y-112625000D03*
%TO.P,SWR30,2*%
%TO.N,R_K30_D*%
X180632000Y-110525000D03*
%TD*%
D10*
%TO.P,SWR27,*%
%TO.N,*%
X249100000Y-82525000D03*
D11*
%TO.P,SWR27,1*%
%TO.N,R_ROW3*%
X247800000Y-93575000D03*
%TO.P,SWR27,2*%
%TO.N,R_K27_D*%
X235400000Y-91475000D03*
%TD*%
D10*
%TO.P,SWR32,*%
%TO.N,*%
X246719000Y-101575000D03*
D11*
%TO.P,SWR32,1*%
%TO.N,R_ROW4*%
X245419000Y-112625000D03*
%TO.P,SWR32,2*%
%TO.N,R_K32_D*%
X233019000Y-110525000D03*
%TD*%
D10*
%TO.P,SWR16,*%
%TO.N,*%
X315775000Y-44425000D03*
D11*
%TO.P,SWR16,1*%
%TO.N,R_ROW1*%
X314475000Y-55475000D03*
%TO.P,SWR16,2*%
%TO.N,R_K16_D*%
X302075000Y-53375000D03*
%TD*%
D10*
%TO.P,SWR24,*%
%TO.N,*%
X191950000Y-82525000D03*
D11*
%TO.P,SWR24,1*%
%TO.N,R_ROW3*%
X190650000Y-93575000D03*
%TO.P,SWR24,2*%
%TO.N,R_K24_D*%
X178250000Y-91475000D03*
%TD*%
D10*
%TO.P,SWR11,*%
%TO.N,*%
X215763000Y-44425000D03*
D11*
%TO.P,SWR11,1*%
%TO.N,R_ROW1*%
X214463000Y-55475000D03*
%TO.P,SWR11,2*%
%TO.N,R_K11_D*%
X202063000Y-53375000D03*
%TD*%
D10*
%TO.P,SWR10,*%
%TO.N,*%
X196713000Y-44425000D03*
D11*
%TO.P,SWR10,1*%
%TO.N,R_ROW1*%
X195413000Y-55475000D03*
%TO.P,SWR10,2*%
%TO.N,R_K10_D*%
X183013000Y-53375000D03*
%TD*%
D10*
%TO.P,SWR26,*%
%TO.N,*%
X230051000Y-82525000D03*
D11*
%TO.P,SWR26,1*%
%TO.N,R_ROW3*%
X228751000Y-93575000D03*
%TO.P,SWR26,2*%
%TO.N,R_K26_D*%
X216351000Y-91475000D03*
%TD*%
D10*
%TO.P,SWR14,*%
%TO.N,*%
X272913000Y-44425000D03*
D11*
%TO.P,SWR14,1*%
%TO.N,R_ROW1*%
X271613000Y-55475000D03*
%TO.P,SWR14,2*%
%TO.N,R_K14_D*%
X259213000Y-53375000D03*
%TD*%
D10*
%TO.P,SWR7,*%
%TO.N,*%
X282438000Y-25375000D03*
D11*
%TO.P,SWR7,1*%
%TO.N,R_ROW0*%
X281138000Y-36425000D03*
%TO.P,SWR7,2*%
%TO.N,R_K7_D*%
X268738000Y-34325000D03*
%TD*%
D12*
%TO.P,DR9,1*%
%TO.N,R_K9_D*%
X164413000Y-46375000D03*
%TO.P,DR9,2*%
%TO.N,R_COL0*%
X166913000Y-46375000D03*
%TD*%
%TO.P,DR19,1*%
%TO.N,R_K19_D*%
X207276000Y-65425000D03*
%TO.P,DR19,2*%
%TO.N,R_COL2*%
X209776000Y-65425000D03*
%TD*%
D13*
%TO.P,J2,1*%
%TO.N,R_BAT_RAW*%
X280113000Y-92100000D03*
%TO.P,J2,2*%
%TO.N,R_GND*%
X279113000Y-92100000D03*
D14*
%TO.P,J2,MP1*%
%TO.N,N/C*%
X281613000Y-89700000D03*
%TO.P,J2,MP2*%
X277613000Y-89700000D03*
%TD*%
D12*
%TO.P,DR8,1*%
%TO.N,R_K8_D*%
X297763000Y-27325000D03*
%TO.P,DR8,2*%
%TO.N,R_COL7*%
X300263000Y-27325000D03*
%TD*%
%TO.P,DR30,1*%
%TO.N,R_K30_D*%
X181082000Y-103525000D03*
%TO.P,DR30,2*%
%TO.N,R_COL0*%
X183582000Y-103525000D03*
%TD*%
%TO.P,DR28,1*%
%TO.N,R_K28_D*%
X254901000Y-84475000D03*
%TO.P,DR28,2*%
%TO.N,R_COL4*%
X257401000Y-84475000D03*
%TD*%
%TO.P,DR10,1*%
%TO.N,R_K10_D*%
X183463000Y-46375000D03*
%TO.P,DR10,2*%
%TO.N,R_COL1*%
X185963000Y-46375000D03*
%TD*%
%TO.P,DR7,1*%
%TO.N,R_K7_D*%
X269188000Y-27325000D03*
%TO.P,DR7,2*%
%TO.N,R_COL6*%
X271688000Y-27325000D03*
%TD*%
%TO.P,DR14,1*%
%TO.N,R_K14_D*%
X259663000Y-46375000D03*
%TO.P,DR14,2*%
%TO.N,R_COL5*%
X262163000Y-46375000D03*
%TD*%
%TO.P,DR6,1*%
%TO.N,R_K6_D*%
X250138000Y-27325000D03*
%TO.P,DR6,2*%
%TO.N,R_COL5*%
X252638000Y-27325000D03*
%TD*%
%TO.P,DR26,1*%
%TO.N,R_K26_D*%
X216801000Y-84475000D03*
%TO.P,DR26,2*%
%TO.N,R_COL2*%
X219301000Y-84475000D03*
%TD*%
%TO.P,DR31,1*%
%TO.N,R_K31_D*%
X212038000Y-103525000D03*
%TO.P,DR31,2*%
%TO.N,R_COL1*%
X214538000Y-103525000D03*
%TD*%
%TO.P,DR32,1*%
%TO.N,R_K32_D*%
X233469000Y-103525000D03*
%TO.P,DR32,2*%
%TO.N,R_COL2*%
X235969000Y-103525000D03*
%TD*%
%TO.P,DR21,1*%
%TO.N,R_K21_D*%
X245376000Y-65425000D03*
%TO.P,DR21,2*%
%TO.N,R_COL4*%
X247876000Y-65425000D03*
%TD*%
%TO.P,DR5,1*%
%TO.N,R_K5_D*%
X231088000Y-27325000D03*
%TO.P,DR5,2*%
%TO.N,R_COL4*%
X233588000Y-27325000D03*
%TD*%
%TO.P,DR29,1*%
%TO.N,R_K29_D*%
X289619000Y-84475000D03*
%TO.P,DR29,2*%
%TO.N,R_COL5*%
X292119000Y-84475000D03*
%TD*%
%TO.P,DR12,1*%
%TO.N,R_K12_D*%
X221563000Y-46375000D03*
%TO.P,DR12,2*%
%TO.N,R_COL3*%
X224063000Y-46375000D03*
%TD*%
%TO.P,DR27,1*%
%TO.N,R_K27_D*%
X235850000Y-84475000D03*
%TO.P,DR27,2*%
%TO.N,R_COL3*%
X238350000Y-84475000D03*
%TD*%
D15*
%TO.P,U2,1*%
%TO.N,R_JOY_X*%
X327433000Y-79420000D03*
%TO.P,U2,2*%
%TO.N,R_JOY_Y*%
X324893000Y-79420000D03*
%TO.P,U2,3*%
%TO.N,R_JOY_SW*%
X322353000Y-79420000D03*
%TO.P,U2,4*%
%TO.N,R_ROW0*%
X319813000Y-79420000D03*
%TO.P,U2,5*%
%TO.N,R_JOY_SDA*%
X317273000Y-79420000D03*
%TO.P,U2,6*%
%TO.N,R_JOY_SCL*%
X314733000Y-79420000D03*
%TO.P,U2,7*%
%TO.N,R_ROW1*%
X312193000Y-79420000D03*
D16*
%TO.P,U2,8*%
%TO.N,R_ROW2*%
X312193000Y-95930000D03*
%TO.P,U2,9*%
%TO.N,R_ROW3*%
X314733000Y-95930000D03*
%TO.P,U2,10*%
%TO.N,R_ROW4*%
X317273000Y-95930000D03*
%TO.P,U2,11*%
%TO.N,R_COL0*%
X319813000Y-95930000D03*
%TO.P,U2,12*%
%TO.N,R_3V3*%
X322353000Y-95930000D03*
%TO.P,U2,13*%
%TO.N,R_GND*%
X324893000Y-95930000D03*
%TO.P,U2,14*%
%TO.N,N/C*%
X327433000Y-95930000D03*
D17*
%TO.P,U2,15*%
%TO.N,R_COL1*%
X326163000Y-79020000D03*
%TO.P,U2,16*%
%TO.N,R_COL2*%
X323623000Y-79020000D03*
%TO.P,U2,17*%
%TO.N,R_COL3*%
X321083000Y-79020000D03*
%TO.P,U2,18*%
%TO.N,R_COL4*%
X318543000Y-79020000D03*
%TO.P,U2,19*%
%TO.N,R_COL5*%
X316003000Y-79020000D03*
%TO.P,U2,20*%
%TO.N,N/C*%
X313463000Y-79020000D03*
D18*
%TO.P,U2,21*%
%TO.N,R_COL6*%
X313463000Y-96330000D03*
%TO.P,U2,22*%
%TO.N,R_COL7*%
X316003000Y-96330000D03*
%TO.P,U2,23*%
%TO.N,R_LED_CTRL*%
X318543000Y-96330000D03*
D19*
%TO.P,U2,24*%
%TO.N,N/C*%
X328385500Y-86405000D03*
%TO.P,U2,25*%
X328385500Y-88945000D03*
%TO.P,U2,26*%
X325845500Y-86405000D03*
%TO.P,U2,27*%
X325845500Y-88945000D03*
%TO.P,U2,28*%
X323369000Y-86405000D03*
%TO.P,U2,29*%
X323369000Y-88945000D03*
%TO.P,U2,30*%
X320829000Y-86405000D03*
%TO.P,U2,31*%
X320829000Y-88945000D03*
D20*
%TO.P,U2,32*%
%TO.N,R_BAT_SW*%
X314295180Y-86081012D03*
%TO.P,U2,33*%
%TO.N,R_GND*%
X314295180Y-89281010D03*
%TD*%
D12*
%TO.P,DR25,1*%
%TO.N,R_K25_D*%
X197751000Y-84475000D03*
%TO.P,DR25,2*%
%TO.N,R_COL1*%
X200251000Y-84475000D03*
%TD*%
%TO.P,DR22,1*%
%TO.N,R_K22_D*%
X264425000Y-65425000D03*
%TO.P,DR22,2*%
%TO.N,R_COL5*%
X266925000Y-65425000D03*
%TD*%
D21*
%TO.P,RLED2,1*%
%TO.N,R_LED_CTRL*%
X325463000Y-75175000D03*
%TO.P,RLED2,2*%
%TO.N,R_LED_A*%
X325463000Y-76825000D03*
%TD*%
D22*
%TO.P,DLED2,1*%
%TO.N,R_GND*%
X329713000Y-75200000D03*
%TO.P,DLED2,2*%
%TO.N,R_LED_A*%
X329713000Y-76800000D03*
%TD*%
D12*
%TO.P,DR11,1*%
%TO.N,R_K11_D*%
X202513000Y-46375000D03*
%TO.P,DR11,2*%
%TO.N,R_COL2*%
X205013000Y-46375000D03*
%TD*%
%TO.P,DR4,1*%
%TO.N,R_K4_D*%
X212038000Y-27325000D03*
%TO.P,DR4,2*%
%TO.N,R_COL3*%
X214538000Y-27325000D03*
%TD*%
%TO.P,DR34,1*%
%TO.N,R_K34_D*%
X279594000Y-103525000D03*
%TO.P,DR34,2*%
%TO.N,R_COL4*%
X282094000Y-103525000D03*
%TD*%
%TO.P,DR17,1*%
%TO.N,R_K17_D*%
X169175000Y-65425000D03*
%TO.P,DR17,2*%
%TO.N,R_COL0*%
X171675000Y-65425000D03*
%TD*%
%TO.P,DR23,1*%
%TO.N,R_K23_D*%
X295382000Y-65425000D03*
%TO.P,DR23,2*%
%TO.N,R_COL6*%
X297882000Y-65425000D03*
%TD*%
%TO.P,DR13,1*%
%TO.N,R_K13_D*%
X240613000Y-46375000D03*
%TO.P,DR13,2*%
%TO.N,R_COL4*%
X243113000Y-46375000D03*
%TD*%
%TO.P,DR18,1*%
%TO.N,R_K18_D*%
X188226000Y-65425000D03*
%TO.P,DR18,2*%
%TO.N,R_COL1*%
X190726000Y-65425000D03*
%TD*%
%TO.P,DR3,1*%
%TO.N,R_K3_D*%
X192988000Y-27325000D03*
%TO.P,DR3,2*%
%TO.N,R_COL2*%
X195488000Y-27325000D03*
%TD*%
%TO.P,DR20,1*%
%TO.N,R_K20_D*%
X226326000Y-65425000D03*
%TO.P,DR20,2*%
%TO.N,R_COL3*%
X228826000Y-65425000D03*
%TD*%
%TO.P,DR1,1*%
%TO.N,R_K1_D*%
X154888000Y-27325000D03*
%TO.P,DR1,2*%
%TO.N,R_COL0*%
X157388000Y-27325000D03*
%TD*%
%TO.P,DR15,1*%
%TO.N,R_K15_D*%
X278713000Y-46375000D03*
%TO.P,DR15,2*%
%TO.N,R_COL6*%
X281213000Y-46375000D03*
%TD*%
%TO.P,DR33,1*%
%TO.N,R_K33_D*%
X257282000Y-103525000D03*
%TO.P,DR33,2*%
%TO.N,R_COL3*%
X259782000Y-103525000D03*
%TD*%
%TO.P,DR2,1*%
%TO.N,R_K2_D*%
X173938000Y-27325000D03*
%TO.P,DR2,2*%
%TO.N,R_COL1*%
X176438000Y-27325000D03*
%TD*%
D23*
%TO.P,SWP2,1*%
%TO.N,R_BAT_RAW*%
X326813000Y-66375000D03*
%TO.P,SWP2,2*%
%TO.N,R_BAT_SW*%
X326813000Y-69375000D03*
%TO.P,SWP2,3*%
%TO.N,N/C*%
X326813000Y-70875000D03*
D24*
%TO.P,SWP2,S1*%
X327598000Y-64975000D03*
%TO.P,SWP2,S2*%
X329528000Y-64975000D03*
%TO.P,SWP2,S3*%
X329528000Y-72275000D03*
%TO.P,SWP2,S4*%
X327598000Y-72275000D03*
%TD*%
D12*
%TO.P,DR24,1*%
%TO.N,R_K24_D*%
X178700000Y-84475000D03*
%TO.P,DR24,2*%
%TO.N,R_COL0*%
X181200000Y-84475000D03*
%TD*%
D25*
%TO.P,J4,1*%
%TO.N,R_3V3*%
X183803000Y-116000000D03*
D26*
%TO.P,J4,2*%
%TO.N,R_GND*%
X185073000Y-116000000D03*
%TO.P,J4,3*%
%TO.N,R_JOY_X*%
X186343000Y-116000000D03*
%TO.P,J4,4*%
%TO.N,R_JOY_Y*%
X187613000Y-116000000D03*
%TO.P,J4,5*%
%TO.N,R_JOY_SW*%
X188883000Y-116000000D03*
%TO.P,J4,6*%
%TO.N,R_JOY_SDA*%
X190153000Y-116000000D03*
%TO.P,J4,7*%
%TO.N,R_JOY_SCL*%
X191423000Y-116000000D03*
%TD*%
D12*
%TO.P,DR35,1*%
%TO.N,R_K35_D*%
X304907000Y-103525000D03*
%TO.P,DR35,2*%
%TO.N,R_COL5*%
X307407000Y-103525000D03*
%TD*%
%TO.P,DR16,1*%
%TO.N,R_K16_D*%
X302525000Y-46375000D03*
%TO.P,DR16,2*%
%TO.N,R_COL7*%
X305025000Y-46375000D03*
%TD*%
D27*
%TO.N,R_ROW1*%
X252817900Y-62423300D03*
X292345400Y-56503700D03*
X215558800Y-57401700D03*
X232447000Y-57401700D03*
X268392700Y-62423300D03*
X305052200Y-56503700D03*
%TO.N,R_ROW2*%
X220588100Y-76614400D03*
X236985400Y-76614400D03*
X181910500Y-76614400D03*
%TO.N,R_COL0*%
X308518100Y-89351900D03*
X183963900Y-95580400D03*
%TO.N,R_COL1*%
X204715600Y-80010400D03*
X325770500Y-80010400D03*
%TO.N,R_COL2*%
X225096000Y-78440000D03*
X322730300Y-78026600D03*
%TO.N,R_COL3*%
X318097200Y-87681000D03*
X266461100Y-95285200D03*
%TO.N,R_COL4*%
X317942900Y-77846400D03*
X248868300Y-65196900D03*
X255332000Y-72893300D03*
X292405300Y-77846400D03*
%TO.N,R_COL5*%
X315599600Y-80742200D03*
X307978200Y-97673200D03*
X316902800Y-92074800D03*
X293936200Y-80742200D03*
%TO.N,R_GND*%
X276767700Y-97763000D03*
X324968500Y-91185600D03*
%TO.N,R_BAT_RAW*%
X287266600Y-77009600D03*
X325397000Y-74312000D03*
%TO.N,R_JOY_X*%
X323212900Y-99989000D03*
%TO.N,R_JOY_Y*%
X315395900Y-114412400D03*
%TO.N,R_JOY_SW*%
X320746900Y-109700200D03*
%TO.N,R_JOY_SDA*%
X316970500Y-115144400D03*
%TO.N,R_JOY_SCL*%
X213998400Y-105312900D03*
X308059500Y-91471500D03*
%TO.N,R_3V3*%
X320277900Y-115606500D03*
X193892200Y-115624500D03*
%TO.N,R_BAT_SW*%
X327564400Y-82945700D03*
%TO.N,R_LED_CTRL*%
X318094700Y-94567300D03*
X326855500Y-92612900D03*
%TD*%
D28*
%TO.N,R_ROW0*%
X177023500Y-26585900D02*
X173356700Y-26585900D01*
X230444200Y-26588300D02*
X228611900Y-28420600D01*
X215167000Y-26588300D02*
X211394200Y-26588300D01*
X262088000Y-36425000D02*
X259392600Y-33729600D01*
X274363200Y-31652500D02*
X274363200Y-28634500D01*
X190511900Y-28420600D02*
X190511900Y-31801100D01*
X259392600Y-33729600D02*
X257390300Y-33729600D01*
X319813000Y-46525000D02*
X319813000Y-79420000D01*
X276440300Y-33729600D02*
X274363200Y-31652500D01*
X236263200Y-28634500D02*
X234217000Y-26588300D01*
X303009900Y-28715800D02*
X303009900Y-31686400D01*
X253267000Y-26588300D02*
X249494200Y-26588300D01*
X266711900Y-31801100D02*
X262088000Y-36425000D01*
X171461900Y-31801100D02*
X166838000Y-36425000D01*
X179174200Y-31651800D02*
X179174200Y-28736600D01*
X243038000Y-36425000D02*
X240342600Y-33729600D01*
X217213200Y-28634500D02*
X215167000Y-26588300D01*
X211394200Y-26588300D02*
X209561900Y-28420600D01*
X221292600Y-33729600D02*
X219290300Y-33729600D01*
X223988000Y-36425000D02*
X221292600Y-33729600D01*
X198163200Y-31652500D02*
X198163200Y-28634500D01*
X268544200Y-26588300D02*
X266711900Y-28420600D01*
X228611900Y-28420600D02*
X228611900Y-31801100D01*
X240342600Y-33729600D02*
X238340300Y-33729600D01*
X219290300Y-33729600D02*
X217213200Y-31652500D01*
X204938000Y-36425000D02*
X202242600Y-33729600D01*
X249494200Y-26588300D02*
X247661900Y-28420600D01*
X290971200Y-26591800D02*
X300885900Y-26591800D01*
X198163200Y-28634500D02*
X196117000Y-26588300D01*
X247661900Y-28420600D02*
X247661900Y-31801100D01*
X173356700Y-26585900D02*
X171461900Y-28480700D01*
X217213200Y-31652500D02*
X217213200Y-28634500D01*
X255313200Y-31652500D02*
X255313200Y-28634500D01*
X236263200Y-31652500D02*
X236263200Y-28634500D01*
X228611900Y-31801100D02*
X223988000Y-36425000D01*
X255313200Y-28634500D02*
X253267000Y-26588300D01*
X303009900Y-31686400D02*
X305624800Y-34301300D01*
X247661900Y-31801100D02*
X243038000Y-36425000D01*
X200240300Y-33729600D02*
X198163200Y-31652500D01*
X281138000Y-36425000D02*
X278442600Y-33729600D01*
X266711900Y-28420600D02*
X266711900Y-31801100D01*
X309713000Y-36425000D02*
X319813000Y-46525000D01*
X274363200Y-28634500D02*
X272317000Y-26588300D01*
X305624800Y-34301300D02*
X307589300Y-34301300D01*
X192344200Y-26588300D02*
X190511900Y-28420600D01*
X181252000Y-33729600D02*
X179174200Y-31651800D01*
X238340300Y-33729600D02*
X236263200Y-31652500D01*
X234217000Y-26588300D02*
X230444200Y-26588300D01*
X307589300Y-34301300D02*
X309713000Y-36425000D01*
X171461900Y-28480700D02*
X171461900Y-31801100D01*
X300885900Y-26591800D02*
X303009900Y-28715800D01*
X278442600Y-33729600D02*
X276440300Y-33729600D01*
X281138000Y-36425000D02*
X290971200Y-26591800D01*
X179174200Y-28736600D02*
X177023500Y-26585900D01*
X202242600Y-33729600D02*
X200240300Y-33729600D01*
X209561900Y-28420600D02*
X209561900Y-31801100D01*
X209561900Y-31801100D02*
X204938000Y-36425000D01*
X183192600Y-33729600D02*
X181252000Y-33729600D01*
X257390300Y-33729600D02*
X255313200Y-31652500D01*
X196117000Y-26588300D02*
X192344200Y-26588300D01*
X185888000Y-36425000D02*
X183192600Y-33729600D01*
X190511900Y-31801100D02*
X185888000Y-36425000D01*
X272317000Y-26588300D02*
X268544200Y-26588300D01*
%TO.N,R_ROW1*%
X312193000Y-57757000D02*
X312193000Y-79420000D01*
X248531800Y-66199600D02*
X252563000Y-62168400D01*
X214463000Y-55475000D02*
X212536300Y-57401700D01*
X214463000Y-55475000D02*
X215558800Y-56570800D01*
X291691700Y-56503700D02*
X292345400Y-56503700D01*
X233513000Y-55475000D02*
X233513000Y-56335700D01*
X233513000Y-56335700D02*
X232447000Y-57401700D01*
X314475000Y-55475000D02*
X312193000Y-57757000D01*
X252563000Y-62168400D02*
X252817900Y-62423300D01*
X288710100Y-57427900D02*
X290663000Y-55475000D01*
X189635500Y-53512500D02*
X187673000Y-55475000D01*
X247252100Y-66199600D02*
X248531800Y-66199600D01*
X290663000Y-55475000D02*
X291691700Y-56503700D01*
X212536300Y-57401700D02*
X197339700Y-57401700D01*
X246604200Y-65551700D02*
X247252100Y-66199600D01*
X273477000Y-57339000D02*
X268392700Y-62423300D01*
X273565900Y-57427900D02*
X288710100Y-57427900D01*
X246604200Y-65339400D02*
X246604200Y-65551700D01*
X252563000Y-62168400D02*
X252563000Y-55475000D01*
X187673000Y-55475000D02*
X176363000Y-55475000D01*
X306305500Y-57757000D02*
X305052200Y-56503700D01*
X236739800Y-55475000D02*
X246604200Y-65339400D01*
X197339700Y-57401700D02*
X195413000Y-55475000D01*
X195413000Y-55475000D02*
X193450500Y-53512500D01*
X233513000Y-55475000D02*
X236739800Y-55475000D01*
X215558800Y-56570800D02*
X215558800Y-57401700D01*
X193450500Y-53512500D02*
X189635500Y-53512500D01*
X312193000Y-57757000D02*
X306305500Y-57757000D01*
X271613000Y-55475000D02*
X273477000Y-57339000D01*
X273477000Y-57339000D02*
X273565900Y-57427900D01*
%TO.N,R_ROW2*%
X259288800Y-76487800D02*
X257326000Y-74525000D01*
X289729100Y-74525000D02*
X276375000Y-74525000D01*
X202102700Y-76451700D02*
X217299300Y-76451700D01*
X236985400Y-75815600D02*
X236985400Y-76614400D01*
X257326000Y-74525000D02*
X257326000Y-74248500D01*
X200176000Y-74525000D02*
X202102700Y-76451700D01*
X276375000Y-74525000D02*
X274412200Y-76487800D01*
X181125000Y-74525000D02*
X181125000Y-75828900D01*
X217299300Y-76451700D02*
X219226000Y-74525000D01*
X291240000Y-79834000D02*
X292869400Y-78204600D01*
X292869400Y-78204600D02*
X292869400Y-77665300D01*
X219226000Y-74525000D02*
X220588100Y-75887100D01*
X291240000Y-84928000D02*
X291240000Y-79834000D01*
X249428400Y-74525000D02*
X238276000Y-74525000D01*
X292707300Y-85262200D02*
X291574200Y-85262200D01*
X306953600Y-84747400D02*
X293222100Y-84747400D01*
X307332000Y-74525000D02*
X306953600Y-74903400D01*
X255519100Y-72441600D02*
X251511800Y-72441600D01*
X238276000Y-74525000D02*
X236985400Y-75815600D01*
X274412200Y-76487800D02*
X259288800Y-76487800D01*
X292869400Y-77665300D02*
X289729100Y-74525000D01*
X181125000Y-75828900D02*
X181910500Y-76614400D01*
X306953600Y-74903400D02*
X306953600Y-84747400D01*
X220588100Y-75887100D02*
X220588100Y-76614400D01*
X251511800Y-72441600D02*
X249428400Y-74525000D01*
X257326000Y-74248500D02*
X255519100Y-72441600D01*
X306953600Y-91858000D02*
X311025600Y-95930000D01*
X293222100Y-84747400D02*
X292707300Y-85262200D01*
X291574200Y-85262200D02*
X291240000Y-84928000D01*
X306953600Y-84747400D02*
X306953600Y-91858000D01*
X311025600Y-95930000D02*
X312193000Y-95930000D01*
%TO.N,R_ROW3*%
X248680800Y-93575000D02*
X258532000Y-103426200D01*
X258532000Y-103426200D02*
X258532000Y-103610400D01*
X286238200Y-104272000D02*
X294844400Y-95665800D01*
X300478200Y-95665800D02*
X302569000Y-93575000D01*
X190650000Y-93575000D02*
X202095700Y-93575000D01*
X294844400Y-95665800D02*
X300478200Y-95665800D01*
X266912800Y-97721900D02*
X266912800Y-93636800D01*
X235077600Y-103942500D02*
X235442000Y-104306900D01*
X225967900Y-96358100D02*
X228751000Y-93575000D01*
X314733000Y-95930000D02*
X314733000Y-96437800D01*
X215152800Y-104257700D02*
X215376900Y-104033600D01*
X218380000Y-96358100D02*
X225967900Y-96358100D01*
X260361200Y-104273500D02*
X266912800Y-97721900D01*
X314733000Y-96437800D02*
X313965800Y-97205000D01*
X281457600Y-104272000D02*
X286238200Y-104272000D01*
X306199000Y-97205000D02*
X302569000Y-93575000D01*
X202095700Y-93575000D02*
X204080700Y-91590000D01*
X258532000Y-103610400D02*
X259195100Y-104273500D01*
X215376900Y-102232700D02*
X215059300Y-101915100D01*
X215376900Y-104033600D02*
X215376900Y-102232700D01*
X215059300Y-99678800D02*
X218380000Y-96358100D01*
X213643500Y-103967400D02*
X213933800Y-104257700D01*
X266912800Y-93636800D02*
X266851000Y-93575000D01*
X213933800Y-104257700D02*
X215152800Y-104257700D01*
X213643500Y-97517500D02*
X213643500Y-103967400D01*
X237068100Y-104306900D02*
X247800000Y-93575000D01*
X235442000Y-104306900D02*
X237068100Y-104306900D01*
X259195100Y-104273500D02*
X260361200Y-104273500D01*
X275123400Y-97721900D02*
X280844000Y-103442500D01*
X215059300Y-101915100D02*
X215059300Y-99678800D01*
X280844000Y-103658400D02*
X281457600Y-104272000D01*
X228751000Y-93575000D02*
X235077600Y-99901600D01*
X313965800Y-97205000D02*
X306199000Y-97205000D01*
X207716000Y-91590000D02*
X209701000Y-93575000D01*
X204080700Y-91590000D02*
X207716000Y-91590000D01*
X235077600Y-99901600D02*
X235077600Y-103942500D01*
X280844000Y-103442500D02*
X280844000Y-103658400D01*
X209701000Y-93575000D02*
X213643500Y-97517500D01*
X247800000Y-93575000D02*
X248680800Y-93575000D01*
X266912800Y-97721900D02*
X275123400Y-97721900D01*
%TO.N,R_ROW4*%
X267261700Y-114595300D02*
X269232000Y-112625000D01*
X213309700Y-104060300D02*
X213808800Y-104559400D01*
X218517700Y-98895300D02*
X230167000Y-98895300D01*
X316857000Y-112625000D02*
X316544600Y-112625000D01*
X317273000Y-95930000D02*
X316857000Y-96346000D01*
X236038700Y-104663000D02*
X237814700Y-106439000D01*
X237814700Y-106439000D02*
X237814700Y-106999600D01*
X316857000Y-96346000D02*
X316857000Y-112625000D01*
X235371400Y-104663000D02*
X236038700Y-104663000D01*
X314617900Y-114551700D02*
X294970700Y-114551700D01*
X216588000Y-100825000D02*
X218517700Y-98895300D01*
X230167000Y-98895300D02*
X234701000Y-103429300D01*
X202861300Y-102795700D02*
X212689200Y-102795700D01*
X242523000Y-109729000D02*
X245419000Y-112625000D01*
X193032000Y-112625000D02*
X202861300Y-102795700D01*
X212689200Y-102795700D02*
X213309700Y-103416200D01*
X291117300Y-114551700D02*
X293044000Y-112625000D01*
X237814700Y-106999600D02*
X240544100Y-109729000D01*
X316544600Y-112625000D02*
X314617900Y-114551700D01*
X269232000Y-112625000D02*
X271158700Y-114551700D01*
X240544100Y-109729000D02*
X242523000Y-109729000D01*
X247389300Y-114595300D02*
X267261700Y-114595300D01*
X271158700Y-114551700D02*
X291117300Y-114551700D01*
X234701000Y-103992600D02*
X235371400Y-104663000D01*
X294970700Y-114551700D02*
X293044000Y-112625000D01*
X245419000Y-112625000D02*
X247389300Y-114595300D01*
X234701000Y-103429300D02*
X234701000Y-103992600D01*
X215277800Y-104559400D02*
X216588000Y-103249200D01*
X213808800Y-104559400D02*
X215277800Y-104559400D01*
X213309700Y-103416200D02*
X213309700Y-104060300D01*
X216588000Y-103249200D02*
X216588000Y-100825000D01*
%TO.N,R_COL0*%
X181200000Y-81532800D02*
X181200000Y-84475000D01*
X175410300Y-71983500D02*
X175410300Y-75743100D01*
X315942200Y-91776000D02*
X310942200Y-91776000D01*
X161123300Y-37643100D02*
X166913000Y-43432800D01*
X166913000Y-43432800D02*
X166913000Y-46375000D01*
X183963900Y-95580400D02*
X183963900Y-103143100D01*
X169659900Y-63409900D02*
X171675000Y-65425000D01*
X310942200Y-91776000D02*
X308518100Y-89351900D01*
X171675000Y-65425000D02*
X174350200Y-68100200D01*
X166913000Y-46375000D02*
X169659900Y-49121900D01*
X319813000Y-95646800D02*
X315942200Y-91776000D01*
X319813000Y-95930000D02*
X319813000Y-95646800D01*
X161123300Y-33883500D02*
X161123300Y-37643100D01*
X157388000Y-27325000D02*
X160063200Y-30000200D01*
X174350200Y-68100200D02*
X174350200Y-70923400D01*
X169659900Y-49121900D02*
X169659900Y-63409900D01*
X181200000Y-84475000D02*
X183963900Y-87238900D01*
X160063200Y-30000200D02*
X160063200Y-32823400D01*
X175410300Y-75743100D02*
X181200000Y-81532800D01*
X183963900Y-103143100D02*
X183582000Y-103525000D01*
X160063200Y-32823400D02*
X161123300Y-33883500D01*
X183963900Y-87238900D02*
X183963900Y-95580400D01*
X174350200Y-70923400D02*
X175410300Y-71983500D01*
%TO.N,R_COL1*%
X179419400Y-43930100D02*
X179419400Y-33129500D01*
X193489800Y-77713800D02*
X200251000Y-84475000D01*
X174828700Y-56565500D02*
X174828700Y-51775200D01*
X178095400Y-28982400D02*
X176438000Y-27325000D01*
X200251000Y-84475000D02*
X204715600Y-80010400D01*
X326163000Y-79020000D02*
X325770500Y-79412500D01*
X190726000Y-65425000D02*
X183121800Y-57820800D01*
X209455000Y-87887600D02*
X209455000Y-84749800D01*
X178095400Y-31805500D02*
X178095400Y-28982400D01*
X176084000Y-57820800D02*
X174828700Y-56565500D01*
X180413000Y-44923700D02*
X184511700Y-44923700D01*
X193489800Y-68188800D02*
X193489800Y-77713800D01*
X176567400Y-50036500D02*
X176567400Y-48769300D01*
X209455000Y-84749800D02*
X204715600Y-80010400D01*
X214538000Y-103525000D02*
X214538000Y-92970600D01*
X180413000Y-44923700D02*
X179419400Y-43930100D01*
X174828700Y-51775200D02*
X176567400Y-50036500D01*
X179419400Y-33129500D02*
X178095400Y-31805500D01*
X184511700Y-44923700D02*
X185963000Y-46375000D01*
X325770500Y-79412500D02*
X325770500Y-80010400D01*
X190726000Y-65425000D02*
X193489800Y-68188800D01*
X183121800Y-57820800D02*
X176084000Y-57820800D01*
X214538000Y-92970600D02*
X209455000Y-87887600D01*
X176567400Y-48769300D02*
X180413000Y-44923700D01*
%TO.N,R_COL2*%
X211621700Y-67270700D02*
X209776000Y-65425000D01*
X225096000Y-78440000D02*
X228519400Y-81863400D01*
X211621700Y-68899600D02*
X211621700Y-67270700D01*
X214351100Y-71629000D02*
X211621700Y-68899600D01*
X219301000Y-84235000D02*
X225096000Y-78440000D01*
X323623000Y-79020000D02*
X323623000Y-78919300D01*
X198469400Y-33057000D02*
X198469400Y-39831400D01*
X216022100Y-59178900D02*
X216022100Y-54371800D01*
X219301000Y-84475000D02*
X219301000Y-84235000D01*
X206858700Y-49849600D02*
X206858700Y-48220700D01*
X209776000Y-65425000D02*
X216022100Y-59178900D01*
X216022100Y-54371800D02*
X214229300Y-52579000D01*
X228519400Y-88788100D02*
X235969000Y-96237700D01*
X214229300Y-52579000D02*
X209588100Y-52579000D01*
X198469400Y-39831400D02*
X205013000Y-46375000D01*
X195488000Y-27325000D02*
X197861500Y-29698500D01*
X197861500Y-32449100D02*
X198469400Y-33057000D01*
X228519400Y-81863400D02*
X228519400Y-88788100D01*
X323623000Y-78919300D02*
X322730300Y-78026600D01*
X225096000Y-78440000D02*
X225096000Y-77762500D01*
X235969000Y-96237700D02*
X235969000Y-103525000D01*
X209588100Y-52579000D02*
X206858700Y-49849600D01*
X218962500Y-71629000D02*
X214351100Y-71629000D01*
X206858700Y-48220700D02*
X205013000Y-46375000D01*
X225096000Y-77762500D02*
X218962500Y-71629000D01*
X197861500Y-29698500D02*
X197861500Y-32449100D01*
%TO.N,R_COL3*%
X247557300Y-90679000D02*
X242925100Y-90679000D01*
X230671700Y-68899600D02*
X233401100Y-71629000D01*
X226915600Y-63514600D02*
X228826000Y-65425000D01*
X217519400Y-39831400D02*
X224063000Y-46375000D01*
X236533700Y-73714400D02*
X236533700Y-82658700D01*
X230671700Y-67270700D02*
X230671700Y-68899600D01*
X216911500Y-29698500D02*
X216911500Y-32449100D01*
X217519400Y-33057000D02*
X217519400Y-39831400D01*
X228826000Y-65425000D02*
X230671700Y-67270700D01*
X266461100Y-95285200D02*
X259312300Y-102434000D01*
X226738200Y-51873300D02*
X226915600Y-52050700D01*
X259782000Y-103525000D02*
X259782000Y-102903700D01*
X321083000Y-80634900D02*
X318097200Y-83620700D01*
X226915600Y-52050700D02*
X226915600Y-63514600D01*
X259782000Y-102903700D02*
X259312300Y-102434000D01*
X216911500Y-32449100D02*
X217519400Y-33057000D01*
X234448300Y-71629000D02*
X236533700Y-73714400D01*
X240195700Y-86320700D02*
X238350000Y-84475000D01*
X242925100Y-90679000D02*
X240195700Y-87949600D01*
X259312300Y-102434000D02*
X247557300Y-90679000D01*
X240195700Y-87949600D02*
X240195700Y-86320700D01*
X233401100Y-71629000D02*
X234448300Y-71629000D01*
X321083000Y-79020000D02*
X321083000Y-80634900D01*
X318097200Y-83620700D02*
X318097200Y-87681000D01*
X214538000Y-27325000D02*
X216911500Y-29698500D01*
X224063000Y-46375000D02*
X226738200Y-49050200D01*
X236533700Y-82658700D02*
X238350000Y-84475000D01*
X226738200Y-49050200D02*
X226738200Y-51873300D01*
%TO.N,R_COL4*%
X246232300Y-52317400D02*
X246232300Y-63781300D01*
X245788200Y-49050200D02*
X245788200Y-51873300D01*
X284349200Y-85902500D02*
X292405300Y-77846400D01*
X236569400Y-39831400D02*
X243113000Y-46375000D01*
X255616800Y-82690800D02*
X255616800Y-73178100D01*
X318543000Y-79020000D02*
X318543000Y-78446500D01*
X269045000Y-90679000D02*
X281891000Y-103525000D01*
X245788200Y-51873300D02*
X246232300Y-52317400D01*
X255616800Y-73178100D02*
X255332000Y-72893300D01*
X257401000Y-84475000D02*
X259246700Y-86320700D01*
X282094000Y-103525000D02*
X284349200Y-101269800D01*
X248104100Y-65196900D02*
X248868300Y-65196900D01*
X243113000Y-46375000D02*
X245788200Y-49050200D01*
X257401000Y-84475000D02*
X255616800Y-82690800D01*
X259246700Y-87949600D02*
X261976100Y-90679000D01*
X233588000Y-27325000D02*
X235961500Y-29698500D01*
X284349200Y-101269800D02*
X284349200Y-85902500D01*
X235961500Y-29698500D02*
X235961500Y-32449100D01*
X236569400Y-33057000D02*
X236569400Y-39831400D01*
X281891000Y-103525000D02*
X282094000Y-103525000D01*
X261976100Y-90679000D02*
X269045000Y-90679000D01*
X246232300Y-63781300D02*
X247876000Y-65425000D01*
X235961500Y-32449100D02*
X236569400Y-33057000D01*
X259246700Y-86320700D02*
X259246700Y-87949600D01*
X318543000Y-78446500D02*
X317942900Y-77846400D01*
X247876000Y-65425000D02*
X248104100Y-65196900D01*
%TO.N,R_COL5*%
X307407000Y-98244400D02*
X307978200Y-97673200D01*
X307407000Y-103525000D02*
X307407000Y-98244400D01*
X281132900Y-65425000D02*
X266925000Y-65425000D01*
X293936200Y-80742200D02*
X293936200Y-78228300D01*
X264914600Y-63414600D02*
X266925000Y-65425000D01*
X255011500Y-32449100D02*
X255619400Y-33057000D01*
X292119000Y-82559400D02*
X292119000Y-84475000D01*
X315599600Y-79423400D02*
X315599600Y-80742200D01*
X264914600Y-49126600D02*
X264914600Y-63414600D01*
X255011500Y-29698500D02*
X255011500Y-32449100D01*
X315599600Y-80742200D02*
X316902800Y-82045400D01*
X252638000Y-27325000D02*
X255011500Y-29698500D01*
X262163000Y-46375000D02*
X264914600Y-49126600D01*
X293936200Y-80742200D02*
X292119000Y-82559400D01*
X255619400Y-33057000D02*
X255619400Y-39831400D01*
X293936200Y-78228300D02*
X281132900Y-65425000D01*
X316003000Y-79020000D02*
X315599600Y-79423400D01*
X255619400Y-39831400D02*
X262163000Y-46375000D01*
X316902800Y-82045400D02*
X316902800Y-92074800D01*
%TO.N,R_COL6*%
X307126600Y-71629000D02*
X308863800Y-73366200D01*
X290389200Y-52579000D02*
X285788100Y-52579000D01*
X271688000Y-27325000D02*
X274061500Y-29698500D01*
X274669400Y-33057000D02*
X274669400Y-39831400D01*
X274061500Y-32449100D02*
X274669400Y-33057000D01*
X283058700Y-49849600D02*
X283058700Y-48220700D01*
X313463000Y-95408700D02*
X313463000Y-96330000D01*
X299727700Y-68899600D02*
X302457100Y-71629000D01*
X307255300Y-91733000D02*
X307900200Y-92377900D01*
X307900200Y-92377900D02*
X310432100Y-92377900D01*
X297882000Y-65425000D02*
X299727700Y-67270700D01*
X297882000Y-60071800D02*
X290389200Y-52579000D01*
X302457100Y-71629000D02*
X307126600Y-71629000D01*
X274061500Y-29698500D02*
X274061500Y-32449100D01*
X299727700Y-67270700D02*
X299727700Y-68899600D01*
X285788100Y-52579000D02*
X283058700Y-49849600D01*
X308863800Y-73366200D02*
X308863800Y-83770700D01*
X313462900Y-95408700D02*
X313463000Y-95408700D01*
X308863800Y-83770700D02*
X307255300Y-85379200D01*
X283058700Y-48220700D02*
X281213000Y-46375000D01*
X307255300Y-85379200D02*
X307255300Y-91733000D01*
X297882000Y-65425000D02*
X297882000Y-60071800D01*
X310432100Y-92377900D02*
X313462900Y-95408700D01*
X274669400Y-39831400D02*
X281213000Y-46375000D01*
%TO.N,R_COL7*%
X316003000Y-95391900D02*
X316003000Y-96330000D01*
X312207000Y-93726100D02*
X314337200Y-93726100D01*
X303807200Y-46375000D02*
X303807200Y-60135400D01*
X309175000Y-84036100D02*
X307557000Y-85654100D01*
X303807200Y-33171300D02*
X303807200Y-46375000D01*
X307557000Y-85654100D02*
X307557000Y-91608000D01*
X300263000Y-27325000D02*
X301976400Y-29038400D01*
X307557000Y-91608000D02*
X308025200Y-92076200D01*
X307536300Y-70420900D02*
X309175000Y-72059600D01*
X307536300Y-63864500D02*
X307536300Y-70420900D01*
X301976400Y-29038400D02*
X301976400Y-31340500D01*
X309175000Y-72059600D02*
X309175000Y-84036100D01*
X303807200Y-60135400D02*
X307536300Y-63864500D01*
X303807200Y-46375000D02*
X305025000Y-46375000D01*
X310557100Y-92076200D02*
X312207000Y-93726100D01*
X314337200Y-93726100D02*
X316003000Y-95391900D01*
X301976400Y-31340500D02*
X303807200Y-33171300D01*
X308025200Y-92076200D02*
X310557100Y-92076200D01*
%TO.N,R_GND*%
X324893000Y-95930000D02*
X325380800Y-95442200D01*
X327073200Y-93087500D02*
X329809700Y-90351000D01*
X325380800Y-91597900D02*
X324968500Y-91185600D01*
X324754700Y-76372900D02*
X325127600Y-76000000D01*
X279113000Y-95417700D02*
X279113000Y-92100000D01*
X324754700Y-77297200D02*
X324754700Y-76372900D01*
X276767700Y-97763000D02*
X279113000Y-95417700D01*
X325380800Y-93087500D02*
X325380800Y-91597900D01*
X329809700Y-79159100D02*
X328222300Y-77571700D01*
X328913000Y-76000000D02*
X329713000Y-75200000D01*
X328222300Y-77571700D02*
X325029200Y-77571700D01*
X325380800Y-93087500D02*
X327073200Y-93087500D01*
X325029200Y-77571700D02*
X324754700Y-77297200D01*
X325127600Y-76000000D02*
X328913000Y-76000000D01*
X325380800Y-95442200D02*
X325380800Y-93087500D01*
X329809700Y-90351000D02*
X329809700Y-79159100D01*
%TO.N,R_BAT_RAW*%
X280113000Y-84163200D02*
X280113000Y-92100000D01*
X287266600Y-77009600D02*
X280113000Y-84163200D01*
X327004100Y-71648300D02*
X325397000Y-73255400D01*
X325397000Y-73255400D02*
X325397000Y-74312000D01*
X328352300Y-71648300D02*
X327004100Y-71648300D01*
X329441800Y-70558800D02*
X328352300Y-71648300D01*
X329441800Y-69746600D02*
X329441800Y-70558800D01*
X326813000Y-66375000D02*
X326813000Y-67117800D01*
X326813000Y-67117800D02*
X329441800Y-69746600D01*
%TO.N,R_JOY_X*%
X324238400Y-94805500D02*
X323212900Y-95831000D01*
X324514000Y-94228200D02*
X324389000Y-94228200D01*
X324514000Y-82339000D02*
X324514000Y-94228200D01*
X324212300Y-94404900D02*
X324212300Y-94779400D01*
X323212900Y-95831000D02*
X323212900Y-99989000D01*
X324389000Y-94228200D02*
X324212300Y-94404900D01*
X327433000Y-79420000D02*
X324514000Y-82339000D01*
X324212300Y-94779400D02*
X324238400Y-94805500D01*
%TO.N,R_JOY_Y*%
X321430300Y-111343900D02*
X317173400Y-115600800D01*
X316584300Y-115600800D02*
X315395900Y-114412400D01*
X321430300Y-90931000D02*
X321430300Y-111343900D01*
X317173400Y-115600800D02*
X316584300Y-115600800D01*
X322257400Y-90103900D02*
X321430300Y-90931000D01*
X322257400Y-82055600D02*
X322257400Y-90103900D01*
X324893000Y-79420000D02*
X322257400Y-82055600D01*
%TO.N,R_JOY_SW*%
X321905700Y-79867300D02*
X321905700Y-89391000D01*
X320975600Y-90321100D02*
X320975600Y-109471500D01*
X321905700Y-89391000D02*
X320975600Y-90321100D01*
X322353000Y-79420000D02*
X321905700Y-79867300D01*
X320975600Y-109471500D02*
X320746900Y-109700200D01*
%TO.N,R_JOY_SDA*%
X317273000Y-90992200D02*
X320518100Y-94237300D01*
X320295200Y-111819700D02*
X316970500Y-115144400D01*
X317273000Y-79420000D02*
X317273000Y-90992200D01*
X320518100Y-94237300D02*
X320518100Y-108977800D01*
X320518100Y-108977800D02*
X320295200Y-109200700D01*
X320295200Y-109200700D02*
X320295200Y-111819700D01*
%TO.N,R_JOY_SCL*%
X191423000Y-116000000D02*
X191499200Y-116076200D01*
X314733000Y-79420000D02*
X308059500Y-86093500D01*
X191499200Y-116076200D02*
X203235100Y-116076200D01*
X308059500Y-86093500D02*
X308059500Y-91471500D01*
X203235100Y-116076200D02*
X213998400Y-105312900D01*
%TO.N,R_3V3*%
X184603000Y-115200000D02*
X193467700Y-115200000D01*
X193467700Y-115200000D02*
X193892200Y-115624500D01*
X322353000Y-113531400D02*
X320277900Y-115606500D01*
X322353000Y-95930000D02*
X322353000Y-113531400D01*
X183803000Y-116000000D02*
X184603000Y-115200000D01*
%TO.N,R_BAT_SW*%
X324779200Y-78175100D02*
X327950300Y-78175100D01*
X327950300Y-78175100D02*
X328146300Y-78371100D01*
X324151300Y-71060000D02*
X324151300Y-77547200D01*
X325836300Y-69375000D02*
X324151300Y-71060000D01*
X328146300Y-82363800D02*
X327564400Y-82945700D01*
X324151300Y-77547200D02*
X324779200Y-78175100D01*
X326813000Y-69375000D02*
X325836300Y-69375000D01*
X328146300Y-78371100D02*
X328146300Y-82363800D01*
%TO.N,R_K1_D*%
X154438000Y-27775000D02*
X154438000Y-34325000D01*
X154888000Y-27325000D02*
X154438000Y-27775000D01*
%TO.N,R_K2_D*%
X173488000Y-27775000D02*
X173488000Y-34325000D01*
X173938000Y-27325000D02*
X173488000Y-27775000D01*
%TO.N,R_K3_D*%
X192988000Y-27325000D02*
X192538000Y-27775000D01*
X192538000Y-27775000D02*
X192538000Y-34325000D01*
%TO.N,R_K4_D*%
X212038000Y-27325000D02*
X211588000Y-27775000D01*
X211588000Y-27775000D02*
X211588000Y-34325000D01*
%TO.N,R_K5_D*%
X230638000Y-27775000D02*
X230638000Y-34325000D01*
X231088000Y-27325000D02*
X230638000Y-27775000D01*
%TO.N,R_K6_D*%
X250138000Y-27325000D02*
X249688000Y-27775000D01*
X249688000Y-27775000D02*
X249688000Y-34325000D01*
%TO.N,R_K7_D*%
X269188000Y-27325000D02*
X268738000Y-27775000D01*
X268738000Y-27775000D02*
X268738000Y-34325000D01*
%TO.N,R_K8_D*%
X297763000Y-27325000D02*
X297313000Y-27775000D01*
X297313000Y-27775000D02*
X297313000Y-34325000D01*
%TO.N,R_K9_D*%
X164413000Y-46375000D02*
X163963000Y-46825000D01*
X163963000Y-46825000D02*
X163963000Y-53375000D01*
%TO.N,R_K10_D*%
X183013000Y-46825000D02*
X183013000Y-53375000D01*
X183463000Y-46375000D02*
X183013000Y-46825000D01*
%TO.N,R_K11_D*%
X202063000Y-46825000D02*
X202063000Y-53375000D01*
X202513000Y-46375000D02*
X202063000Y-46825000D01*
%TO.N,R_K12_D*%
X221113000Y-46825000D02*
X221113000Y-53375000D01*
X221563000Y-46375000D02*
X221113000Y-46825000D01*
%TO.N,R_K13_D*%
X240163000Y-46825000D02*
X240163000Y-53375000D01*
X240613000Y-46375000D02*
X240163000Y-46825000D01*
%TO.N,R_K14_D*%
X259663000Y-46375000D02*
X259213000Y-46825000D01*
X259213000Y-46825000D02*
X259213000Y-53375000D01*
%TO.N,R_K15_D*%
X278713000Y-46375000D02*
X278263000Y-46825000D01*
X278263000Y-46825000D02*
X278263000Y-53375000D01*
%TO.N,R_K16_D*%
X302075000Y-46825000D02*
X302075000Y-53375000D01*
X302525000Y-46375000D02*
X302075000Y-46825000D01*
%TO.N,R_K17_D*%
X169175000Y-65425000D02*
X168725000Y-65875000D01*
X168725000Y-65875000D02*
X168725000Y-72425000D01*
%TO.N,R_K18_D*%
X187776000Y-65875000D02*
X187776000Y-72425000D01*
X188226000Y-65425000D02*
X187776000Y-65875000D01*
%TO.N,R_K19_D*%
X206826000Y-65875000D02*
X206826000Y-72425000D01*
X207276000Y-65425000D02*
X206826000Y-65875000D01*
%TO.N,R_K20_D*%
X225876000Y-65875000D02*
X225876000Y-72425000D01*
X226326000Y-65425000D02*
X225876000Y-65875000D01*
%TO.N,R_K21_D*%
X245376000Y-65425000D02*
X244926000Y-65875000D01*
X244926000Y-65875000D02*
X244926000Y-72425000D01*
%TO.N,R_K22_D*%
X264425000Y-65425000D02*
X263975000Y-65875000D01*
X263975000Y-65875000D02*
X263975000Y-72425000D01*
%TO.N,R_K23_D*%
X294932000Y-65875000D02*
X294932000Y-72425000D01*
X295382000Y-65425000D02*
X294932000Y-65875000D01*
%TO.N,R_K24_D*%
X178700000Y-84475000D02*
X178250000Y-84925000D01*
X178250000Y-84925000D02*
X178250000Y-91475000D01*
%TO.N,R_K25_D*%
X197301000Y-84925000D02*
X197301000Y-91475000D01*
X197751000Y-84475000D02*
X197301000Y-84925000D01*
%TO.N,R_K26_D*%
X216351000Y-84925000D02*
X216351000Y-91475000D01*
X216801000Y-84475000D02*
X216351000Y-84925000D01*
%TO.N,R_K27_D*%
X235850000Y-84475000D02*
X235400000Y-84925000D01*
X235400000Y-84925000D02*
X235400000Y-91475000D01*
%TO.N,R_K28_D*%
X254451000Y-84925000D02*
X254451000Y-91475000D01*
X254901000Y-84475000D02*
X254451000Y-84925000D01*
%TO.N,R_K29_D*%
X289619000Y-90925000D02*
X290169000Y-91475000D01*
X289619000Y-84475000D02*
X289619000Y-90925000D01*
%TO.N,R_K30_D*%
X180632000Y-103975000D02*
X180632000Y-110525000D01*
X181082000Y-103525000D02*
X180632000Y-103975000D01*
%TO.N,R_K31_D*%
X222509800Y-103798100D02*
X223595500Y-104883800D01*
X223595500Y-104883800D02*
X227029200Y-104883800D01*
X212038000Y-103525000D02*
X213374100Y-104861100D01*
X215402800Y-104861100D02*
X216465800Y-103798100D01*
X213374100Y-104861100D02*
X215402800Y-104861100D01*
X216465800Y-103798100D02*
X222509800Y-103798100D01*
X227029200Y-104883800D02*
X228988000Y-102925000D01*
%TO.N,R_K32_D*%
X233469000Y-110075000D02*
X233019000Y-110525000D01*
X233469000Y-103525000D02*
X233469000Y-110075000D01*
%TO.N,R_K33_D*%
X257282000Y-103525000D02*
X256832000Y-103975000D01*
X256832000Y-103975000D02*
X256832000Y-110525000D01*
%TO.N,R_K34_D*%
X279594000Y-103525000D02*
X279594000Y-109475000D01*
X279594000Y-109475000D02*
X280644000Y-110525000D01*
%TO.N,R_K35_D*%
X304907000Y-103525000D02*
X304457000Y-103975000D01*
X304457000Y-103975000D02*
X304457000Y-110525000D01*
%TO.N,R_LED_CTRL*%
X324453000Y-76185000D02*
X324453000Y-77422200D01*
X324453000Y-77422200D02*
X324904200Y-77873400D01*
X318094700Y-94567300D02*
X318094700Y-95881700D01*
X324904200Y-77873400D02*
X328097300Y-77873400D01*
X329502100Y-89966300D02*
X326855500Y-92612900D01*
X328097300Y-77873400D02*
X329502100Y-79278200D01*
X318094700Y-95881700D02*
X318543000Y-96330000D01*
X329502100Y-79278200D02*
X329502100Y-89966300D01*
X325463000Y-75175000D02*
X324453000Y-76185000D01*
%TO.N,R_LED_A*%
X325488000Y-76800000D02*
X325463000Y-76825000D01*
X329713000Y-76800000D02*
X325488000Y-76800000D01*
%TD*%
M02*
