%TF.GenerationSoftware,KiCad,Pcbnew,9.0.6*%
%TF.CreationDate,2026-08-20T21:11:53+09:00*%
%TF.ProjectId,SplitChoc64_LEFT,53706c69-7443-4686-9f63-36345f4c4546,rev?*%
%TF.SameCoordinates,Original*%
%TF.FileFunction,Copper,L2,Bot*%
%TF.FilePolarity,Positive*%
%FSLAX46Y46*%
G04 Gerber Fmt 4.6, Leading zero omitted, Abs format (unit mm)*
G04 Created by KiCad (PCBNEW 9.0.6) date 2026-08-20 21:11:53*
%MOMM*%
%LPD*%
G01*
G04 APERTURE LIST*
G04 Aperture macros list*
%AMRoundRect*
0 Rectangle with rounded corners*
0 $1 Rounding radius*
0 $2 $3 $4 $5 $6 $7 $8 $9 X,Y pos of 4 corners*
0 Add a 4 corners polygon primitive as box body*
4,1,4,$2,$3,$4,$5,$6,$7,$8,$9,$2,$3,0*
0 Add four circle primitives for the rounded corners*
1,1,$1+$1,$2,$3*
1,1,$1+$1,$4,$5*
1,1,$1+$1,$6,$7*
1,1,$1+$1,$8,$9*
0 Add four rect primitives between the rounded corners*
20,1,$1+$1,$2,$3,$4,$5,0*
20,1,$1+$1,$4,$5,$6,$7,0*
20,1,$1+$1,$6,$7,$8,$9,0*
20,1,$1+$1,$8,$9,$2,$3,0*%
%AMFreePoly0*
4,1,15,-0.616000,0.142500,-0.283500,0.475000,0.521000,0.475000,0.557355,0.467769,0.588175,0.447175,0.608769,0.416355,0.616000,0.380000,0.616000,-0.380000,0.608769,-0.416355,0.588175,-0.447175,0.557355,-0.467769,0.521000,-0.475000,-0.283500,-0.475000,-0.616000,-0.142500,-0.616000,0.142500,-0.616000,0.142500,$1*%
G04 Aperture macros list end*
%TA.AperFunction,ComponentPad*%
%ADD10C,1.650000*%
%TD*%
%TA.AperFunction,SMDPad,CuDef*%
%ADD11RoundRect,0.520000X-0.780000X-0.780000X0.780000X-0.780000X0.780000X0.780000X-0.780000X0.780000X0*%
%TD*%
%TA.AperFunction,SMDPad,CuDef*%
%ADD12RoundRect,0.200000X0.400000X0.300000X-0.400000X0.300000X-0.400000X-0.300000X0.400000X-0.300000X0*%
%TD*%
%TA.AperFunction,SMDPad,CuDef*%
%ADD13R,1.500000X0.700000*%
%TD*%
%TA.AperFunction,SMDPad,CuDef*%
%ADD14R,1.000000X0.800000*%
%TD*%
%TA.AperFunction,ComponentPad*%
%ADD15R,1.100000X1.100000*%
%TD*%
%TA.AperFunction,ComponentPad*%
%ADD16C,1.100000*%
%TD*%
%TA.AperFunction,SMDPad,CuDef*%
%ADD17RoundRect,0.160000X-0.290000X0.240000X-0.290000X-0.240000X0.290000X-0.240000X0.290000X0.240000X0*%
%TD*%
%TA.AperFunction,SMDPad,CuDef*%
%ADD18RoundRect,0.095000X0.380000X-0.921000X0.380000X0.921000X-0.380000X0.921000X-0.380000X-0.921000X0*%
%TD*%
%TA.AperFunction,SMDPad,CuDef*%
%ADD19RoundRect,0.095000X-0.380000X0.921000X-0.380000X-0.921000X0.380000X-0.921000X0.380000X0.921000X0*%
%TD*%
%TA.AperFunction,SMDPad,CuDef*%
%ADD20FreePoly0,90.000000*%
%TD*%
%TA.AperFunction,SMDPad,CuDef*%
%ADD21FreePoly0,270.000000*%
%TD*%
%TA.AperFunction,SMDPad,CuDef*%
%ADD22C,1.700000*%
%TD*%
%TA.AperFunction,ComponentPad*%
%ADD23O,4.200000X2.600000*%
%TD*%
%TA.AperFunction,SMDPad,CuDef*%
%ADD24RoundRect,0.190000X-0.285000X-0.285000X0.285000X-0.285000X0.285000X0.285000X-0.285000X0.285000X0*%
%TD*%
%TA.AperFunction,SMDPad,CuDef*%
%ADD25RoundRect,0.090000X-0.210000X-0.610000X0.210000X-0.610000X0.210000X0.610000X-0.210000X0.610000X0*%
%TD*%
%TA.AperFunction,SMDPad,CuDef*%
%ADD26R,1.200000X1.600000*%
%TD*%
%TA.AperFunction,ViaPad*%
%ADD27C,0.450000*%
%TD*%
%TA.AperFunction,Conductor*%
%ADD28C,0.150000*%
%TD*%
G04 APERTURE END LIST*
D10*
%TO.P,SWL2,*%
%TO.N,*%
X54575000Y-25375000D03*
D11*
%TO.P,SWL2,1*%
%TO.N,L_ROW0*%
X53275000Y-36425000D03*
%TO.P,SWL2,2*%
%TO.N,L_K2_D*%
X40875000Y-34325000D03*
%TD*%
D10*
%TO.P,SWL11,*%
%TO.N,*%
X121250000Y-44425000D03*
D11*
%TO.P,SWL11,1*%
%TO.N,L_ROW1*%
X119950000Y-55475000D03*
%TO.P,SWL11,2*%
%TO.N,L_K11_D*%
X107550000Y-53375000D03*
%TD*%
D10*
%TO.P,SWL28,*%
%TO.N,*%
X106963000Y-101575000D03*
D11*
%TO.P,SWL28,1*%
%TO.N,L_ROW4*%
X105663000Y-112625000D03*
%TO.P,SWL28,2*%
%TO.N,L_K28_D*%
X93263000Y-110525000D03*
%TD*%
D10*
%TO.P,SWL9,*%
%TO.N,*%
X83150000Y-44425000D03*
D11*
%TO.P,SWL9,1*%
%TO.N,L_ROW1*%
X81850000Y-55475000D03*
%TO.P,SWL9,2*%
%TO.N,L_K9_D*%
X69450000Y-53375000D03*
%TD*%
D10*
%TO.P,SWL15,*%
%TO.N,*%
X87913000Y-63475000D03*
D11*
%TO.P,SWL15,1*%
%TO.N,L_ROW2*%
X86613000Y-74525000D03*
%TO.P,SWL15,2*%
%TO.N,L_K15_D*%
X74213000Y-72425000D03*
%TD*%
D10*
%TO.P,SWL26,*%
%TO.N,*%
X61719000Y-101575000D03*
D11*
%TO.P,SWL26,1*%
%TO.N,L_ROW4*%
X60419000Y-112625000D03*
%TO.P,SWL26,2*%
%TO.N,L_K26_D*%
X48019000Y-110525000D03*
%TD*%
D10*
%TO.P,SWL23,*%
%TO.N,*%
X135538000Y-82525000D03*
D11*
%TO.P,SWL23,1*%
%TO.N,L_ROW3*%
X134238000Y-93575000D03*
%TO.P,SWL23,2*%
%TO.N,L_K23_D*%
X121838000Y-91475000D03*
%TD*%
D10*
%TO.P,SWL7,*%
%TO.N,*%
X40288000Y-44425000D03*
D11*
%TO.P,SWL7,1*%
%TO.N,L_ROW1*%
X38988000Y-55475000D03*
%TO.P,SWL7,2*%
%TO.N,L_K7_D*%
X26588000Y-53375000D03*
%TD*%
D10*
%TO.P,SWL21,*%
%TO.N,*%
X97438000Y-82525000D03*
D11*
%TO.P,SWL21,1*%
%TO.N,L_ROW3*%
X96138000Y-93575000D03*
%TO.P,SWL21,2*%
%TO.N,L_K21_D*%
X83738000Y-91475000D03*
%TD*%
D10*
%TO.P,SWL29,*%
%TO.N,*%
X125538000Y-111875000D03*
D11*
%TO.P,SWL29,1*%
%TO.N,L_ROW4*%
X126838000Y-100825000D03*
%TO.P,SWL29,2*%
%TO.N,L_K29_D*%
X139238000Y-102925000D03*
%TD*%
D10*
%TO.P,SWL24,*%
%TO.N,*%
X154588000Y-82525000D03*
D11*
%TO.P,SWL24,1*%
%TO.N,L_ROW3*%
X153288000Y-93575000D03*
%TO.P,SWL24,2*%
%TO.N,L_K24_D*%
X140888000Y-91475000D03*
%TD*%
D10*
%TO.P,SWL18,*%
%TO.N,*%
X145062000Y-63475000D03*
D11*
%TO.P,SWL18,1*%
%TO.N,L_ROW2*%
X143762000Y-74525000D03*
%TO.P,SWL18,2*%
%TO.N,L_K18_D*%
X131362000Y-72425000D03*
%TD*%
D10*
%TO.P,SWL8,*%
%TO.N,*%
X64100000Y-44425000D03*
D11*
%TO.P,SWL8,1*%
%TO.N,L_ROW1*%
X62800000Y-55475000D03*
%TO.P,SWL8,2*%
%TO.N,L_K8_D*%
X50400000Y-53375000D03*
%TD*%
D10*
%TO.P,SWL14,*%
%TO.N,*%
X68863000Y-63475000D03*
D11*
%TO.P,SWL14,1*%
%TO.N,L_ROW2*%
X67563000Y-74525000D03*
%TO.P,SWL14,2*%
%TO.N,L_K14_D*%
X55163000Y-72425000D03*
%TD*%
D10*
%TO.P,SWL12,*%
%TO.N,*%
X140300000Y-44425000D03*
D11*
%TO.P,SWL12,1*%
%TO.N,L_ROW1*%
X139000000Y-55475000D03*
%TO.P,SWL12,2*%
%TO.N,L_K12_D*%
X126600000Y-53375000D03*
%TD*%
D10*
%TO.P,SWL19,*%
%TO.N,*%
X47431000Y-82525000D03*
D11*
%TO.P,SWL19,1*%
%TO.N,L_ROW3*%
X46131000Y-93575000D03*
%TO.P,SWL19,2*%
%TO.N,L_K19_D*%
X33731000Y-91475000D03*
%TD*%
D10*
%TO.P,SWL17,*%
%TO.N,*%
X126013000Y-63475000D03*
D11*
%TO.P,SWL17,1*%
%TO.N,L_ROW2*%
X124713000Y-74525000D03*
%TO.P,SWL17,2*%
%TO.N,L_K17_D*%
X112313000Y-72425000D03*
%TD*%
D10*
%TO.P,SWL27,*%
%TO.N,*%
X85531000Y-101575000D03*
D11*
%TO.P,SWL27,1*%
%TO.N,L_ROW4*%
X84231000Y-112625000D03*
%TO.P,SWL27,2*%
%TO.N,L_K27_D*%
X71831000Y-110525000D03*
%TD*%
D10*
%TO.P,SWL5,*%
%TO.N,*%
X111725000Y-25375000D03*
D11*
%TO.P,SWL5,1*%
%TO.N,L_ROW0*%
X110425000Y-36425000D03*
%TO.P,SWL5,2*%
%TO.N,L_K5_D*%
X98025000Y-34325000D03*
%TD*%
D10*
%TO.P,SWL1,*%
%TO.N,*%
X35525000Y-25375000D03*
D11*
%TO.P,SWL1,1*%
%TO.N,L_ROW0*%
X34225000Y-36425000D03*
%TO.P,SWL1,2*%
%TO.N,L_K1_D*%
X21825000Y-34325000D03*
%TD*%
D10*
%TO.P,SWL16,*%
%TO.N,*%
X106963000Y-63475000D03*
D11*
%TO.P,SWL16,1*%
%TO.N,L_ROW2*%
X105663000Y-74525000D03*
%TO.P,SWL16,2*%
%TO.N,L_K16_D*%
X93263000Y-72425000D03*
%TD*%
D10*
%TO.P,SWL6,*%
%TO.N,*%
X130775000Y-25375000D03*
D11*
%TO.P,SWL6,1*%
%TO.N,L_ROW0*%
X129475000Y-36425000D03*
%TO.P,SWL6,2*%
%TO.N,L_K6_D*%
X117075000Y-34325000D03*
%TD*%
D10*
%TO.P,SWL25,*%
%TO.N,*%
X37906000Y-101575000D03*
D11*
%TO.P,SWL25,1*%
%TO.N,L_ROW4*%
X36606000Y-112625000D03*
%TO.P,SWL25,2*%
%TO.N,L_K25_D*%
X24206000Y-110525000D03*
%TD*%
D10*
%TO.P,SWL20,*%
%TO.N,*%
X78388000Y-82525000D03*
D11*
%TO.P,SWL20,1*%
%TO.N,L_ROW3*%
X77088000Y-93575000D03*
%TO.P,SWL20,2*%
%TO.N,L_K20_D*%
X64688000Y-91475000D03*
%TD*%
D10*
%TO.P,SWL4,*%
%TO.N,*%
X92675000Y-25375000D03*
D11*
%TO.P,SWL4,1*%
%TO.N,L_ROW0*%
X91375000Y-36425000D03*
%TO.P,SWL4,2*%
%TO.N,L_K4_D*%
X78975000Y-34325000D03*
%TD*%
D10*
%TO.P,SWL22,*%
%TO.N,*%
X116487000Y-82525000D03*
D11*
%TO.P,SWL22,1*%
%TO.N,L_ROW3*%
X115187000Y-93575000D03*
%TO.P,SWL22,2*%
%TO.N,L_K22_D*%
X102787000Y-91475000D03*
%TD*%
D10*
%TO.P,SWL13,*%
%TO.N,*%
X42669000Y-63475000D03*
D11*
%TO.P,SWL13,1*%
%TO.N,L_ROW2*%
X41369000Y-74525000D03*
%TO.P,SWL13,2*%
%TO.N,L_K13_D*%
X28969000Y-72425000D03*
%TD*%
D10*
%TO.P,SWL10,*%
%TO.N,*%
X102200000Y-44425000D03*
D11*
%TO.P,SWL10,1*%
%TO.N,L_ROW1*%
X100900000Y-55475000D03*
%TO.P,SWL10,2*%
%TO.N,L_K10_D*%
X88500000Y-53375000D03*
%TD*%
D10*
%TO.P,SWL3,*%
%TO.N,*%
X73625000Y-25375000D03*
D11*
%TO.P,SWL3,1*%
%TO.N,L_ROW0*%
X72325000Y-36425000D03*
%TO.P,SWL3,2*%
%TO.N,L_K3_D*%
X59925000Y-34325000D03*
%TD*%
D12*
%TO.P,DL15,1*%
%TO.N,L_K15_D*%
X74663000Y-65425000D03*
%TO.P,DL15,2*%
%TO.N,L_COL2*%
X77163000Y-65425000D03*
%TD*%
%TO.P,DL19,1*%
%TO.N,L_K19_D*%
X34181000Y-84475000D03*
%TO.P,DL19,2*%
%TO.N,L_COL0*%
X36681000Y-84475000D03*
%TD*%
%TO.P,DL21,1*%
%TO.N,L_K21_D*%
X84188000Y-84475000D03*
%TO.P,DL21,2*%
%TO.N,L_COL2*%
X86688000Y-84475000D03*
%TD*%
%TO.P,DL20,1*%
%TO.N,L_K20_D*%
X65138000Y-84475000D03*
%TO.P,DL20,2*%
%TO.N,L_COL1*%
X67638000Y-84475000D03*
%TD*%
D13*
%TO.P,SWP1,1*%
%TO.N,L_BAT_RAW*%
X13250000Y-70875000D03*
%TO.P,SWP1,2*%
%TO.N,L_BAT_SW*%
X13250000Y-67875000D03*
%TO.P,SWP1,3*%
%TO.N,N/C*%
X13250000Y-66375000D03*
D14*
%TO.P,SWP1,S1*%
X12465000Y-72275000D03*
%TO.P,SWP1,S2*%
X10535000Y-72275000D03*
%TO.P,SWP1,S3*%
X10535000Y-64975000D03*
%TO.P,SWP1,S4*%
X12465000Y-64975000D03*
%TD*%
D12*
%TO.P,DL13,1*%
%TO.N,L_K13_D*%
X29419000Y-65425000D03*
%TO.P,DL13,2*%
%TO.N,L_COL0*%
X31919000Y-65425000D03*
%TD*%
%TO.P,DL18,1*%
%TO.N,L_K18_D*%
X131812000Y-65425000D03*
%TO.P,DL18,2*%
%TO.N,L_COL5*%
X134312000Y-65425000D03*
%TD*%
%TO.P,DL28,1*%
%TO.N,L_K28_D*%
X93713000Y-103525000D03*
%TO.P,DL28,2*%
%TO.N,L_COL3*%
X96213000Y-103525000D03*
%TD*%
%TO.P,DL10,1*%
%TO.N,L_K10_D*%
X88950000Y-46375000D03*
%TO.P,DL10,2*%
%TO.N,L_COL3*%
X91450000Y-46375000D03*
%TD*%
%TO.P,DL27,1*%
%TO.N,L_K27_D*%
X72281000Y-103525000D03*
%TO.P,DL27,2*%
%TO.N,L_COL2*%
X74781000Y-103525000D03*
%TD*%
%TO.P,DL25,1*%
%TO.N,L_K25_D*%
X24656000Y-103525000D03*
%TO.P,DL25,2*%
%TO.N,L_COL0*%
X27156000Y-103525000D03*
%TD*%
D15*
%TO.P,J3,1*%
%TO.N,L_3V3*%
X129640000Y-116000000D03*
D16*
%TO.P,J3,2*%
%TO.N,L_GND*%
X130910000Y-116000000D03*
%TO.P,J3,3*%
%TO.N,L_JOY_X*%
X132180000Y-116000000D03*
%TO.P,J3,4*%
%TO.N,L_JOY_Y*%
X133450000Y-116000000D03*
%TO.P,J3,5*%
%TO.N,L_JOY_SW*%
X134720000Y-116000000D03*
%TO.P,J3,6*%
%TO.N,L_JOY_SDA*%
X135990000Y-116000000D03*
%TO.P,J3,7*%
%TO.N,L_JOY_SCL*%
X137260000Y-116000000D03*
%TD*%
D12*
%TO.P,DL17,1*%
%TO.N,L_K17_D*%
X112763000Y-65425000D03*
%TO.P,DL17,2*%
%TO.N,L_COL4*%
X115263000Y-65425000D03*
%TD*%
%TO.P,DL4,1*%
%TO.N,L_K4_D*%
X79425000Y-27325000D03*
%TO.P,DL4,2*%
%TO.N,L_COL3*%
X81925000Y-27325000D03*
%TD*%
D17*
%TO.P,DLED1,1*%
%TO.N,L_GND*%
X10350000Y-76800000D03*
%TO.P,DLED1,2*%
%TO.N,L_LED_A*%
X10350000Y-75200000D03*
%TD*%
D12*
%TO.P,DL3,1*%
%TO.N,L_K3_D*%
X60375000Y-27325000D03*
%TO.P,DL3,2*%
%TO.N,L_COL2*%
X62875000Y-27325000D03*
%TD*%
%TO.P,DL12,1*%
%TO.N,L_K12_D*%
X127050000Y-46375000D03*
%TO.P,DL12,2*%
%TO.N,L_COL5*%
X129550000Y-46375000D03*
%TD*%
%TO.P,DL7,1*%
%TO.N,L_K7_D*%
X27038000Y-46375000D03*
%TO.P,DL7,2*%
%TO.N,L_COL0*%
X29538000Y-46375000D03*
%TD*%
%TO.P,DL24,1*%
%TO.N,L_K24_D*%
X141338000Y-84475000D03*
%TO.P,DL24,2*%
%TO.N,L_COL5*%
X143838000Y-84475000D03*
%TD*%
%TO.P,DL5,1*%
%TO.N,L_K5_D*%
X98475000Y-27325000D03*
%TO.P,DL5,2*%
%TO.N,L_COL4*%
X100975000Y-27325000D03*
%TD*%
%TO.P,DL29,1*%
%TO.N,L_K29_D*%
X122288000Y-103525000D03*
%TO.P,DL29,2*%
%TO.N,L_COL4*%
X124788000Y-103525000D03*
%TD*%
%TO.P,DL22,1*%
%TO.N,L_K22_D*%
X103237000Y-84475000D03*
%TO.P,DL22,2*%
%TO.N,L_COL3*%
X105737000Y-84475000D03*
%TD*%
%TO.P,DL23,1*%
%TO.N,L_K23_D*%
X122288000Y-84475000D03*
%TO.P,DL23,2*%
%TO.N,L_COL4*%
X124788000Y-84475000D03*
%TD*%
%TO.P,DL9,1*%
%TO.N,L_K9_D*%
X69900000Y-46375000D03*
%TO.P,DL9,2*%
%TO.N,L_COL2*%
X72400000Y-46375000D03*
%TD*%
%TO.P,DL11,1*%
%TO.N,L_K11_D*%
X108000000Y-46375000D03*
%TO.P,DL11,2*%
%TO.N,L_COL4*%
X110500000Y-46375000D03*
%TD*%
D18*
%TO.P,U1,1*%
%TO.N,L_JOY_X*%
X12630000Y-95930000D03*
%TO.P,U1,2*%
%TO.N,L_JOY_Y*%
X15170000Y-95930000D03*
%TO.P,U1,3*%
%TO.N,L_JOY_SW*%
X17710000Y-95930000D03*
%TO.P,U1,4*%
%TO.N,L_ROW0*%
X20250000Y-95930000D03*
%TO.P,U1,5*%
%TO.N,L_JOY_SDA*%
X22790000Y-95930000D03*
%TO.P,U1,6*%
%TO.N,L_JOY_SCL*%
X25330000Y-95930000D03*
%TO.P,U1,7*%
%TO.N,L_ROW1*%
X27870000Y-95930000D03*
D19*
%TO.P,U1,8*%
%TO.N,L_ROW2*%
X27870000Y-79420000D03*
%TO.P,U1,9*%
%TO.N,L_ROW3*%
X25330000Y-79420000D03*
%TO.P,U1,10*%
%TO.N,L_ROW4*%
X22790000Y-79420000D03*
%TO.P,U1,11*%
%TO.N,L_COL0*%
X20250000Y-79420000D03*
%TO.P,U1,12*%
%TO.N,L_3V3*%
X17710000Y-79420000D03*
%TO.P,U1,13*%
%TO.N,L_GND*%
X15170000Y-79420000D03*
%TO.P,U1,14*%
%TO.N,N/C*%
X12630000Y-79420000D03*
D20*
%TO.P,U1,15*%
%TO.N,L_COL1*%
X13900000Y-96330000D03*
%TO.P,U1,16*%
%TO.N,L_COL2*%
X16440000Y-96330000D03*
%TO.P,U1,17*%
%TO.N,L_COL3*%
X18980000Y-96330000D03*
%TO.P,U1,18*%
%TO.N,L_COL4*%
X21520000Y-96330000D03*
%TO.P,U1,19*%
%TO.N,L_COL5*%
X24060000Y-96330000D03*
%TO.P,U1,20*%
%TO.N,N/C*%
X26600000Y-96330000D03*
D21*
%TO.P,U1,21*%
X26600000Y-79020000D03*
%TO.P,U1,22*%
X24060000Y-79020000D03*
%TO.P,U1,23*%
%TO.N,L_LED_CTRL*%
X21520000Y-79020000D03*
D22*
%TO.P,U1,24*%
%TO.N,N/C*%
X11677500Y-88945000D03*
%TO.P,U1,25*%
X11677500Y-86405000D03*
%TO.P,U1,26*%
X14217500Y-88945000D03*
%TO.P,U1,27*%
X14217500Y-86405000D03*
%TO.P,U1,28*%
X16694000Y-88945000D03*
%TO.P,U1,29*%
X16694000Y-86405000D03*
%TO.P,U1,30*%
X19234000Y-88945000D03*
%TO.P,U1,31*%
X19234000Y-86405000D03*
D23*
%TO.P,U1,32*%
%TO.N,L_BAT_SW*%
X25767820Y-89268988D03*
%TO.P,U1,33*%
%TO.N,L_GND*%
X25767820Y-86068990D03*
%TD*%
D24*
%TO.P,RLED1,1*%
%TO.N,L_LED_CTRL*%
X14600000Y-76825000D03*
%TO.P,RLED1,2*%
%TO.N,L_LED_A*%
X14600000Y-75175000D03*
%TD*%
D12*
%TO.P,DL1,1*%
%TO.N,L_K1_D*%
X22275000Y-27325000D03*
%TO.P,DL1,2*%
%TO.N,L_COL0*%
X24775000Y-27325000D03*
%TD*%
%TO.P,DL16,1*%
%TO.N,L_K16_D*%
X93713000Y-65425000D03*
%TO.P,DL16,2*%
%TO.N,L_COL3*%
X96213000Y-65425000D03*
%TD*%
%TO.P,DL6,1*%
%TO.N,L_K6_D*%
X117525000Y-27325000D03*
%TO.P,DL6,2*%
%TO.N,L_COL5*%
X120025000Y-27325000D03*
%TD*%
%TO.P,DL26,1*%
%TO.N,L_K26_D*%
X48469000Y-103525000D03*
%TO.P,DL26,2*%
%TO.N,L_COL1*%
X50969000Y-103525000D03*
%TD*%
%TO.P,DL14,1*%
%TO.N,L_K14_D*%
X55613000Y-65425000D03*
%TO.P,DL14,2*%
%TO.N,L_COL1*%
X58113000Y-65425000D03*
%TD*%
%TO.P,DL8,1*%
%TO.N,L_K8_D*%
X50850000Y-46375000D03*
%TO.P,DL8,2*%
%TO.N,L_COL1*%
X53350000Y-46375000D03*
%TD*%
D25*
%TO.P,J1,1*%
%TO.N,L_BAT_RAW*%
X57500000Y-92100000D03*
%TO.P,J1,2*%
%TO.N,L_GND*%
X56500000Y-92100000D03*
D26*
%TO.P,J1,MP1*%
%TO.N,N/C*%
X59000000Y-89700000D03*
%TO.P,J1,MP2*%
X55000000Y-89700000D03*
%TD*%
D12*
%TO.P,DL2,1*%
%TO.N,L_K2_D*%
X41325000Y-27325000D03*
%TO.P,DL2,2*%
%TO.N,L_COL1*%
X43825000Y-27325000D03*
%TD*%
D27*
%TO.N,L_ROW0*%
X35098600Y-81321600D03*
X19714900Y-84645600D03*
X104449900Y-36672200D03*
X92217000Y-38105900D03*
%TO.N,L_ROW1*%
X51908300Y-57401700D03*
X94715500Y-56503700D03*
X121638600Y-56503700D03*
X132728700Y-56503700D03*
X83536000Y-56503700D03*
X26633200Y-83245900D03*
X60873300Y-57401700D03*
X35951200Y-83070000D03*
%TO.N,L_ROW2*%
X122750400Y-76487600D03*
X89048400Y-76487600D03*
X68442700Y-76632000D03*
%TO.N,L_ROW3*%
X116885500Y-93963200D03*
X47980600Y-95424600D03*
X98437500Y-95407900D03*
X75751100Y-95426100D03*
%TO.N,L_COL0*%
X25962200Y-82593500D03*
X35005400Y-82354800D03*
%TO.N,L_COL1*%
X50969000Y-98370200D03*
X15381300Y-98370200D03*
%TO.N,L_COL2*%
X71228800Y-96450600D03*
X19388700Y-95300700D03*
%TO.N,L_COL3*%
X93464600Y-98828800D03*
X21390400Y-98828800D03*
%TO.N,L_COL4*%
X22365000Y-94526900D03*
X120214500Y-96010900D03*
%TO.N,L_COL5*%
X140870300Y-95264900D03*
X24373900Y-97471100D03*
%TO.N,L_JOY_X*%
X20126900Y-115547400D03*
%TO.N,L_JOY_Y*%
X19718000Y-115095700D03*
%TO.N,L_JOY_SW*%
X25615400Y-114619900D03*
%TO.N,L_JOY_SDA*%
X26981600Y-102643900D03*
%TO.N,L_JOY_SCL*%
X27201400Y-100268500D03*
%TO.N,L_3V3*%
X28501500Y-101438200D03*
X118549300Y-103200800D03*
%TO.N,L_GND*%
X39307500Y-89364400D03*
X60618300Y-97922800D03*
X125275300Y-105090000D03*
%TO.N,L_BAT_RAW*%
X16415500Y-74040500D03*
X48847900Y-80724200D03*
%TD*%
D28*
%TO.N,L_ROW0*%
X48577300Y-33729600D02*
X46500200Y-31652500D01*
X59784400Y-26565400D02*
X57898900Y-28450900D01*
X53275000Y-36425000D02*
X50579600Y-33729600D01*
X105887800Y-38361200D02*
X104449900Y-36923300D01*
X127540500Y-38359500D02*
X112359500Y-38359500D01*
X34431200Y-70483100D02*
X34947700Y-70999600D01*
X40681200Y-26588300D02*
X38848900Y-28420600D01*
X38233300Y-40433300D02*
X38233300Y-53077700D01*
X104449900Y-36923300D02*
X104449900Y-36672200D01*
X89426400Y-38373600D02*
X91375000Y-36425000D01*
X112359500Y-38359500D02*
X110425000Y-36425000D01*
X38233300Y-53077700D02*
X37370300Y-53940700D01*
X37370300Y-53940700D02*
X37370300Y-64142400D01*
X74273600Y-38373600D02*
X89426400Y-38373600D01*
X34431200Y-67081500D02*
X34431200Y-70483100D01*
X92217000Y-37267000D02*
X92217000Y-38105900D01*
X91375000Y-36425000D02*
X92217000Y-37267000D01*
X72325000Y-30059000D02*
X68831400Y-26565400D01*
X20351200Y-85281900D02*
X19714900Y-84645600D01*
X34947700Y-81170700D02*
X35098600Y-81321600D01*
X72325000Y-36425000D02*
X74273600Y-38373600D01*
X20351200Y-95828800D02*
X20351200Y-85281900D01*
X57898900Y-31801100D02*
X53275000Y-36425000D01*
X20250000Y-95930000D02*
X20351200Y-95828800D01*
X108488800Y-38361200D02*
X105887800Y-38361200D01*
X44454000Y-26588300D02*
X40681200Y-26588300D01*
X129475000Y-36425000D02*
X127540500Y-38359500D01*
X46500200Y-31652500D02*
X46500200Y-28634500D01*
X57898900Y-28450900D02*
X57898900Y-31801100D01*
X50579600Y-33729600D02*
X48577300Y-33729600D01*
X110425000Y-36425000D02*
X108488800Y-38361200D01*
X68831400Y-26565400D02*
X59784400Y-26565400D01*
X72325000Y-36425000D02*
X72325000Y-30059000D01*
X34225000Y-36425000D02*
X38233300Y-40433300D01*
X34947700Y-70999600D02*
X34947700Y-81170700D01*
X37370300Y-64142400D02*
X34431200Y-67081500D01*
X46500200Y-28634500D02*
X44454000Y-26588300D01*
X38848900Y-31801100D02*
X34225000Y-36425000D01*
X38848900Y-28420600D02*
X38848900Y-31801100D01*
%TO.N,L_ROW1*%
X38988000Y-62951500D02*
X38988000Y-55475000D01*
X100900000Y-55475000D02*
X98973300Y-57401700D01*
X82878700Y-56503700D02*
X81850000Y-55475000D01*
X98973300Y-57401700D02*
X95613500Y-57401700D01*
X102840800Y-57415800D02*
X118009200Y-57415800D01*
X100900000Y-55475000D02*
X102840800Y-57415800D01*
X137073300Y-57401700D02*
X133626700Y-57401700D01*
X139000000Y-55475000D02*
X137073300Y-57401700D01*
X28346300Y-101924300D02*
X28756700Y-101924300D01*
X64740800Y-57415800D02*
X79909200Y-57415800D01*
X35249400Y-70874600D02*
X34732900Y-70358100D01*
X120978700Y-56503700D02*
X119950000Y-55475000D01*
X35951200Y-76117700D02*
X35249400Y-75415900D01*
X95613500Y-57401700D02*
X94715500Y-56503700D01*
X28953800Y-101727200D02*
X28953800Y-85337700D01*
X28953800Y-85337700D02*
X26862000Y-83245900D01*
X79909200Y-57415800D02*
X81850000Y-55475000D01*
X133626700Y-57401700D02*
X132728700Y-56503700D01*
X38988000Y-55475000D02*
X49981600Y-55475000D01*
X34732900Y-67206600D02*
X38988000Y-62951500D01*
X35249400Y-75415900D02*
X35249400Y-70874600D01*
X26862000Y-83245900D02*
X26633200Y-83245900D01*
X62800000Y-55475000D02*
X60873300Y-57401700D01*
X27870000Y-95930000D02*
X27870000Y-101448000D01*
X62800000Y-55475000D02*
X64740800Y-57415800D01*
X35951200Y-83070000D02*
X35951200Y-76117700D01*
X49981600Y-55475000D02*
X51908300Y-57401700D01*
X118009200Y-57415800D02*
X119950000Y-55475000D01*
X28756700Y-101924300D02*
X28953800Y-101727200D01*
X83536000Y-56503700D02*
X82878700Y-56503700D01*
X34732900Y-70358100D02*
X34732900Y-67206600D01*
X121638600Y-56503700D02*
X120978700Y-56503700D01*
X27870000Y-101448000D02*
X28346300Y-101924300D01*
%TO.N,L_ROW2*%
X124713000Y-74525000D02*
X126661400Y-76473400D01*
X35310200Y-84465700D02*
X36094100Y-85249600D01*
X124713000Y-74525000D02*
X122750400Y-76487600D01*
X105663000Y-74525000D02*
X103700400Y-76487600D01*
X89048400Y-76487600D02*
X88575600Y-76487600D01*
X126661400Y-76473400D02*
X141813600Y-76473400D01*
X68442700Y-75404700D02*
X68442700Y-76632000D01*
X27870000Y-79420000D02*
X30889000Y-79420000D01*
X141813600Y-76473400D02*
X143762000Y-74525000D01*
X67563000Y-74525000D02*
X68442700Y-75404700D01*
X41369000Y-81145500D02*
X41369000Y-76460700D01*
X103700400Y-76487600D02*
X89048400Y-76487600D01*
X41369000Y-76460700D02*
X65627300Y-76460700D01*
X30889000Y-79420000D02*
X35310200Y-83841200D01*
X36094100Y-85249600D02*
X37264900Y-85249600D01*
X65627300Y-76460700D02*
X67563000Y-74525000D01*
X35310200Y-83841200D02*
X35310200Y-84465700D01*
X88575600Y-76487600D02*
X86613000Y-74525000D01*
X37264900Y-85249600D02*
X41369000Y-81145500D01*
X41369000Y-76460700D02*
X41369000Y-74525000D01*
%TO.N,L_ROW3*%
X118475200Y-95552900D02*
X116885500Y-93963200D01*
X136379600Y-95716600D02*
X151146400Y-95716600D01*
X44146500Y-91590500D02*
X46131000Y-93575000D01*
X35008500Y-84595000D02*
X36599200Y-86185700D01*
X96604600Y-93575000D02*
X98437500Y-95407900D01*
X77088000Y-93575000D02*
X79014700Y-95501700D01*
X115575200Y-93963200D02*
X115187000Y-93575000D01*
X38795400Y-89508400D02*
X40877500Y-91590500D01*
X34406400Y-83364100D02*
X35008500Y-83966200D01*
X132260100Y-95552900D02*
X118475200Y-95552900D01*
X35008500Y-83966200D02*
X35008500Y-84595000D01*
X29274100Y-83364100D02*
X34406400Y-83364100D01*
X75751100Y-95426100D02*
X77088000Y-94089200D01*
X38795400Y-87686400D02*
X38795400Y-89508400D01*
X134238000Y-93575000D02*
X136379600Y-95716600D01*
X77088000Y-94089200D02*
X77088000Y-93575000D01*
X151146400Y-95716600D02*
X153288000Y-93575000D01*
X46131000Y-93575000D02*
X47980600Y-95424600D01*
X96138000Y-93575000D02*
X96604600Y-93575000D01*
X36599200Y-86185700D02*
X37294700Y-86185700D01*
X134238000Y-93575000D02*
X132260100Y-95552900D01*
X94211300Y-95501700D02*
X96138000Y-93575000D01*
X79014700Y-95501700D02*
X94211300Y-95501700D01*
X40877500Y-91590500D02*
X44146500Y-91590500D01*
X116885500Y-93963200D02*
X115575200Y-93963200D01*
X37294700Y-86185700D02*
X38795400Y-87686400D01*
X25330000Y-79420000D02*
X29274100Y-83364100D01*
%TO.N,L_ROW4*%
X103736300Y-114551700D02*
X105663000Y-112625000D01*
X62389300Y-114595300D02*
X82260700Y-114595300D01*
X36606000Y-112625000D02*
X36606000Y-97782900D01*
X82260700Y-114595300D02*
X84231000Y-112625000D01*
X38576300Y-114595300D02*
X58448700Y-114595300D01*
X86157700Y-114551700D02*
X103736300Y-114551700D01*
X123171000Y-103278700D02*
X123171000Y-103030600D01*
X84231000Y-112625000D02*
X86157700Y-114551700D01*
X29557200Y-85087700D02*
X25922700Y-81453200D01*
X24823200Y-81453200D02*
X22790000Y-79420000D01*
X36606000Y-97782900D02*
X29557200Y-90734100D01*
X115539400Y-102748600D02*
X105663000Y-112625000D01*
X122889000Y-102748600D02*
X115539400Y-102748600D01*
X123171000Y-103030600D02*
X122889000Y-102748600D01*
X25922700Y-81453200D02*
X24823200Y-81453200D01*
X125366400Y-104302500D02*
X124194800Y-104302500D01*
X60419000Y-112625000D02*
X62389300Y-114595300D01*
X124194800Y-104302500D02*
X123171000Y-103278700D01*
X126838000Y-102830900D02*
X125366400Y-104302500D01*
X58448700Y-114595300D02*
X60419000Y-112625000D01*
X29557200Y-90734100D02*
X29557200Y-85087700D01*
X126838000Y-100825000D02*
X126838000Y-102830900D01*
X36606000Y-112625000D02*
X38576300Y-114595300D01*
%TO.N,L_COL0*%
X29255500Y-101852200D02*
X29255500Y-85212700D01*
X29538000Y-46375000D02*
X32301900Y-49138900D01*
X34129500Y-67635500D02*
X34129500Y-70608100D01*
X27156000Y-103525000D02*
X27582700Y-103525000D01*
X26636300Y-82593500D02*
X25962200Y-82593500D01*
X27627600Y-44464600D02*
X29538000Y-46375000D01*
X34646000Y-81995400D02*
X35005400Y-82354800D01*
X32301900Y-65042100D02*
X31919000Y-65425000D01*
X36681000Y-84475000D02*
X35005400Y-82799400D01*
X27450200Y-32823300D02*
X27627600Y-33000700D01*
X23423500Y-82593500D02*
X25962200Y-82593500D01*
X31919000Y-65425000D02*
X34129500Y-67635500D01*
X34646000Y-71124600D02*
X34646000Y-81995400D01*
X24775000Y-27325000D02*
X27450200Y-30000200D01*
X20250000Y-79420000D02*
X23423500Y-82593500D01*
X27627600Y-33000700D02*
X27627600Y-44464600D01*
X34129500Y-70608100D02*
X34646000Y-71124600D01*
X27450200Y-30000200D02*
X27450200Y-32823300D01*
X29255500Y-85212700D02*
X26636300Y-82593500D01*
X35005400Y-82799400D02*
X35005400Y-82354800D01*
X32301900Y-49138900D02*
X32301900Y-65042100D01*
X27582700Y-103525000D02*
X29255500Y-101852200D01*
%TO.N,L_COL1*%
X50973300Y-98374500D02*
X60805400Y-98374500D01*
X53350000Y-46375000D02*
X55007400Y-48032400D01*
X56439000Y-63751000D02*
X58113000Y-65425000D01*
X55007400Y-48032400D02*
X55007400Y-51195100D01*
X56439000Y-52626700D02*
X56439000Y-63751000D01*
X63269300Y-72181200D02*
X59958700Y-68870600D01*
X66234300Y-92945600D02*
X66234300Y-85878700D01*
X13900000Y-96888900D02*
X15381300Y-98370200D01*
X55007400Y-51195100D02*
X56439000Y-52626700D01*
X46198500Y-29698500D02*
X46198500Y-32449100D01*
X43825000Y-27325000D02*
X46198500Y-29698500D01*
X59958700Y-67270700D02*
X58113000Y-65425000D01*
X69101400Y-73434400D02*
X67848200Y-72181200D01*
X50969000Y-98370200D02*
X50973300Y-98374500D01*
X46806400Y-33057000D02*
X46806400Y-39831400D01*
X67638000Y-84475000D02*
X69101400Y-83011600D01*
X60805400Y-98374500D02*
X66234300Y-92945600D01*
X46806400Y-39831400D02*
X53350000Y-46375000D01*
X13900000Y-96330000D02*
X13900000Y-96888900D01*
X50969000Y-103525000D02*
X50969000Y-98370200D01*
X46198500Y-32449100D02*
X46806400Y-33057000D01*
X66234300Y-85878700D02*
X67638000Y-84475000D01*
X69101400Y-83011600D02*
X69101400Y-73434400D01*
X67848200Y-72181200D02*
X63269300Y-72181200D01*
X59958700Y-68870600D02*
X59958700Y-67270700D01*
%TO.N,L_COL2*%
X65699800Y-31830500D02*
X64720700Y-30851400D01*
X77163000Y-65425000D02*
X84001800Y-58586200D01*
X71228800Y-96450600D02*
X71228800Y-99972800D01*
X84001800Y-54997800D02*
X82135200Y-53131200D01*
X83466600Y-81253600D02*
X80144400Y-77931400D01*
X75330800Y-94461500D02*
X75330800Y-92448900D01*
X18774900Y-94686900D02*
X19388700Y-95300700D01*
X79525900Y-67787900D02*
X77163000Y-65425000D01*
X84001800Y-58586200D02*
X84001800Y-54997800D01*
X64720700Y-30851400D02*
X64720700Y-29170700D01*
X80144400Y-77931400D02*
X80144400Y-71229500D01*
X77556300Y-53131200D02*
X74245700Y-49820600D01*
X77292400Y-90487300D02*
X77292400Y-87427800D01*
X82135200Y-53131200D02*
X77556300Y-53131200D01*
X74245700Y-49820600D02*
X74245700Y-48220700D01*
X64720700Y-29170700D02*
X62875000Y-27325000D01*
X79525900Y-70611000D02*
X79525900Y-67787900D01*
X16440000Y-95408000D02*
X17161100Y-94686900D01*
X16440000Y-96330000D02*
X16440000Y-95408000D01*
X17161100Y-94686900D02*
X18774900Y-94686900D01*
X75330800Y-92448900D02*
X77292400Y-90487300D01*
X65699800Y-39674800D02*
X65699800Y-31830500D01*
X73341700Y-96450600D02*
X75330800Y-94461500D01*
X71228800Y-99972800D02*
X74781000Y-103525000D01*
X71228800Y-96450600D02*
X73341700Y-96450600D01*
X77292400Y-87427800D02*
X83466600Y-81253600D01*
X80144400Y-71229500D02*
X79525900Y-70611000D01*
X74245700Y-48220700D02*
X72400000Y-46375000D01*
X86688000Y-84475000D02*
X83466600Y-81253600D01*
X72400000Y-46375000D02*
X65699800Y-39674800D01*
%TO.N,L_COL3*%
X105737000Y-84475000D02*
X107279900Y-82932100D01*
X18980000Y-96418400D02*
X21390400Y-98828800D01*
X91450000Y-46375000D02*
X92962500Y-44862500D01*
X94538900Y-56965800D02*
X94539000Y-56965800D01*
X18980000Y-96330000D02*
X18980000Y-96418400D01*
X96213000Y-103525000D02*
X96213000Y-101577200D01*
X95765700Y-101129800D02*
X104333300Y-92562200D01*
X104333300Y-92562200D02*
X104333300Y-85878700D01*
X92962500Y-35355600D02*
X91688100Y-34081200D01*
X107279900Y-73479600D02*
X105429300Y-71629000D01*
X105429300Y-71629000D02*
X100788100Y-71629000D01*
X83770700Y-30770600D02*
X83770700Y-29170700D01*
X94539000Y-56965800D02*
X94539000Y-63751000D01*
X107279900Y-82932100D02*
X107279900Y-73479600D01*
X94539000Y-63751000D02*
X96213000Y-65425000D01*
X91450000Y-46375000D02*
X94263800Y-49188800D01*
X87081300Y-34081200D02*
X83770700Y-30770600D01*
X98058700Y-67270700D02*
X96213000Y-65425000D01*
X91688100Y-34081200D02*
X87081300Y-34081200D01*
X92962500Y-44862500D02*
X92962500Y-35355600D01*
X83770700Y-29170700D02*
X81925000Y-27325000D01*
X95765700Y-101129800D02*
X93464600Y-98828800D01*
X100788100Y-71629000D02*
X98058700Y-68899600D01*
X98058700Y-68899600D02*
X98058700Y-67270700D01*
X96213000Y-101577200D02*
X95765700Y-101129800D01*
X94263800Y-56690700D02*
X94538900Y-56965800D01*
X94263800Y-49188800D02*
X94263800Y-56690700D01*
X104333300Y-85878700D02*
X105737000Y-84475000D01*
%TO.N,L_COL4*%
X117625900Y-70611000D02*
X117625900Y-67787900D01*
X120235200Y-53131200D02*
X115656300Y-53131200D01*
X120214500Y-98951500D02*
X120214500Y-96010900D01*
X117625900Y-67787900D02*
X115263000Y-65425000D01*
X21520000Y-95371900D02*
X22365000Y-94526900D01*
X118244400Y-77931400D02*
X118244400Y-71229500D01*
X122101800Y-54997800D02*
X120235200Y-53131200D01*
X113616800Y-91450200D02*
X113616800Y-94691300D01*
X112345700Y-48220700D02*
X110500000Y-46375000D01*
X120405200Y-80092200D02*
X124788000Y-84475000D01*
X112345700Y-49820600D02*
X112345700Y-48220700D01*
X102820700Y-29170700D02*
X100975000Y-27325000D01*
X113616800Y-94691300D02*
X114936400Y-96010900D01*
X120405200Y-81118700D02*
X115514400Y-86009500D01*
X115514400Y-89552600D02*
X113616800Y-91450200D01*
X115514400Y-86009500D02*
X115514400Y-89552600D01*
X124788000Y-103525000D02*
X120214500Y-98951500D01*
X103799800Y-39674800D02*
X103799800Y-31830500D01*
X110500000Y-46375000D02*
X103799800Y-39674800D01*
X114936400Y-96010900D02*
X120214500Y-96010900D01*
X118244400Y-71229500D02*
X117625900Y-70611000D01*
X102820700Y-30851400D02*
X102820700Y-29170700D01*
X21520000Y-96330000D02*
X21520000Y-95371900D01*
X120405200Y-80092200D02*
X120405200Y-81118700D01*
X103799800Y-31830500D02*
X102820700Y-30851400D01*
X120405200Y-80092200D02*
X118244400Y-77931400D01*
X115263000Y-65425000D02*
X122101800Y-58586200D01*
X122101800Y-58586200D02*
X122101800Y-54997800D01*
X115656300Y-53131200D02*
X112345700Y-49820600D01*
%TO.N,L_COL5*%
X124600100Y-33529000D02*
X121870700Y-30799600D01*
X129550000Y-46375000D02*
X132277000Y-49102000D01*
X143838000Y-84475000D02*
X145348000Y-82965000D01*
X24060000Y-97157200D02*
X24373900Y-97471100D01*
X129550000Y-46375000D02*
X131088800Y-44836200D01*
X24060000Y-96330000D02*
X24060000Y-97157200D01*
X136157700Y-68870600D02*
X136157700Y-67270700D01*
X121870700Y-30799600D02*
X121870700Y-29170700D01*
X132277000Y-49102000D02*
X132277000Y-63390000D01*
X136157700Y-67270700D02*
X134312000Y-65425000D01*
X131088800Y-44836200D02*
X131088800Y-35404300D01*
X131088800Y-35404300D02*
X129213500Y-33529000D01*
X140870300Y-95264900D02*
X142434300Y-93700900D01*
X139468300Y-72181200D02*
X136157700Y-68870600D01*
X144044800Y-72181200D02*
X139468300Y-72181200D01*
X132277000Y-63390000D02*
X134312000Y-65425000D01*
X145348000Y-82965000D02*
X145348000Y-73484400D01*
X142434300Y-93700900D02*
X142434300Y-85878700D01*
X142434300Y-85878700D02*
X143838000Y-84475000D01*
X129213500Y-33529000D02*
X124600100Y-33529000D01*
X121870700Y-29170700D02*
X120025000Y-27325000D01*
X145348000Y-73484400D02*
X144044800Y-72181200D01*
%TO.N,L_JOY_X*%
X12630000Y-105891600D02*
X19188100Y-112449700D01*
X12630000Y-95930000D02*
X12630000Y-105891600D01*
X19188100Y-115240900D02*
X19494600Y-115547400D01*
X19494600Y-115547400D02*
X20126900Y-115547400D01*
X19188100Y-112449700D02*
X19188100Y-115240900D01*
%TO.N,L_JOY_Y*%
X15170000Y-95930000D02*
X15170000Y-97440100D01*
X16694500Y-108806000D02*
X19718000Y-111829500D01*
X15170000Y-97440100D02*
X16694500Y-98964600D01*
X16694500Y-98964600D02*
X16694500Y-108806000D01*
X19718000Y-111829500D02*
X19718000Y-115095700D01*
%TO.N,L_JOY_SW*%
X17710000Y-106714500D02*
X25615400Y-114619900D01*
X17710000Y-95930000D02*
X17710000Y-106714500D01*
%TO.N,L_JOY_SDA*%
X22790000Y-98452300D02*
X26981600Y-102643900D01*
X22790000Y-95930000D02*
X22790000Y-98452300D01*
%TO.N,L_JOY_SCL*%
X25330000Y-95930000D02*
X25330000Y-98397100D01*
X25330000Y-98397100D02*
X27201400Y-100268500D01*
%TO.N,L_3V3*%
X26872600Y-83697600D02*
X28607200Y-85432200D01*
X129640000Y-116000000D02*
X129640000Y-114291500D01*
X21987600Y-83697600D02*
X26872600Y-83697600D01*
X28607200Y-101332500D02*
X28501500Y-101438200D01*
X28607200Y-85432200D02*
X28607200Y-101332500D01*
X129640000Y-114291500D02*
X118549300Y-103200800D01*
X17710000Y-79420000D02*
X21987600Y-83697600D01*
%TO.N,L_GND*%
X21819000Y-86069000D02*
X15170000Y-79420000D01*
X56500000Y-93804500D02*
X56500000Y-92100000D01*
X25767800Y-86069000D02*
X21819000Y-86069000D01*
X12550000Y-76800000D02*
X15170000Y-79420000D01*
X60618300Y-97922800D02*
X56500000Y-93804500D01*
X56500000Y-92100000D02*
X55628500Y-91228500D01*
X126633700Y-107262300D02*
X126633700Y-106448400D01*
X130910000Y-116000000D02*
X130910000Y-111538600D01*
X10350000Y-76800000D02*
X12550000Y-76800000D01*
X55628500Y-91228500D02*
X41171600Y-91228500D01*
X126633700Y-106448400D02*
X125275300Y-105090000D01*
X41171600Y-91228500D02*
X39307500Y-89364400D01*
X130910000Y-111538600D02*
X126633700Y-107262300D01*
%TO.N,L_BAT_SW*%
X16874200Y-70522500D02*
X16874200Y-74266700D01*
X13250000Y-67875000D02*
X14226700Y-67875000D01*
X16874200Y-74266700D02*
X15140900Y-76000000D01*
X14294100Y-77679500D02*
X15222500Y-77679500D01*
X25767800Y-89269000D02*
X28094500Y-89269000D01*
X28094500Y-85368100D02*
X28094500Y-89269000D01*
X15938100Y-79404500D02*
X20532900Y-83999300D01*
X15938100Y-78395100D02*
X15938100Y-79404500D01*
X26725700Y-83999300D02*
X28094500Y-85368100D01*
X13820700Y-76361900D02*
X13820700Y-77206100D01*
X14182600Y-76000000D02*
X13820700Y-76361900D01*
X14226700Y-67875000D02*
X16874200Y-70522500D01*
X20532900Y-83999300D02*
X26725700Y-83999300D01*
X15222500Y-77679500D02*
X15938100Y-78395100D01*
X15140900Y-76000000D02*
X14182600Y-76000000D01*
X13820700Y-77206100D02*
X14294100Y-77679500D01*
%TO.N,L_BAT_RAW*%
X57500000Y-89376300D02*
X57500000Y-92100000D01*
X14226700Y-71851700D02*
X16415500Y-74040500D01*
X14226700Y-70875000D02*
X14226700Y-71851700D01*
X13250000Y-70875000D02*
X14226700Y-70875000D01*
X48847900Y-80724200D02*
X57500000Y-89376300D01*
%TO.N,L_K1_D*%
X22275000Y-27325000D02*
X21825000Y-27775000D01*
X21825000Y-27775000D02*
X21825000Y-34325000D01*
%TO.N,L_K2_D*%
X41325000Y-27325000D02*
X40875000Y-27775000D01*
X40875000Y-27775000D02*
X40875000Y-34325000D01*
%TO.N,L_K3_D*%
X60375000Y-27325000D02*
X59925000Y-27775000D01*
X59925000Y-27775000D02*
X59925000Y-34325000D01*
%TO.N,L_K4_D*%
X78975000Y-27775000D02*
X78975000Y-34325000D01*
X79425000Y-27325000D02*
X78975000Y-27775000D01*
%TO.N,L_K5_D*%
X98475000Y-27325000D02*
X98025000Y-27775000D01*
X98025000Y-27775000D02*
X98025000Y-34325000D01*
%TO.N,L_K6_D*%
X117075000Y-27775000D02*
X117075000Y-34325000D01*
X117525000Y-27325000D02*
X117075000Y-27775000D01*
%TO.N,L_K7_D*%
X27038000Y-46375000D02*
X26588000Y-46825000D01*
X26588000Y-46825000D02*
X26588000Y-53375000D01*
%TO.N,L_K8_D*%
X50850000Y-46375000D02*
X50400000Y-46825000D01*
X50400000Y-46825000D02*
X50400000Y-53375000D01*
%TO.N,L_K9_D*%
X69450000Y-46825000D02*
X69450000Y-53375000D01*
X69900000Y-46375000D02*
X69450000Y-46825000D01*
%TO.N,L_K10_D*%
X88950000Y-46375000D02*
X88500000Y-46825000D01*
X88500000Y-46825000D02*
X88500000Y-53375000D01*
%TO.N,L_K11_D*%
X107550000Y-46825000D02*
X107550000Y-53375000D01*
X108000000Y-46375000D02*
X107550000Y-46825000D01*
%TO.N,L_K12_D*%
X127050000Y-46375000D02*
X126600000Y-46825000D01*
X126600000Y-46825000D02*
X126600000Y-53375000D01*
%TO.N,L_K13_D*%
X29419000Y-71975000D02*
X28969000Y-72425000D01*
X29419000Y-65425000D02*
X29419000Y-71975000D01*
%TO.N,L_K14_D*%
X55613000Y-65425000D02*
X55163000Y-65875000D01*
X55163000Y-65875000D02*
X55163000Y-72425000D01*
%TO.N,L_K15_D*%
X74663000Y-65425000D02*
X74213000Y-65875000D01*
X74213000Y-65875000D02*
X74213000Y-72425000D01*
%TO.N,L_K16_D*%
X93713000Y-65425000D02*
X93263000Y-65875000D01*
X93263000Y-65875000D02*
X93263000Y-72425000D01*
%TO.N,L_K17_D*%
X112763000Y-65425000D02*
X112313000Y-65875000D01*
X112313000Y-65875000D02*
X112313000Y-72425000D01*
%TO.N,L_K18_D*%
X131812000Y-65425000D02*
X131362000Y-65875000D01*
X131362000Y-65875000D02*
X131362000Y-72425000D01*
%TO.N,L_K19_D*%
X33731000Y-84925000D02*
X33731000Y-91475000D01*
X34181000Y-84475000D02*
X33731000Y-84925000D01*
%TO.N,L_K20_D*%
X65138000Y-91025000D02*
X64688000Y-91475000D01*
X65138000Y-84475000D02*
X65138000Y-91025000D01*
%TO.N,L_K21_D*%
X84188000Y-84475000D02*
X84188000Y-91025000D01*
X84188000Y-91025000D02*
X83738000Y-91475000D01*
%TO.N,L_K22_D*%
X103237000Y-91025000D02*
X102787000Y-91475000D01*
X103237000Y-84475000D02*
X103237000Y-91025000D01*
%TO.N,L_K23_D*%
X121838000Y-84925000D02*
X121838000Y-91475000D01*
X122288000Y-84475000D02*
X121838000Y-84925000D01*
%TO.N,L_K24_D*%
X141338000Y-84475000D02*
X141338000Y-91025000D01*
X141338000Y-91025000D02*
X140888000Y-91475000D01*
%TO.N,L_K25_D*%
X24206000Y-103975000D02*
X24206000Y-110525000D01*
X24656000Y-103525000D02*
X24206000Y-103975000D01*
%TO.N,L_K26_D*%
X48019000Y-103975000D02*
X48019000Y-110525000D01*
X48469000Y-103525000D02*
X48019000Y-103975000D01*
%TO.N,L_K27_D*%
X72281000Y-103525000D02*
X71831000Y-103975000D01*
X71831000Y-103975000D02*
X71831000Y-110525000D01*
%TO.N,L_K28_D*%
X93263000Y-103975000D02*
X93263000Y-110525000D01*
X93713000Y-103525000D02*
X93263000Y-103975000D01*
%TO.N,L_K29_D*%
X127768300Y-103775300D02*
X132388300Y-103775300D01*
X122288000Y-103525000D02*
X123396600Y-104633600D01*
X123396600Y-104633600D02*
X126910000Y-104633600D01*
X126910000Y-104633600D02*
X127768300Y-103775300D01*
X133489700Y-104876700D02*
X137286300Y-104876700D01*
X137286300Y-104876700D02*
X139238000Y-102925000D01*
X132388300Y-103775300D02*
X133489700Y-104876700D01*
%TO.N,L_LED_CTRL*%
X14600000Y-76825000D02*
X19472500Y-76825000D01*
X19472500Y-76825000D02*
X21520000Y-78872500D01*
X21520000Y-78872500D02*
X21520000Y-79020000D01*
%TO.N,L_LED_A*%
X10375000Y-75175000D02*
X10350000Y-75200000D01*
X14600000Y-75175000D02*
X10375000Y-75175000D01*
%TD*%
M02*
