%TF.GenerationSoftware,KiCad,Pcbnew,9.0.6*%
%TF.CreationDate,2026-08-20T21:11:53+09:00*%
%TF.ProjectId,SplitChoc64_LEFT,53706c69-7443-4686-9f63-36345f4c4546,rev?*%
%TF.SameCoordinates,Original*%
%TF.FileFunction,Copper,L1,Top*%
%TF.FilePolarity,Positive*%
%FSLAX46Y46*%
G04 Gerber Fmt 4.6, Leading zero omitted, Abs format (unit mm)*
G04 Created by KiCad (PCBNEW 9.0.6) date 2026-08-20 21:11:53*
%MOMM*%
%LPD*%
G01*
G04 APERTURE LIST*
%TA.AperFunction,ComponentPad*%
%ADD10C,1.650000*%
%TD*%
%TA.AperFunction,ComponentPad*%
%ADD11R,1.100000X1.100000*%
%TD*%
%TA.AperFunction,ComponentPad*%
%ADD12C,1.100000*%
%TD*%
%TA.AperFunction,ComponentPad*%
%ADD13O,4.200000X2.600000*%
%TD*%
%TA.AperFunction,ViaPad*%
%ADD14C,0.450000*%
%TD*%
%TA.AperFunction,Conductor*%
%ADD15C,0.150000*%
%TD*%
G04 APERTURE END LIST*
D10*
%TO.P,SWL2,*%
%TO.N,*%
X54575000Y-25375000D03*
%TD*%
%TO.P,SWL11,*%
%TO.N,*%
X121250000Y-44425000D03*
%TD*%
%TO.P,SWL28,*%
%TO.N,*%
X106963000Y-101575000D03*
%TD*%
%TO.P,SWL9,*%
%TO.N,*%
X83150000Y-44425000D03*
%TD*%
%TO.P,SWL15,*%
%TO.N,*%
X87913000Y-63475000D03*
%TD*%
%TO.P,SWL26,*%
%TO.N,*%
X61719000Y-101575000D03*
%TD*%
%TO.P,SWL23,*%
%TO.N,*%
X135538000Y-82525000D03*
%TD*%
%TO.P,SWL7,*%
%TO.N,*%
X40288000Y-44425000D03*
%TD*%
%TO.P,SWL21,*%
%TO.N,*%
X97438000Y-82525000D03*
%TD*%
%TO.P,SWL29,*%
%TO.N,*%
X125538000Y-111875000D03*
%TD*%
%TO.P,SWL24,*%
%TO.N,*%
X154588000Y-82525000D03*
%TD*%
%TO.P,SWL18,*%
%TO.N,*%
X145062000Y-63475000D03*
%TD*%
%TO.P,SWL8,*%
%TO.N,*%
X64100000Y-44425000D03*
%TD*%
%TO.P,SWL14,*%
%TO.N,*%
X68863000Y-63475000D03*
%TD*%
%TO.P,SWL12,*%
%TO.N,*%
X140300000Y-44425000D03*
%TD*%
%TO.P,SWL19,*%
%TO.N,*%
X47431000Y-82525000D03*
%TD*%
%TO.P,SWL17,*%
%TO.N,*%
X126013000Y-63475000D03*
%TD*%
%TO.P,SWL27,*%
%TO.N,*%
X85531000Y-101575000D03*
%TD*%
%TO.P,SWL5,*%
%TO.N,*%
X111725000Y-25375000D03*
%TD*%
%TO.P,SWL1,*%
%TO.N,*%
X35525000Y-25375000D03*
%TD*%
%TO.P,SWL16,*%
%TO.N,*%
X106963000Y-63475000D03*
%TD*%
%TO.P,SWL6,*%
%TO.N,*%
X130775000Y-25375000D03*
%TD*%
%TO.P,SWL25,*%
%TO.N,*%
X37906000Y-101575000D03*
%TD*%
%TO.P,SWL20,*%
%TO.N,*%
X78388000Y-82525000D03*
%TD*%
%TO.P,SWL4,*%
%TO.N,*%
X92675000Y-25375000D03*
%TD*%
%TO.P,SWL22,*%
%TO.N,*%
X116487000Y-82525000D03*
%TD*%
%TO.P,SWL13,*%
%TO.N,*%
X42669000Y-63475000D03*
%TD*%
%TO.P,SWL10,*%
%TO.N,*%
X102200000Y-44425000D03*
%TD*%
%TO.P,SWL3,*%
%TO.N,*%
X73625000Y-25375000D03*
%TD*%
D11*
%TO.P,J3,1*%
%TO.N,L_3V3*%
X129640000Y-116000000D03*
D12*
%TO.P,J3,2*%
%TO.N,L_GND*%
X130910000Y-116000000D03*
%TO.P,J3,3*%
%TO.N,L_JOY_X*%
X132180000Y-116000000D03*
%TO.P,J3,4*%
%TO.N,L_JOY_Y*%
X133450000Y-116000000D03*
%TO.P,J3,5*%
%TO.N,L_JOY_SW*%
X134720000Y-116000000D03*
%TO.P,J3,6*%
%TO.N,L_JOY_SDA*%
X135990000Y-116000000D03*
%TO.P,J3,7*%
%TO.N,L_JOY_SCL*%
X137260000Y-116000000D03*
%TD*%
D13*
%TO.P,U1,32*%
%TO.N,L_BAT_SW*%
X25767820Y-89268988D03*
%TO.P,U1,33*%
%TO.N,L_GND*%
X25767820Y-86068990D03*
%TD*%
D14*
%TO.N,L_ROW0*%
X35098600Y-81321600D03*
X19714900Y-84645600D03*
X104449900Y-36672200D03*
X92217000Y-38105900D03*
%TO.N,L_ROW1*%
X51908300Y-57401700D03*
X94715500Y-56503700D03*
X121638600Y-56503700D03*
X132728700Y-56503700D03*
X83536000Y-56503700D03*
X26633200Y-83245900D03*
X60873300Y-57401700D03*
X35951200Y-83070000D03*
%TO.N,L_ROW2*%
X122750400Y-76487600D03*
X89048400Y-76487600D03*
X68442700Y-76632000D03*
%TO.N,L_ROW3*%
X116885500Y-93963200D03*
X47980600Y-95424600D03*
X98437500Y-95407900D03*
X75751100Y-95426100D03*
%TO.N,L_COL0*%
X25962200Y-82593500D03*
X35005400Y-82354800D03*
%TO.N,L_COL1*%
X50969000Y-98370200D03*
X15381300Y-98370200D03*
%TO.N,L_COL2*%
X71228800Y-96450600D03*
X19388700Y-95300700D03*
%TO.N,L_COL3*%
X93464600Y-98828800D03*
X21390400Y-98828800D03*
%TO.N,L_COL4*%
X22365000Y-94526900D03*
X120214500Y-96010900D03*
%TO.N,L_COL5*%
X140870300Y-95264900D03*
X24373900Y-97471100D03*
%TO.N,L_JOY_X*%
X20126900Y-115547400D03*
%TO.N,L_JOY_Y*%
X19718000Y-115095700D03*
%TO.N,L_JOY_SW*%
X25615400Y-114619900D03*
%TO.N,L_JOY_SDA*%
X26981600Y-102643900D03*
%TO.N,L_JOY_SCL*%
X27201400Y-100268500D03*
%TO.N,L_3V3*%
X28501500Y-101438200D03*
X118549300Y-103200800D03*
%TO.N,L_GND*%
X39307500Y-89364400D03*
X60618300Y-97922800D03*
X125275300Y-105090000D03*
%TO.N,L_BAT_RAW*%
X16415500Y-74040500D03*
X48847900Y-80724200D03*
%TD*%
D15*
%TO.N,L_ROW0*%
X104449900Y-36672200D02*
X93650700Y-36672200D01*
X35098600Y-81321600D02*
X23038900Y-81321600D01*
X23038900Y-81321600D02*
X19714900Y-84645600D01*
X93650700Y-36672200D02*
X92217000Y-38105900D01*
%TO.N,L_ROW1*%
X132728700Y-56503700D02*
X121638600Y-56503700D01*
X94715500Y-56503700D02*
X83536000Y-56503700D01*
X35775300Y-83245900D02*
X35951200Y-83070000D01*
X26633200Y-83245900D02*
X35775300Y-83245900D01*
X51908300Y-57401700D02*
X60873300Y-57401700D01*
%TO.N,L_ROW2*%
X89048400Y-76487600D02*
X122750400Y-76487600D01*
X88904000Y-76632000D02*
X89048400Y-76487600D01*
X68442700Y-76632000D02*
X88904000Y-76632000D01*
%TO.N,L_ROW3*%
X75675500Y-95501700D02*
X48057700Y-95501700D01*
X48057700Y-95501700D02*
X47980600Y-95424600D01*
X98531300Y-95501700D02*
X98437500Y-95407900D01*
X116885500Y-93963200D02*
X115347000Y-95501700D01*
X115347000Y-95501700D02*
X98531300Y-95501700D01*
X75751100Y-95426100D02*
X75675500Y-95501700D01*
%TO.N,L_COL0*%
X26200900Y-82354800D02*
X35005400Y-82354800D01*
X25962200Y-82593500D02*
X26200900Y-82354800D01*
%TO.N,L_COL1*%
X50969000Y-98370200D02*
X15381300Y-98370200D01*
%TO.N,L_COL2*%
X20538600Y-96450600D02*
X71228800Y-96450600D01*
X19388700Y-95300700D02*
X20538600Y-96450600D01*
%TO.N,L_COL3*%
X93464600Y-98828800D02*
X21390400Y-98828800D01*
%TO.N,L_COL4*%
X120081400Y-95877800D02*
X120214500Y-96010900D01*
X22365000Y-94526900D02*
X23715900Y-95877800D01*
X23715900Y-95877800D02*
X120081400Y-95877800D01*
%TO.N,L_COL5*%
X140870300Y-95264900D02*
X138664100Y-97471100D01*
X138664100Y-97471100D02*
X24373900Y-97471100D01*
%TO.N,L_JOY_X*%
X131403300Y-115223300D02*
X132180000Y-116000000D01*
X127902500Y-115547400D02*
X128226600Y-115223300D01*
X20126900Y-115547400D02*
X127902500Y-115547400D01*
X128226600Y-115223300D02*
X131403300Y-115223300D01*
%TO.N,L_JOY_Y*%
X19718000Y-115095700D02*
X127927500Y-115095700D01*
X128101600Y-114921600D02*
X132371600Y-114921600D01*
X127927500Y-115095700D02*
X128101600Y-114921600D01*
X132371600Y-114921600D02*
X133450000Y-116000000D01*
%TO.N,L_JOY_SW*%
X25615400Y-114619900D02*
X133339900Y-114619900D01*
X133339900Y-114619900D02*
X134720000Y-116000000D01*
%TO.N,L_JOY_SDA*%
X27283300Y-102945600D02*
X115121300Y-102945600D01*
X26981600Y-102643900D02*
X27283300Y-102945600D01*
X126493900Y-114318200D02*
X134308200Y-114318200D01*
X134308200Y-114318200D02*
X135990000Y-116000000D01*
X115121300Y-102945600D02*
X126493900Y-114318200D01*
%TO.N,L_JOY_SCL*%
X130470800Y-114016500D02*
X135276500Y-114016500D01*
X116722800Y-100268500D02*
X130470800Y-114016500D01*
X27201400Y-100268500D02*
X116722800Y-100268500D01*
X135276500Y-114016500D02*
X137260000Y-116000000D01*
%TO.N,L_3V3*%
X29707100Y-102643800D02*
X117992300Y-102643800D01*
X117992300Y-102643800D02*
X118549300Y-103200800D01*
X28501500Y-101438200D02*
X29707100Y-102643800D01*
%TO.N,L_GND*%
X118108100Y-97922800D02*
X125275300Y-105090000D01*
X25767800Y-86069000D02*
X28094500Y-86069000D01*
X60618300Y-97922800D02*
X118108100Y-97922800D01*
X28094500Y-86069000D02*
X31389900Y-89364400D01*
X31389900Y-89364400D02*
X39307500Y-89364400D01*
%TO.N,L_BAT_RAW*%
X23099200Y-80724200D02*
X16415500Y-74040500D01*
X48847900Y-80724200D02*
X23099200Y-80724200D01*
%TD*%
M02*
